<svg width="20" height="20" viewBox="0 0 20 20" fill="none" xmlns="http://www.w3.org/2000/svg">
<path d="M10.2305 6.60599H17.4303C17.4303 5.27962 15.8199 4.20605 13.8304 4.20605C11.8408 4.20605 10.2305 5.27962 10.2305 6.60599Z" stroke="white" stroke-linecap="round" stroke-linejoin="round"/>
<path d="M10.2304 6.60599C10.2304 5.27962 8.62008 4.20605 6.63054 4.20605C4.64099 4.20605 3.03064 5.27962 3.03064 6.60599H7.09611" stroke="white" stroke-linecap="round" stroke-linejoin="round"/>
<path d="M12.4463 4.39001L15.3214 1.5149C14.3831 0.576527 12.4855 0.956505 11.0792 2.36367C10.1392 3.30364 9.65759 4.46281 9.72159 5.40758" stroke="white" stroke-linecap="round" stroke-linejoin="round"/>
<path d="M5.14016 11.697L10.2312 6.60596C9.29281 5.66759 7.39528 6.04758 5.98892 7.45474C4.58176 8.8619 4.20258 10.7595 5.14016 11.697Z" stroke="white" stroke-linecap="round" stroke-linejoin="round"/>
<path d="M10.8305 6.60596C13.8304 8.20031 15.0304 12.3674 15.0304 19H12.6304C12.6304 12.7818 11.7208 8.38431 9.97449 6.86995" stroke="white" stroke-linecap="round" stroke-linejoin="round"/>
<path d="M10.2305 17.8001C8.7305 17.8001 8.7305 16.6001 7.23054 16.6001C5.73059 16.6001 5.73059 17.8001 4.23063 17.8001C2.73067 17.8001 2.73067 16.6001 1.23071 16.6001" stroke="white" stroke-linecap="round" stroke-linejoin="round"/>
<path d="M10.2305 17.7999C11.4776 17.7999 11.688 16.9712 12.5848 16.6912" stroke="white" stroke-linecap="round" stroke-linejoin="round"/>
<path d="M16.2303 17.8001C15.6599 17.8001 15.3063 17.6265 15.0055 17.4121" stroke="white" stroke-linecap="round" stroke-linejoin="round"/>
<path d="M16.2303 17.8001C17.7303 17.8001 17.7303 16.6001 19.2303 16.6001" stroke="white" stroke-linecap="round" stroke-linejoin="round"/>
<path d="M10.2305 15.4002C8.7305 15.4002 8.7305 14.2002 7.23054 14.2002C5.73059 14.2002 5.73059 15.4002 4.23063 15.4002C2.73067 15.4002 2.73067 14.2002 1.23071 14.2002" stroke="white" stroke-linecap="round" stroke-linejoin="round"/>
<path d="M10.2305 15.4002C11.3552 15.4002 11.6368 14.725 12.34 14.3875" stroke="white" stroke-linecap="round" stroke-linejoin="round"/>
<path d="M16.2303 15.4C15.5551 15.4 15.1839 15.1568 14.8431 14.8896" stroke="white" stroke-linecap="round" stroke-linejoin="round"/>
<path d="M16.2303 15.4002C17.7303 15.4002 17.7303 14.2002 19.2303 14.2002" stroke="white" stroke-linecap="round" stroke-linejoin="round"/>
</svg>
