<svg width="14" height="14" viewBox="0 0 14 14" fill="none" xmlns="http://www.w3.org/2000/svg">
<path fill-rule="evenodd" clip-rule="evenodd" d="M0.878052 6.99991C0.878052 3.50339 3.72299 0.658447 7.21952 0.658447C10.716 0.658447 13.561 3.50339 13.561 6.99991C13.561 10.4964 10.716 13.3414 7.21952 13.3414C3.72299 13.3414 0.878052 10.4964 0.878052 6.99991ZM9.60311 4.3793C10.3237 4.2382 11.026 4.02339 11.7093 3.75229C10.8722 2.59893 9.60549 1.78168 8.14378 1.53436C8.81122 2.40711 9.29714 3.3718 9.60311 4.3793ZM9.01415 8.72796C7.82354 8.56467 6.6147 8.56467 5.42409 8.72796C5.17994 7.59125 5.17915 6.41491 5.4225 5.27741C6.01384 5.35826 6.61153 5.41454 7.21951 5.41454C7.8275 5.41454 8.42439 5.35826 9.01573 5.27741C9.25909 6.41491 9.2583 7.59125 9.01415 8.72796ZM5.62939 4.50217C6.68445 4.63851 7.75378 4.63851 8.80884 4.50217C8.48384 3.48278 7.95354 2.5165 7.21951 1.6604C6.48549 2.5165 5.95439 3.48278 5.62939 4.50217ZM6.29366 1.53436C5.62622 2.40711 5.1411 3.3718 4.83512 4.3793C4.11537 4.2382 3.41305 4.02339 2.72976 3.75229C3.56604 2.59893 4.83275 1.78168 6.29366 1.53436ZM2.3025 4.43796C1.90141 5.20528 1.67073 6.07564 1.67073 6.99991C1.67073 7.92497 1.90141 8.79534 2.3025 9.56424C3.05872 9.25351 3.83952 9.01015 4.63854 8.85083C4.3833 7.63168 4.3833 6.37369 4.63775 5.15534C3.83793 4.99442 3.06031 4.74948 2.3025 4.43796ZM2.72976 10.2475C3.41305 9.97644 4.11537 9.76162 4.83512 9.62052C5.1411 10.628 5.62702 11.5927 6.29445 12.4655C4.83275 12.2181 3.56604 11.4009 2.72976 10.2475ZM8.80884 9.49765C7.75378 9.36131 6.68445 9.36131 5.63019 9.49765C5.95519 10.517 6.48549 11.4833 7.21952 12.3394C7.95275 11.4833 8.48384 10.517 8.80884 9.49765ZM8.14378 12.4655C8.81122 11.5927 9.29714 10.628 9.60311 9.62052C10.3229 9.76162 11.026 9.97723 11.7093 10.2475C10.8722 11.4009 9.60549 12.2181 8.14378 12.4655ZM9.80049 5.15454C10.0557 6.3729 10.0549 7.63089 9.7997 8.84924C10.5995 9.00936 11.3803 9.25272 12.1365 9.56265C12.5376 8.79534 12.7683 7.92497 12.7683 6.99991C12.7683 6.07564 12.5376 5.20528 12.1365 4.43717C11.3787 4.74948 10.6003 4.99363 9.80049 5.15454Z" fill="#606161"/>
</svg>
