<svg width="20" height="21" viewBox="0 0 20 21" fill="none" xmlns="http://www.w3.org/2000/svg">
<path fill-rule="evenodd" clip-rule="evenodd" d="M5 0.5C2.23858 0.5 0 2.73858 0 5.5V15.5C0 18.2614 2.23858 20.5 5 20.5H15C17.7614 20.5 20 18.2614 20 15.5V5.5C20 2.73858 17.7614 0.5 15 0.5H5ZM16 5.5C16.5523 5.5 17 5.05228 17 4.5C17 3.94772 16.5523 3.5 16 3.5C15.4477 3.5 15 3.94772 15 4.5C15 5.05228 15.4477 5.5 16 5.5ZM15 10.5C15 13.2614 12.7614 15.5 10 15.5C7.23858 15.5 5 13.2614 5 10.5C5 7.73858 7.23858 5.5 10 5.5C12.7614 5.5 15 7.73858 15 10.5ZM10 13.5C11.6569 13.5 13 12.1569 13 10.5C13 8.84315 11.6569 7.5 10 7.5C8.34315 7.5 7 8.84315 7 10.5C7 12.1569 8.34315 13.5 10 13.5Z" fill="#0A0A0A"/>
</svg>
