<svg width="20" height="20" viewBox="0 0 20 20" fill="none" xmlns="http://www.w3.org/2000/svg">
<path fill-rule="evenodd" clip-rule="evenodd" d="M3.30927 9.42846H7.16789C8.46813 9.42846 9.52593 8.37066 9.52593 7.07041V3.2118C9.52593 1.91156 8.46813 0.85376 7.16789 0.85376H3.30927C2.00903 0.85376 0.951233 1.91156 0.951233 3.2118V7.07041C0.951233 8.37066 2.00903 9.42846 3.30927 9.42846ZM2.09453 3.2118C2.09453 2.54197 2.63945 1.99705 3.30927 1.99705H7.16789C7.83771 1.99705 8.38264 2.54197 8.38264 3.2118V7.07041C8.38264 7.74024 7.83771 8.28516 7.16789 8.28516H3.30927C2.63945 8.28516 2.09453 7.74024 2.09453 7.07041V3.2118Z" fill="white"/>
<path fill-rule="evenodd" clip-rule="evenodd" d="M13.0273 9.42846H16.8859C18.1861 9.42846 19.2439 8.37066 19.2439 7.07041V3.2118C19.2439 1.91156 18.1861 0.85376 16.8859 0.85376H13.0273C11.727 0.85376 10.6693 1.91156 10.6693 3.2118V7.07041C10.6693 8.37066 11.727 9.42846 13.0273 9.42846ZM11.8125 3.2118C11.8125 2.54197 12.3575 1.99705 13.0273 1.99705H16.8859C17.5557 1.99705 18.1007 2.54197 18.1007 3.2118V7.07041C18.1007 7.74024 17.5557 8.28516 16.8859 8.28516H13.0273C12.3575 8.28516 11.8125 7.74024 11.8125 7.07041V3.2118Z" fill="white"/>
<path fill-rule="evenodd" clip-rule="evenodd" d="M10.6693 14.8591C10.6693 17.2232 12.5926 19.1465 14.9566 19.1465C17.3206 19.1465 19.2439 17.2232 19.2439 14.8591C19.2439 12.4951 17.3206 10.5718 14.9566 10.5718C12.5926 10.5718 10.6693 12.4951 10.6693 14.8591ZM11.8125 14.8591C11.8125 13.1255 13.223 11.7151 14.9566 11.7151C16.6902 11.7151 18.1007 13.1255 18.1007 14.8591C18.1007 16.5927 16.6902 18.0032 14.9566 18.0032C13.223 18.0032 11.8125 16.5927 11.8125 14.8591Z" fill="white"/>
<path fill-rule="evenodd" clip-rule="evenodd" d="M3.30927 19.1465H7.16789C8.46813 19.1465 9.52593 18.0887 9.52593 16.7884V12.9298C9.52593 11.6296 8.46813 10.5718 7.16789 10.5718H3.30927C2.00903 10.5718 0.951233 11.6296 0.951233 12.9298V16.7884C0.951233 18.0887 2.00903 19.1465 3.30927 19.1465ZM2.09453 12.9298C2.09453 12.26 2.63945 11.7151 3.30927 11.7151H7.16789C7.83771 11.7151 8.38264 12.26 8.38264 12.9298V16.7884C8.38264 17.4583 7.83771 18.0032 7.16789 18.0032H3.30927C2.63945 18.0032 2.09453 17.4583 2.09453 16.7884V12.9298Z" fill="white"/>
</svg>
