<svg width="20" height="21" viewBox="0 0 20 21" fill="none" xmlns="http://www.w3.org/2000/svg">
<path d="M7.00525 5.49649H5.24271L13.0259 15.5035H14.7885L7.00525 5.49649Z" fill="#0A0A0A"/>
<path fill-rule="evenodd" clip-rule="evenodd" d="M4 0.5C1.79086 0.5 0 2.29086 0 4.5V16.5C0 18.7092 1.79086 20.5 4 20.5H16C18.2091 20.5 20 18.7092 20 16.5V4.5C20 2.29086 18.2091 0.5 16 0.5H4ZM8.56268 11.0983L3.58469 4.69797H7.42133L10.6848 8.89392L14.7238 4.69797H15.8513L11.1885 9.54181L16.4467 16.3021H12.6101L9.06659 11.746L4.68082 16.3021H3.55331L8.56268 11.0983Z" fill="#0A0A0A"/>
</svg>
