<svg width="121" height="50" viewBox="0 0 121 50" fill="none" xmlns="http://www.w3.org/2000/svg">
<g clip-path="url(#clip0_6370_35385)">
<path fill-rule="evenodd" clip-rule="evenodd" d="M8.90412 23.4973C8.67211 22.9302 8.36479 22.4437 7.98369 22.0383C7.60221 21.6332 7.17965 21.3156 6.71678 21.0844C6.25352 20.8543 5.76212 20.717 5.24296 20.6736C4.72303 20.6306 4.20463 20.6957 3.68775 20.8691C3.17049 21.0425 2.71788 21.3027 2.32917 21.6507C1.94084 21.9987 1.63125 22.4038 1.40076 22.867C1.16989 23.3303 1.03221 23.8392 0.986951 24.3941C0.941691 24.9498 0.995319 25.5176 1.14745 26.0977L8.90412 23.4973ZM6.88375 30.2776C6.19039 30.5104 5.50159 30.5902 4.81774 30.5176C4.13389 30.4457 3.49568 30.2456 2.90196 29.9186C2.30825 29.5911 1.78491 29.1602 1.33154 28.6243C0.878554 28.0891 0.533585 27.468 0.297014 26.7617C0.0642453 26.0684 -0.0316005 25.3746 0.00909592 24.6801C0.0501727 23.986 0.207634 23.3371 0.482239 22.7328C0.756465 22.1284 1.14289 21.5959 1.64076 21.1342C2.13824 20.6725 2.72777 20.3279 3.40858 20.0993C4.10232 19.8669 4.79112 19.787 5.47459 19.8597C6.15844 19.932 6.79171 20.1267 7.37515 20.4431C7.95821 20.76 8.47205 21.1837 8.91667 21.7146C9.36129 22.2463 9.69789 22.8526 9.92647 23.5338C9.94739 23.5969 9.97401 23.6756 10.0056 23.7704C10.0372 23.8647 10.0508 23.9271 10.047 23.956L1.42016 26.8484C1.64798 27.4034 1.9572 27.8853 2.34705 28.2949C2.7369 28.7041 3.16402 29.0274 3.62956 29.2644C4.09471 29.5013 4.58839 29.6447 5.10984 29.6938C5.63167 29.7436 6.15083 29.6816 6.6681 29.5082C7.00888 29.3941 7.32684 29.2347 7.62313 29.0301C7.91941 28.8258 8.18185 28.5938 8.41081 28.3348C8.6394 28.0758 8.82501 27.7928 8.96763 27.4851C9.11026 27.1782 9.19774 26.8648 9.23121 26.5449L10.1398 26.4924C10.1193 26.8922 10.0231 27.2858 9.85154 27.673C9.67963 28.0606 9.4499 28.4215 9.16237 28.7562C8.87483 29.0913 8.53671 29.3906 8.148 29.6538C7.75929 29.9174 7.33787 30.1258 6.88375 30.2776Z" fill="#606161"/>
<path fill-rule="evenodd" clip-rule="evenodd" d="M11.1034 19.9973L14.4553 24.2868L14.6151 24.5667L14.7748 24.2868L18.107 19.9973H19.2244L15.194 25.2049L19.2043 30.3726H18.107L14.7748 26.1029L14.6151 25.8435L14.4553 26.1029L11.1236 30.3726H10.0259L14.0362 25.2049L10.0057 19.9973H11.1034Z" fill="#606161"/>
<path fill-rule="evenodd" clip-rule="evenodd" d="M24.1729 29.6747C24.6118 29.6747 25.0207 29.6013 25.3998 29.4548C25.779 29.3084 26.1282 29.1156 26.4473 28.876C26.7664 28.6367 27.0562 28.3545 27.3152 28.0282C27.5746 27.7022 27.7975 27.3595 27.9839 27.0009V23.6086C27.9303 23.223 27.7842 22.8574 27.545 22.511C27.3054 22.1652 27.0095 21.8594 26.6569 21.5932C26.3043 21.3273 25.9217 21.1143 25.5098 20.9546C25.0971 20.7949 24.6917 20.715 24.2923 20.715C23.694 20.715 23.1418 20.8447 22.6363 21.1045C22.1304 21.3635 21.695 21.7031 21.3294 22.1222C20.9636 22.541 20.681 23.0233 20.4813 23.5687C20.282 24.1141 20.182 24.666 20.182 25.2251C20.182 25.8233 20.282 26.3889 20.4813 26.921C20.681 27.4531 20.9567 27.9251 21.3097 28.3374C21.6615 28.7497 22.081 29.076 22.5663 29.3152C23.052 29.5549 23.5871 29.6747 24.1729 29.6747ZM23.9135 30.5723C23.195 30.5723 22.5465 30.4224 21.968 30.1235C21.3892 29.8241 20.8905 29.4252 20.4714 28.9262C20.0526 28.4275 19.7297 27.8555 19.5038 27.2101C19.2771 26.565 19.1646 25.8967 19.1646 25.2049C19.1646 24.4864 19.2942 23.8014 19.5533 23.1495C19.813 22.498 20.1652 21.926 20.611 21.4338C21.0567 20.9417 21.582 20.5492 22.1875 20.2563C22.7926 19.9642 23.4411 19.8174 24.1329 19.8174C24.9442 19.8174 25.7022 20.0334 26.4074 20.4659C27.1125 20.8983 27.6644 21.4407 28.0638 22.0918V19.9973H28.9815V33.186C28.9815 33.5184 29.1211 33.6914 29.4007 33.7051V34.5826C29.3337 34.5959 29.274 34.6027 29.2208 34.6027H29.0614C28.7552 34.6027 28.4992 34.5061 28.2931 34.3133C28.0866 34.1205 27.9839 33.8645 27.9839 33.5454V28.1377C26.8931 29.7614 25.536 30.5723 23.9135 30.5723Z" fill="#606161"/>
<path fill-rule="evenodd" clip-rule="evenodd" d="M34.5086 30.5724C32.3003 30.5724 31.1962 29.0431 31.1962 25.9832V19.9971H32.1938V25.8433C32.1938 28.3973 33.0648 29.6748 34.8079 29.6748C35.2464 29.6748 35.6724 29.598 36.0847 29.4451C36.497 29.2922 36.883 29.0792 37.2421 28.8065C37.6011 28.5342 37.9168 28.2044 38.1899 27.8188C38.4626 27.4331 38.6786 27.0075 38.8383 26.5416V19.9971H39.836V28.9761C39.836 29.3086 39.9756 29.4748 40.2551 29.4748V30.3728C40.1882 30.3861 40.1285 30.3925 40.0752 30.3925H39.9558C39.6896 30.3925 39.4534 30.31 39.2472 30.143C39.0411 29.9776 38.938 29.7543 38.938 29.4748V27.9184C38.4858 28.7567 37.8639 29.4082 37.0724 29.8737C36.2809 30.3397 35.4263 30.5724 34.5086 30.5724Z" fill="#606161"/>
<path fill-rule="evenodd" clip-rule="evenodd" d="M42.2104 30.3725H43.2081V19.9972H42.2104V30.3725ZM42.2104 17.6425H43.2081V15.8066H42.2104V17.6425Z" fill="#606161"/>
<path fill-rule="evenodd" clip-rule="evenodd" d="M48.8345 30.5725C48.0362 30.5725 47.2713 30.439 46.5399 30.1732C45.8081 29.9073 45.1695 29.5083 44.6245 28.9762L45.1231 28.2981C45.6819 28.8035 46.2604 29.1755 46.859 29.4148C47.4577 29.6544 48.116 29.7738 48.8345 29.7738C49.739 29.7738 50.4669 29.5848 51.0192 29.2056C51.571 28.8264 51.8472 28.2981 51.8472 27.6192C51.8472 27.3001 51.7776 27.0304 51.638 26.8109C51.498 26.5915 51.2888 26.4055 51.0093 26.2526C50.7301 26.0997 50.384 25.9632 49.9717 25.8434C49.5594 25.7239 49.0802 25.5973 48.5352 25.4642C47.9495 25.3318 47.4406 25.1983 47.0085 25.0652C46.5764 24.9324 46.2204 24.7731 45.9413 24.5867C45.6617 24.4 45.4521 24.1744 45.3125 23.9082C45.173 23.6419 45.1034 23.3027 45.1034 22.8904C45.1034 22.3716 45.203 21.9194 45.4027 21.5333C45.602 21.1477 45.8781 20.8286 46.2303 20.5756C46.5829 20.3235 46.9887 20.1337 47.4478 20.0074C47.9065 19.8811 48.3956 19.8176 48.914 19.8176C49.7253 19.8176 50.4437 19.9542 51.069 20.2269C51.6943 20.4996 52.1796 20.8487 52.5257 21.2743L51.967 21.8129C51.6213 21.4139 51.1721 21.1146 50.6202 20.9149C50.0683 20.7152 49.4796 20.6156 48.8543 20.6156C48.4682 20.6156 48.1061 20.6555 47.7669 20.7358C47.4276 20.8153 47.1317 20.9419 46.8788 21.1146C46.6262 21.2876 46.4266 21.5105 46.2805 21.7832C46.1337 22.0555 46.0611 22.3785 46.0611 22.7508C46.0611 23.0566 46.1109 23.3027 46.2105 23.4891C46.3102 23.6754 46.4699 23.8348 46.6894 23.9679C46.9092 24.101 47.1914 24.2174 47.5375 24.3171C47.8833 24.4163 48.2956 24.5266 48.7744 24.646C49.4263 24.8058 50.0048 24.9587 50.5107 25.1051C51.0158 25.2515 51.4383 25.4311 51.7776 25.6441C52.1165 25.8571 52.3762 26.11 52.5558 26.4021C52.7353 26.6949 52.825 27.0673 52.825 27.5199C52.825 28.451 52.4626 29.1923 51.7376 29.7441C51.0123 30.2964 50.0447 30.5725 48.8345 30.5725Z" fill="#606161"/>
<path fill-rule="evenodd" clip-rule="evenodd" d="M54.3413 30.3725H55.3389V19.9972H54.3413V30.3725ZM54.3413 17.6425H55.3389V15.8066H54.3413V17.6425Z" fill="#606161"/>
<path fill-rule="evenodd" clip-rule="evenodd" d="M62.3024 29.8737C62.2492 29.9007 62.1598 29.9506 62.0331 30.0236C61.9065 30.097 61.7468 30.1666 61.5543 30.2328C61.3611 30.2997 61.1451 30.3594 60.9062 30.4127C60.6666 30.4656 60.4072 30.4926 60.1273 30.4926C59.8481 30.4926 59.5853 30.4526 59.3392 30.3728C59.0931 30.2929 58.8771 30.1731 58.6907 30.0133C58.5047 29.854 58.3583 29.6611 58.2518 29.4352C58.1453 29.2089 58.0924 28.9431 58.0924 28.6365V20.8152H56.6357V19.9971H58.0924V16.4451H59.0901V19.9971H61.5045V20.8152H59.0901V28.3973C59.0901 28.7833 59.2228 29.0727 59.4891 29.2652C59.7549 29.4584 60.0539 29.5546 60.3867 29.5546C60.7989 29.5546 61.1549 29.485 61.4547 29.3451C61.754 29.2055 61.9365 29.1157 62.0031 29.0758L62.3024 29.8737Z" fill="#606161"/>
<path fill-rule="evenodd" clip-rule="evenodd" d="M71.4812 24.7855C71.4413 24.1743 71.3048 23.6152 71.072 23.1097C70.8392 22.6047 70.5399 22.1688 70.174 21.8025C69.8081 21.437 69.3859 21.151 68.9071 20.9445C68.4283 20.7383 67.9159 20.6356 67.3705 20.6356C66.8251 20.6356 66.3132 20.7383 65.8343 20.9445C65.3555 21.151 64.9333 21.437 64.567 21.8025C64.2012 22.1688 63.9087 22.6077 63.6896 23.1196C63.4701 23.632 63.3404 24.1872 63.3005 24.7855H71.4812ZM67.4108 30.5724C66.6791 30.5724 66.0005 30.429 65.3756 30.143C64.75 29.8574 64.2084 29.4649 63.7493 28.9658C63.2902 28.4672 62.9312 27.8918 62.6718 27.2399C62.4124 26.5883 62.2827 25.8897 62.2827 25.1449C62.2827 24.4136 62.4124 23.7251 62.6718 23.0801C62.9312 22.4346 63.2872 21.8695 63.7394 21.3841C64.1913 20.8981 64.7272 20.5158 65.3456 20.2367C65.964 19.9571 66.6327 19.8171 67.3507 19.8171C68.0821 19.8171 68.7607 19.9601 69.386 20.2462C70.0108 20.5322 70.5498 20.9182 71.0024 21.4035C71.4542 21.8896 71.8068 22.4548 72.0597 23.0995C72.3123 23.7449 72.4389 24.4265 72.4389 25.1449V25.3944C72.4389 25.4941 72.4321 25.5572 72.4188 25.5839H63.3203C63.3602 26.1825 63.4998 26.7382 63.7394 27.2497C63.9787 27.7621 64.281 28.2044 64.6473 28.5771C65.0128 28.9495 65.4354 29.2424 65.9142 29.4546C66.393 29.6676 66.905 29.7737 67.4504 29.7737C67.8098 29.7737 68.162 29.7242 68.5081 29.6246C68.8539 29.5246 69.1768 29.3884 69.4761 29.2153C69.775 29.0427 70.0413 28.8331 70.274 28.5866C70.5064 28.3409 70.6894 28.0717 70.8225 27.7788L71.7007 28.0184C71.5539 28.3908 71.3382 28.7335 71.0522 29.0457C70.7662 29.3584 70.4334 29.6276 70.0546 29.8539C69.675 30.0802 69.2597 30.2563 68.8075 30.3826C68.3548 30.5089 67.8893 30.5724 67.4108 30.5724Z" fill="#606161"/>
<path fill-rule="evenodd" clip-rule="evenodd" d="M35.5726 40.1627C35.533 39.5515 35.3961 38.9924 35.1637 38.4869C34.9309 37.9819 34.6312 37.546 34.2657 37.1801C33.8998 36.8142 33.4773 36.5282 32.9984 36.3217C32.5196 36.1155 32.0072 36.0128 31.4622 36.0128C30.9168 36.0128 30.4049 36.1155 29.9256 36.3217C29.4468 36.5282 29.0246 36.8142 28.6587 37.1801C28.2925 37.546 28.0004 37.9849 27.7809 38.4968C27.5614 39.0092 27.4317 39.5644 27.3918 40.1627H35.5726ZM31.5022 45.9496C30.7704 45.9496 30.0918 45.8066 29.4669 45.5206C28.8413 45.2346 28.2997 44.8421 27.8406 44.343C27.3819 43.8444 27.0225 43.269 26.7631 42.6171C26.5037 41.9655 26.374 41.2672 26.374 40.5221C26.374 39.7907 26.5037 39.1023 26.7631 38.4573C27.0225 37.8118 27.3785 37.2467 27.8307 36.7613C28.2826 36.2753 28.8185 35.893 29.4369 35.6139C30.0557 35.3343 30.724 35.1943 31.4424 35.1943C32.1735 35.1943 32.852 35.3373 33.4773 35.6234C34.1025 35.9098 34.6411 36.2954 35.0937 36.7807C35.5459 37.2668 35.8981 37.832 36.1511 38.4767C36.4036 39.1221 36.5303 39.8037 36.5303 40.5221V40.7716C36.5303 40.8713 36.5234 40.9344 36.5105 40.9611H27.4116C27.4515 41.5597 27.5911 42.1154 27.8307 42.6273C28.07 43.1393 28.3727 43.5816 28.7386 43.9543C29.1045 44.3267 29.5267 44.6196 30.0055 44.8318C30.4847 45.0448 30.9963 45.1513 31.5421 45.1513C31.9011 45.1513 32.2533 45.1014 32.5998 45.0018C32.9452 44.9018 33.2681 44.766 33.5674 44.5925C33.8663 44.4199 34.1326 44.2103 34.3654 43.9638C34.5977 43.7181 34.7807 43.4489 34.9142 43.156L35.792 43.3956C35.6456 43.768 35.4295 44.1107 35.1435 44.4229C34.8575 44.7356 34.5251 45.0048 34.1459 45.2311C33.7667 45.4574 33.351 45.6339 32.8988 45.7598C32.4465 45.8861 31.981 45.9496 31.5022 45.9496Z" fill="#606161"/>
<path fill-rule="evenodd" clip-rule="evenodd" d="M41.2191 45.9495C40.4208 45.9495 39.6559 45.816 38.9246 45.5501C38.1928 45.2842 37.5542 44.8853 37.0092 44.3532L37.5078 43.675C38.0665 44.1805 38.6454 44.5529 39.244 44.7917C39.8423 45.0313 40.5011 45.1511 41.2191 45.1511C42.1236 45.1511 42.8519 44.9617 43.4042 44.5825C43.9561 44.2033 44.2322 43.675 44.2322 42.9961C44.2322 42.677 44.1622 42.4074 44.0226 42.1879C43.8831 41.9684 43.6735 41.7828 43.3943 41.6296C43.1148 41.4767 42.7687 41.3401 42.3567 41.2203C41.9441 41.1009 41.4652 40.9742 40.9198 40.8415C40.3345 40.7088 39.8256 40.5753 39.3935 40.4421C38.9611 40.3094 38.6054 40.15 38.3263 39.9637C38.0467 39.7769 37.8372 39.5514 37.6976 39.2851C37.558 39.0189 37.488 38.6796 37.488 38.2673C37.488 37.7486 37.5877 37.2963 37.7873 36.9103C37.9866 36.525 38.2628 36.2055 38.6153 35.9526C38.9675 35.7004 39.3734 35.5106 39.8324 35.3844C40.2915 35.2581 40.7802 35.1946 41.299 35.1946C42.1103 35.1946 42.8284 35.3311 43.454 35.6038C44.0789 35.8765 44.5646 36.2257 44.9107 36.6513L44.352 37.1898C44.0059 36.7909 43.5567 36.4915 43.0048 36.2919C42.453 36.0922 41.8642 35.9925 41.2393 35.9925C40.8533 35.9925 40.4908 36.0329 40.1515 36.1127C39.8126 36.1922 39.5164 36.3189 39.2638 36.4915C39.0109 36.6646 38.8112 36.8875 38.6652 37.1602C38.5187 37.4329 38.4457 37.7554 38.4457 38.1278C38.4457 38.4336 38.4955 38.6796 38.5956 38.866C38.6952 39.0524 38.8549 39.2117 39.074 39.3449C39.2939 39.478 39.5761 39.5944 39.9222 39.6944C40.2683 39.7937 40.6806 39.9036 41.1594 40.0234C41.811 40.1827 42.3898 40.3356 42.8953 40.4821C43.4008 40.6289 43.8233 40.808 44.1622 41.021C44.5015 41.234 44.7609 41.4869 44.9404 41.779C45.1199 42.0719 45.2097 42.4442 45.2097 42.8969C45.2097 43.8279 44.8472 44.5692 44.1223 45.1211C43.3974 45.6733 42.4294 45.9495 41.2191 45.9495Z" fill="#606161"/>
<path fill-rule="evenodd" clip-rule="evenodd" d="M46.0077 40.5221C46.0077 39.7908 46.134 39.0989 46.3869 38.447C46.6394 37.7951 46.992 37.2299 47.4442 36.7511C47.8965 36.2718 48.435 35.893 49.0603 35.6139C49.6856 35.3339 50.3706 35.1943 51.1157 35.1943C52.06 35.1943 52.8915 35.4077 53.6099 35.8329C54.328 36.2589 54.867 36.8507 55.226 37.6087L54.2485 37.9282C53.9424 37.3566 53.5065 36.9074 52.9413 36.5814C52.3757 36.2551 51.7543 36.0923 51.0757 36.0923C50.5037 36.0923 49.9712 36.2053 49.4794 36.4316C48.9873 36.6579 48.5583 36.9701 48.1924 37.3695C47.8265 37.7685 47.537 38.2374 47.3244 38.776C47.1114 39.3149 47.0053 39.8969 47.0053 40.5221C47.0053 41.1474 47.1152 41.7358 47.3347 42.2881C47.5538 42.8403 47.8463 43.3192 48.2125 43.7246C48.578 44.1304 49.0109 44.453 49.5095 44.6926C50.0085 44.9318 50.5372 45.0516 51.0959 45.0516C51.4549 45.0516 51.8105 44.9984 52.1635 44.8915C52.5153 44.7854 52.8416 44.6458 53.141 44.4727C53.4403 44.3001 53.6997 44.097 53.9191 43.8642C54.1386 43.6318 54.2881 43.3888 54.368 43.1358L55.3458 43.415C55.2127 43.7748 55.0096 44.1107 54.7373 44.4229C54.4642 44.7356 54.1417 45.0048 53.7697 45.2311C53.3969 45.4574 52.9847 45.6335 52.5324 45.7598C52.0798 45.8861 51.6147 45.9496 51.1354 45.9496C50.404 45.9496 49.7255 45.8066 49.1006 45.5206C48.475 45.2346 47.933 44.8417 47.4743 44.343C47.0152 43.844 46.6562 43.269 46.3968 42.6171C46.1374 41.9655 46.0077 41.2672 46.0077 40.5221Z" fill="#606161"/>
<path fill-rule="evenodd" clip-rule="evenodd" d="M59.5559 45.1513C60.3269 45.1513 61.0354 45.0048 61.6805 44.7124C62.3259 44.4199 62.8211 44.0338 63.1673 43.555C63.3799 43.2754 63.4867 43.0096 63.4867 42.757V40.9211C63.0079 40.7351 62.5093 40.5952 61.9905 40.502C61.4717 40.4092 60.9331 40.3624 60.3737 40.3624C59.8553 40.3624 59.3829 40.4195 58.9573 40.5317C58.5317 40.645 58.1658 40.8013 57.86 41.001C57.5534 41.2003 57.3176 41.4433 57.1514 41.7293C56.9848 42.0154 56.9019 42.3314 56.9019 42.6772C56.9019 43.0229 56.9685 43.3488 57.1016 43.6546C57.2343 43.9608 57.4211 44.2236 57.6603 44.4431C57.8999 44.6621 58.1821 44.8356 58.5085 44.9619C58.8344 45.0881 59.1832 45.1513 59.5559 45.1513ZM59.3562 45.9496C58.8774 45.9496 58.4316 45.8659 58.0193 45.6997C57.6071 45.5339 57.2446 45.3076 56.932 45.0212C56.6193 44.7356 56.3767 44.3967 56.204 44.0038C56.0306 43.6116 55.9442 43.1895 55.9442 42.7365C55.9442 42.2846 56.0507 41.8723 56.2637 41.4996C56.4763 41.1276 56.7726 40.8047 57.1514 40.5317C57.5306 40.2597 57.9863 40.0467 58.5184 39.8934C59.0501 39.7405 59.6358 39.6637 60.2744 39.6637C60.8327 39.6637 61.3949 39.7139 61.9604 39.8139C62.5256 39.9136 63.0345 40.0501 63.4867 40.2228V39.205C63.4867 38.2207 63.2072 37.4395 62.6485 36.8606C62.0901 36.2821 61.3317 35.9927 60.3737 35.9927C59.8682 35.9927 59.333 36.0992 58.7679 36.3122C58.2023 36.5248 57.6268 36.8306 57.0419 37.2299L56.6627 36.5514C57.9927 35.6473 59.2566 35.1943 60.4539 35.1943C61.7041 35.1943 62.6884 35.5572 63.4069 36.2821C64.1253 37.0074 64.4844 38.0081 64.4844 39.2849V44.3529C64.4844 44.6853 64.6304 44.8519 64.9233 44.8519V45.7495C64.8567 45.7629 64.7867 45.7731 64.7137 45.7796C64.6403 45.7864 64.5772 45.7899 64.5243 45.7899C64.2581 45.7899 64.0455 45.6997 63.8857 45.5206C63.726 45.3407 63.6328 45.125 63.6062 44.8721V44.0137C63.1273 44.6393 62.5157 45.1182 61.7706 45.4506C61.0256 45.783 60.2211 45.9496 59.3562 45.9496Z" fill="#606161"/>
<path fill-rule="evenodd" clip-rule="evenodd" d="M71.5478 45.0516C72.1465 45.0516 72.6915 44.925 73.184 44.6724C73.6758 44.4199 74.0949 44.0837 74.441 43.6649C74.7868 43.2454 75.0526 42.7669 75.2394 42.2276C75.4254 41.689 75.5182 41.1406 75.5182 40.5819C75.5182 39.9832 75.4121 39.4146 75.1994 38.876C74.9865 38.3371 74.6905 37.8617 74.3113 37.4494C73.9325 37.0371 73.4898 36.7081 72.9843 36.4613C72.4789 36.2156 71.9399 36.0919 71.3683 36.0919C71.0089 36.0919 70.6266 36.1691 70.2212 36.3217C69.815 36.4749 69.4323 36.6807 69.0737 36.9405C68.7143 37.1995 68.4085 37.4962 68.1555 37.8282C67.903 38.161 67.7566 38.5139 67.7166 38.8855V42.298C67.8893 42.6836 68.1088 43.043 68.375 43.3751C68.6412 43.7083 68.9406 44.0007 69.273 44.2529C69.6054 44.5058 69.9644 44.7021 70.3509 44.8417C70.7361 44.9813 71.1355 45.0516 71.5478 45.0516ZM71.787 45.9492C70.8959 45.9492 70.1014 45.713 69.4027 45.241C68.7044 44.769 68.1422 44.1932 67.7166 43.5147V49.9998H66.719V35.3742H67.6368V37.4494C68.0624 36.7842 68.6245 36.2422 69.3232 35.8227C70.0211 35.4039 70.7696 35.1943 71.5676 35.1943C72.286 35.1943 72.9509 35.3472 73.5632 35.6534C74.1748 35.9596 74.7004 36.3616 75.1393 36.8606C75.5786 37.3592 75.9206 37.9347 76.167 38.5866C76.4127 39.2385 76.536 39.9033 76.536 40.5819C76.536 41.3003 76.423 41.9853 76.1967 42.6368C75.9704 43.2887 75.6482 43.8612 75.2291 44.3529C74.8104 44.8455 74.3079 45.2342 73.7226 45.5202C73.1372 45.8062 72.4922 45.9492 71.787 45.9492Z" fill="#606161"/>
<path fill-rule="evenodd" clip-rule="evenodd" d="M86.6123 40.1627C86.5724 39.5515 86.4359 38.9924 86.2031 38.4869C85.9703 37.9819 85.671 37.546 85.3051 37.1801C84.9392 36.8142 84.517 36.5282 84.0382 36.3217C83.5594 36.1155 83.047 36.0128 82.5016 36.0128C81.9562 36.0128 81.4443 36.1155 80.9654 36.3217C80.4866 36.5282 80.0644 36.8142 79.6981 37.1801C79.3323 37.546 79.0398 37.9849 78.8207 38.4968C78.6012 39.0092 78.4715 39.5644 78.4316 40.1627H86.6123ZM82.5419 45.9496C81.8102 45.9496 81.1316 45.8066 80.5067 45.5206C79.8815 45.2346 79.3395 44.8421 78.8804 44.343C78.4213 43.8444 78.0623 43.269 77.8029 42.6171C77.5435 41.9655 77.4138 41.2672 77.4138 40.5221C77.4138 39.7907 77.5435 39.1023 77.8029 38.4573C78.0623 37.8118 78.4183 37.2467 78.8705 36.7613C79.3224 36.2753 79.8583 35.893 80.4767 35.6139C81.0951 35.3343 81.7638 35.1943 82.4819 35.1943C83.2132 35.1943 83.8918 35.3373 84.517 35.6234C85.1419 35.9098 85.6809 36.2954 86.1335 36.7807C86.5853 37.2668 86.9379 37.832 87.1908 38.4767C87.4434 39.1221 87.57 39.8037 87.57 40.5221V40.7716C87.57 40.8713 87.5632 40.9344 87.5499 40.9611H78.4514C78.4913 41.5597 78.6309 42.1154 78.8705 42.6273C79.1098 43.1393 79.4121 43.5816 79.7784 43.9543C80.1439 44.3267 80.5665 44.6196 81.0453 44.8318C81.5242 45.0448 82.0361 45.1513 82.5815 45.1513C82.9409 45.1513 83.2931 45.1014 83.6392 45.0018C83.985 44.9018 84.3079 44.766 84.6072 44.5925C84.9061 44.4199 85.1724 44.2103 85.4051 43.9638C85.6375 43.7181 85.8205 43.4489 85.9536 43.156L86.8318 43.3956C86.6854 43.768 86.4693 44.1107 86.1833 44.4229C85.8973 44.7356 85.5645 45.0048 85.1857 45.2311C84.8061 45.4574 84.3908 45.6339 83.9386 45.7598C83.4859 45.8861 83.0204 45.9496 82.5419 45.9496Z" fill="#606161"/>
<path fill-rule="evenodd" clip-rule="evenodd" d="M99.8121 6.35252C99.8455 6.42364 99.8779 6.49591 99.9079 6.56817C101.088 6.494 102.26 6.62712 103.36 7.02686C105.237 7.71071 107.067 8.52388 108.927 9.25832C110.237 9.7752 111.538 10.337 112.887 10.7268C114.962 11.3266 116.302 10.3978 116.973 8.44933C117.411 7.17443 116.976 5.98359 116.247 4.92358C115.141 3.31284 113.658 2.10678 111.886 1.31491C107.667 -0.570818 103.457 -0.427049 99.3967 1.73823C99.0852 1.90482 98.7844 2.08015 98.4927 2.2631" fill="#00A79D"/>
<path fill-rule="evenodd" clip-rule="evenodd" d="M97.9622 7.90435C97.7108 7.4217 97.459 6.95007 97.2175 6.47313C96.7679 5.58427 96.3245 4.69275 95.8779 3.80238C95.8148 3.67648 95.8129 3.67496 95.6771 3.71186C94.8408 3.93968 94.0367 4.24738 93.2905 4.69428C92.6827 5.05788 92.1411 5.49755 91.7349 6.0867C91.4128 6.55376 91.2089 7.0638 91.2146 7.63963C91.2237 8.48513 91.6109 9.1222 92.3229 9.56035C92.8413 9.87908 93.4168 9.98443 94.0196 9.95476C94.9005 9.9114 95.6863 9.58773 96.4264 9.13247C96.9885 8.78712 97.4925 8.36874 97.9622 7.90435Z" fill="#00A79D"/>
<path fill-rule="evenodd" clip-rule="evenodd" d="M109.779 23.4761C109.736 23.3844 109.694 23.2924 109.656 23.1996C108.145 23.2947 106.642 23.1247 105.235 22.612C102.829 21.736 100.484 20.6947 98.1017 19.7537C96.424 19.0915 94.757 18.3719 93.0291 17.8725C90.3713 17.1039 88.6544 18.294 87.7952 20.7901C87.2331 22.4229 87.791 23.9485 88.7244 25.3063C90.1419 27.37 92.0421 28.9153 94.3116 29.9297C99.7166 32.3452 105.11 32.1608 110.311 29.387C110.71 29.174 111.095 28.9496 111.469 28.7145" fill="#00A79D"/>
<path fill-rule="evenodd" clip-rule="evenodd" d="M112.149 21.4877C112.471 22.1061 112.793 22.7101 113.103 23.3209C113.679 24.4593 114.247 25.6022 114.819 26.7428C114.9 26.9041 114.902 26.906 115.076 26.8588C116.148 26.5667 117.178 26.1727 118.133 25.6003C118.912 25.1344 119.606 24.5711 120.126 23.8165C120.539 23.2178 120.8 22.5644 120.793 21.8273C120.781 20.7437 120.285 19.9275 119.373 19.3661C118.709 18.9576 117.972 18.8234 117.199 18.861C116.071 18.9162 115.064 19.3311 114.116 19.9142C113.396 20.3565 112.751 20.8932 112.149 21.4877Z" fill="#00A79D"/>
</g>
<defs>
<clipPath id="clip0_6370_35385">
<rect width="120.793" height="50" fill="white"/>
</clipPath>
</defs>
</svg>
