<svg width="151" height="172" viewBox="0 0 151 172" fill="none" xmlns="http://www.w3.org/2000/svg">
<g id="Group 626362">
<rect id="Rectangle 1226" x="0.5" y="0.28125" width="150" height="171" fill="#F8F9FE"/>
<g id="Group 1150">
<g id="Group 1148">
<g id="Group 1213">
<path id="Union" fill-rule="evenodd" clip-rule="evenodd" d="M103.626 106.877H75.5001V102.106C75.1173 102.161 74.7261 102.189 74.3283 102.189C69.7976 102.189 66.1248 98.5164 66.1248 93.9858C66.1248 89.4552 69.7976 85.7823 74.3283 85.7823C74.7261 85.7823 75.1173 85.8107 75.5001 85.8654V64.6877H75.5831C75.5284 64.3049 75.5001 63.9136 75.5001 63.5157C75.5001 58.9851 79.1729 55.3123 83.7035 55.3123C88.2342 55.3123 91.907 58.9851 91.907 63.5157C91.907 63.9136 91.8787 64.3049 91.8239 64.6877H103.626V106.877Z" fill="#141414"/>
<mask id="mask0_5589_27085" style="mask-type:alpha" maskUnits="userSpaceOnUse" x="66" y="55" width="38" height="52">
<path id="Union_2" fill-rule="evenodd" clip-rule="evenodd" d="M103.626 106.877H75.5001V102.106C75.1173 102.161 74.7261 102.189 74.3283 102.189C69.7976 102.189 66.1248 98.5164 66.1248 93.9858C66.1248 89.4552 69.7976 85.7823 74.3283 85.7823C74.7261 85.7823 75.1173 85.8107 75.5001 85.8654V64.6877H75.5831C75.5284 64.3049 75.5001 63.9136 75.5001 63.5157C75.5001 58.9851 79.1729 55.3123 83.7035 55.3123C88.2342 55.3123 91.907 58.9851 91.907 63.5157C91.907 63.9136 91.8787 64.3049 91.8239 64.6877H103.626V106.877Z" fill="#233375"/>
</mask>
<g mask="url(#mask0_5589_27085)">
</g>
</g>
</g>
<g id="Group 1149">
<path id="Subtract" fill-rule="evenodd" clip-rule="evenodd" d="M47.3738 64.6875H75.4999V85.8652C75.1172 85.8104 74.7259 85.7821 74.328 85.7821C69.7974 85.7821 66.1245 89.4549 66.1245 93.9856C66.1245 98.5162 69.7974 102.189 74.328 102.189C74.7259 102.189 75.1172 102.161 75.4999 102.106V106.877H75.4169C75.4716 107.259 75.4999 107.651 75.4999 108.049C75.4999 112.579 71.8271 116.252 67.2965 116.252C62.7658 116.252 59.093 112.579 59.093 108.049C59.093 107.651 59.1213 107.259 59.1761 106.877H47.3738V64.6875Z" fill="#00A79D"/>
</g>
<g id="Group 1214">
<rect id="Rectangle 436" x="47.3738" y="71.7188" width="28.1262" height="4.68769" fill="white"/>
<mask id="mask1_5589_27085" style="mask-type:alpha" maskUnits="userSpaceOnUse" x="47" y="71" width="29" height="6">
<rect id="Rectangle 437" x="47.3738" y="71.7188" width="28.1262" height="4.68769" fill="#233375"/>
</mask>
<g mask="url(#mask1_5589_27085)">
</g>
</g>
<path id="Union_3" fill-rule="evenodd" clip-rule="evenodd" d="M94.2506 71.7188H75.4999V76.4064H94.2506V106.876H98.9383V71.7188H96.5945H94.2506Z" fill="#00A79D"/>
</g>
</g>
</svg>
