<svg width="1038" height="130" viewBox="0 0 1038 130" fill="none" xmlns="http://www.w3.org/2000/svg">
<path fill-rule="evenodd" clip-rule="evenodd" d="M50.1728 26.7035C50.3086 26.9921 50.4398 27.2853 50.5617 27.5786C55.3489 27.2776 60.1067 27.8178 64.5668 29.4397C72.1858 32.2145 79.612 35.514 87.1585 38.494C92.4735 40.5913 97.753 42.8707 103.225 44.4526C111.644 46.8863 117.081 43.1176 119.803 35.2115C121.582 30.0385 119.815 25.2066 116.86 20.9055C112.371 14.3698 106.352 9.47614 99.1635 6.26308C82.0442 -1.3884 64.9618 -0.805049 48.4875 7.98072C47.2236 8.65667 46.0029 9.36811 44.8192 10.1104" fill="#E5F6F5"/>
<path fill-rule="evenodd" clip-rule="evenodd" d="M42.6669 33.0026C41.6468 31.0442 40.6252 29.1305 39.6452 27.1953C37.8211 23.5887 36.0216 19.9713 34.2098 16.3585C33.9537 15.8477 33.9459 15.8415 33.395 15.9912C30.0014 16.9156 26.7389 18.1641 23.7111 19.9774C21.2449 21.4528 19.0473 23.2368 17.3991 25.6273C16.092 27.5224 15.2648 29.5919 15.2879 31.9284C15.325 35.3591 16.896 37.9441 19.785 39.7219C21.8885 41.0152 24.2234 41.4426 26.6695 41.3223C30.2437 41.1463 33.432 39.833 36.4352 37.9857C38.7162 36.5845 40.761 34.8869 42.6669 33.0026Z" fill="#E5F6F5"/>
<path fill-rule="evenodd" clip-rule="evenodd" d="M90.6139 96.1817C90.4395 95.8098 90.2712 95.4363 90.1138 95.0598C83.984 95.4456 77.8866 94.7557 72.175 92.6754C62.4139 89.1213 52.9012 84.8959 43.2327 81.0778C36.4254 78.391 29.6613 75.4712 22.6503 73.4449C11.866 70.326 4.89973 75.1548 1.41351 85.2832C-0.867426 91.9084 1.39653 98.0984 5.18369 103.608C10.9354 111.982 18.6455 118.252 27.8542 122.368C49.7854 132.169 71.6688 131.42 92.7729 120.166C94.3918 119.301 95.9551 118.391 97.4721 117.437" fill="#E5F6F5"/>
<path fill-rule="evenodd" clip-rule="evenodd" d="M100.23 88.1179C101.537 90.6272 102.846 93.0779 104.1 95.5564C106.437 100.175 108.744 104.813 111.065 109.441C111.392 110.095 111.402 110.103 112.107 109.912C116.456 108.727 120.637 107.128 124.513 104.805C127.672 102.915 130.489 100.629 132.6 97.5672C134.274 95.1382 135.335 92.4868 135.304 89.496C135.256 85.0993 133.243 81.7874 129.543 79.5096C126.848 77.8521 123.857 77.3073 120.723 77.4601C116.146 77.6839 112.061 79.3676 108.212 81.7334C105.292 83.5282 102.673 85.7058 100.23 88.1179Z" fill="#E5F6F5"/>
<path fill-rule="evenodd" clip-rule="evenodd" d="M194.977 26.7035C195.113 26.9921 195.244 27.2853 195.366 27.5786C200.153 27.2776 204.911 27.8178 209.371 29.4397C216.99 32.2145 224.416 35.514 231.963 38.494C237.278 40.5913 242.557 42.8707 248.03 44.4526C256.448 46.8863 261.885 43.1176 264.607 35.2115C266.387 30.0385 264.62 25.2066 261.664 20.9055C257.175 14.3698 251.156 9.47614 243.968 6.26308C226.848 -1.3884 209.766 -0.805049 193.292 7.98072C192.028 8.65667 190.807 9.36811 189.624 10.1104" fill="#E5F6F5"/>
<path fill-rule="evenodd" clip-rule="evenodd" d="M187.471 33.0026C186.451 31.0442 185.429 29.1305 184.45 27.1953C182.625 23.5887 180.826 19.9713 179.014 16.3585C178.758 15.8477 178.75 15.8415 178.199 15.9912C174.806 16.9156 171.543 18.1641 168.515 19.9774C166.049 21.4528 163.852 23.2368 162.203 25.6273C160.896 27.5224 160.069 29.5919 160.092 31.9284C160.129 35.3591 161.7 37.9441 164.589 39.7219C166.693 41.0152 169.028 41.4426 171.474 41.3223C175.048 41.1463 178.236 39.833 181.24 37.9857C183.52 36.5845 185.565 34.8869 187.471 33.0026Z" fill="#E5F6F5"/>
<path fill-rule="evenodd" clip-rule="evenodd" d="M235.418 96.1817C235.244 95.8098 235.076 95.4363 234.918 95.0598C228.788 95.4456 222.691 94.7557 216.979 92.6754C207.218 89.1213 197.706 84.8959 188.037 81.0778C181.23 78.391 174.466 75.4712 167.455 73.4449C156.67 70.326 149.704 75.1548 146.218 85.2832C143.937 91.9084 146.201 98.0984 149.988 103.608C155.74 111.982 163.45 118.252 172.658 122.368C194.59 132.169 216.473 131.42 237.577 120.166C239.196 119.301 240.759 118.391 242.276 117.437" fill="#E5F6F5"/>
<path fill-rule="evenodd" clip-rule="evenodd" d="M245.034 88.1179C246.341 90.6272 247.65 93.0779 248.905 95.5564C251.241 100.175 253.548 104.813 255.87 109.441C256.197 110.095 256.206 110.103 256.911 109.912C261.26 108.727 265.441 107.128 269.317 104.805C272.477 102.915 275.293 100.629 277.404 97.5672C279.079 95.1382 280.139 92.4868 280.108 89.496C280.06 85.0993 278.048 81.7874 274.347 79.5096C271.652 77.8521 268.662 77.3073 265.527 77.4601C260.95 77.6839 256.865 79.3676 253.016 81.7334C250.096 83.5282 247.477 85.7058 245.034 88.1179Z" fill="#E5F6F5"/>
<path fill-rule="evenodd" clip-rule="evenodd" d="M339.781 26.7035C339.917 26.9921 340.048 27.2853 340.17 27.5786C344.958 27.2776 349.715 27.8178 354.175 29.4397C361.794 32.2145 369.221 35.514 376.767 38.494C382.082 40.5913 387.362 42.8707 392.834 44.4526C401.253 46.8863 406.689 43.1176 409.412 35.2115C411.191 30.0385 409.424 25.2066 406.469 20.9055C401.979 14.3698 395.961 9.47614 388.772 6.26308C371.653 -1.3884 354.57 -0.805049 338.096 7.98072C336.832 8.65667 335.612 9.36811 334.428 10.1104" fill="#E5F6F5"/>
<path fill-rule="evenodd" clip-rule="evenodd" d="M332.276 33.0026C331.255 31.0442 330.234 29.1305 329.254 27.1953C327.43 23.5887 325.63 19.9713 323.818 16.3585C323.562 15.8477 323.555 15.8415 323.004 15.9912C319.61 16.9156 316.348 18.1641 313.32 19.9774C310.854 21.4528 308.656 23.2368 307.008 25.6273C305.701 27.5224 304.873 29.5919 304.897 31.9284C304.934 35.3591 306.505 37.9441 309.394 39.7219C311.497 41.0152 313.832 41.4426 316.278 41.3223C319.852 41.1463 323.041 39.833 326.044 37.9857C328.325 36.5845 330.37 34.8869 332.276 33.0026Z" fill="#E5F6F5"/>
<path fill-rule="evenodd" clip-rule="evenodd" d="M380.222 96.1817C380.048 95.8098 379.88 95.4363 379.722 95.0598C373.593 95.4456 367.495 94.7557 361.784 92.6754C352.023 89.1213 342.51 84.8959 332.841 81.0778C326.034 78.391 319.27 75.4712 312.259 73.4449C301.475 70.326 294.508 75.1548 291.022 85.2832C288.741 91.9084 291.005 98.0984 294.792 103.608C300.544 111.982 308.254 118.252 317.463 122.368C339.394 132.169 361.277 131.42 382.382 120.166C384 119.301 385.564 118.391 387.081 117.437" fill="#E5F6F5"/>
<path fill-rule="evenodd" clip-rule="evenodd" d="M389.839 88.1179C391.146 90.6272 392.454 93.0779 393.709 95.5564C396.046 100.175 398.353 104.813 400.674 109.441C401.001 110.095 401.01 110.103 401.716 109.912C406.064 108.727 410.245 107.128 414.122 104.805C417.281 102.915 420.097 100.629 422.209 97.5672C423.883 95.1382 424.943 92.4868 424.912 89.496C424.864 85.0993 422.852 81.7874 419.151 79.5096C416.457 77.8521 413.466 77.3073 410.332 77.4601C405.754 77.6839 401.669 79.3676 397.82 81.7334C394.901 83.5282 392.282 85.7058 389.839 88.1179Z" fill="#E5F6F5"/>
<path fill-rule="evenodd" clip-rule="evenodd" d="M484.586 26.7035C484.722 26.9921 484.853 27.2853 484.975 27.5786C489.762 27.2776 494.52 27.8178 498.98 29.4397C506.599 32.2145 514.025 35.514 521.572 38.494C526.887 40.5913 532.166 42.8707 537.638 44.4526C546.057 46.8863 551.494 43.1176 554.216 35.2115C555.996 30.0385 554.229 25.2066 551.273 20.9055C546.784 14.3698 540.765 9.47614 533.577 6.26308C516.457 -1.3884 499.375 -0.805049 482.901 7.98072C481.637 8.65667 480.416 9.36811 479.232 10.1104" fill="#E5F6F5"/>
<path fill-rule="evenodd" clip-rule="evenodd" d="M477.08 33.0026C476.06 31.0442 475.038 29.1305 474.058 27.1953C472.234 23.5887 470.435 19.9713 468.623 16.3585C468.367 15.8477 468.359 15.8415 467.808 15.9912C464.414 16.9156 461.152 18.1641 458.124 19.9774C455.658 21.4528 453.46 23.2368 451.812 25.6273C450.505 27.5224 449.678 29.5919 449.701 31.9284C449.738 35.3591 451.309 37.9441 454.198 39.7219C456.302 41.0152 458.637 41.4426 461.083 41.3223C464.657 41.1463 467.845 39.833 470.848 37.9857C473.129 36.5845 475.174 34.8869 477.08 33.0026Z" fill="#E5F6F5"/>
<path fill-rule="evenodd" clip-rule="evenodd" d="M525.027 96.1817C524.853 95.8098 524.684 95.4363 524.527 95.0598C518.397 95.4456 512.3 94.7557 506.588 92.6754C496.827 89.1213 487.314 84.8959 477.646 81.0778C470.839 78.391 464.074 75.4712 457.063 73.4449C446.279 70.326 439.313 75.1548 435.827 85.2832C433.546 91.9084 435.81 98.0984 439.597 103.608C445.349 111.982 453.059 118.252 462.267 122.368C484.198 132.169 506.082 131.42 527.186 120.166C528.805 119.301 530.368 118.391 531.885 117.437" fill="#E5F6F5"/>
<path fill-rule="evenodd" clip-rule="evenodd" d="M534.643 88.1179C535.95 90.6272 537.259 93.0779 538.514 95.5564C540.85 100.175 543.157 104.813 545.478 109.441C545.805 110.095 545.815 110.103 546.52 109.912C550.869 108.727 555.05 107.128 558.926 104.805C562.085 102.915 564.902 100.629 567.013 97.5672C568.687 95.1382 569.748 92.4868 569.717 89.496C569.669 85.0993 567.656 81.7874 563.956 79.5096C561.261 77.8521 558.27 77.3073 555.136 77.4601C550.559 77.6839 546.474 79.3676 542.625 81.7334C539.705 83.5282 537.086 85.7058 534.643 88.1179Z" fill="#E5F6F5"/>
<path fill-rule="evenodd" clip-rule="evenodd" d="M629.39 26.7035C629.526 26.9921 629.657 27.2853 629.779 27.5786C634.566 27.2776 639.324 27.8178 643.784 29.4397C651.403 32.2145 658.829 35.514 666.376 38.494C671.691 40.5913 676.97 42.8707 682.443 44.4526C690.861 46.8863 696.298 43.1176 699.021 35.2115C700.8 30.0385 699.033 25.2066 696.078 20.9055C691.588 14.3698 685.569 9.47614 678.381 6.26308C661.262 -1.3884 644.179 -0.805049 627.705 7.98072C626.441 8.65667 625.22 9.36811 624.037 10.1104" fill="#E5F6F5"/>
<path fill-rule="evenodd" clip-rule="evenodd" d="M621.884 33.0026C620.864 31.0442 619.843 29.1305 618.863 27.1953C617.038 23.5887 615.239 19.9713 613.427 16.3585C613.171 15.8477 613.163 15.8415 612.612 15.9912C609.219 16.9156 605.956 18.1641 602.928 19.9774C600.462 21.4528 598.265 23.2368 596.617 25.6273C595.309 27.5224 594.482 29.5919 594.505 31.9284C594.542 35.3591 596.113 37.9441 599.002 39.7219C601.106 41.0152 603.441 41.4426 605.887 41.3223C609.461 41.1463 612.649 39.833 615.653 37.9857C617.934 36.5845 619.978 34.8869 621.884 33.0026Z" fill="#E5F6F5"/>
<path fill-rule="evenodd" clip-rule="evenodd" d="M669.831 96.1817C669.657 95.8098 669.489 95.4363 669.331 95.0598C663.201 95.4456 657.104 94.7557 651.392 92.6754C641.631 89.1213 632.119 84.8959 622.45 81.0778C615.643 78.391 608.879 75.4712 601.868 73.4449C591.083 70.326 584.117 75.1548 580.631 85.2832C578.35 91.9084 580.614 98.0984 584.401 103.608C590.153 111.982 597.863 118.252 607.072 122.368C629.003 132.169 650.886 131.42 671.99 120.166C673.609 119.301 675.172 118.391 676.69 117.437" fill="#E5F6F5"/>
<path fill-rule="evenodd" clip-rule="evenodd" d="M679.447 88.1179C680.755 90.6272 682.063 93.0779 683.318 95.5564C685.654 100.175 687.962 104.813 690.283 109.441C690.61 110.095 690.619 110.103 691.324 109.912C695.673 108.727 699.854 107.128 703.731 104.805C706.89 102.915 709.706 100.629 711.817 97.5672C713.492 95.1382 714.552 92.4868 714.521 89.496C714.473 85.0993 712.461 81.7874 708.76 79.5096C706.066 77.8521 703.075 77.3073 699.94 77.4601C695.363 77.6839 691.278 79.3676 687.429 81.7334C684.509 83.5282 681.89 85.7058 679.447 88.1179Z" fill="#E5F6F5"/>
<path fill-rule="evenodd" clip-rule="evenodd" d="M774.195 26.7035C774.33 26.9921 774.461 27.2853 774.583 27.5786C779.371 27.2776 784.128 27.8178 788.588 29.4397C796.208 32.2145 803.634 35.514 811.18 38.494C816.495 40.5913 821.775 42.8707 827.247 44.4526C835.666 46.8863 841.103 43.1176 843.825 35.2115C845.604 30.0385 843.837 25.2066 840.882 20.9055C836.392 14.3698 830.374 9.47614 823.185 6.26308C806.066 -1.3884 788.984 -0.805049 772.509 7.98072C771.245 8.65667 770.025 9.36811 768.841 10.1104" fill="#E5F6F5"/>
<path fill-rule="evenodd" clip-rule="evenodd" d="M766.689 33.0026C765.669 31.0442 764.647 29.1305 763.667 27.1953C761.843 23.5887 760.043 19.9713 758.232 16.3585C757.975 15.8477 757.968 15.8415 757.417 15.9912C754.023 16.9156 750.761 18.1641 747.733 19.9774C745.267 21.4528 743.069 23.2368 741.421 25.6273C740.114 27.5224 739.287 29.5919 739.31 31.9284C739.347 35.3591 740.918 37.9441 743.807 39.7219C745.91 41.0152 748.245 41.4426 750.691 41.3223C754.265 41.1463 757.454 39.833 760.457 37.9857C762.738 36.5845 764.783 34.8869 766.689 33.0026Z" fill="#E5F6F5"/>
<path fill-rule="evenodd" clip-rule="evenodd" d="M814.636 96.1817C814.461 95.8098 814.293 95.4363 814.136 95.0598C808.006 95.4456 801.908 94.7557 796.197 92.6754C786.436 89.1213 776.923 84.8959 767.254 81.0778C760.447 78.391 753.683 75.4712 746.672 73.4449C735.888 70.326 728.921 75.1548 725.435 85.2832C723.154 91.9084 725.418 98.0984 729.205 103.608C734.957 111.982 742.667 118.252 751.876 122.368C773.807 132.169 795.691 131.42 816.795 120.166C818.413 119.301 819.977 118.391 821.494 117.437" fill="#E5F6F5"/>
<path fill-rule="evenodd" clip-rule="evenodd" d="M824.252 88.1179C825.559 90.6272 826.868 93.0779 828.122 95.5564C830.459 100.175 832.766 104.813 835.087 109.441C835.414 110.095 835.423 110.103 836.129 109.912C840.478 108.727 844.658 107.128 848.535 104.805C851.694 102.915 854.51 100.629 856.622 97.5672C858.296 95.1382 859.356 92.4868 859.325 89.496C859.278 85.0993 857.265 81.7874 853.564 79.5096C850.87 77.8521 847.879 77.3073 844.745 77.4601C840.167 77.6839 836.082 79.3676 832.233 81.7334C829.314 83.5282 826.695 85.7058 824.252 88.1179Z" fill="#E5F6F5"/>
<path fill-rule="evenodd" clip-rule="evenodd" d="M918.999 26.7035C919.135 26.9921 919.266 27.2853 919.388 27.5786C924.175 27.2776 928.933 27.8178 933.393 29.4397C941.012 32.2145 948.438 35.514 955.985 38.494C961.3 40.5913 966.579 42.8707 972.052 44.4526C980.47 46.8863 985.907 43.1176 988.629 35.2115C990.409 30.0385 988.642 25.2066 985.686 20.9055C981.197 14.3698 975.178 9.47614 967.99 6.26308C950.87 -1.3884 933.788 -0.805049 917.314 7.98072C916.05 8.65667 914.829 9.36811 913.645 10.1104" fill="#E5F6F5"/>
<path fill-rule="evenodd" clip-rule="evenodd" d="M911.493 33.0026C910.473 31.0442 909.451 29.1305 908.471 27.1953C906.647 23.5887 904.848 19.9713 903.036 16.3585C902.78 15.8477 902.772 15.8415 902.221 15.9912C898.827 16.9156 895.565 18.1641 892.537 19.9774C890.071 21.4528 887.873 23.2368 886.225 25.6273C884.918 27.5224 884.091 29.5919 884.114 31.9284C884.151 35.3591 885.722 37.9441 888.611 39.7219C890.715 41.0152 893.049 41.4426 895.496 41.3223C899.07 41.1463 902.258 39.833 905.261 37.9857C907.542 36.5845 909.587 34.8869 911.493 33.0026Z" fill="#E5F6F5"/>
<path fill-rule="evenodd" clip-rule="evenodd" d="M959.44 96.1817C959.266 95.8098 959.097 95.4363 958.94 95.0598C952.81 95.4456 946.713 94.7557 941.001 92.6754C931.24 89.1213 921.727 84.8959 912.059 81.0778C905.251 78.391 898.487 75.4712 891.476 73.4449C880.692 70.326 873.726 75.1548 870.24 85.2832C867.959 91.9084 870.223 98.0984 874.01 103.608C879.761 111.982 887.472 118.252 896.68 122.368C918.611 132.169 940.495 131.42 961.599 120.166C963.218 119.301 964.781 118.391 966.298 117.437" fill="#E5F6F5"/>
<path fill-rule="evenodd" clip-rule="evenodd" d="M969.056 88.1179C970.363 90.6272 971.672 93.0779 972.927 95.5564C975.263 100.175 977.57 104.813 979.891 109.441C980.218 110.095 980.228 110.103 980.933 109.912C985.282 108.727 989.463 107.128 993.339 104.805C996.498 102.915 999.315 100.629 1001.43 97.5672C1003.1 95.1382 1004.16 92.4868 1004.13 89.496C1004.08 85.0993 1002.07 81.7874 998.369 79.5096C995.674 77.8521 992.683 77.3073 989.549 77.4601C984.972 77.6839 980.887 79.3676 977.038 81.7334C974.118 83.5282 971.499 85.7058 969.056 88.1179Z" fill="#E5F6F5"/>
</svg>
