<svg width="151" height="172" viewBox="0 0 151 172" fill="none" xmlns="http://www.w3.org/2000/svg">
<g id="Group 626362">
<rect id="Rectangle 1226" x="0.5" y="0.28125" width="150" height="171" fill="#F8F9FE"/>
<g id="Group 1155">
<rect id="Rectangle 446" x="68.8257" y="101.16" width="13.3488" height="15.0899" fill="#141414"/>
<g id="Group 1156">
<circle id="Ellipse 1255" cx="75.2099" cy="87.232" r="17.9918" fill="#00A79D"/>
<mask id="mask0_5589_27113" style="mask-type:alpha" maskUnits="userSpaceOnUse" x="57" y="69" width="37" height="37">
<circle id="Ellipse 1256" cx="75.2099" cy="87.232" r="17.9918" fill="#233375"/>
</mask>
<g mask="url(#mask0_5589_27113)">
</g>
</g>
<path id="Vector" d="M78.5124 58.323C78.5124 56.6592 77.1637 55.3105 75.5 55.3105C73.8363 55.3105 72.4876 56.6592 72.4876 58.323V64.4705H78.5124V58.323ZM98.875 65.1867C97.6991 63.9948 95.7755 63.9949 94.5997 65.187L91.3154 68.5168L95.5325 72.7913L98.8747 69.4046C100.028 68.2354 100.029 66.3561 98.875 65.1867ZM56.4002 65.1869C55.2245 63.9949 53.301 63.9947 52.125 65.1866C50.9713 66.3559 50.9715 68.2353 52.1253 69.4045L55.4674 72.7911L59.6846 68.5168L56.4002 65.1869ZM107.131 88.8212C107.131 87.1349 105.764 85.7678 104.077 85.7678H98.0934V91.8745H104.077C105.764 91.8745 107.131 90.5075 107.131 88.8212ZM52.9066 85.7678H46.9226C45.2363 85.7678 43.8693 87.1349 43.8693 88.8212C43.8693 90.5075 45.2363 91.8745 46.9226 91.8745H52.9066V85.7678Z" fill="#141414"/>
</g>
</g>
</svg>
