<svg width="690" height="319" viewBox="0 0 690 319" fill="none" xmlns="http://www.w3.org/2000/svg">
<path fill-rule="evenodd" clip-rule="evenodd" d="M277.751 200.258C278.833 202.505 279.874 204.765 280.853 207.042C318.94 204.707 356.812 208.884 392.296 221.465C452.93 242.961 512.03 268.524 572.087 291.607C614.377 307.862 656.389 325.52 699.942 337.781C766.94 356.64 810.214 327.436 831.87 266.183C846.041 226.102 831.97 188.667 808.452 155.338C772.72 104.696 724.826 66.776 667.616 41.8792C531.383 -17.4083 395.437 -12.8779 264.342 55.1993C254.282 60.4235 244.568 65.9362 235.148 71.6921" fill="#00A79D"/>
<path fill-rule="evenodd" clip-rule="evenodd" d="M218.018 249.05C209.895 233.877 201.765 219.053 193.975 204.061C179.451 176.118 165.131 148.075 150.711 120.08C148.676 116.127 148.617 116.075 144.233 117.24C117.225 124.409 91.254 134.072 67.163 148.12C47.543 159.56 30.0478 173.377 16.9345 191.904C6.53622 206.595 -0.0573156 222.623 0.140181 240.719C0.429288 267.311 12.9311 287.34 35.924 301.115C52.6612 311.142 71.2462 314.439 90.7079 313.511C119.153 312.154 144.529 301.972 168.429 287.667C186.572 276.808 202.842 263.647 218.018 249.05Z" fill="#00A79D"/>
</svg>
