<svg width="151" height="151" viewBox="0 0 151 151" fill="none" xmlns="http://www.w3.org/2000/svg">
<rect x="0.5" y="0.28125" width="150" height="150" fill="#F8F9FE"/>
<circle cx="75.2815" cy="61.4982" r="15.506" fill="#141414"/>
<path fill-rule="evenodd" clip-rule="evenodd" d="M95.7969 98.8426C101.852 95.1773 106.815 89.9569 110.17 83.7242L91.1892 73.5078C89.6593 76.3501 87.3961 78.7307 84.6347 80.4022C81.8733 82.0737 78.7146 82.9751 75.487 83.0126C72.2593 83.0501 69.0806 82.2224 66.2811 80.6155C63.4816 79.0086 61.1636 76.6812 59.5681 73.8753L40.83 84.53C44.3286 90.6831 49.4116 95.7867 55.5504 99.3103C61.6892 102.834 68.6597 104.649 75.7375 104.567C82.8152 104.484 89.7417 102.508 95.7969 98.8426ZM94.2319 90.7871C96.135 90.7871 97.6777 89.2444 97.6777 87.3413C97.6777 85.4383 96.135 83.8955 94.2319 83.8955C92.3289 83.8955 90.7862 85.4383 90.7862 87.3413C90.7862 89.2444 92.3289 90.7871 94.2319 90.7871Z" fill="#00A79D"/>
<path d="M71.702 61.0996L73.9199 63.0957C74.2974 63.4355 74.884 63.3834 75.1959 62.9825L78.702 58.4746M75.202 69.8496C80.0345 69.8496 83.952 65.9321 83.952 61.0996C83.952 56.2671 80.0345 52.3496 75.202 52.3496C70.3695 52.3496 66.452 56.2671 66.452 61.0996C66.452 65.9321 70.3695 69.8496 75.202 69.8496Z" stroke="white" stroke-width="1.5" stroke-linecap="square"/>
</svg>
