<svg width="505" height="400" viewBox="0 0 505 400" fill="none" xmlns="http://www.w3.org/2000/svg">
<path d="M152.694 369.017C147.408 364.429 143.717 358.344 142.154 351.528C142.054 351.727 141.921 351.927 141.822 352.126C143.285 351.893 144.581 352.326 145.612 353.356C146.044 353.755 146.643 353.257 146.41 352.758C142.719 345.277 139.793 337.496 137.665 329.45C137.466 329.649 137.266 329.849 137.067 330.048C138.497 330.281 139.561 330.913 140.458 332.043C140.758 332.442 141.456 332.01 141.29 331.544C138.729 324.13 137.034 316.449 136.202 308.668C136.003 308.835 135.77 309.001 135.571 309.134C137.865 309.766 138.896 312.06 139.827 314.055C140.891 316.382 141.955 318.743 143.019 321.104C145.147 325.892 147.275 330.713 149.336 335.534C153.526 345.343 157.516 355.252 161.373 365.227C161.605 365.825 162.57 365.559 162.337 364.961C158.314 354.52 154.091 344.146 149.702 333.839C147.507 328.718 145.28 323.598 142.985 318.51C141.955 316.216 141.024 313.789 139.76 311.561C138.862 309.965 137.699 308.635 135.87 308.136C135.571 308.07 135.205 308.303 135.238 308.602C136.069 316.482 137.765 324.263 140.359 331.744C140.625 331.578 140.924 331.411 141.19 331.245C140.192 330.015 138.929 329.25 137.333 329.017C136.967 328.951 136.601 329.25 136.734 329.616C138.929 337.729 141.888 345.609 145.579 353.19C145.845 352.991 146.111 352.791 146.377 352.592C145.047 351.295 143.418 350.796 141.589 351.095C141.323 351.129 141.19 351.461 141.256 351.694C142.886 358.676 146.643 364.927 152.063 369.616C152.495 370.148 153.193 369.449 152.694 369.017Z" fill="#E8E8E8"/>
<path d="M152.761 341.717C152.096 339.323 151.564 336.929 151.265 334.469C151.098 333.239 150.999 332.042 150.932 330.811C150.899 330.08 150.5 328.052 151.065 327.453C151.697 327.387 152.329 327.32 152.96 327.254C153.127 327.52 153.26 327.819 153.359 328.118C153.659 328.783 153.891 329.448 154.157 330.113C154.623 331.244 155.055 332.374 155.521 333.505C156.452 335.865 157.383 338.226 158.347 340.587C162.071 349.93 165.795 359.24 169.486 368.583C169.718 369.182 170.683 368.916 170.45 368.317C165.762 356.514 161.073 344.743 156.352 332.939C155.753 331.41 155.122 329.847 154.523 328.318C154.191 327.52 153.925 326.555 153.226 325.99C152.196 325.126 150.932 325.591 150.334 326.688C149.336 328.584 149.935 331.277 150.167 333.272C150.467 336.231 151.065 339.124 151.863 341.95C151.996 342.615 152.96 342.349 152.761 341.717Z" fill="#E8E8E8"/>
<path d="M229.27 361.003C228.239 353.754 227.241 345.708 231.364 339.191C231.065 339.191 230.799 339.191 230.5 339.191C231.63 341.585 232.362 344.079 232.761 346.705C232.827 347.271 233.758 347.138 233.725 346.572C233.26 335.666 234.889 324.794 238.447 314.453C238.181 314.519 237.881 314.586 237.615 314.686C238.812 315.683 238.679 317.279 238.679 318.709C238.646 320.006 238.646 321.336 238.613 322.632C238.58 325.592 238.513 328.518 238.48 331.477C238.38 337.262 238.28 343.048 238.214 348.867C238.214 349.498 239.211 349.498 239.211 348.867C239.311 342.416 239.411 335.966 239.511 329.515C239.577 326.356 239.61 323.164 239.677 320.006C239.71 317.977 240.109 315.417 238.347 313.954C238.048 313.721 237.649 313.788 237.516 314.187C233.891 324.594 232.295 335.567 232.728 346.572C233.06 346.539 233.393 346.473 233.692 346.439C233.293 343.713 232.528 341.153 231.331 338.659C231.165 338.293 230.666 338.36 230.467 338.659C226.177 345.409 227.175 353.721 228.272 361.236C228.405 361.901 229.369 361.635 229.27 361.003Z" fill="#E8E8E8"/>
<path d="M239.776 342.483C240.109 341.186 240.508 339.89 241.04 338.659C241.339 337.961 242.17 335.634 242.902 335.368C243.301 335.567 243.666 335.767 244.065 335.966C244.032 336.299 243.999 336.664 243.966 336.997C243.899 337.529 243.866 338.094 243.8 338.626C243.667 339.923 243.533 341.253 243.4 342.55C242.902 347.67 242.403 352.791 241.904 357.878C241.838 358.51 242.835 358.51 242.902 357.878C243.267 354.287 243.6 350.696 243.966 347.105C244.332 343.481 244.93 339.79 245.03 336.132C245.063 334.669 244.065 333.306 242.536 334.337C241.472 335.068 240.907 336.465 240.375 337.595C239.676 339.092 239.144 340.621 238.745 342.217C238.646 342.816 239.61 343.082 239.776 342.483Z" fill="#E8E8E8"/>
<path d="M422.884 347.737C423.15 338.593 425.677 329.716 430.166 321.802C429.867 321.802 429.601 321.802 429.302 321.802C430.432 323.963 430.831 326.291 430.432 328.685C430.332 329.317 431.297 329.583 431.396 328.951C433.325 318.145 437.315 307.837 443.233 298.594C442.934 298.56 442.635 298.527 442.336 298.461C443.366 301.885 442.103 305.676 441.438 309.067C440.74 312.625 440.041 316.183 439.343 319.741C437.98 326.756 436.583 333.739 435.22 340.755C435.087 341.386 436.051 341.652 436.184 341.021C437.647 333.606 439.11 326.158 440.573 318.743C441.305 315.086 442.003 311.428 442.735 307.771C443.366 304.645 444.264 301.387 443.3 298.228C443.167 297.796 442.635 297.762 442.402 298.095C436.45 307.405 432.394 317.812 430.465 328.685C430.798 328.785 431.097 328.851 431.43 328.951C431.895 326.291 431.463 323.697 430.199 321.303C430.033 320.971 429.534 320.971 429.335 321.303C424.746 329.383 422.186 338.46 421.887 347.77C421.854 348.402 422.851 348.402 422.884 347.737Z" fill="#E8E8E8"/>
<path d="M439.708 325.226C440.506 323.83 441.338 322.433 442.235 321.07C442.701 320.405 443.166 319.74 443.632 319.075C443.931 318.643 444.796 317.014 445.361 316.914C447.023 316.615 446.126 318.975 445.993 319.541C445.826 320.405 445.627 321.236 445.461 322.101C445.128 323.697 444.762 325.293 444.43 326.889C442.967 333.572 441.471 340.255 439.875 346.939C439.742 347.57 440.706 347.836 440.839 347.205C442.867 338.526 444.829 329.815 446.691 321.103C446.924 320.073 448.653 314.487 445.56 315.617C444.164 316.116 443.067 318.177 442.269 319.341C441.038 321.07 439.908 322.866 438.877 324.728C438.545 325.293 439.409 325.792 439.708 325.226Z" fill="#E8E8E8"/>
<path d="M76.0201 246.857C76.7183 244.829 79.1123 244.795 80.8746 245.294C82.9693 245.893 84.4324 247.522 86.0949 248.852C88.6551 250.88 91.6476 251.878 94.5071 249.849C97.1671 247.987 98.8296 244.43 102.188 243.665C105.746 242.834 109.204 245.527 112.163 247.123C114.889 248.586 117.982 249.816 121.041 248.586C124.898 247.023 126.992 243.133 131.315 242.302C133.775 241.836 136.336 242.202 138.53 243.399C140.392 244.396 141.988 245.826 143.784 246.99C146.577 248.785 149.569 249.317 152.429 247.422C155.754 245.228 158.613 240.972 163.002 243.632C165.895 245.394 168.056 248.652 171.714 248.719C172.345 248.719 172.345 247.721 171.714 247.721C168.123 247.655 165.961 244.064 163.002 242.501C160.01 240.938 157.35 242.169 154.956 244.164C153.493 245.361 152.096 246.857 150.234 247.455C147.94 248.22 145.745 247.156 143.883 245.893C140.425 243.565 137.433 241.005 133.011 241.138C130.982 241.204 128.987 241.77 127.258 242.834C125.463 243.931 124.066 245.56 122.337 246.757C118.514 249.417 114.756 247.522 111.165 245.494C108.539 244.031 105.613 242.202 102.454 242.667C99.0291 243.166 97.2003 246.258 94.7731 248.386C92.7116 250.215 90.3841 250.548 87.9901 249.085C86.0948 247.921 84.6319 246.059 82.6701 245.028C80.1764 243.698 76.0866 243.399 74.9893 246.624C74.8563 247.189 75.8206 247.455 76.0201 246.857Z" fill="#E8E8E8"/>
<path d="M124.366 229.964C125.396 225.941 130.317 227.77 132.545 229.366C134.773 230.929 136.934 233.057 139.827 233.19C144.781 233.456 147.075 227.836 151.597 227.038C156.651 226.174 159.777 232.624 164.931 231.993C169.785 231.394 172.279 225.675 177.266 225.442C182.354 225.21 187.707 230.463 192.628 227.271C193.16 226.939 192.661 226.074 192.129 226.407C187.574 229.366 181.955 224.112 177.067 224.445C174.739 224.611 172.811 225.908 171.049 227.338C169.054 228.934 166.859 231.095 164.133 231.028C159.212 230.929 156.219 224.844 150.966 226.141C145.812 227.437 143.052 234.453 137.067 231.261C134.241 229.765 131.98 226.806 128.588 226.473C126.361 226.24 124 227.404 123.435 229.665C123.235 230.33 124.199 230.596 124.366 229.964Z" fill="#E8E8E8"/>
<path d="M349.535 165.86C351.164 163.433 354.389 162.302 357.182 163.233C360.008 164.164 361.571 167.09 364.397 168.121C366.791 168.985 369.551 168.852 371.812 167.655C374.14 166.458 375.835 164.297 378.13 163.067C383.45 160.274 386.475 166.99 390.964 168.354C395.553 169.75 398.745 165.261 402.435 163.466C408.952 160.274 413.873 170.814 420.257 166.924C420.789 166.591 420.291 165.727 419.759 166.059C416.4 168.121 412.909 165.095 410.116 163.399C407.922 162.069 405.528 161.238 403.001 162.136C398.545 163.732 394.954 169.717 389.767 166.691C386.143 164.563 383.25 159.875 378.429 161.837C375.935 162.834 374.173 165.062 371.912 166.458C368.554 168.487 364.663 167.788 361.771 165.295C359.643 163.466 357.781 161.77 354.788 161.903C352.294 162.003 350.033 163.266 348.637 165.328C348.304 165.893 349.169 166.392 349.535 165.86Z" fill="#E8E8E8"/>
<path d="M370.981 153.123C372.942 151.128 375.902 148.302 378.961 149.665C380.922 150.563 381.986 152.691 383.549 154.054C386.309 156.448 389.368 155.318 392.028 153.389C393.591 152.292 395.054 150.962 396.816 150.197C399.343 149.067 401.504 149.965 403.699 151.361C405.461 152.458 407.223 153.655 409.351 153.755C411.379 153.855 413.275 153.024 415.004 152.059C417.73 150.563 420.191 148.701 423.349 148.269C426.874 147.77 430.365 148.668 433.757 149.532C434.388 149.699 434.654 148.734 434.023 148.568C428.636 147.205 423.349 146.274 418.229 149.034C415.968 150.264 413.807 151.926 411.28 152.558C408.254 153.29 406.026 151.594 403.566 150.131C401.903 149.133 400.141 148.402 398.179 148.734C396.35 149.067 394.754 150.164 393.291 151.228C391.695 152.392 390.033 153.888 388.038 154.354C385.511 154.952 383.882 153.09 382.385 151.361C380.956 149.699 379.36 148.169 376.999 148.302C374.272 148.468 372.045 150.563 370.249 152.392C369.817 152.891 370.515 153.589 370.981 153.123Z" fill="#E8E8E8"/>
<path d="M315.819 245.06C318.147 242.699 320.973 240.072 324.564 240.638C327.124 241.037 329.252 242.832 331.347 244.262C333.242 245.559 335.304 246.756 337.664 246.855C339.759 246.955 341.721 246.157 343.45 245.027C347.706 242.167 350.698 237.246 355.786 235.75C359.443 234.686 362.735 235.717 365.894 237.579C368.221 238.942 370.582 240.272 373.342 239.906C376.334 239.507 378.761 237.479 381.355 236.049C385.079 234.021 389.368 233.622 393.425 234.885C394.023 235.085 394.289 234.121 393.691 233.921C390.698 232.99 387.539 232.89 384.514 233.688C381.488 234.52 379.094 236.415 376.367 237.811C374.672 238.676 372.876 239.241 370.981 238.842C369.318 238.51 367.855 237.545 366.392 236.714C363.766 235.185 361.139 234.121 358.047 234.353C352.494 234.752 349.003 239.008 345.112 242.433C343.117 244.195 340.823 245.858 338.063 245.891C335.204 245.891 332.81 244.096 330.582 242.533C328.454 241.07 326.093 239.507 323.4 239.574C320.042 239.673 317.382 242.101 315.154 244.395C314.655 244.827 315.354 245.525 315.819 245.06Z" fill="#E8E8E8"/>
<path d="M57.8656 91.4784C59.4283 89.2839 61.4566 87.2557 64.0833 86.4244C66.5438 85.6264 68.9046 86.2914 71.0326 87.6214C74.2578 89.6497 77.0508 92.8749 81.1073 92.9747C86.0616 93.1077 89.6858 89.0179 93.8088 86.9564C96.5353 85.5932 99.8271 84.8284 102.387 86.8899C104.15 88.2864 105.413 90.1484 107.441 91.2457C111.465 93.3737 116.552 93.0412 120.209 90.3479C120.708 89.9822 120.209 89.1177 119.711 89.4834C115.588 92.5092 109.536 92.3762 105.746 88.7852C104.116 87.2557 102.82 85.4269 100.559 84.8284C98.5636 84.2964 96.4356 84.7287 94.5403 85.5267C89.7523 87.4884 85.2636 93.2074 79.5778 91.8109C75.4548 90.7802 72.8613 86.8234 68.9046 85.4934C64.0833 83.8642 59.6611 87.2557 57.0343 91.0129C56.6353 91.5117 57.4998 92.0104 57.8656 91.4784Z" fill="#E8E8E8"/>
<path d="M111.431 141.22C113.493 138.959 116.386 137.131 119.578 137.895C121.938 138.461 123.834 140.19 125.895 141.387C129.852 143.681 134.374 143.249 138.098 140.655C140.093 139.292 141.523 137.23 143.551 135.967C146.377 134.171 149.436 135.136 152.196 136.499C154.49 137.629 156.685 138.826 159.112 139.658C161.739 140.522 164.432 141.021 167.192 141.187C167.823 141.22 167.823 140.223 167.192 140.19C164.133 139.99 161.14 139.392 158.281 138.294C155.587 137.264 153.16 135.668 150.467 134.67C148.306 133.872 145.978 133.639 143.85 134.637C141.589 135.734 140.06 137.862 138.098 139.392C135.804 141.187 132.811 142.284 129.852 141.852C127.125 141.453 125.064 139.624 122.77 138.261C118.381 135.668 114.058 136.865 110.667 140.522C110.301 140.988 110.999 141.686 111.431 141.22Z" fill="#E8E8E8"/>
<path d="M338.196 74.555C344.015 70.8975 350.2 76.6165 355.752 78.0462C361.604 79.5757 366.226 75.885 371.712 74.6215C377.598 73.225 383.416 75.885 389.302 75.885C391.895 75.885 394.289 75.2865 396.55 74.023C399.077 72.6265 401.538 70.5982 404.53 70.432C410.05 70.0995 414.505 75.486 420.158 73.8567C420.789 73.6905 420.523 72.7262 419.892 72.8925C414.804 74.3555 410.415 69.7005 405.428 69.4345C402.868 69.3015 400.607 70.432 398.479 71.7287C395.785 73.3247 393.292 74.7545 390.1 74.8875C384.281 75.1202 378.662 72.56 372.843 73.3912C366.791 74.2557 361.87 78.8775 355.486 76.949C349.867 75.22 343.683 69.9665 337.731 73.6905C337.132 74.0562 337.631 74.9207 338.196 74.555Z" fill="#E8E8E8"/>
<path d="M87.5578 182.882C88.0898 186.041 92.1795 186.207 94.507 185.11C96.8345 184.013 98.763 181.719 101.49 181.685C103.751 181.652 105.812 183.049 107.84 183.88C109.47 184.545 111.232 184.977 112.961 184.412C115.022 183.714 116.352 181.852 118.115 180.688C123.435 177.197 129.519 181.685 134.141 184.212C134.706 184.512 135.205 183.647 134.64 183.348C130.65 181.187 126.593 178.227 121.839 178.493C119.91 178.593 118.214 179.291 116.718 180.488C114.69 182.118 112.994 184.179 110.101 183.581C106.344 182.816 103.285 179.557 99.2285 181.187C97.2335 181.985 95.704 183.581 93.7423 184.379C91.9468 185.11 88.921 185.01 88.522 182.65C88.4223 181.985 87.458 182.284 87.5578 182.882Z" fill="#00A79D"/>
<path d="M205.595 274.654C207.89 270.897 213.476 276.084 216.302 276.383C217.898 276.549 219.161 275.884 220.292 274.82C221.023 274.122 221.655 273.291 222.52 272.725C223.85 271.894 225.313 272.06 226.709 272.592C229.569 273.69 233.126 276.749 236.219 274.388C236.95 273.823 237.382 272.991 238.047 272.36C239.311 271.163 241.106 272.027 242.503 272.526C244.93 273.39 247.391 274.222 249.818 275.086C250.416 275.286 250.682 274.321 250.084 274.122C247.457 273.191 244.797 272.26 242.17 271.329C240.441 270.73 238.812 270.232 237.349 271.628C236.485 272.459 236.019 273.523 234.855 273.989C233.459 274.521 231.896 273.989 230.599 273.39C228.671 272.493 226.875 271.129 224.681 271.063C222.786 270.996 221.489 272.127 220.259 273.39C219.361 274.288 218.43 275.219 217.1 275.352C215.57 275.485 214.041 274.587 212.744 273.856C210.35 272.559 206.56 271.129 204.731 274.089C204.398 274.72 205.263 275.219 205.595 274.654Z" fill="#00A79D"/>
<path d="M375.004 212.111C376.201 209.085 380.424 211.08 382.419 211.845C384.646 212.709 386.741 212.942 388.703 211.346C389.833 210.448 390.731 209.417 392.061 208.752C393.458 208.054 395.02 207.655 396.55 207.622C399.775 207.555 401.837 209.318 404.63 210.548C406.758 211.479 408.62 211.213 410.448 209.883C411.479 209.118 412.41 208.154 413.541 207.555C414.738 206.924 416.101 206.791 417.431 206.857C421.82 207.09 426.442 209.65 430.631 207.256C431.196 206.924 430.698 206.092 430.132 206.392C426.475 208.453 422.152 206.358 418.329 205.926C416.666 205.727 414.97 205.793 413.441 206.491C411.479 207.389 410.116 209.484 408.021 210.049C405.494 210.714 403.266 208.453 401.138 207.522C399.409 206.757 397.448 206.491 395.586 206.691C393.624 206.89 391.695 207.622 390.099 208.786C389.401 209.284 388.836 209.916 388.204 210.481C386.774 211.678 385.212 211.712 383.516 211.146C380.69 210.215 375.735 207.755 374.106 211.845C373.807 212.443 374.771 212.709 375.004 212.111Z" fill="#00A79D"/>
<path d="M205.662 50.2819C205.695 48.3534 208.422 49.8497 208.987 50.3484C209.519 50.8472 210.018 51.4124 210.616 51.8779C211.614 52.6094 212.777 52.8422 213.941 52.3434C215.271 51.7782 216.202 50.5479 217.299 49.6502C218.829 48.3867 220.491 48.3534 222.353 48.9187C224.847 49.6834 227.507 51.4457 230.234 50.7474C231.63 50.3817 232.461 49.3177 233.359 48.2537C235.687 45.6269 238.28 47.0899 240.541 49.0184C241.04 49.4507 241.738 48.7192 241.239 48.3202C239.71 47.0234 237.815 45.4939 235.653 45.6934C233.791 45.8929 232.927 47.3559 231.763 48.5529C228.704 51.7449 224.415 47.9877 220.924 47.5554C219.427 47.3892 218.097 47.7549 216.9 48.6527C214.939 50.1489 213.243 52.9419 210.683 50.6144C209.519 49.5504 208.621 48.3202 206.925 48.3202C205.728 48.3534 204.698 48.9519 204.664 50.2487C204.631 50.9137 205.629 50.9137 205.662 50.2819Z" fill="#00A79D"/>
<path d="M130.517 193.923C130.45 191.595 133.31 192.028 134.573 192.693C135.538 193.191 136.369 193.856 137.333 194.322C138.763 194.987 140.326 195.12 141.622 194.122C143.351 192.792 143.983 190.797 146.577 191.063C148.904 191.296 150.766 192.859 152.927 193.59C154.557 194.122 156.153 194.122 157.682 193.258C159.278 192.36 160.508 190.664 162.37 190.232C164.399 189.8 166.294 191.196 167.956 192.094C169.32 192.859 170.683 193.457 172.279 193.457C172.911 193.457 172.911 192.46 172.279 192.46C168.522 192.393 165.629 188.104 161.672 189.368C159.91 189.933 158.746 191.496 157.15 192.36C154.291 193.956 151.597 191.695 148.971 190.664C147.242 189.966 145.213 189.6 143.551 190.698C142.886 191.13 142.42 191.795 141.888 192.36C140.558 193.923 139.095 194.122 137.3 193.191C135.671 192.36 134.174 190.897 132.246 191.063C130.716 191.196 129.42 192.294 129.486 193.89C129.519 194.588 130.517 194.588 130.517 193.923Z" fill="#606161"/>
<path d="M365.893 220.389C366.625 218.926 368.354 218.062 369.95 218.561C371.313 218.993 371.912 220.489 373.275 220.921C375.303 221.586 376.833 219.658 378.395 218.76C381.155 217.197 382.818 220.788 385.577 220.888C388.437 220.988 391.064 218.727 393.923 219.658C394.522 219.857 394.788 218.893 394.189 218.694C391.13 217.663 388.57 220.024 385.577 219.891C383.715 219.791 382.818 218.195 381.222 217.53C380.191 217.098 379.193 217.231 378.196 217.729C377.065 218.295 376.201 219.292 375.07 219.791C373.075 220.689 372.244 218.494 370.648 217.763C368.553 216.798 365.96 217.829 364.962 219.857C364.763 220.456 365.627 220.955 365.893 220.389Z" fill="#606161"/>
<path d="M127.358 112.592C129.286 112.592 130.849 111.029 130.849 109.101C130.849 107.172 129.286 105.609 127.358 105.609C125.43 105.609 123.867 107.172 123.867 109.101C123.867 111.029 125.43 112.592 127.358 112.592Z" fill="#606161"/>
<path d="M436.45 240.006C438.47 240.006 440.107 238.369 440.107 236.349C440.107 234.329 438.47 232.691 436.45 232.691C434.43 232.691 432.792 234.329 432.792 236.349C432.792 238.369 434.43 240.006 436.45 240.006Z" fill="#606161"/>
<path d="M129.154 301.286C130.145 301.286 130.949 300.482 130.949 299.491C130.949 298.499 130.145 297.695 129.154 297.695C128.162 297.695 127.358 298.499 127.358 299.491C127.358 300.482 128.162 301.286 129.154 301.286Z" fill="#606161"/>
<path d="M382.984 108.371C385.206 108.371 387.007 106.569 387.007 104.347C387.007 102.125 385.206 100.324 382.984 100.324C380.762 100.324 378.961 102.125 378.961 104.347C378.961 106.569 380.762 108.371 382.984 108.371Z" fill="#606161"/>
<path d="M235.687 193.955C236.862 193.955 237.815 193.002 237.815 191.827C237.815 190.652 236.862 189.699 235.687 189.699C234.511 189.699 233.559 190.652 233.559 191.827C233.559 193.002 234.511 193.955 235.687 193.955Z" fill="#606161"/>
<path d="M138.198 105.611C139.593 105.611 140.725 104.479 140.725 103.084C140.725 101.688 139.593 100.557 138.198 100.557C136.802 100.557 135.671 101.688 135.671 103.084C135.671 104.479 136.802 105.611 138.198 105.611Z" fill="#00A79D"/>
<path d="M164.532 34.9206C166.956 34.9206 168.921 32.9556 168.921 30.5316C168.921 28.1076 166.956 26.1426 164.532 26.1426C162.108 26.1426 160.143 28.1076 160.143 30.5316C160.143 32.9556 162.108 34.9206 164.532 34.9206Z" fill="#00A79D"/>
<path d="M345.877 198.777C347.658 198.777 349.102 197.333 349.102 195.551C349.102 193.77 347.658 192.326 345.877 192.326C344.096 192.326 342.652 193.77 342.652 195.551C342.652 197.333 344.096 198.777 345.877 198.777Z" fill="#00A79D"/>
<path d="M212.711 248.054C214.492 248.054 215.936 246.61 215.936 244.829C215.936 243.048 214.492 241.604 212.711 241.604C210.93 241.604 209.486 243.048 209.486 244.829C209.486 246.61 210.93 248.054 212.711 248.054Z" fill="white"/>
<path d="M181.203 373.77C181.203 373.77 161.419 373.571 155.833 367.619C154.071 365.757 153.406 363.596 153.406 363.596C153.107 362.665 152.974 361.7 152.974 360.67V311.127C152.974 305.674 157.396 301.285 162.816 301.285H201.552C207.005 301.285 211.394 305.707 211.394 311.127V360.67C211.294 362.798 210.762 365.89 208.734 368.583C204.677 373.903 196.797 373.936 181.203 373.77Z" fill="white" stroke="#161616" stroke-width="3" stroke-miterlimit="10"/>
<path d="M153.406 307.338C156.232 310.53 160.289 311.86 164.345 312.624C169.566 313.589 174.985 314.187 180.272 314.52C190.48 315.185 201.319 313.988 209.698 307.604C210.197 307.205 209.698 306.34 209.2 306.739C201.12 312.924 190.779 314.154 180.937 313.555C175.817 313.256 170.663 312.658 165.609 311.826C161.386 311.128 157.064 309.931 154.138 306.606C153.672 306.141 152.974 306.872 153.406 307.338Z" fill="#161616"/>
<path d="M153.074 318.908C156.066 322.233 160.455 323.297 164.645 324.261C170.231 325.558 175.916 326.722 181.669 326.888C187.255 327.054 192.541 325.99 197.861 324.328C202.516 322.865 207.437 321.502 211.261 318.343C211.76 317.944 211.062 317.246 210.563 317.645C206.806 320.77 201.885 322.067 197.296 323.497C192.176 325.093 187.055 326.09 181.669 325.924C176.315 325.758 171.062 324.727 165.842 323.53C161.552 322.566 156.864 321.635 153.772 318.21C153.34 317.711 152.641 318.443 153.074 318.908Z" fill="#161616"/>
<path d="M152.974 331.775C170.563 341.983 193.106 342.249 210.928 332.44C211.494 332.141 210.995 331.276 210.43 331.576C192.94 341.218 170.762 340.952 153.506 330.911C152.907 330.578 152.408 331.443 152.974 331.775Z" fill="#161616"/>
<path d="M152.741 342.449C153.805 346.971 159.624 348.501 163.447 349.731C168.801 351.427 174.353 352.424 179.939 352.757C185.525 353.089 191.178 352.69 196.664 351.626C201.751 350.629 207.138 349.232 210.995 345.542C211.46 345.109 210.762 344.378 210.297 344.843C206.672 348.335 201.519 349.631 196.697 350.629C191.577 351.66 186.357 352.059 181.136 351.859C176.016 351.66 170.929 350.862 166.008 349.498C163.481 348.8 160.92 347.969 158.493 346.905C156.398 345.974 154.27 344.644 153.705 342.25C153.539 341.552 152.608 341.818 152.741 342.449Z" fill="#161616"/>
<path d="M152.907 356.945C156.631 360.802 161.652 362.897 166.806 364.127C172.491 365.491 178.443 366.156 184.262 366.156C194.004 366.189 203.281 363.496 211.593 358.408C212.125 358.076 211.627 357.211 211.095 357.544C203.081 362.465 194.17 365.125 184.761 365.158C179.008 365.191 173.156 364.56 167.57 363.263C162.417 362.099 157.363 360.104 153.605 356.214C153.173 355.782 152.475 356.48 152.907 356.945Z" fill="#161616"/>
<path d="M374.95 356.548C374.95 356.548 355.167 356.282 349.581 348.834C347.818 346.473 347.153 343.78 347.153 343.78C346.854 342.616 346.721 341.386 346.721 340.123V278.012C346.721 271.195 351.143 265.676 356.563 265.676H395.299C400.752 265.676 405.141 271.195 405.141 278.012V340.123C405.042 342.816 404.51 346.673 402.481 350.031C398.458 356.714 390.545 356.748 374.95 356.548Z" fill="white" stroke="#161616" stroke-width="3" stroke-miterlimit="10"/>
<path d="M346.389 341.751C353.87 348.933 364.577 351.161 374.618 351.759C385.458 352.391 396.862 350.396 405.009 342.749C405.474 342.316 404.776 341.618 404.31 342.05C396.33 349.532 385.158 351.394 374.618 350.795C364.843 350.23 354.402 348.102 347.12 341.086C346.622 340.587 345.923 341.286 346.389 341.751Z" fill="#161616"/>
<path d="M346.289 334.371C363.679 347.239 387.818 347.139 405.142 334.172C405.64 333.806 405.142 332.908 404.643 333.307C396.43 339.492 386.355 343.016 376.048 343.083C365.541 343.182 355.233 339.724 346.821 333.473C346.256 333.141 345.757 334.005 346.289 334.371Z" fill="#161616"/>
<path d="M346.655 326.89C355.599 332.343 365.973 336.499 376.613 335.867C382.199 335.535 387.419 333.64 392.606 331.678C397.128 329.982 401.617 328.12 405.208 324.828C405.673 324.396 404.975 323.698 404.51 324.13C400.819 327.522 396.131 329.284 391.542 331.046C386.521 332.941 381.467 334.704 376.048 334.936C365.74 335.369 355.832 331.312 347.153 326.059C346.621 325.693 346.123 326.557 346.655 326.89Z" fill="#161616"/>
<path d="M346.522 318.311C364.809 327.854 387.718 327.089 405.308 316.283C405.84 315.951 405.341 315.086 404.809 315.419C387.519 326.025 365.009 326.823 347.02 317.447C346.455 317.148 345.956 318.012 346.522 318.311Z" fill="#161616"/>
<path d="M346.588 309.2C365.108 317.08 386.588 316.614 404.742 307.936C405.308 307.67 404.809 306.806 404.244 307.072C386.455 315.584 365.241 316.049 347.087 308.335C346.522 308.069 345.99 308.934 346.588 309.2Z" fill="#161616"/>
<path d="M346.754 300.621C365.84 306.174 386.488 305.309 405.008 298.194C405.607 297.961 405.341 296.997 404.742 297.229C386.355 304.278 365.906 305.143 347.02 299.657C346.389 299.457 346.123 300.421 346.754 300.621Z" fill="#161616"/>
<path d="M347.087 290.779C365.774 297.363 386.621 296.465 404.709 288.419C405.308 288.153 404.776 287.288 404.211 287.554C386.389 295.501 365.774 296.299 347.353 289.815C346.755 289.616 346.489 290.58 347.087 290.779Z" fill="#161616"/>
<path d="M346.755 280.938C365.674 287.422 386.755 286.391 404.976 278.145C405.574 277.879 405.042 277.015 404.477 277.281C386.522 285.427 365.707 286.391 347.054 279.974C346.422 279.741 346.156 280.705 346.755 280.938Z" fill="#161616"/>
<path d="M347.852 272.258C365.873 276.814 384.959 276.448 402.781 271.194C403.379 271.028 403.147 270.064 402.515 270.23C384.826 275.417 365.973 275.783 348.118 271.294C347.486 271.128 347.22 272.092 347.852 272.258Z" fill="#161616"/>
<path d="M363.931 336.347C369.722 317.245 367.008 299.513 357.87 296.743C348.731 293.973 336.629 307.213 330.838 326.316C325.047 345.418 327.761 363.15 336.9 365.92C346.038 368.69 358.14 355.45 363.931 336.347Z" fill="#161616" stroke="#161616" stroke-width="3" stroke-miterlimit="10"/>
<path d="M359.361 334.963C365.151 315.86 362.438 298.128 353.299 295.358C344.161 292.588 332.058 305.828 326.268 324.931C320.477 344.034 323.191 361.765 332.329 364.535C341.468 367.306 353.57 354.065 359.361 334.963Z" fill="white" stroke="#161616" stroke-width="3" stroke-miterlimit="10"/>
<path d="M346.788 308.634C345.99 311.56 345.092 314.453 344.095 317.345C343.895 317.944 344.86 318.21 345.059 317.611C346.023 314.752 346.921 311.826 347.752 308.9C347.919 308.268 346.954 308.035 346.788 308.634Z" fill="#161616"/>
<path d="M350.944 319.708C347.42 317.846 342.898 316.45 339.373 319.11C336.879 321.005 336.214 325.095 338.908 327.156C340.603 328.453 342.798 328.586 344.294 330.215C346.056 332.11 346.655 334.97 345.591 337.364C343.297 342.385 336.414 342.484 333.721 337.796C333.388 337.231 332.524 337.73 332.856 338.295C334.685 341.487 338.675 343.182 342.199 341.819C345.558 340.522 347.686 336.932 346.987 333.374C346.655 331.612 345.691 329.982 344.327 328.819C342.598 327.389 339.606 327.289 338.542 325.161C337.179 322.468 339.273 319.708 341.834 318.877C344.793 317.912 347.819 319.11 350.445 320.473C351.011 320.872 351.509 320.007 350.944 319.708Z" fill="#161616"/>
<path d="M336.913 341.585C336.248 343.78 335.583 345.974 334.918 348.169C334.718 348.801 335.682 349.033 335.882 348.435C336.547 346.24 337.212 344.046 337.877 341.851C338.076 341.253 337.112 340.987 336.913 341.585Z" fill="#161616"/>
<path d="M245.775 344.744C245.742 346.839 245.708 348.934 245.642 351.028C242.217 352.89 238.659 354.985 235.002 357.346C230.214 360.405 225.858 363.53 221.968 366.556C222.566 367.121 223.165 367.653 223.763 368.219C226.989 367.587 230.314 366.889 233.705 366.091C241.785 364.195 249.266 361.968 256.182 359.64C256.049 355.55 255.916 351.427 255.783 347.338C254.453 347.338 252.658 347.205 250.629 346.706C248.601 346.141 246.972 345.409 245.775 344.744Z" fill="#141414"/>
<path d="M252.192 168.619C251.76 172.077 251.128 177.397 250.363 183.881C247.47 208.287 244.744 233.557 243.514 246.524C241.884 263.448 239.59 293.606 238.825 338.261C240.488 340.123 243.115 342.583 246.872 344.379C256.082 348.834 265.126 346.141 267.52 345.31C267.72 337.43 268.119 326.324 268.883 313.057C269.249 306.441 271.111 275.452 276.498 232.459C278.06 220.09 280.255 204.031 283.281 185.211C288.434 177.331 290.995 168.453 287.67 163.765C283.281 157.614 267.853 157.248 252.192 168.619Z" fill="white"/>
<path opacity="0.09" d="M267.553 192.326C267.32 195.917 267.054 199.541 266.822 203.132C263.497 251.212 259.839 299.291 255.816 347.338C259.706 346.673 263.63 345.974 267.52 345.309C267.819 333.572 268.351 321.502 269.116 309.2C270.878 280.804 273.738 253.905 277.329 228.602C277.861 217.762 278.393 206.89 278.891 196.05C275.101 194.787 271.31 193.556 267.553 192.326Z" fill="#777777"/>
<path d="M251.693 168.619C249.033 190.63 246.373 212.675 244.146 234.753C241.918 256.798 240.122 278.909 239.158 301.053C238.626 313.555 238.36 326.057 238.427 338.559C238.427 339.191 239.424 339.191 239.424 338.559C239.291 316.382 240.222 294.237 241.851 272.126C243.481 250.015 245.742 227.937 248.269 205.892C249.698 193.456 251.195 181.021 252.691 168.585C252.791 167.987 251.793 167.987 251.693 168.619Z" fill="#161616"/>
<path d="M280.421 202.367C274.469 239.175 270.446 276.282 268.351 313.522C267.753 324.096 267.321 334.702 267.021 345.276C266.988 345.908 267.986 345.908 268.019 345.276C269.05 308.169 271.942 271.095 276.764 234.254C278.16 223.681 279.69 213.14 281.385 202.6C281.452 202.002 280.521 201.736 280.421 202.367Z" fill="#161616"/>
<path d="M238.393 338.46C244.976 347.603 256.88 348.834 267.088 346.34C267.719 346.174 267.453 345.243 266.822 345.376C257.079 347.736 245.542 346.672 239.224 337.928C238.858 337.462 237.994 337.961 238.393 338.46Z" fill="#161616"/>
<path d="M245.276 344.745C245.309 346.341 245.608 348.27 245.342 349.866C245.043 351.661 242.982 352.193 241.519 352.991C238.626 354.554 235.8 356.25 233.007 358.012C230.413 359.674 227.853 361.403 225.326 363.232C224.162 364.063 220.737 365.659 221.569 367.555C222.466 369.683 225.891 368.353 227.421 368.02C230.546 367.355 233.638 366.624 236.731 365.859C243.347 364.196 249.864 362.268 256.315 360.107C256.913 359.907 256.647 358.943 256.049 359.142C250.396 361.038 244.711 362.767 238.925 364.263C236.032 365.028 233.14 365.726 230.247 366.391C228.784 366.723 227.354 367.023 225.891 367.355C225.459 367.455 225.06 367.521 224.628 367.621C223.83 368.02 223.464 367.787 223.564 366.856C223.131 366.258 223.198 365.826 223.83 365.593C224.162 365.36 224.495 365.094 224.827 364.861C229.449 361.437 234.303 358.278 239.324 355.418C240.588 354.687 241.851 354.022 243.115 353.324C244.046 352.825 245.442 352.426 246.007 351.462C246.373 350.896 246.34 350.265 246.34 349.6C246.34 348.004 246.307 346.408 246.273 344.812C246.273 344.113 245.276 344.113 245.276 344.745Z" fill="#161616"/>
<path d="M255.317 347.306C255.417 351.362 255.55 355.386 255.65 359.442C255.683 360.074 256.68 360.074 256.647 359.442C256.547 355.386 256.414 351.362 256.315 347.306C256.281 346.674 255.284 346.674 255.317 347.306Z" fill="#161616"/>
<path d="M298.875 346.973C299.174 349.699 299.44 352.425 299.739 355.152C295.251 357.812 289.731 361.835 284.611 367.854C282.782 370.015 281.219 372.143 279.922 374.171C281.053 374.238 282.782 374.238 284.843 374.038C290.695 373.473 294.419 371.611 301.601 368.519C304.328 367.355 308.484 365.593 313.738 363.531C313.305 360.738 312.873 357.845 312.507 354.919C311.842 349.832 311.344 344.911 310.945 340.156C306.888 342.451 302.898 344.712 298.875 346.973Z" fill="#141414"/>
<path d="M267.686 168.852C266.589 170.946 265.625 174.704 265.359 178.361C264.893 184.612 266.456 189.6 267.553 192.326C269.848 193.39 272.142 194.454 274.436 195.485C274.968 201.47 275.467 207.488 275.999 213.473C277.429 230.065 278.892 246.657 280.321 263.248C283.114 295.468 284.577 311.86 286.772 325.991C288.168 334.902 289.532 342.184 290.463 346.972C291.726 347.238 293.522 347.57 295.716 347.737C298.742 347.969 303.297 348.302 308.218 346.573C313.538 344.711 317.029 341.253 318.925 338.992C318.193 334.969 317.129 328.751 316.098 321.137C314.004 305.709 313.172 293.04 311.975 267.737C311.377 254.736 311.676 259.89 310.512 233.124C309.382 207.388 308.684 193.091 306.522 174.338C305.924 169.184 305.359 164.928 304.96 162.102C287.104 158.012 271.776 161.038 267.686 168.852Z" fill="white"/>
<path d="M267.287 192.758C269.615 193.855 271.942 194.919 274.27 196.017C274.835 196.283 275.367 195.418 274.768 195.152C272.441 194.055 270.113 192.991 267.786 191.894C267.221 191.628 266.722 192.459 267.287 192.758Z" fill="#161616"/>
<path d="M273.937 195.486C275.666 215.369 277.395 235.219 279.124 255.103C280.82 274.587 282.183 294.172 284.611 313.59C285.974 324.396 287.67 335.169 289.698 345.875C289.831 346.507 290.795 346.241 290.662 345.609C287.005 326.391 284.644 307.039 282.948 287.555C281.252 267.904 279.523 248.253 277.827 228.603C276.863 217.564 275.899 206.525 274.935 195.486C274.868 194.854 273.871 194.854 273.937 195.486Z" fill="#161616"/>
<path d="M305.292 168.319C307.985 190.464 309.116 212.775 310.08 235.052C311.011 257.33 311.742 279.64 313.638 301.851C314.668 314.187 316.098 326.49 318.027 338.692C318.126 339.324 319.091 339.058 318.991 338.426C315.467 316.448 313.804 294.27 312.674 272.059C311.543 249.882 310.978 227.671 309.581 205.526C308.816 193.091 307.786 180.688 306.289 168.353C306.223 167.688 305.225 167.688 305.292 168.319Z" fill="#161616"/>
<path d="M289.864 346.107C289.332 348.468 293.222 348.168 294.519 348.235C298.077 348.368 301.635 348.401 305.159 347.836C310.778 346.938 316.265 344.278 319.357 339.324C319.689 338.792 318.825 338.293 318.492 338.825C315.965 342.848 311.709 345.309 307.187 346.406C304.461 347.071 301.668 347.304 298.842 347.337C297.977 347.337 290.562 347.47 290.795 346.406C290.961 345.774 289.997 345.508 289.864 346.107Z" fill="#161616"/>
<path d="M298.542 348.235C298.775 349.898 299.074 351.594 299.274 353.256C299.54 355.384 298.143 356.315 296.68 357.545C294.453 359.407 292.059 361.07 289.764 362.832C285.708 365.924 281.784 369.316 279.457 373.938C279.357 374.17 279.39 374.503 279.623 374.636C281.984 375.733 284.444 374.736 286.772 374.004C289.798 373.04 292.823 372.042 295.816 370.945C301.867 368.784 307.819 366.39 313.671 363.796C314.27 363.53 313.738 362.666 313.172 362.932C307.786 365.326 302.3 367.554 296.747 369.549C294.153 370.48 291.527 371.377 288.9 372.242C286.406 373.04 282.649 374.968 280.089 373.771C280.155 374.004 280.222 374.237 280.255 374.47C283.081 368.917 288.168 365.226 293.056 361.602C295.184 360.006 297.811 358.41 299.54 356.315C300.205 355.484 300.371 354.653 300.271 353.589C300.105 351.727 299.739 349.831 299.44 348.003C299.407 347.338 298.443 347.604 298.542 348.235Z" fill="#161616"/>
<path d="M310.545 345.408C311.476 351.493 312.407 357.578 313.272 363.696C313.372 364.328 314.336 364.062 314.236 363.43C313.372 357.345 312.474 351.227 311.51 345.142C311.41 344.511 310.446 344.777 310.545 345.408Z" fill="#161616"/>
<path opacity="0.08" d="M293.023 169.052C294.32 179.825 295.55 190.598 296.714 201.371C302 249.55 306.256 297.829 309.482 346.241C310.812 345.809 312.773 345.044 314.802 343.481C316.863 341.919 318.16 340.223 318.925 339.059C318.193 334.903 317.129 328.685 316.098 321.137C313.704 303.615 312.973 290.68 311.676 261.42C310.014 224.18 310.18 222.219 309.282 208.42C308.152 191.196 306.755 177.198 305.824 168.32C301.535 168.553 297.279 168.819 293.023 169.052Z" fill="#777777"/>
<path d="M250.197 93.107C249.133 94.038 248.235 95.1685 246.639 98.4602C244.212 103.514 243.015 107.704 242.716 108.701C241.386 113.356 239.557 117.512 235.933 125.858C230.114 139.191 230.978 133.871 229.183 138.925C228.717 140.255 227.786 143.015 225.359 144.179C223.63 144.977 221.901 144.611 221.535 144.511C219.773 144.079 218.742 142.949 216.681 140.621C214.054 137.595 212.757 136.099 212.159 135.268C210.43 132.874 207.77 129.482 203.979 125.359C203.248 124.196 202.217 122.766 200.821 121.27C199.59 119.94 198.593 119.108 196.598 117.413C193.24 114.586 192.275 114.254 191.378 114.453C191.311 114.453 190.214 114.719 189.948 115.484C189.649 116.415 190.613 117.812 192.575 118.842C190.979 120.006 189.549 120.638 188.551 120.97C186.889 121.569 184.827 122.3 182.533 121.702C181.436 121.403 180.605 120.904 179.275 120.073C177.113 118.743 176.415 117.745 175.484 118.044C174.719 118.277 174.32 119.241 174.221 119.873C174.088 120.837 174.52 121.835 175.351 122.467C175.584 123.032 175.783 123.797 175.451 124.362C175.152 124.827 174.686 124.827 174.42 125.193C174.154 125.592 174.187 126.457 175.551 128.352C175.285 128.518 174.354 129.083 174.387 129.848C174.42 130.38 174.919 130.746 175.717 131.278C178.443 133.206 177.679 132.874 178.743 133.506C179.807 134.137 181.768 135.301 184.462 135.9C188.319 136.797 191.677 136.099 193.539 135.567C194.27 135.6 195.368 135.8 196.432 136.432C198.227 137.529 198.925 139.358 199.324 140.255C199.324 140.289 201.253 142.982 205.043 148.368C208.568 153.356 210.33 155.85 212.225 157.645C214.786 160.072 217.08 162.2 220.704 162.832C223.896 163.397 226.556 162.5 227.786 162.067C230.413 161.136 232.242 159.74 234.769 157.412C237.662 154.752 241.419 151.228 245.741 145.11C249.499 139.79 251.693 135.268 252.425 133.672C254.619 129.017 255.617 125.559 257.678 118.676C259.44 112.724 260.405 109.433 260.97 104.744C261.768 98.1277 262.433 92.7412 259.607 90.9125C257.08 89.1835 252.657 91.0122 250.197 93.107Z" fill="white"/>
<path d="M251.228 91.3446C247.736 94.6031 245.642 98.9256 244.046 103.381C242.15 108.568 240.521 113.822 238.426 118.942C236.132 124.595 233.505 130.081 230.579 135.434C229.283 137.828 228.019 140.621 226.224 142.716C223.564 145.775 220.172 143.58 217.978 141.253C213.123 136.132 208.767 130.447 204.212 125.06C203.813 124.561 203.082 125.293 203.514 125.758C207.903 130.945 212.192 136.265 216.714 141.353C218.244 143.082 220.239 144.977 222.633 145.276C224.794 145.509 226.423 144.245 227.587 142.55C231.111 137.529 233.805 131.644 236.365 126.091C238.958 120.505 241.219 114.786 243.148 108.967C245.176 102.916 247.105 96.5649 251.893 92.0761C252.425 91.6106 251.693 90.9124 251.228 91.3446Z" fill="#161616"/>
<path d="M204.478 125.193C203.414 122.666 201.319 120.97 199.324 119.174C197.396 117.412 195.434 115.184 193.04 114.087C191.81 113.522 190.014 113.389 189.549 114.985C188.884 117.246 191.644 118.41 192.807 119.74C193.24 120.205 193.938 119.507 193.506 119.041C193.107 118.609 192.708 118.243 192.242 117.878C191.81 117.545 191.112 117.213 190.912 116.681C190.513 116.315 190.646 115.949 191.278 115.55C191.378 114.819 191.644 114.586 192.076 114.785C192.708 114.719 193.805 115.683 194.304 116.049C195.002 116.581 195.634 117.146 196.299 117.745C198.792 120.006 202.217 122.333 203.547 125.492C203.78 126.024 204.744 125.758 204.478 125.193Z" fill="#161616"/>
<path d="M192.575 118.81C190.081 119.807 187.321 121.337 184.561 121.403C183.098 121.437 181.635 121.038 180.405 120.24C179.474 119.674 178.809 118.81 177.911 118.178C176.781 117.38 174.985 117.048 174.088 118.344C173.057 119.774 174.42 121.37 175.418 122.334C175.883 122.767 176.581 122.068 176.116 121.636C175.684 121.237 175.185 120.772 174.985 120.24C174.553 119.109 175.451 118.278 176.548 118.544C177.546 118.81 178.244 119.774 178.975 120.373C180.106 121.304 181.469 121.935 182.899 122.201C186.357 122.833 189.748 120.971 192.841 119.708C193.406 119.508 193.173 118.544 192.575 118.81Z" fill="#161616"/>
<path d="M174.952 129.815C175.384 129.183 175.883 128.983 176.448 129.15C176.714 129.216 176.98 129.283 177.246 129.349C177.679 129.482 178.144 129.615 178.576 129.748C179.541 130.081 180.472 130.446 181.436 130.779C183.198 131.377 184.96 131.81 186.856 131.677C187.487 131.643 187.487 130.646 186.856 130.679C183.132 130.945 180.006 128.751 176.448 128.152C175.65 128.019 174.653 127.953 174.088 128.684C173.622 129.283 173.722 130.047 174.254 130.546C174.719 130.978 175.418 130.247 174.952 129.815Z" fill="#161616"/>
<path d="M176.083 128.152C175.85 127.586 175.318 126.755 175.285 126.157C174.853 125.591 175.085 125.292 175.983 125.292C176.116 125.359 176.216 125.458 176.349 125.525C176.981 125.724 177.646 126.29 178.277 126.589C178.743 126.788 179.208 126.955 179.674 127.121C181.968 127.819 184.362 127.852 186.69 127.32C187.321 127.187 187.055 126.223 186.424 126.356C184.462 126.822 182.434 126.822 180.472 126.29C179.541 126.057 178.643 125.691 177.812 125.226C177.213 124.893 176.681 124.394 176.05 124.162C175.318 123.896 174.387 124.029 174.088 124.827C173.722 125.857 174.819 127.487 175.185 128.384C175.351 129.016 176.316 128.75 176.083 128.152Z" fill="#161616"/>
<path d="M176.149 124.029C175.916 123.497 175.85 122.999 175.883 122.433C175.717 122.6 175.551 122.766 175.384 122.932C176.881 122.733 177.978 123.697 179.241 124.329C180.172 124.794 181.137 125.06 182.167 125.226C184.395 125.559 186.623 125.326 188.851 125.06C189.482 124.994 189.482 123.996 188.851 124.063C186.39 124.362 183.83 124.661 181.403 124.063C179.341 123.531 177.612 121.669 175.384 121.968C175.118 122.001 174.919 122.167 174.886 122.467C174.852 123.165 174.919 123.697 175.185 124.329C175.418 124.861 176.382 124.628 176.149 124.029Z" fill="#161616"/>
<path d="M174.087 130.147C178.776 135.8 186.689 138.127 193.705 136.032C194.303 135.833 194.071 134.869 193.439 135.068C186.722 137.096 179.274 134.835 174.786 129.449C174.387 128.95 173.688 129.648 174.087 130.147Z" fill="#161616"/>
<path d="M193.206 135.501C195.334 135.169 196.731 137.33 197.762 138.793C198.992 140.522 200.222 142.284 201.452 144.013C203.647 147.139 205.808 150.298 208.069 153.357C211.394 157.779 215.617 162.567 221.436 163.365C228.019 164.229 233.539 159.375 237.861 155.086C242.583 150.397 246.639 145.077 249.964 139.358C253.788 132.742 256.581 125.56 258.277 118.112C258.41 117.48 257.445 117.214 257.312 117.846C254.32 130.913 247.869 143.082 238.659 152.825C234.104 157.613 227.886 163.797 220.638 162.234C214.353 160.838 210.197 154.753 206.739 149.832C204.279 146.341 201.818 142.85 199.358 139.358C197.828 137.164 196.033 134.072 192.94 134.537C192.309 134.637 192.575 135.601 193.206 135.501Z" fill="#161616"/>
<path opacity="0.11" d="M195.168 134.404C197.462 136.133 199.79 137.862 202.084 139.558C202.749 141.254 207.304 152.326 217.944 154.986C222.732 156.183 226.722 155.185 228.883 154.62C243.68 150.697 250.928 135.269 252.491 131.744C249.166 139.624 245.375 145.41 242.516 149.267C239.025 153.955 236.065 156.848 232.607 159.209C229.681 161.204 227.487 162.667 224.361 162.899C219.041 163.298 214.918 159.84 212.225 157.579C208.9 154.82 207.67 152.592 202.45 144.878C199.291 140.223 196.697 136.565 195.168 134.404Z" fill="#777777"/>
<path d="M250.762 90.1162C252.724 88.5535 265.658 78.4455 282.649 81.7705C293.089 83.832 299.773 89.8835 302.433 92.61C304.228 99.1602 305.891 107.539 306.29 117.315C306.822 130.216 305.059 141.055 303.098 148.869C303.995 155.319 304.86 161.77 305.758 168.22C297.179 170.448 285.076 172.51 270.745 171.412C263.597 170.88 257.279 169.65 251.926 168.22C252.857 154.588 251.693 143.748 250.396 136.201C248.368 124.43 244.511 115.985 246.506 103.549C247.47 97.6972 249.366 93.0422 250.762 90.1162Z" fill="#00A79D"/>
<path d="M154.636 95.535C160.402 95.535 165.077 90.2949 165.077 83.831C165.077 77.367 160.402 72.127 154.636 72.127C148.87 72.127 144.196 77.367 144.196 83.831C144.196 90.2949 148.87 95.535 154.636 95.535Z" fill="white" stroke="#161616" stroke-width="3" stroke-miterlimit="10"/>
<path d="M195.467 103.614C199.122 103.614 202.084 98.2547 202.084 91.6438C202.084 85.033 199.122 79.6738 195.467 79.6738C191.813 79.6738 188.851 85.033 188.851 91.6438C188.851 98.2547 191.813 103.614 195.467 103.614Z" fill="white" stroke="#161616" stroke-width="3" stroke-miterlimit="10"/>
<path d="M240.621 128.552C245.34 128.552 249.166 124.041 249.166 118.477C249.166 112.913 245.34 108.402 240.621 108.402C235.902 108.402 232.076 112.913 232.076 118.477C232.076 124.041 235.902 128.552 240.621 128.552Z" fill="white" stroke="#161616" stroke-width="3" stroke-miterlimit="10"/>
<path d="M152.974 75.9172C153.04 76.9479 153.107 77.9787 153.173 79.0094C153.207 79.6412 154.204 79.6412 154.171 79.0094C154.104 77.9787 154.038 76.9479 153.971 75.9172C153.938 75.2854 152.941 75.2854 152.974 75.9172Z" fill="#161616"/>
<path d="M156.266 78.9431C153.938 78.0121 150.015 79.5748 150.68 82.6671C150.946 83.9306 152.176 84.0969 153.273 84.0304C154.869 83.9306 156.399 84.7618 156.465 86.5573C156.532 88.3196 153.074 89.9488 151.91 88.2198C151.544 87.6878 150.68 88.1866 151.045 88.7186C152.774 91.3121 157.762 89.4501 157.429 86.3246C157.296 84.9946 156.399 83.5316 155.069 83.0993C154.038 82.7668 151.444 83.8308 151.71 81.7693C151.976 79.7411 154.537 79.3088 156 79.9073C156.598 80.1401 156.864 79.1758 156.266 78.9431Z" fill="#161616"/>
<path d="M153.306 89.3508C153.406 90.2153 153.506 91.113 153.639 91.9775C153.705 92.6093 154.703 92.6093 154.636 91.9775C154.537 91.113 154.437 90.2153 154.304 89.3508C154.237 88.719 153.24 88.719 153.306 89.3508Z" fill="#161616"/>
<path d="M194.237 84.2291C194.403 85.2599 194.437 86.2906 194.403 87.3214C194.37 87.9531 195.368 87.9531 195.401 87.3214C195.434 86.1909 195.368 85.0604 195.201 83.9631C195.102 83.3314 194.137 83.6306 194.237 84.2291Z" fill="#161616"/>
<path d="M196.831 87.089C194.636 85.759 191.976 88.1863 192.309 90.5138C192.442 91.4448 193.04 92.3093 193.938 92.6085C195.168 93.074 197.097 92.3093 196.964 94.5038C196.864 95.9668 194.47 97.6958 193.639 95.734C193.373 95.1355 192.541 95.6675 192.774 96.2328C193.838 98.6933 197.263 97.3633 197.895 95.3018C198.227 94.2378 197.895 93.0408 197.03 92.3093C196.365 91.744 195.833 91.877 195.035 91.744C191.677 91.212 194.038 86.557 196.332 87.9535C196.864 88.286 197.396 87.4215 196.831 87.089Z" fill="#161616"/>
<path d="M194.636 97.1975C194.802 98.195 194.802 99.1925 194.636 100.19C194.536 100.822 195.501 101.088 195.6 100.456C195.8 99.259 195.8 98.1285 195.6 96.9315C195.501 96.2998 194.536 96.5658 194.636 97.1975Z" fill="#161616"/>
<path d="M239.524 111.129C239.723 112.16 239.823 113.191 239.823 114.255C239.823 114.886 240.82 114.886 240.82 114.255C240.82 113.124 240.687 111.994 240.488 110.863C240.355 110.231 239.391 110.497 239.524 111.129Z" fill="#161616"/>
<path d="M242.25 114.455C240.322 113.59 237.396 114.521 237.362 116.982C237.362 118.046 237.961 118.91 239.025 119.043C239.956 119.143 240.987 118.611 241.785 119.376C243.613 121.138 240.355 123.698 238.759 121.504C238.393 121.005 237.529 121.47 237.894 122.002C239.391 124.064 242.815 123.765 243.248 120.972C243.447 119.741 242.749 118.544 241.585 118.079C241.253 117.946 240.987 117.946 240.654 117.879C239.723 117.746 240.421 118.179 239.191 117.447C238.293 117.281 238.094 116.815 238.626 116.117C238.859 115.751 239.158 115.485 239.557 115.319C240.288 114.953 240.987 114.953 241.751 115.286C242.317 115.585 242.815 114.721 242.25 114.455Z" fill="#161616"/>
<path d="M239.823 123.331C239.823 124.162 239.823 124.994 239.823 125.792C239.823 126.423 240.82 126.423 240.82 125.792C240.82 124.96 240.82 124.129 240.82 123.331C240.82 122.699 239.823 122.699 239.823 123.331Z" fill="#161616"/>
<path d="M301.003 91.9096C300.005 92.1756 298.875 93.2729 297.944 97.4291C296.946 101.918 297.179 105.575 297.246 106.939C297.711 115.018 297.146 112.259 297.678 119.806C298.243 128.318 299.174 134.968 299.773 139.158C300.138 141.718 300.471 143.846 300.704 145.376C298.343 147.371 295.783 149.399 293.023 151.427C290.729 153.123 288.501 154.652 286.306 156.082C285.508 155.916 284.677 155.716 283.846 155.484C282.05 155.018 280.355 154.519 278.725 154.021C278.892 149.665 279.058 145.342 279.257 140.987C278.127 140.588 276.331 140.056 274.104 139.69C271.942 139.324 269.615 139.158 261.868 139.59C260.006 139.69 257.512 139.856 254.519 140.089C254.087 140.987 253.655 141.851 253.223 142.749C250.13 143.115 247.038 143.48 243.946 143.846C244.411 146.074 244.81 147.903 245.11 149.199C247.138 157.977 248.302 160.371 249.931 162.4C250.795 163.464 251.593 164.195 252.125 164.627C255.018 165.093 257.911 165.558 260.77 165.991C261.735 167.021 262.732 168.119 263.796 169.183C264.993 170.38 266.157 171.51 267.321 172.574C267.188 172.508 265.425 171.676 263.863 172.641C263.098 173.106 262.134 174.137 262.366 174.935C262.666 175.932 264.661 176.132 267.121 176.365C269.183 176.564 271.344 176.764 274.17 176.165C277.262 175.5 279.357 174.27 279.789 174.004C283.646 171.676 285.641 168.318 286.506 166.556C287.503 166.39 288.933 166.157 290.629 165.691C296.448 164.095 300.371 161.402 303.264 159.407C307.287 156.614 310.014 154.686 312.208 150.928C313.339 149 313.904 147.204 314.27 145.974C314.436 143.713 314.602 140.754 314.569 137.329C314.569 134.47 314.403 128.086 313.039 119.673C311.61 110.995 311.211 114.353 307.886 100.289C307.453 98.5264 306.323 93.6719 303.031 92.1756C301.934 91.7101 301.236 91.8431 301.003 91.9096Z" fill="white"/>
<path d="M301.402 91.6444C305.292 94.0384 306.821 98.6601 308.218 102.75C309.814 107.405 311.077 112.193 312.042 117.047C313.97 126.889 314.502 136.997 313.704 146.972C313.638 147.604 314.635 147.604 314.702 146.972C315.566 136.465 314.934 125.892 312.773 115.551C311.676 110.331 310.213 105.177 308.384 100.156C307.054 96.5321 305.358 92.8746 301.934 90.7799C301.335 90.4474 300.836 91.3119 301.402 91.6444Z" fill="#161616"/>
<path d="M300.936 90.4473C298.21 92.7415 297.212 96.133 296.847 99.5578C296.348 104.346 296.614 109.3 296.813 114.121C297.212 124.429 298.376 134.67 300.238 144.811C300.338 145.443 301.302 145.177 301.202 144.545C299.44 134.936 298.343 125.194 297.877 115.418C297.678 110.863 297.512 106.308 297.711 101.752C297.877 97.8953 298.509 93.7723 301.635 91.1455C302.133 90.7465 301.435 90.0483 300.936 90.4473Z" fill="#161616"/>
<path d="M300.371 145.011C296.048 149.134 291.26 152.692 286.073 155.651C285.508 155.984 286.007 156.848 286.572 156.516C291.826 153.49 296.68 149.866 301.102 145.709C301.535 145.277 300.836 144.579 300.371 145.011Z" fill="#161616"/>
<path d="M287.071 166.855C293.023 166.157 298.442 163.53 303.297 160.039C307.786 156.814 312.806 152.89 314.436 147.371C314.635 146.739 313.671 146.506 313.471 147.105C311.875 152.491 306.755 156.381 302.333 159.507C297.777 162.732 292.657 165.226 287.071 165.858C286.439 165.924 286.439 166.922 287.071 166.855Z" fill="#161616"/>
<path d="M286.074 155.417C283.148 155.218 279.656 152.391 276.764 153.921C275.899 154.386 275.533 155.184 275.966 156.115C276.697 157.678 279.257 157.312 279.69 158.942C279.856 159.573 280.82 159.307 280.654 158.675C280.454 157.977 280.089 157.512 279.49 157.113C279.124 156.88 278.626 156.847 278.26 156.614C277.495 156.415 277.362 155.75 277.894 154.586C278.459 154.486 279.025 154.486 279.557 154.619C281.818 154.985 283.779 156.248 286.107 156.415C286.705 156.481 286.705 155.484 286.074 155.417Z" fill="#161616"/>
<path d="M279.922 159.407C278.426 160.571 276.298 160.272 274.503 160.272C272.707 160.272 270.878 160.272 269.083 160.272C267.154 160.272 265.259 160.272 263.331 160.272C262.167 160.272 260.704 160.139 259.673 160.837C258.11 161.934 258.576 163.863 260.305 164.328C263.863 165.259 267.753 165.558 271.377 166.157C272.009 166.257 272.275 165.292 271.643 165.193C268.717 164.727 265.758 164.228 262.832 163.763C262.267 163.663 261.469 163.696 260.937 163.464C260.272 163.43 259.873 162.998 259.806 162.1C260.205 161.868 260.571 161.602 260.97 161.369C262.2 160.903 264.195 161.269 265.525 161.269C268.285 161.269 271.045 161.269 273.838 161.236C275.999 161.236 278.559 161.602 280.388 160.205C280.953 159.906 280.454 159.041 279.922 159.407Z" fill="#161616"/>
<path d="M261.834 164.662C263.696 167.288 266.29 169.117 269.382 169.948C270.014 170.115 270.28 169.15 269.648 168.984C266.788 168.219 264.394 166.557 262.665 164.163C262.333 163.631 261.468 164.13 261.834 164.662Z" fill="#161616"/>
<path d="M261.369 164.33C260.106 168.054 265.093 171.079 267.687 172.642C268.219 172.975 268.751 172.11 268.185 171.778C266.024 170.448 261.269 167.688 262.333 164.562C262.533 163.997 261.569 163.731 261.369 164.33Z" fill="#161616"/>
<path d="M267.487 172.109C266.024 171.81 264.494 171.611 263.198 172.475C262.366 173.007 261.602 174.071 261.901 175.102C262.233 176.199 263.53 176.365 264.494 176.498C266.689 176.798 268.917 177.064 271.111 176.997C277.861 176.864 284.045 172.941 286.971 166.823C287.237 166.257 286.373 165.725 286.107 166.324C284.112 170.48 280.521 173.739 276.132 175.168C273.705 175.966 271.144 176.099 268.584 175.933C267.321 175.833 266.057 175.7 264.794 175.534C263.796 175.634 263.198 175.135 263.031 173.971C263.297 173.705 263.597 173.439 263.863 173.207C264.86 172.608 266.124 172.874 267.188 173.074C267.853 173.207 268.119 172.242 267.487 172.109Z" fill="#161616"/>
<path d="M243.48 144.146C243.647 146.839 244.644 149.532 245.475 152.092C246.406 154.952 247.437 157.778 248.601 160.538C249.332 162.333 249.898 164.495 251.959 165.093C254.519 165.825 257.479 165.891 260.105 166.257C260.737 166.357 260.737 165.359 260.105 165.259C257.745 164.927 255.284 164.761 252.923 164.295C250.197 163.763 249.499 160.239 248.634 157.978C247.803 155.85 247.038 153.688 246.34 151.527C245.575 149.166 244.611 146.639 244.445 144.146C244.445 143.514 243.447 143.514 243.48 144.146Z" fill="#161616"/>
<path d="M243.946 144.38C251.56 143.582 259.208 143.482 266.855 144.047C266.689 143.914 266.523 143.814 266.39 143.681C267.753 148.669 269.116 153.623 270.513 158.611C270.679 159.242 271.643 158.976 271.477 158.345C270.114 153.357 268.75 148.403 267.354 143.415C267.287 143.183 267.088 143.05 266.888 143.05C259.241 142.451 251.593 142.584 243.979 143.382C243.314 143.449 243.314 144.446 243.946 144.38Z" fill="#161616"/>
<path d="M253.688 142.883C253.855 141.952 253.954 140.822 255.085 140.423C255.783 140.157 256.814 140.29 257.545 140.256C259.175 140.19 260.804 140.123 262.433 140.123C265.492 140.057 268.551 140.09 271.577 140.157C273.106 140.19 274.636 140.256 276.165 140.323C277.263 140.389 278.46 140.09 278.825 141.487C278.958 141.985 278.792 142.684 278.792 143.182C278.692 146.408 278.593 149.633 278.493 152.825C278.46 153.457 279.457 153.457 279.49 152.825C279.557 150.664 279.623 148.536 279.69 146.374C279.756 144.712 280.189 142.584 279.79 140.921C279.557 139.957 278.925 139.558 277.961 139.392C275.999 139.093 273.904 139.192 271.909 139.126C267.653 139.026 263.397 139.026 259.175 139.159C257.745 139.192 255.584 138.893 254.254 139.625C253.19 140.223 252.924 141.453 252.724 142.584C252.624 143.249 253.589 143.515 253.688 142.883Z" fill="#161616"/>
<path d="M277.063 142.052C276.996 145.111 276.797 148.137 276.431 151.196C276.364 151.827 277.362 151.827 277.428 151.196C277.794 148.17 277.994 145.111 278.06 142.052C278.093 141.42 277.096 141.42 277.063 142.052Z" fill="#161616"/>
<path opacity="0.15" d="M301.302 90.8125C302.466 94.3038 303.995 99.3245 305.192 105.509C308.118 120.638 307.187 131.909 306.755 135.268C305.625 143.78 305.392 148.102 302.3 152.824C297.246 160.538 289.099 163.464 285.276 164.528C283.813 166.489 281.053 169.615 276.664 172.109C270.978 175.301 265.625 175.667 263.031 175.667C264.86 176.265 268.651 177.163 273.239 176.232C274.702 175.932 279.324 174.902 283.214 170.912C284.877 169.216 285.874 167.487 286.472 166.257C289.432 165.825 293.222 164.927 297.312 162.998C306.223 158.809 311.244 152.159 313.538 148.668C313.937 146.606 314.369 143.746 314.602 140.288C315.068 133.339 314.336 128.086 313.505 122.566C312.973 118.809 311.975 114.786 310.047 106.706C309.016 102.417 308.285 99.7567 306.389 96.731C304.627 93.9047 302.665 92.0095 301.302 90.8125Z" fill="#777777"/>
<path opacity="0.1" d="M254.087 143.215C260.238 143.414 266.39 143.581 272.508 143.78C273.306 149.466 274.104 155.152 274.902 160.804C273.605 160.804 272.308 160.804 271.011 160.804C269.648 155.052 268.252 149.333 266.888 143.581C262.599 143.448 258.343 143.348 254.087 143.215Z" fill="#777777"/>
<path d="M257.545 40.2064C255.783 42.2014 254.852 44.8946 254.12 47.0226C253.688 48.2861 252.358 52.3759 252.557 58.3609C252.757 64.1796 252.99 71.5611 258.443 76.8479C262.399 80.6716 267.42 81.7356 270.645 82.0016C270.679 82.4006 271.044 85.4264 273.139 86.3574C274.369 86.8894 275.699 86.4904 277.063 85.8586C282.383 83.3649 285.608 78.7099 286.373 77.5794C289.265 73.2569 290.496 69.5329 291.959 65.0109C294.053 58.4606 295.084 55.1024 294.053 50.8796C293.156 47.2221 291.161 44.8281 290.396 43.8971C282.449 34.5539 264.128 32.7584 257.545 40.2064Z" fill="white"/>
<path opacity="0.15" d="M280.654 52.6435C280.72 54.306 280.72 56.5337 280.388 59.1272C280.255 60.291 279.689 64.1812 277.827 68.9027C275.666 74.4222 272.64 78.6782 270.047 81.6707C271.543 81.1055 273.305 80.2742 275.201 79.0107C276.364 78.246 277.329 77.448 278.16 76.6832C278.858 79.0772 279.59 81.4712 280.288 83.8652C281.086 83.167 281.884 82.4687 282.682 81.7705C281.884 79.2767 281.086 76.7497 280.288 74.256C281.285 73.2252 282.682 71.5627 283.779 69.2352C284.777 67.1072 285.209 65.1455 285.375 63.7822C285.708 63.9817 286.273 64.2145 286.938 64.2145C288.301 64.1812 289.199 63.1172 289.864 62.3192C290.329 61.7872 291.726 60.0582 291.892 57.3982C291.959 56.6002 292.125 54.173 290.496 52.0117C289.299 50.449 286.705 48.4207 283.979 49.3185C281.751 50.05 280.853 52.2112 280.654 52.6435Z" fill="#777777"/>
<path d="M252.823 56.8978C252.325 56.532 246.373 52.0765 246.672 44.6618C246.971 36.981 253.688 33.0908 254.918 32.459C259.839 29.7658 266.423 29.5995 271.111 32.858C272.84 34.055 273.97 35.4848 274.669 36.5488C272.507 36.2495 266.323 35.7175 260.803 39.5745C260.172 40.04 258.476 41.2703 256.813 43.4315C252.857 48.6518 252.724 54.5038 252.823 56.8978Z" fill="#606161"/>
<path d="M265.758 34.6543C266.722 35.5521 268.251 36.9818 269.881 38.9103C275.965 46.0923 276.763 51.5453 281.418 52.9086C282.416 53.2078 283.979 53.4073 286.173 52.7423C286.605 52.6093 288.833 51.9776 290.396 53.2078C292.657 54.9368 291.526 58.7938 291.294 59.6251C290.994 60.6226 290.329 62.9833 288.135 63.8811C286.938 64.3466 285.807 64.2136 285.242 64.0806C284.976 65.5103 284.544 67.3058 283.746 69.2676C282.748 71.6616 281.551 73.5236 280.521 74.8536C280.753 76.0506 281.152 77.7796 281.884 79.7746C283.28 83.6316 284.91 88.0538 288.999 90.6473C289.465 90.9466 294.951 94.3048 300.271 92.1436C307.021 89.4171 307.985 80.1403 308.218 77.7131C309.215 67.8711 303.43 60.4563 301.734 58.4613C301.402 56.0008 300.803 52.5096 299.639 48.4198C297.545 41.1713 296.514 37.5471 293.588 34.6876C288.002 29.2013 278.492 28.6028 271.61 31.2296C268.983 32.1938 267.021 33.5903 265.758 34.6543Z" fill="#606161"/>
<path d="M252.89 62.2188C250.263 67.0068 249.166 71.296 248.7 74.1555C247.969 78.5113 246.905 84.7955 250.33 90.6143C251.327 92.31 253.322 95.7015 257.246 96.7655C262.034 98.0623 267.919 95.502 270.113 90.6143C271.975 86.4913 270.379 82.5013 270.047 81.67C268.65 81.4705 266.689 81.0383 264.527 80.0408C264.527 80.0408 261.901 78.8105 259.64 76.7158C254.32 71.828 253.056 63.449 252.89 62.2188Z" fill="#606161"/>
<path d="M254.386 44.6949C252.591 49.4496 251.726 54.6034 252.092 59.6906C252.458 64.5784 253.522 69.6656 256.348 73.7221C259.108 77.6789 263.231 80.4719 267.819 81.8351C269.349 82.3006 270.047 82.1676 271.543 81.5359C273.505 80.7046 275.367 79.5741 277.063 78.2441C281.518 74.7196 284.544 69.6989 285.708 64.1794C285.841 63.5476 284.876 63.2816 284.743 63.9134C283.779 68.5019 281.518 72.7246 278.127 75.9831C276.497 77.5459 274.635 78.8759 272.64 79.9066C271.41 80.5384 270.047 81.4361 268.65 81.0371C264.195 79.8069 260.105 77.2134 257.345 73.4229C254.586 69.6324 253.522 64.8776 253.089 60.2891C252.591 55.0689 253.455 49.8154 255.284 44.9276C255.583 44.3624 254.619 44.0964 254.386 44.6949Z" fill="#161616"/>
<path d="M285.042 64.1478C288.667 66.6748 291.859 60.8561 292.291 57.9633C292.856 54.3723 289.764 50.0831 285.94 52.3108C285.375 52.6433 285.874 53.5078 286.439 53.1753C289.864 51.1803 291.892 55.6026 291.194 58.3956C290.695 60.4571 288.301 65.1786 285.541 63.2833C285.009 62.9176 284.51 63.7821 285.042 64.1478Z" fill="#161616"/>
<path d="M264.694 48.7861C264.428 54.6714 264.494 60.5566 264.86 66.4419C264.893 66.8741 265.591 67.2066 265.791 66.7079C266.556 64.9124 267.32 63.1169 268.052 61.3546C268.285 60.7561 267.453 60.2574 267.187 60.8559C266.423 62.6514 265.658 64.4469 264.926 66.2091C265.226 66.3089 265.558 66.3754 265.857 66.4751C265.458 60.5899 265.425 54.7046 265.691 48.8194C265.724 48.1544 264.727 48.1544 264.694 48.7861Z" fill="#161616"/>
<path d="M264.062 70.7301C267.62 72.0933 270.479 69.2671 272.408 66.6071C272.773 66.0751 271.909 65.5763 271.543 66.1083C269.881 68.4026 267.453 70.9628 264.328 69.7658C263.729 69.5331 263.463 70.4973 264.062 70.7301Z" fill="#161616"/>
<path d="M273.605 61.3217C274.236 61.3217 274.236 60.3242 273.605 60.3242C272.94 60.3242 272.94 61.3217 273.605 61.3217Z" fill="#161616"/>
<path d="M277.528 59.6909C278.16 59.6909 278.16 58.6934 277.528 58.6934C276.896 58.6934 276.896 59.6909 277.528 59.6909Z" fill="#161616"/>
<path d="M277.062 63.4155C277.694 63.4155 277.694 62.418 277.062 62.418C276.431 62.418 276.431 63.4155 277.062 63.4155Z" fill="#161616"/>
<path d="M256.68 61.3217C257.312 61.3217 257.312 60.3242 256.68 60.3242C256.049 60.3242 256.049 61.3217 256.68 61.3217Z" fill="#161616"/>
<path d="M259.939 61.3217C260.57 61.3217 260.57 60.3242 259.939 60.3242C259.274 60.3242 259.274 61.3217 259.939 61.3217Z" fill="#161616"/>
<path d="M259.24 64.3471C259.872 64.3471 259.872 63.3496 259.24 63.3496C258.575 63.3496 258.575 64.3471 259.24 64.3471Z" fill="#161616"/>
<path d="M258.276 43.466C259.407 41.5707 262 41.0387 263.829 42.3022C264.361 42.668 264.86 41.8035 264.328 41.4377C262.067 39.875 258.841 40.6065 257.412 42.934C257.079 43.5325 257.944 44.0312 258.276 43.466Z" fill="#161616"/>
<path d="M273.272 42.3022C275.434 41.8034 277.694 42.5682 279.058 44.3304C279.457 44.8292 280.321 44.3304 279.922 43.8317C278.293 41.7037 275.666 40.7062 273.006 41.3379C272.374 41.4709 272.641 42.4352 273.272 42.3022Z" fill="#161616"/>
<path d="M259.407 55.7021C260.013 55.7021 260.504 54.6302 260.504 53.3081C260.504 51.9859 260.013 50.9141 259.407 50.9141C258.801 50.9141 258.31 51.9859 258.31 53.3081C258.31 54.6302 258.801 55.7021 259.407 55.7021Z" fill="#161616"/>
<path d="M274.702 55.7021C275.308 55.7021 275.799 54.6302 275.799 53.3081C275.799 51.9859 275.308 50.9141 274.702 50.9141C274.096 50.9141 273.604 51.9859 273.604 53.3081C273.604 54.6302 274.096 55.7021 274.702 55.7021Z" fill="#161616"/>
<path d="M270.18 82.2345C270.745 83.5313 271.476 85.892 272.74 86.69C273.604 87.222 274.968 86.8895 275.899 86.69C278.791 86.025 281.219 84.163 282.781 81.6693C283.114 81.104 282.249 80.6053 281.917 81.1705C280.653 83.2653 278.692 84.828 276.364 85.5595C275.101 85.9585 273.704 86.3575 272.773 85.1938C272.042 84.2628 271.543 82.8663 271.077 81.769C270.778 81.1373 269.914 81.6693 270.18 82.2345Z" fill="#161616"/>
<path d="M280.055 74.9534C280.421 77.0482 281.019 79.0764 281.884 81.0382C282.15 81.6367 283.014 81.1047 282.748 80.5394C281.917 78.6774 281.352 76.7157 281.019 74.6874C280.92 74.0557 279.955 74.3217 280.055 74.9534Z" fill="#161616"/>
</svg>
