<svg width="505" height="400" viewBox="0 0 505 400" fill="none" xmlns="http://www.w3.org/2000/svg">
<g clip-path="url(#clip0_5589_11592)">
<path d="M62.3257 114.727C67.201 103.092 81.7674 106.809 90.8056 110.141C99.2798 113.273 107.687 117.213 116.777 118.133C124.688 118.942 131.863 116.649 139.039 113.54C147.417 109.948 156.054 105.496 165.419 107.492C166.116 107.64 166.42 106.572 165.715 106.423C157.434 104.657 149.717 107.685 142.222 110.95C137.503 113.005 132.776 115.194 127.737 116.367C122.053 117.585 116.16 117.422 110.551 115.892C97.6992 112.709 69.4345 94.9291 61.2646 114.408C60.9826 115.068 62.066 115.358 62.3331 114.705L62.3257 114.727Z" fill="#E8E8E8"/>
<path d="M127.173 324.49C142.667 305.011 173.062 307.467 194.945 310.554C218.891 313.93 242.695 318.472 266.026 309.493C277.958 304.9 288.866 298.088 299.655 291.313C300.256 290.934 299.7 289.97 299.091 290.348C288.755 296.841 278.314 303.393 266.946 307.942C254.865 312.773 242.25 314.435 229.287 313.752C205.163 312.469 181.232 304.685 156.952 308.38C145.576 310.109 133.755 314.442 126.387 323.703C125.941 324.26 126.721 325.054 127.173 324.49Z" fill="#E8E8E8"/>
<path d="M279.004 318.894C288.807 311.792 300.227 306.902 312.448 306.472C324.321 306.064 335.793 309.581 346.827 313.544C357.58 317.41 368.206 321.862 379.426 324.229C390.325 326.578 401.615 326.428 412.448 323.793C423.282 321.157 433.378 316.103 441.98 309.01C442.537 308.557 441.743 307.771 441.194 308.223C422.754 323.294 398.474 328.08 375.47 322.159C354.344 316.705 334.227 304.35 311.803 305.381C299.618 305.945 288.205 310.835 278.41 317.929C277.839 318.345 278.41 319.309 278.974 318.894H279.004Z" fill="#E8E8E8"/>
<path d="M285.341 264.948C298.78 259.753 313.116 262.721 326.658 265.897C340.201 269.073 353.825 272.576 367.723 274.156C390.823 276.843 416.098 273.652 433.669 257.089C434.189 256.592 433.402 255.805 432.883 256.295C413.664 274.438 385.688 276.049 360.904 272.123C347.458 269.993 334.353 266.365 321.063 263.508C309.191 260.948 296.702 259.397 285.067 263.901C284.406 264.154 284.696 265.229 285.363 264.97L285.341 264.948Z" fill="#E8E8E8"/>
<path d="M197.638 156.89C217.778 145.448 241.605 149.284 263.221 153.41C284.837 157.536 306.17 160.719 327.512 153.462C338.009 149.857 347.739 144.32 356.199 137.137C356.749 136.677 355.962 135.89 355.413 136.35C344.697 145.427 331.953 151.79 318.258 154.902C303.492 158.211 288.651 156.89 273.928 154.264C248.743 149.811 220.879 142.391 197.082 155.903C196.954 155.977 196.861 156.099 196.822 156.241C196.784 156.384 196.804 156.536 196.878 156.664C196.952 156.792 197.073 156.885 197.216 156.924C197.358 156.962 197.51 156.942 197.638 156.868V156.89Z" fill="#E8E8E8"/>
<path d="M257.552 123.794C263.97 127.69 271.532 126.51 278.492 124.877C287.1 122.859 295.426 119.831 303.722 116.715C320.374 110.452 337.255 103.677 355.354 104.1C355.501 104.1 355.643 104.041 355.747 103.937C355.852 103.833 355.91 103.691 355.91 103.543C355.91 103.396 355.852 103.254 355.747 103.15C355.643 103.046 355.501 102.987 355.354 102.987C338.895 102.571 323.357 108.085 308.167 113.813C300.479 116.715 292.799 119.676 284.904 121.976C276.548 124.425 266.189 127.653 258.145 122.77C257.529 122.399 256.973 123.364 257.581 123.735L257.552 123.794Z" fill="#E8E8E8"/>
<path d="M181.121 30.6809C209.044 37.8491 234.088 19.899 259.303 11.217C288.117 1.29577 317.739 8.17457 345.381 18.541C346.056 18.7933 346.345 17.7173 345.678 17.465C319.787 7.75902 291.404 0.590825 264.052 8.56044C236.99 16.4187 210.988 37.2258 181.41 29.6272C181.339 29.6077 181.266 29.6023 181.193 29.6114C181.12 29.6204 181.05 29.6437 180.986 29.6798C180.858 29.7529 180.763 29.8741 180.724 30.0168C180.684 30.1595 180.703 30.312 180.776 30.4407C180.849 30.5694 180.971 30.6638 181.113 30.7032L181.121 30.6809Z" fill="#E8E8E8"/>
<path d="M144.196 84.9996C144.491 84.9996 144.774 84.8823 144.983 84.6736C145.192 84.4648 145.309 84.1817 145.309 83.8865C145.309 83.5913 145.192 83.3082 144.983 83.0995C144.774 82.8907 144.491 82.7734 144.196 82.7734C143.901 82.7734 143.618 82.8907 143.409 83.0995C143.2 83.3082 143.083 83.5913 143.083 83.8865C143.083 84.1817 143.2 84.4648 143.409 84.6736C143.618 84.8823 143.901 84.9996 144.196 84.9996Z" fill="#606161"/>
<path d="M337.018 233.862C337.723 232.089 339.125 231.481 341.21 232.03C341.663 232.386 342.123 232.72 342.59 233.054C343.119 233.402 343.738 233.588 344.371 233.588C345.811 233.491 346.234 232.334 347.265 231.584C349.937 229.633 350.234 232.126 352.46 232.623C353.944 232.965 357.654 229.544 358.463 231.34C358.76 231.985 359.717 231.421 359.42 230.776C358.678 229.15 357.008 229.366 355.606 230.078C354.204 230.79 353.424 231.762 351.666 230.82C351.169 230.546 350.879 229.848 350.352 229.573C350.079 229.395 349.772 229.275 349.45 229.222C349.128 229.168 348.799 229.182 348.482 229.262C347.406 229.514 347.043 230.531 346.256 231.102C343.57 232.965 343.191 231.443 341.01 230.635C338.687 229.774 337.233 231.503 336.075 233.321C335.689 233.929 336.654 234.486 337.04 233.885L337.018 233.862Z" fill="#606161"/>
<path d="M348.942 238.753C351.027 234.412 354.025 238.857 356.823 237.855C357.394 237.655 357.565 237.158 357.98 236.92C359.85 235.896 361.364 236.972 362.9 237.825C364.703 238.827 367.256 239.873 368.02 237.031C368.046 236.894 368.019 236.753 367.946 236.634C367.872 236.516 367.756 236.43 367.622 236.393C367.488 236.355 367.345 236.37 367.22 236.433C367.096 236.496 367 236.604 366.952 236.735C366.143 239.703 361.757 235.028 360.273 234.79C358.477 234.501 357.81 235.777 356.199 236.082C354.418 236.423 353.231 235.124 351.317 235.473C350.577 235.608 349.884 235.927 349.301 236.402C348.719 236.877 348.266 237.492 347.985 238.189C347.673 238.827 348.63 239.399 348.942 238.753Z" fill="#606161"/>
<path d="M53.2801 135.578C53.9034 130.822 58.4745 135.667 60.3222 134.985C62.4964 134.191 61.8063 130.718 65.0565 132.521C66.036 133.063 66.5406 134.131 67.8391 133.686C68.2102 133.56 68.4402 133.129 68.7444 132.944C68.9007 132.671 69.0395 132.389 69.16 132.098C71.2971 130.488 72.7886 130.718 73.6123 132.766C74.013 133.36 74.9777 132.766 74.5769 132.209C73.0335 129.946 71.5568 128.796 68.9967 130.028C68.6628 130.191 68.6406 130.859 68.3734 131.015L65.8282 131.757C65.4932 131.4 65.1283 131.072 64.7374 130.777C63.9953 130.555 63.8321 130.124 62.9639 130.31C61.9398 130.525 61.8211 131.341 61.2349 131.994C61.1903 132.333 61.0165 132.642 60.7497 132.857C60.4829 133.071 60.1437 133.174 59.8027 133.144C59.0656 133.812 58.4275 133.768 57.8883 133.011C57.1907 132.751 56.9236 132.269 56.1741 132.187C53.948 131.861 52.4268 133.604 52.1671 135.593C52.078 136.298 53.1911 136.298 53.2801 135.593V135.578Z" fill="#606161"/>
<path d="M64.5521 140.564C65.4722 137.707 68.7447 141.558 70.2288 141.306C71.7129 141.053 71.6683 139.606 72.6849 138.983C75.4825 137.269 76.0167 140.593 78.2874 140.949C79.8606 141.194 81.3521 140.081 82.5171 139.22C83.0885 138.798 82.5171 137.833 81.9531 138.256C81.1572 138.695 80.2754 138.958 79.3685 139.024C78.4617 139.091 77.5511 138.96 76.6994 138.642C76.2913 138.412 76.039 137.729 75.6457 137.44C75.3001 137.095 74.8506 136.873 74.3665 136.808C73.8825 136.744 73.3907 136.841 72.9669 137.083C71.6164 137.759 72.1803 138.345 70.1916 138.679C67.8542 139.079 64.7227 136.356 63.5132 140.237C63.298 140.92 64.3666 141.217 64.5892 140.534L64.5521 140.564Z" fill="#606161"/>
<path d="M153.168 387.496C155.921 384.327 159.943 390.538 163.237 389.848C164.343 389.618 164.543 389.106 165.345 388.475C167.467 386.754 168.617 387.073 170.932 388.327C172.417 389.128 173.953 389.937 175.592 389.069C176.142 388.787 176.505 388 177.01 387.763C178.397 387.095 179.162 387.889 180.275 388.275C181.173 388.579 181.395 388.861 182.405 388.675C183.147 388.542 182.813 387.466 182.108 387.599C180.572 387.889 179.585 385.841 178.041 385.967C177.017 386.049 177.002 386.561 176.223 386.976C174.68 387.792 173.938 388.46 172.201 387.718C171.459 387.421 170.791 386.872 170.072 386.524C169.254 386.038 168.321 385.781 167.371 385.781C166.609 385.851 165.895 386.184 165.352 386.724C163.697 388.149 164.61 389.566 160.492 388.052C159.709 387.622 158.964 387.125 158.266 386.568C156.336 385.418 154.021 384.809 152.396 386.672C151.929 387.214 152.708 388.008 153.183 387.458L153.168 387.496Z" fill="#606161"/>
<path d="M171.073 394.443C173.811 391.089 175.392 395.385 177.692 395.563C179.295 395.689 180.586 393.871 182.197 393.968C184.69 394.116 186.374 396.617 188.875 394.992C189.469 394.606 188.912 393.641 188.311 394.034C186.233 395.385 183.859 392.869 181.766 392.78C180.208 392.714 179.444 393.797 177.922 393.79C175.199 393.79 172.728 390.658 170.287 393.656C169.841 394.213 170.621 394.999 171.073 394.443Z" fill="#606161"/>
<path d="M54.0296 97.3924C58.3081 97.3924 61.7766 93.924 61.7766 89.6454C61.7766 85.3669 58.3081 81.8984 54.0296 81.8984C49.751 81.8984 46.2826 85.3669 46.2826 89.6454C46.2826 93.924 49.751 97.3924 54.0296 97.3924Z" stroke="#606161" stroke-miterlimit="10"/>
<path d="M247.096 287.216C248.735 287.216 250.064 285.887 250.064 284.247C250.064 282.608 248.735 281.279 247.096 281.279C245.457 281.279 244.128 282.608 244.128 284.247C244.128 285.887 245.457 287.216 247.096 287.216Z" stroke="#606161" stroke-width="0.5" stroke-miterlimit="10"/>
<path d="M79.0811 349.007C81.831 349.007 84.0602 346.778 84.0602 344.028C84.0602 341.278 81.831 339.049 79.0811 339.049C76.3312 339.049 74.1019 341.278 74.1019 344.028C74.1019 346.778 76.3312 349.007 79.0811 349.007Z" stroke="#606161" stroke-miterlimit="10"/>
<path d="M420.001 7.52995C421.927 7.52995 423.489 5.96849 423.489 4.04232C423.489 2.11615 421.927 0.554688 420.001 0.554688C418.075 0.554688 416.513 2.11615 416.513 4.04232C416.513 5.96849 418.075 7.52995 420.001 7.52995Z" stroke="#606161" stroke-miterlimit="10"/>
<path d="M456.161 91.322C457.194 91.322 458.031 90.4848 458.031 89.452C458.031 88.4192 457.194 87.582 456.161 87.582C455.128 87.582 454.291 88.4192 454.291 89.452C454.291 90.4848 455.128 91.322 456.161 91.322Z" stroke="#606161" stroke-miterlimit="10"/>
<path d="M147.001 90.1131C149.636 90.1131 151.772 87.9769 151.772 85.3417C151.772 82.7065 149.636 80.5703 147.001 80.5703C144.366 80.5703 142.229 82.7065 142.229 85.3417C142.229 87.9769 144.366 90.1131 147.001 90.1131Z" fill="#00A79D"/>
<path d="M145.799 25.7166C147.77 25.7166 149.368 24.1186 149.368 22.1474C149.368 20.1761 147.77 18.5781 145.799 18.5781C143.827 18.5781 142.229 20.1761 142.229 22.1474C142.229 24.1186 143.827 25.7166 145.799 25.7166Z" fill="#00A79D"/>
<path d="M341.856 357.236C345.503 357.236 348.46 354.279 348.46 350.632C348.46 346.984 345.503 344.027 341.856 344.027C338.208 344.027 335.251 346.984 335.251 350.632C335.251 354.279 338.208 357.236 341.856 357.236Z" fill="#00A79D"/>
<path d="M288.324 247.45C290.058 247.45 291.463 246.044 291.463 244.311C291.463 242.577 290.058 241.172 288.324 241.172C286.591 241.172 285.185 242.577 285.185 244.311C285.185 246.044 286.591 247.45 288.324 247.45Z" fill="#00A79D"/>
<path d="M112.807 373.308C115.84 373.308 118.298 370.85 118.298 367.817C118.298 364.785 115.84 362.326 112.807 362.326C109.775 362.326 107.316 364.785 107.316 367.817C107.316 370.85 109.775 373.308 112.807 373.308Z" stroke="#00A79D" stroke-miterlimit="10"/>
<path d="M212.027 337.209C212.322 337.209 212.605 337.091 212.814 336.883C213.022 336.674 213.14 336.391 213.14 336.095C213.14 335.8 213.022 335.517 212.814 335.308C212.605 335.1 212.322 334.982 212.027 334.982C211.731 334.982 211.448 335.1 211.24 335.308C211.031 335.517 210.914 335.8 210.914 336.095C210.914 336.391 211.031 336.674 211.24 336.883C211.448 337.091 211.731 337.209 212.027 337.209Z" fill="#00A79D"/>
<path d="M374.357 294.689C374.061 293.405 379.604 294.926 380.413 294.689C381.733 294.296 382.305 293.264 383.789 292.908C385.896 292.411 388.071 293.168 390.067 293.739C391.421 294.24 392.895 294.32 394.296 293.969C396.522 293.554 397.814 293.331 399.973 293.969C400.942 294.316 401.973 294.458 403.001 294.385C403.743 294.333 403.743 293.22 403.001 293.272C400.151 293.479 398.021 291.55 395.157 292.144C393.391 292.515 392.189 293.019 390.363 292.648C389.621 292.5 388.879 292.196 388.137 292.025C386.789 291.676 385.387 291.58 384.004 291.743C382.097 292.047 381.036 293.309 379.099 293.131C377.89 293.027 376.636 292.314 375.389 292.389C373.853 292.492 372.91 293.502 373.244 294.949C373.4 295.646 374.476 295.349 374.32 294.652L374.357 294.689Z" fill="#00A79D"/>
<path d="M392.404 299.645C395.261 298.487 397.443 300.016 399.625 301.559C399.751 301.624 399.897 301.639 400.034 301.602C400.171 301.565 400.29 301.479 400.367 301.359C401.962 299.274 404.01 298.962 406.303 299.711C406.86 299.897 407.327 300.261 407.891 300.454C409.196 300.821 410.578 300.821 411.883 300.454C412.581 300.298 412.291 299.222 411.586 299.378C407.446 300.305 404.96 295.667 401.309 298.68C399.157 300.446 399.654 299.689 396.931 298.621C396.18 298.263 395.361 298.073 394.529 298.063C393.698 298.052 392.874 298.222 392.115 298.561C391.462 298.828 391.751 299.904 392.412 299.63L392.404 299.645Z" fill="#00A79D"/>
<path d="M68.8778 51.5848C68.5084 54.7343 68.4214 57.9106 68.618 61.0756C68.9223 66.1141 69.4046 73.9056 74.4951 80.9922C75.7816 82.7917 77.2761 84.4331 78.9474 85.8823C82.7571 87.0072 86.7069 87.5868 90.6792 87.6039C99.517 87.6039 106.062 84.7692 112.199 82.0237C118.222 79.3174 123.875 75.8537 129.021 71.7166C128.858 69.736 128.518 67.7741 128.004 65.8544C124.346 52.0968 112.8 44.335 107.568 41.248C105.39 43.9529 102.848 46.3428 100.014 48.3495C97.1573 50.3753 91.2654 54.5456 82.8357 54.8275C77.9823 54.9576 73.1767 53.8411 68.8778 51.5848Z" fill="white"/>
<path d="M187.91 41.8718C190.04 43.669 192.002 45.6559 193.772 47.8082C196.893 51.3322 199.302 55.4269 200.866 59.8665C202.463 64.7979 202.845 70.042 201.979 75.1527C210.015 76.2087 217.692 79.1337 224.393 83.6931C231.094 88.2524 236.634 94.3192 240.566 101.406C242.283 98.266 243.797 95.0191 245.1 91.6856C251.704 74.7669 251.519 58.8944 250.183 48.0308C243.872 43.3011 236.694 39.8548 229.057 37.887C209.704 32.9672 193.557 39.334 187.91 41.8718Z" fill="white"/>
<path d="M225.933 353.205C226.675 355.023 227.832 357.524 229.324 360.433C231.409 364.507 234.607 370.74 239.26 376.424C247.63 386.627 257.715 391.376 261.937 393.328C267.424 395.843 273.221 397.619 279.175 398.611C283.534 395.926 287.635 392.843 291.426 389.402C299.141 382.377 305.495 373.991 310.17 364.662C306.984 364.513 303.846 363.828 300.887 362.637C294.283 359.958 290.543 355.461 287.849 352.151C280.236 342.787 277.535 332.368 276.466 326.18C266.495 326.339 256.706 328.877 247.914 333.583C239.122 338.288 231.581 345.026 225.918 353.235L225.933 353.205Z" fill="white"/>
<path opacity="0.14" d="M273.298 326.076C267.507 328.865 262.749 333.42 259.711 339.084C256.231 345.681 255.118 353.844 257.181 360.24C261.292 372.951 279.071 382.086 299.819 378.242C295.011 386.849 287.857 393.913 279.19 398.612C274.56 397.802 270.024 396.532 265.647 394.82C256.945 391.445 249.022 386.332 242.362 379.793C234.856 372.118 229.405 362.676 226.512 352.337C232.738 343.787 240.958 336.886 250.458 332.235C257.624 328.787 265.369 326.698 273.298 326.076Z" fill="#9E9E9E"/>
<path opacity="0.14" d="M107.324 42.1992C104.686 45.7609 102.63 49.7181 101.231 53.9236C96.5268 68.1784 101.024 80.8897 102.879 85.3865C95.1746 88.1304 86.7889 88.3048 78.9773 85.8837C74.6603 81.3207 71.5694 75.7386 69.9928 69.6581C68.4163 63.5777 68.4055 57.197 69.9614 51.1112C72.9633 53.243 76.417 54.6524 80.0533 55.2296C95.1985 57.5077 106.567 43.1787 107.324 42.1992Z" fill="#9E9E9E"/>
<path opacity="0.14" d="M188.956 42.7918C192.928 45.9816 196.191 49.9646 198.536 54.4865C200.394 58.1205 201.647 62.0328 202.246 66.0699C202.827 69.5936 202.954 73.1771 202.625 76.7331C206.655 77.4943 210.624 78.5534 214.498 79.9017C221.332 82.2837 227.276 84.354 232.656 89.5483C236.11 92.9103 238.806 96.9707 240.566 101.458C239.627 94.1746 237.885 87.0172 235.372 80.1169C229.415 64.1119 219.602 49.8235 206.803 38.5176L188.956 42.7918Z" fill="#9E9E9E"/>
<path d="M68.3214 51.5847C66.873 63.8579 70.0475 76.2306 77.226 86.2903C77.6415 86.8691 78.6062 86.2903 78.1907 85.7338C71.1292 75.8408 68.0146 63.6683 69.4567 51.5995C69.5384 50.8575 68.4253 50.8575 68.3437 51.5995L68.3214 51.5847Z" fill="#3B3B3B"/>
<path d="M69.5681 51.5179C74.6957 56.0815 82.2497 55.6882 88.5497 54.1892C95.9696 52.3751 102.658 48.3359 107.717 42.6133C108.192 42.079 107.405 41.2924 106.93 41.8267C102.53 46.8009 96.8584 50.4822 90.5236 52.4751C84.1865 54.4341 75.6826 55.4433 70.3473 50.7164C69.813 50.2415 69.0264 51.0207 69.5607 51.503L69.5681 51.5179Z" fill="#3B3B3B"/>
<path d="M78.8289 86.3948C94.9313 92.3312 114.692 83.1743 127.619 73.78C128.197 73.3644 127.619 72.3923 127.062 72.8153C114.343 82.0761 94.9759 91.1439 79.1257 85.3411C78.4504 85.0962 78.161 86.1722 78.8289 86.4171V86.3948Z" fill="#3B3B3B"/>
<path d="M107.294 41.7317C113.097 44.4963 118.093 48.706 121.802 53.957C125.51 59.2079 127.807 65.3239 128.472 71.7179C128.539 72.46 129.652 72.46 129.585 71.7179C128.917 65.131 126.568 58.826 122.764 53.4077C118.959 47.9893 113.827 43.6392 107.858 40.7745C107.212 40.4628 106.648 41.42 107.294 41.7317Z" fill="#3B3B3B"/>
<path d="M227.676 352.346C231.305 344.028 241.122 338.047 248.743 333.795C257.262 329.016 266.656 326.122 276.481 326.738C277.223 326.783 277.223 325.669 276.481 325.625C266.478 324.994 256.854 327.97 248.187 332.838C240.447 337.179 230.377 343.367 226.719 351.812C226.43 352.465 227.394 353.029 227.676 352.376V352.346Z" fill="#3B3B3B"/>
<path d="M276.689 327.138C279.071 343.96 291.092 364.753 310.185 365.19C310.332 365.19 310.474 365.132 310.578 365.027C310.683 364.923 310.741 364.782 310.741 364.634C310.741 364.486 310.683 364.345 310.578 364.24C310.474 364.136 310.332 364.077 310.185 364.077C291.619 363.647 280.073 343.144 277.765 326.819C277.661 326.114 276.592 326.411 276.689 327.116V327.138Z" fill="#3B3B3B"/>
<path d="M226.727 354.891C233.954 378.11 254.924 395.585 279.048 398.568C279.753 398.657 279.746 397.544 279.048 397.455C255.429 394.531 234.867 377.279 227.803 354.594C227.587 353.912 226.511 354.201 226.727 354.891Z" fill="#3B3B3B"/>
<path d="M279.479 399.094C292.108 391.261 302.411 380.189 309.317 367.03C309.651 366.392 308.693 365.828 308.36 366.466C301.547 379.459 291.38 390.392 278.915 398.129C278.314 398.508 278.871 399.472 279.479 399.094Z" fill="#3B3B3B"/>
<path d="M189.498 44.7659C194.034 48.2669 197.538 52.9288 199.641 58.2583C201.744 63.5879 202.368 69.3868 201.445 75.0415C201.326 75.7391 202.402 76.0433 202.514 75.3384C203.49 69.4478 202.847 63.4027 200.654 57.8492C198.461 52.2957 194.8 47.4426 190.062 43.8087C189.491 43.3709 188.934 44.3355 189.498 44.7659Z" fill="#3B3B3B"/>
<path d="M193.742 41.3811C213.036 37.0698 235.46 36.0383 250.665 50.961C251.177 51.4655 251.964 50.679 251.452 50.1744C235.965 34.9698 213.154 35.9345 193.446 40.3051C192.748 40.461 193.045 41.5369 193.742 41.3811Z" fill="#3B3B3B"/>
<path d="M205.037 78.0467C219.061 81.2078 234.904 86.6544 240.009 101.592C240.041 101.695 240.102 101.787 240.185 101.857C240.267 101.926 240.368 101.971 240.475 101.985C240.582 101.999 240.691 101.982 240.789 101.936C240.886 101.89 240.969 101.817 241.026 101.725C250.086 86.0905 250.495 67.7099 250.621 50.1308C250.621 49.9832 250.562 49.8416 250.458 49.7372C250.353 49.6329 250.212 49.5742 250.064 49.5742C249.917 49.5742 249.775 49.6329 249.671 49.7372C249.566 49.8416 249.508 49.9832 249.508 50.1308C249.382 67.517 249.025 85.7046 240.061 101.161L241.078 101.295C235.839 85.9495 219.781 80.2283 205.333 76.9707C204.636 76.8149 204.339 77.8908 205.037 78.0467Z" fill="#3B3B3B"/>
<path d="M259.169 366.979C262.78 364.797 266.091 362.153 269.016 359.113C269.513 358.594 268.727 357.807 268.23 358.327C265.363 361.301 262.12 363.888 258.583 366.022C257.967 366.393 258.531 367.357 259.139 366.979H259.169Z" fill="#00A79D"/>
<path d="M261.136 359.468C262.935 362.873 265.31 365.941 268.155 368.536C268.682 369.018 269.476 368.232 268.942 367.749C266.168 365.219 263.851 362.229 262.093 358.912C261.759 358.273 260.802 358.837 261.136 359.468Z" fill="#00A79D"/>
<path d="M216.13 59.8595C221.113 60.2196 225.751 62.5348 229.034 66.3005C229.509 66.8348 230.296 66.0482 229.821 65.5139C226.326 61.5436 221.407 59.1118 216.13 58.7464C215.388 58.6871 215.425 59.8001 216.13 59.8595Z" fill="#00A79D"/>
<path d="M223.35 53.983L221.866 65.3215C221.77 66.0635 222.89 66.019 222.979 65.3215L224.463 53.983C224.552 53.278 223.439 53.2854 223.35 53.983Z" fill="#00A79D"/>
<path d="M92.2673 69.5721C96.1877 68.0557 99.9901 66.25 103.643 64.17C103.706 64.1329 103.762 64.0838 103.806 64.0253C103.85 63.9669 103.883 63.9003 103.901 63.8293C103.92 63.7583 103.924 63.6844 103.914 63.6117C103.904 63.539 103.88 63.469 103.843 63.4056C103.806 63.3423 103.757 63.2869 103.699 63.2425C103.64 63.1982 103.574 63.1658 103.503 63.1472C103.432 63.1286 103.358 63.1241 103.285 63.1341C103.212 63.1441 103.142 63.1683 103.079 63.2053C99.5063 65.2449 95.7856 67.0135 91.9482 68.4961C91.2878 68.7558 91.5697 69.8318 92.2376 69.5721H92.2673Z" fill="#00A79D"/>
<path d="M95.562 60.5417L102.871 71.2792C103.272 71.8654 104.237 71.2792 103.836 70.7152L96.5193 59.9778C96.1186 59.3915 95.1539 59.9778 95.562 60.5417Z" fill="#00A79D"/>
<path d="M102.576 205.939C95.4305 216.015 89.383 226.827 84.5369 238.189C74.6016 261.744 69.8708 287.168 70.668 312.72C76.1244 319.629 83.2848 325 91.4454 328.303C113.707 337.126 134.321 325.996 137.452 324.237C138.218 316.543 139.4 308.896 140.992 301.33C147.04 272.249 155.351 262.699 155.996 243.739C156.263 235.785 155.254 224.097 148.695 209.605L102.576 205.939Z" fill="#606161"/>
<path d="M103.534 161.127C102.805 158.81 102.474 156.386 102.554 153.958C102.712 150.285 103.764 146.707 105.619 143.533C110.746 134.888 120.363 132.981 121.669 132.743C128.1 131.672 134.695 133.147 140.057 136.854C143.204 135.044 146.645 133.803 150.223 133.188C153.971 132.558 157.295 132.001 159.291 133.93C161.562 136.157 160.775 140.238 160.508 141.536C159.989 144.163 158.601 147.384 152.472 152.979C147.277 157.75 142.432 162.143 134.321 164.911C131.064 166.024 126.678 166.395 117.914 167.226C114.553 167.53 111.882 167.671 109.01 166.276C106.732 165.116 104.832 163.329 103.534 161.127Z" fill="#00A79D"/>
<path d="M125.669 165.305C127.111 166.868 128.305 168.642 129.208 170.567C130.781 173.965 130.611 176.317 131.16 180.399C131.822 185.954 133.129 191.412 135.056 196.664C136.644 200.761 137.475 202.846 139.508 204.723C143.656 208.5 149.073 208.552 150.809 208.574C153.236 208.574 156.456 208.626 159.35 206.489C162.029 204.5 162.912 201.762 163.988 198.423C165.064 195.084 166.133 191.745 164.901 187.604C163.947 184.599 162.073 181.969 159.543 180.087C157.072 178.186 154.114 177.02 151.01 176.726C147.453 174.529 143.837 172.192 140.161 169.713C137.935 168.229 135.766 166.728 133.653 165.209L125.669 165.305Z" fill="#3B3B3B"/>
<path d="M105.032 164.014C105.188 165.186 105.411 166.915 105.626 169C106.264 175.107 107.251 184.502 106.472 195.172C105.868 203.213 104.354 211.159 101.96 218.859C107.995 221.956 114.881 222.985 121.558 221.787C128.235 220.588 134.333 217.228 138.914 212.225L138.024 202.489C136.861 200.64 135.868 198.691 135.056 196.664C132.31 189.659 133.126 185.288 131.59 178.254C130.691 174.191 129.256 170.266 127.323 166.581C119.798 168.092 111.988 167.194 105.003 164.014H105.032Z" fill="white"/>
<path d="M134.491 164.659C134.983 166.604 135.659 168.497 136.51 170.314C138.105 173.735 139.159 175.99 141.452 177.311C144.85 179.278 148.872 177.972 150.119 177.512H152.917C152.422 175.533 151.841 173.512 151.173 171.449C149.781 167.021 148.138 162.675 146.253 158.434L134.491 164.659Z" fill="white"/>
<path opacity="0.17" d="M124.266 168.629C122.445 171.937 120.954 175.417 119.814 179.018C117.373 186.809 117.677 191.788 116.92 196.218C115.97 201.784 112.831 209.575 102.635 218.272C103.988 213.105 105.014 207.858 105.708 202.563C106.33 197.768 106.682 192.942 106.761 188.108C106.842 183.23 106.649 178.352 106.182 173.497L124.266 168.629Z" fill="#9E9E9E"/>
<path d="M105.003 164.934C105.233 166.418 105.559 168.533 105.9 171.115C107.978 186.98 107.043 192.634 108.794 193.258C110.546 193.881 114.939 189.31 126.262 166.781C119.127 167.782 111.858 167.151 105.003 164.934Z" fill="#3B3B3B"/>
<path d="M146.587 161.505C149.031 166.695 150.971 172.107 152.383 177.667L153.065 176.977C151.885 176.768 150.687 176.673 149.489 176.695C149.341 176.695 149.199 176.754 149.095 176.858C148.991 176.963 148.932 177.104 148.932 177.252C148.932 177.399 148.991 177.541 149.095 177.645C149.199 177.75 149.341 177.808 149.489 177.808C150.588 177.734 151.692 177.816 152.768 178.053C152.863 178.076 152.961 178.075 153.055 178.049C153.148 178.023 153.234 177.973 153.302 177.904C153.371 177.836 153.421 177.751 153.447 177.657C153.473 177.563 153.474 177.465 153.451 177.37C152.014 171.723 150.038 166.227 147.552 160.956C147.248 160.303 146.283 160.867 146.587 161.513V161.505Z" fill="#3B3B3B"/>
<path d="M133.787 165.052C135.397 169.036 136.673 174.453 140.265 177.177C141.711 178.242 143.427 178.882 145.218 179.025C147.009 179.168 148.804 178.808 150.401 177.986C151.047 177.674 150.483 176.709 149.845 177.021C148.097 177.914 146.091 178.165 144.177 177.73C142.263 177.295 140.563 176.201 139.374 174.639C137.215 171.812 136.183 168.027 134.863 164.755C134.595 164.102 133.52 164.384 133.787 165.052Z" fill="#3B3B3B"/>
<path d="M153.681 177.934C166.466 181.154 168.143 196.537 160.011 205.323C159.521 205.842 160.307 206.636 160.797 206.11C169.494 196.715 167.572 180.286 153.978 176.858C153.907 176.839 153.833 176.833 153.761 176.842C153.688 176.851 153.618 176.874 153.554 176.911C153.49 176.947 153.434 176.995 153.389 177.053C153.344 177.111 153.311 177.177 153.291 177.248C153.272 177.318 153.266 177.392 153.275 177.465C153.285 177.537 153.308 177.608 153.344 177.671C153.38 177.735 153.429 177.791 153.486 177.836C153.544 177.881 153.61 177.914 153.681 177.934Z" fill="#3B3B3B"/>
<path d="M127.442 168.487C134.47 180.456 129.668 197.768 141.475 207.207C142.024 207.653 142.818 206.873 142.261 206.421C130.663 197.123 135.367 179.781 128.4 167.923C128.32 167.806 128.199 167.723 128.061 167.691C127.923 167.66 127.778 167.683 127.656 167.755C127.533 167.827 127.443 167.943 127.404 168.079C127.364 168.215 127.378 168.361 127.442 168.487Z" fill="#3B3B3B"/>
<path d="M104.468 165.052C107.382 182.714 106.578 200.79 102.109 218.124C102.089 218.194 102.084 218.268 102.093 218.341C102.102 218.414 102.125 218.484 102.161 218.548C102.197 218.611 102.246 218.667 102.304 218.712C102.361 218.757 102.428 218.791 102.498 218.81C102.569 218.83 102.643 218.835 102.715 218.826C102.788 218.817 102.858 218.794 102.922 218.757C102.986 218.721 103.042 218.673 103.087 218.615C103.132 218.557 103.165 218.491 103.185 218.421C107.696 200.894 108.497 182.617 105.537 164.763C105.418 164.058 104.35 164.355 104.468 165.052Z" fill="#3B3B3B"/>
<path d="M102.302 160.874C103.942 165.326 108.401 166.929 112.764 167.553C119.214 168.41 125.772 167.905 132.013 166.068C144.124 162.467 154.311 154.207 160.337 143.102C160.686 142.479 159.729 141.915 159.38 142.546C155.494 149.817 149.723 155.909 142.673 160.183C135.623 164.457 127.553 166.757 119.309 166.84C113.937 166.9 105.626 166.603 103.4 160.6C103.155 159.939 102.079 160.221 102.331 160.896L102.302 160.874Z" fill="#3B3B3B"/>
<path d="M104.068 160.978C102.48 155.541 103.076 149.7 105.729 144.696C108.381 139.692 112.88 135.92 118.27 134.182C129.119 130.568 140.532 135.377 146.988 144.445C147.403 145.023 148.368 144.445 147.952 143.881C140.962 134.071 128.481 129.04 116.905 133.492C111.509 135.514 107.077 139.5 104.496 144.653C101.916 149.805 101.378 155.742 102.992 161.274C103.199 161.957 104.275 161.668 104.068 160.978Z" fill="#3B3B3B"/>
<path d="M141.92 137.136C144.807 135.386 147.983 134.162 151.299 133.523C153.444 133.122 156.872 132.491 158.72 134.139C161.25 136.365 160.56 140.416 159.195 142.984C158.853 143.614 159.81 144.178 160.152 143.54C162.029 140.03 162.319 133.827 157.673 132.217C152.724 130.502 145.511 133.701 141.348 136.179C141.231 136.258 141.148 136.379 141.117 136.518C141.085 136.656 141.108 136.801 141.18 136.923C141.252 137.045 141.368 137.135 141.504 137.175C141.64 137.215 141.786 137.201 141.912 137.136H141.92Z" fill="#3B3B3B"/>
<path d="M141.734 163.998C142.287 164.869 142.637 165.853 142.758 166.877L143.797 166.595C143.044 165.581 142.548 164.4 142.35 163.152C142.231 162.41 141.163 162.744 141.274 163.441C141.493 164.784 142.027 166.055 142.832 167.152C143.114 167.538 143.945 167.486 143.871 166.87C143.738 165.65 143.338 164.474 142.699 163.427C142.32 162.818 141.356 163.375 141.734 163.991V163.998Z" fill="#3B3B3B"/>
<path d="M128.11 172.004C124.852 171.025 122.381 174.616 122.292 177.533C122.256 178.315 122.388 179.095 122.679 179.822C122.971 180.548 123.416 181.203 123.983 181.742C124.551 182.281 125.227 182.692 125.968 182.947C126.708 183.201 127.494 183.293 128.273 183.217C128.978 183.135 129.015 182.022 128.273 182.104C121.305 182.846 122.827 171.574 127.813 173.073C127.95 173.099 128.092 173.072 128.21 172.998C128.328 172.925 128.415 172.809 128.452 172.675C128.489 172.541 128.475 172.397 128.412 172.273C128.348 172.149 128.241 172.053 128.11 172.004Z" fill="#3B3B3B"/>
<path d="M141.407 207.088C146.698 209.448 156.605 210.843 161.027 205.879C161.502 205.345 160.716 204.558 160.233 205.092C156.182 209.648 146.773 208.268 141.971 206.131C141.326 205.842 140.754 206.799 141.407 207.088Z" fill="#3B3B3B"/>
<path d="M142.268 168.548C142.578 168.148 142.994 167.843 143.47 167.668C143.945 167.494 144.459 167.457 144.955 167.561C145.652 167.709 145.949 166.641 145.251 166.485C144.566 166.328 143.851 166.364 143.186 166.589C142.52 166.814 141.93 167.22 141.482 167.761C141.037 168.311 141.816 169.105 142.268 168.548Z" fill="#3B3B3B"/>
<path d="M137.467 202.341C137.21 204.165 137.138 206.009 137.252 207.847C137.296 208.589 138.409 208.589 138.365 207.847C138.248 206.114 138.305 204.374 138.536 202.653C138.632 201.955 137.564 201.651 137.467 202.356V202.341Z" fill="#3B3B3B"/>
<path d="M136.191 216.321C138.307 213.974 140.914 212.122 143.827 210.896C148.732 208.863 153.525 209.145 159.016 210.251C169.309 212.328 176.38 216.187 181.938 218.925C190.867 223.343 200.102 227.112 209.572 230.204C215.412 227.132 221.608 223.57 228.02 219.43C233.043 216.187 237.666 212.922 241.933 209.716C242.556 206.129 244.372 202.858 247.088 200.434C249.803 198.009 253.259 196.573 256.893 196.359C263.094 199.656 269.995 201.416 277.017 201.494C276.275 205.375 275.963 207.972 276.409 208.099C276.854 208.225 277.744 206.8 277.455 206.295C276.839 205.205 269.842 207.579 251.906 216.046C244.634 223.875 238.267 230.278 233.355 235.087C224.384 243.843 219.909 247.961 214.062 252.154C210.463 254.744 207.316 256.703 205.083 258.031C203.089 258.305 201.078 258.439 199.065 258.432C193.114 258.354 187.234 257.132 181.745 254.833C174.852 252.176 164.842 249.104 149.511 245.305L136.191 216.321Z" fill="white"/>
<path opacity="0.24" d="M135.056 213.969C137.49 215.995 141.252 219.074 145.942 222.68C172.032 242.76 185.545 252.897 198.627 250.492C201.655 249.936 207.339 245.038 218.699 235.251C240.219 216.7 246.155 208.159 259.564 204.537C265.14 203.071 270.941 202.658 276.668 203.32C277.685 205.68 277.41 207.068 277.025 207.862C274.954 212.314 265.233 208.982 255.616 213.85C253.784 214.77 252.915 215.512 246.2 222.124C233.748 234.316 230.12 238.301 225.934 242.226C219.507 248.24 212.483 253.584 204.972 258.173C199.777 257.883 194.293 257.334 188.513 256.436C174.54 254.257 160.892 250.346 147.886 244.794L135.056 213.969Z" fill="#9E9E9E"/>
<path d="M139.975 213.768C150.401 206.028 163.209 211.823 173.731 216.15L208.036 230.248C208.696 230.516 208.986 229.44 208.333 229.172C195.562 223.919 182.806 218.613 170.006 213.419C160.27 209.464 148.724 205.887 139.411 212.803C138.847 213.226 139.411 214.191 139.975 213.76V213.768Z" fill="#3B3B3B"/>
<path d="M205.55 233.262C215.152 227.474 225.007 222.087 234.602 216.292C237.822 214.348 241.02 212.107 243.195 208.975C244.345 207.328 244.946 205.465 245.814 203.677C246.489 202.17 247.493 200.833 248.751 199.764C250.009 198.694 251.49 197.919 253.086 197.496C253.214 197.446 253.32 197.351 253.382 197.228C253.444 197.105 253.459 196.964 253.423 196.831C253.387 196.698 253.303 196.583 253.187 196.509C253.072 196.434 252.932 196.405 252.797 196.427C251.144 196.853 249.6 197.625 248.267 198.692C246.934 199.759 245.843 201.096 245.064 202.616C243.714 205.243 242.979 207.766 240.961 209.999C239.21 211.845 237.212 213.441 235.025 214.741C225.222 220.9 214.93 226.324 205.009 232.298C204.881 232.373 204.788 232.495 204.75 232.638C204.713 232.782 204.734 232.934 204.808 233.062C204.883 233.19 205.006 233.283 205.149 233.321C205.292 233.358 205.445 233.337 205.573 233.262H205.55Z" fill="#3B3B3B"/>
<path d="M147.744 245.334C158.292 249.109 169.026 252.341 179.905 255.018C185.114 256.304 190.355 257.452 195.629 258.461C199.473 259.203 203.287 259.811 206.893 257.919C210.871 255.827 214.492 252.621 217.957 249.794C222.061 246.44 226.016 242.907 229.83 239.264C237.532 231.955 244.782 224.186 252.032 216.424C252.514 215.897 251.728 215.11 251.238 215.637C237.97 229.855 224.524 244.674 208.348 255.708C203.205 259.203 198.152 257.889 192.468 256.732C187.437 255.703 182.433 254.555 177.456 253.289C167.505 250.758 157.688 247.731 148.012 244.28C147.336 244.043 147.047 245.111 147.722 245.356L147.744 245.334Z" fill="#3B3B3B"/>
<path d="M260.462 198.251C263.304 199.636 266.322 200.622 269.434 201.182C270.632 201.39 271.841 201.531 273.055 201.605C274.902 201.716 275.155 201.256 276.246 203.148C277.255 204.915 277.099 205.812 276.535 207.712C276.509 207.849 276.536 207.991 276.61 208.109C276.683 208.227 276.799 208.314 276.933 208.351C277.067 208.388 277.211 208.374 277.335 208.31C277.459 208.247 277.555 208.14 277.603 208.009C278.264 205.783 279.088 201.746 276.431 200.588C275.696 200.464 274.947 200.439 274.205 200.514C272.701 200.467 271.201 200.323 269.715 200.084C266.697 199.545 263.766 198.596 261.004 197.264C260.358 196.96 259.794 197.917 260.447 198.221L260.462 198.251Z" fill="#3B3B3B"/>
<path d="M252.381 216.349C255.564 211.897 264.751 215.066 269.352 214.39C273.196 213.826 275.288 211.838 276.891 208.409C277.195 207.764 276.238 207.2 275.934 207.853C272.735 214.65 266.51 213.329 260.18 213.047C257.019 212.921 253.412 212.958 251.424 215.763C251.008 216.349 251.973 216.906 252.381 216.32V216.349Z" fill="#3B3B3B"/>
<path d="M-0.160645 143.043C0.292006 144.215 21.574 297.738 21.574 297.738L155.833 374.31C152.464 320.418 149.098 266.52 145.734 212.618L-0.160645 143.043Z" fill="white" stroke="#3B3B3B" stroke-miterlimit="10"/>
<path opacity="0.18" d="M60.1086 171.775C56.8196 182.497 54.8583 193.582 54.2687 204.781C49.5938 295.475 138.699 361.962 155.833 374.31L21.522 297.731C14.3143 246.173 7.0867 194.61 -0.160645 143.043L60.1086 171.775Z" fill="#9E9E9E"/>
<path d="M251.372 18.5859C253.991 27.2086 256.381 36.2912 258.436 45.8117C269.285 96.0856 267.259 141.647 261.456 177.897L400.628 188.983L404.657 26.6298L251.372 18.5859Z" fill="white" stroke="#3B3B3B" stroke-miterlimit="10"/>
<path opacity="0.18" d="M332.144 103.062C331.566 94.2919 332.004 85.4847 333.45 76.8155C335.854 62.4346 337.227 54.1978 344.165 48.4989C352.721 41.4717 367.169 40.4031 377.453 47.1112C389.326 54.8805 386.425 74.6709 385.779 90.113C384.785 113.658 386.87 146.902 400.62 189.006L367.317 182.12C366.872 180.576 366.412 179.04 365.929 177.497C357.825 151.369 346.475 126.362 332.144 103.062Z" fill="#9E9E9E"/>
<path d="M302.061 106.43C301.423 107.239 300.518 108.418 299.509 109.895C298.767 110.949 295.606 115.609 294.084 119.705C292.519 123.92 292.66 127.697 293.135 132.75C294.025 142.02 295.512 151.224 297.587 160.302C293.787 163.236 290.143 166.367 286.671 169.682C282.56 173.6 282.13 174.49 278.123 178.089C273.032 182.653 270.495 184.939 266.428 187.031C263.616 188.478 262.117 188.805 258.956 190.882C254.466 193.851 253.376 195.884 252.915 196.989C251.914 199.438 251.825 202.644 252.915 203.171C254.006 203.698 256.5 201.234 257.961 199.728C258.749 198.924 259.473 198.06 260.128 197.145C262.749 199.274 265.992 200.49 269.367 200.611C271.835 200.684 274.284 200.16 276.505 199.082C276.95 197.259 277.654 195.51 278.598 193.888C280.92 189.881 283.926 188.033 289.588 184.241C297.053 179.284 300.77 176.561 301.653 175.915C308.146 171.144 310.246 168.999 311.767 165.972C312.94 163.657 313.318 161.705 313.838 159.004C314.615 154.311 314.782 149.537 314.335 144.801C313.548 136.935 309.712 123.029 302.061 106.43Z" fill="white"/>
<path d="M258.11 212.639C259.031 211.552 259.846 210.379 260.544 209.137C262.288 206.287 262.332 205.36 263.928 203.289C264.759 202.221 265.842 200.818 266.465 201.063C267.296 201.375 266.866 204.365 266.725 205.286C267.348 202.777 269.908 201.664 271.548 202.399C272.936 203.022 273.775 205.048 273.107 207.029C274.761 206.287 275.296 206.644 275.474 206.799C276.349 207.586 275.132 210.257 274.338 211.578C273.619 212.852 272.619 213.946 271.415 214.776C270.101 215.652 268.825 215.971 261.093 216.053C257.316 216.09 255.899 216.053 255.713 215.437C255.528 214.821 256.581 214.376 258.11 212.639Z" fill="white"/>
<path opacity="0.2" d="M305.927 115.334C306.15 118.413 306.454 122.985 306.736 128.528C307.263 138.827 307.53 143.977 307.278 146.426C306.922 149.921 305.222 162.113 296.399 171.418C291.205 176.902 288.111 176.546 279.985 184.775C277.146 187.628 274.547 190.71 272.216 193.991C270.728 196.09 269.353 198.268 268.098 200.514C269.26 201.313 270.661 201.69 272.068 201.582C272.94 201.492 273.785 201.224 274.551 200.795C275.316 200.366 275.986 199.786 276.52 199.089C277.362 196.239 278.743 193.577 280.586 191.246C283.013 188.196 285.217 187.083 291.465 183.001C297.038 179.351 299.828 177.518 302.417 175.403C306.803 171.797 310.432 168.821 312.613 164.087C314.735 159.464 314.602 155.063 314.149 150.433C312.88 137.454 309.348 124.981 305.927 115.334Z" fill="#9E9E9E"/>
<path opacity="0.22" d="M259.534 216.031C261.227 215.65 262.824 214.93 264.232 213.916C269.76 209.872 270.086 202.258 271.548 202.384C272.038 202.429 272.624 203.342 273.107 207.015C274.361 206.51 275.147 206.436 275.474 206.785C276.176 207.542 274.759 210.262 271.222 214.947L259.534 216.031Z" fill="#9E9E9E"/>
<path d="M299.115 109.472C285.929 123.571 296.051 143.918 297.06 160.273C297.104 161.015 298.217 161.015 298.173 160.273C297.186 144.274 287.042 124.039 299.902 110.259C300.392 109.739 299.605 108.945 299.115 109.472Z" fill="#3B3B3B"/>
<path d="M298.982 160.251C292.474 161.586 286.731 168.784 282.249 173.259C276.216 179.277 270.213 184.575 262.51 188.36C257.509 190.816 251.231 194.697 251.884 201.212C252.626 208.803 258.859 199.542 260.559 197.502C261.019 196.952 260.232 196.166 259.772 196.715C258.77 197.91 254.978 204.084 253.145 201.998C251.862 200.514 253.821 196.678 254.63 195.446C255.656 194.007 256.951 192.78 258.444 191.832C263.022 188.76 268.194 186.994 272.609 183.588C276.817 180.345 280.52 176.524 284.274 172.784C288.281 168.799 293.55 162.484 299.264 161.319C299.969 161.171 299.672 160.102 298.967 160.243L298.982 160.251Z" fill="#3B3B3B"/>
<path d="M313.422 149.847C313.712 155.976 313.793 162.514 310.061 167.73C306.625 172.524 301.156 175.633 296.377 178.928C288.578 184.308 278.568 189.042 275.978 198.963C275.959 199.034 275.953 199.107 275.963 199.18C275.972 199.253 275.995 199.323 276.031 199.387C276.067 199.451 276.116 199.507 276.173 199.552C276.231 199.597 276.297 199.63 276.368 199.649C276.439 199.669 276.512 199.674 276.585 199.665C276.658 199.656 276.728 199.633 276.792 199.597C276.856 199.561 276.912 199.512 276.957 199.454C277.002 199.397 277.035 199.331 277.054 199.26C278.813 192.448 283.874 188.931 289.38 185.161C294.396 181.696 299.546 178.364 304.429 174.705C307.879 172.123 311.107 169.155 312.836 165.14C314.921 160.362 314.773 154.997 314.535 149.906C314.535 149.164 313.385 149.164 313.422 149.906V149.847Z" fill="#3B3B3B"/>
<path d="M255.906 215.206C257.814 213.911 259.404 212.201 260.559 210.205C261.605 208.513 264.128 201.85 266.324 201.723C267.066 201.686 267.066 200.573 266.324 200.61C264.291 200.729 262.837 203.846 261.983 205.359C260.121 208.632 258.607 212.112 255.349 214.264C254.748 214.657 255.305 215.615 255.906 215.221V215.206Z" fill="#3B3B3B"/>
<path d="M265.99 201.33C266.911 202.814 265.041 206.427 264.469 207.689C263.772 209.23 262.964 210.718 262.05 212.141C261.664 212.75 262.629 213.306 263.015 212.705C264.37 210.584 265.496 208.326 266.376 205.967C266.955 204.379 267.957 202.368 266.948 200.773C266.569 200.165 265.605 200.721 265.99 201.33Z" fill="#3B3B3B"/>
<path d="M266.51 206.376C268.079 204.486 270.083 203.004 272.35 202.057L271.608 201.857C273.478 205.1 270.472 209.856 268.588 212.579C268.179 213.166 269.144 213.722 269.552 213.136C271.689 210.056 274.709 204.973 272.572 201.263C272.495 201.145 272.376 201.059 272.239 201.022C272.103 200.985 271.957 201 271.83 201.063C269.476 202.05 267.396 203.593 265.768 205.56C265.308 206.101 266.087 206.895 266.554 206.346L266.51 206.376Z" fill="#3B3B3B"/>
<path d="M271.014 202.236C269.65 205.992 267.852 209.575 265.656 212.914C265.256 213.508 266.22 214.072 266.614 213.471C268.869 210.052 270.717 206.381 272.12 202.533C272.364 201.858 271.296 201.568 271.051 202.236H271.014Z" fill="#3B3B3B"/>
<path d="M273.5 207.408C274.984 207.348 275.459 207.096 274.94 206.666C274.851 207.037 274.747 207.408 274.643 207.756C274.378 208.609 274.053 209.443 273.671 210.25C272.961 211.736 272.071 213.129 271.022 214.398C270.569 214.947 271.355 215.733 271.808 215.184C273.604 212.995 275.711 209.879 276.016 206.962C276.238 204.848 273.656 205.864 272.713 206.651C272.157 207.111 272.951 207.897 273.5 207.437V207.408Z" fill="#3B3B3B"/>
<path d="M255.565 215.957C260.269 217.731 266.413 216.158 271.222 215.519C271.919 215.43 271.964 214.31 271.222 214.406C266.517 215.03 260.44 216.632 255.861 214.881C255.186 214.629 254.897 215.705 255.565 215.957Z" fill="#3B3B3B"/>
<path d="M296.251 107.668C297.342 110.673 299.034 115.549 300.703 121.685C304.555 135.666 303.612 138.752 307.345 144.607C310.61 149.727 311.797 148.087 320.271 157.563C325.584 163.5 328.434 166.854 330.452 171.662C331.585 174.419 332.363 177.309 332.767 180.263L377.914 184.96C373.174 164.148 365.351 144.162 354.702 125.663C349.546 116.724 343.743 108.175 337.338 100.084C331.699 98.5482 317.6 95.632 303.857 102.607C301.138 104 298.586 105.698 296.251 107.668Z" fill="#00A79D"/>
<path d="M332.478 108.203C333.377 106.736 334.465 105.394 335.713 104.21C337.494 102.526 339.98 100.181 343.675 99.7951C347.972 99.3499 351.252 101.836 352.402 102.704C354.754 104.492 355.934 106.518 357.433 109.256C362.627 118.799 364.223 122.843 364.223 122.843C367.51 131.199 369.157 135.384 371.643 143.368C373.803 150.306 376.355 159.345 378.745 170.141C378.13 171.998 377.091 173.685 375.71 175.069C374.028 176.656 371.957 177.772 369.706 178.304C350.265 183.498 324.976 182.823 324.976 182.823C322.23 182.749 318.297 182.623 313.474 182.378C311.949 182.818 310.348 182.929 308.777 182.704C306.105 182.304 305.163 181.094 302.38 179.899C299.751 178.792 296.922 178.237 294.069 178.267C289.662 178.378 286.144 180.174 285.35 178.942C285.18 178.643 285.105 178.298 285.135 177.955C285.207 177.587 285.361 177.239 285.586 176.938C285.811 176.638 286.1 176.392 286.434 176.219C286.667 175.819 286.932 175.44 287.228 175.083C287.568 174.666 287.948 174.284 288.363 173.941C288.461 173.433 288.608 172.936 288.801 172.457C289.182 171.553 289.717 170.722 290.381 170C291.814 168.553 294.314 168.717 297.297 168.947C299.588 169.131 301.85 169.571 304.043 170.26C304.169 168.85 304.517 168.034 305.096 167.811C306.397 167.317 308.851 169.79 312.457 175.232C316.614 174.861 320.739 174.186 324.798 173.213C329.339 172.116 333.791 170.68 338.117 168.917C342.97 166.936 344.358 165.882 348.714 164.539C351.435 163.702 354.219 163.087 357.04 162.699C354.754 156.903 352.758 152.072 351.259 148.511C344.959 133.566 339.78 122.836 338.377 119.949C335.98 115.052 333.925 111 332.478 108.203Z" fill="white"/>
<path opacity="0.21" d="M346.874 99.6387C349.174 102.169 351.294 104.856 353.218 107.682C364.119 123.688 365.447 139.457 366.315 151.59C367.28 165.035 365.247 167.981 364.089 169.295C361.492 172.226 359.028 171.818 344.989 174.029C336.366 175.395 321.124 178.103 313.392 178.133C310.881 178.129 308.371 177.985 305.875 177.702C303.998 177.465 302.959 177.183 302.061 177.101C297.62 176.698 293.142 177.09 288.838 178.259C293.103 177.504 297.49 177.856 301.579 179.283C304.01 180.142 306.289 181.382 308.332 182.956L314.068 182.125C323.514 182.629 331.513 182.615 337.598 182.451C352.936 182.051 358.746 180.693 361.344 180.003C366.227 178.73 370.965 176.952 375.48 174.697L378.507 169.762C378.188 168.315 377.683 166.052 377.023 163.358C373.875 149.958 369.728 136.811 364.616 124.03C358.68 109.352 358.62 113.522 355.036 105.783C354.407 104.321 353.456 103.02 352.253 101.976C350.706 100.723 348.846 99.9146 346.874 99.6387Z" fill="#9E9E9E"/>
<path d="M331.996 108.484C340.996 125.959 349.112 143.875 356.313 162.164C356.572 162.825 357.648 162.535 357.389 161.868C350.154 143.485 342.001 125.478 332.96 107.913C332.626 107.275 331.669 107.831 331.996 108.47V108.484Z" fill="#3B3B3B"/>
<path d="M360.223 163.366C358.361 161.689 356.03 162.216 353.76 162.75C349.308 163.804 345.174 165.718 340.967 167.462C331.741 171.212 322.012 173.575 312.094 174.475C311.389 174.541 311.352 175.654 312.094 175.588C320.087 174.884 327.968 173.235 335.572 170.675C339.349 169.384 342.993 167.766 346.703 166.29C349.671 165.088 356.669 161.644 359.459 164.153C359.993 164.635 360.78 163.848 360.245 163.366H360.223Z" fill="#3B3B3B"/>
<path d="M352.387 103.358C360.082 112.433 364.327 123.868 368.237 134.947C372.143 146.052 375.32 157.399 377.75 168.918C377.899 169.615 378.975 169.326 378.826 168.621C376.204 156.18 372.706 143.94 368.356 131.993C364.557 121.605 360.409 111.105 353.174 102.571C352.714 102.029 351.927 102.816 352.387 103.358Z" fill="#3B3B3B"/>
<path d="M314.305 183.067C327.269 183.505 340.314 183.935 353.226 182.325C361.448 181.294 374.886 180.299 378.945 171.603C379.242 170.957 378.285 170.386 377.98 171.039C375.65 176.033 370.308 177.754 365.328 178.993C359.54 180.389 353.649 181.322 347.712 181.783C336.581 182.711 325.451 182.34 314.32 181.962C313.578 181.962 313.578 183.052 314.32 183.075L314.305 183.067Z" fill="#3B3B3B"/>
<path d="M313.318 181.844C308.124 183.773 304.124 179.232 299.36 178.037C294.908 176.924 289.81 178.037 285.343 178.386C284.601 178.446 284.601 179.559 285.343 179.499C291.836 178.987 297.542 178.015 303.575 181.072C306.855 182.727 309.942 184.278 313.615 182.92C314.283 182.668 313.993 181.592 313.318 181.844Z" fill="#3B3B3B"/>
<path d="M312.635 174.163C311.529 171.787 309.742 169.794 307.501 168.435C306.758 167.982 305.66 167.285 304.74 167.633C304.578 167.69 304.428 167.778 304.301 167.893C304.173 168.008 304.07 168.148 303.997 168.303C303.925 168.459 303.884 168.628 303.878 168.8C303.872 168.971 303.9 169.142 303.961 169.303C304.198 169.971 305.274 169.681 305.037 169.006C304.889 168.591 306.276 169.006 306.343 169.066C306.682 169.237 307.012 169.428 307.33 169.637C307.991 170.067 308.605 170.564 309.163 171.121C310.202 172.156 311.048 173.367 311.663 174.698C311.975 175.343 312.932 174.779 312.628 174.141L312.635 174.163Z" fill="#3B3B3B"/>
<path d="M311.048 174.282C308.491 171.645 305.251 169.772 301.69 168.873C298.129 167.974 294.388 168.084 290.886 169.192C290.203 169.407 290.5 170.483 291.183 170.268C294.498 169.202 298.046 169.086 301.424 169.935C304.801 170.784 307.873 172.562 310.291 175.069C310.795 175.581 311.582 174.794 311.077 174.282H311.048Z" fill="#3B3B3B"/>
<path d="M285.313 178.696C286.886 176.144 291.806 176.47 294.411 176.121C295.116 176.04 295.153 174.927 294.411 175.008C291.294 175.387 286.248 175.053 284.356 178.132C283.978 178.748 284.942 179.305 285.313 178.696Z" fill="#3B3B3B"/>
<path d="M286.768 176.353C289.305 174.082 292.778 174.001 296.006 173.978C296.154 173.978 296.295 173.92 296.4 173.815C296.504 173.711 296.563 173.569 296.563 173.422C296.563 173.274 296.504 173.133 296.4 173.028C296.295 172.924 296.154 172.865 296.006 172.865C292.452 172.865 288.756 173.08 285.981 175.566C285.447 176.049 286.233 176.828 286.768 176.353Z" fill="#3B3B3B"/>
<path d="M288.808 173.956C289.506 171.626 294.544 171.879 296.399 171.975C297.141 172.012 297.141 170.899 296.399 170.862C293.906 170.728 288.66 170.587 287.732 173.66C287.525 174.35 288.601 174.639 288.808 173.956Z" fill="#3B3B3B"/>
<path d="M289.803 171.729C290.016 171.194 290.424 170.759 290.944 170.513C291.464 170.267 292.059 170.226 292.608 170.4C293.29 170.623 293.587 169.547 292.904 169.332C292.073 169.081 291.176 169.159 290.4 169.55C289.624 169.941 289.028 170.614 288.734 171.432C288.482 172.107 289.558 172.397 289.803 171.729Z" fill="#3B3B3B"/>
<path d="M337.568 103.164C339.795 101.843 342.08 100.441 344.7 100.255C347.668 100.04 349.849 101.546 352.12 103.186C352.699 103.609 353.255 102.644 352.677 102.221C350.391 100.574 348.039 99.0084 345.108 99.0826C342.177 99.1568 339.475 100.73 337.004 102.199C336.396 102.57 336.953 103.535 337.568 103.164Z" fill="#3B3B3B"/>
<path d="M279.459 69.8456C278.848 73.8481 278.791 77.9154 279.288 81.9336C279.843 86.8299 281.415 91.5563 283.903 95.8099C286.828 100.661 290.907 104.714 295.776 107.608C297.09 107.47 298.392 107.237 299.672 106.911C302.415 106.213 305.038 105.11 307.456 103.639C308.761 104.74 310.176 105.705 311.678 106.518C315.079 108.33 318.847 109.345 322.698 109.486C326.02 105.506 328.64 100.989 330.445 96.129C332.092 91.6767 336.656 79.329 330.801 68.2056C328.664 64.1392 325.97 61.8389 322.876 59.1972C316.68 53.9138 308.577 46.9979 298.388 48.9346C287.094 51.0791 280.906 62.618 279.837 67.7456C279.755 67.9904 279.614 68.7993 279.459 69.8456Z" fill="white"/>
<path opacity="0.26" d="M297.987 54.8711C302.64 58.6352 306.104 63.6662 307.959 69.3561C309.815 75.0461 309.983 81.1516 308.443 86.9351C305.734 98.37 297.98 105.167 294.952 107.557C297.075 107.082 299.345 106.481 301.742 105.709C303.79 105.056 305.697 104.351 307.441 103.639C308.747 104.739 310.162 105.703 311.663 106.518C313.729 107.626 315.943 108.433 318.238 108.915C323.298 103.247 327.124 96.5879 329.473 89.3616C331.632 82.6386 333.576 76.5612 330.875 70.4393C328.107 64.169 322.015 61.3863 316.509 58.8782C310.688 56.2487 304.375 54.883 297.987 54.8711Z" fill="#9E9E9E"/>
<path d="M279.822 67.7606C284.074 61.234 290.126 56.0792 297.245 52.9196C297.777 54.509 298.447 56.0485 299.249 57.5203C304.243 66.6401 313.148 70.662 317.489 72.2945C319.24 70.1203 321.941 69.2076 324.108 69.9868C326.809 70.9588 327.506 74.0754 327.692 74.9214C328.088 76.8388 327.791 78.8347 326.853 80.5535C325.221 83.403 321.763 85.0058 318.038 84.7239C316.947 85.4659 311.997 89.0055 310.84 95.5133C309.645 102.192 313.177 108.521 318.038 111.905C321.064 113.942 324.645 114.997 328.293 114.925C331.941 114.853 335.477 113.659 338.422 111.504C344.024 107.379 345.174 101.116 345.412 99.6316C349.79 102.978 355.259 103.505 358.932 101.116C363.206 98.3182 364.008 92.2111 362.798 88.1002C360.861 81.4737 354.443 82.1638 343.816 71.3299C339.928 67.3747 338.155 65.2896 336.129 62.0691C331.305 54.374 331.803 49.4542 324.256 45.5436C309.563 37.9302 293.164 45.2691 291.272 46.1447C282.936 50.1069 276.122 56.6835 271.867 64.874C273.531 69.7588 274.285 74.9071 274.093 80.0638C273.648 90.1853 269.641 93.1758 269.693 102.451C269.693 106.332 269.76 115.326 276.09 120.839C282.583 126.486 294.886 127.785 301.876 120.639C308.02 114.354 306.521 105.16 306.328 104.069L296.288 107.646C292.529 105.579 289.204 102.808 286.493 99.4832C276.268 86.8164 279.214 70.7659 279.822 67.7606Z" fill="#606161"/>
<path d="M279.266 67.7599C277.403 82.9274 281.247 99.2154 294.678 108.038C295.272 108.432 295.835 107.467 295.234 107.074C282.145 98.4807 278.568 82.5044 280.393 67.745C280.482 67.003 279.369 67.0475 279.28 67.745L279.266 67.7599Z" fill="#3B3B3B"/>
<path d="M295.761 108.165C301.392 107.553 306.677 105.149 310.84 101.309C311.367 100.826 310.58 100.04 310.046 100.522C306.103 104.168 301.098 106.456 295.761 107.052C295.056 107.134 295.019 108.247 295.761 108.165Z" fill="#3B3B3B"/>
<path d="M289.684 72.6812C289.822 78.9989 290.555 85.2896 291.873 91.4698C291.9 91.5632 291.952 91.6479 292.021 91.7156C292.091 91.7834 292.177 91.832 292.271 91.8566C292.365 91.8813 292.464 91.8811 292.558 91.8563C292.652 91.8314 292.738 91.7826 292.808 91.7147C293.947 90.4852 294.986 89.1676 295.917 87.7744C296.318 87.1808 295.353 86.6168 294.96 87.2105C294.069 88.5228 293.077 89.7634 291.992 90.9207L292.919 91.1656C291.621 85.0832 290.901 78.8917 290.767 72.6737C290.767 71.9317 289.632 71.9317 289.654 72.6737L289.684 72.6812Z" fill="#3B3B3B"/>
<path d="M292.778 95.9958C295.029 96.0918 297.276 95.7207 299.377 94.906C301.478 94.0912 303.387 92.8503 304.985 91.2615C305.497 90.7569 304.71 89.9703 304.198 90.4749C302.709 91.9618 300.927 93.1218 298.964 93.8807C297.002 94.6397 294.902 94.9809 292.8 94.8827C292.058 94.8827 292.058 95.9661 292.8 95.9958H292.778Z" fill="#3B3B3B"/>
<path d="M282.835 68.2347C283.095 67.8607 283.444 67.5565 283.85 67.3488C284.256 67.1411 284.706 67.0363 285.162 67.0437C285.618 67.051 286.065 67.1702 286.464 67.3908C286.863 67.6115 287.202 67.9267 287.45 68.3089C287.851 68.8951 288.816 68.3089 288.415 67.7449C288.081 67.2161 287.624 66.7756 287.083 66.461C286.542 66.1464 285.934 65.9669 285.309 65.9378C284.684 65.9087 284.061 66.0308 283.494 66.2937C282.926 66.5566 282.43 66.9526 282.048 67.4481C281.618 68.0047 282.397 68.7987 282.835 68.2347Z" fill="#3B3B3B"/>
<path d="M296.823 67.6129C297.758 66.7114 298.988 66.1794 300.286 66.1153C301.583 66.0511 302.86 66.4593 303.879 67.2641C304.436 67.7094 305.23 66.9228 304.673 66.4776C303.44 65.4698 301.88 64.9489 300.289 65.0131C298.697 65.0774 297.184 65.7224 296.036 66.8263C295.524 67.3235 296.311 68.1101 296.823 67.6129Z" fill="#3B3B3B"/>
<path d="M317.882 72.6502C319.418 71.2255 321.214 70.1569 323.358 70.4241C326.467 70.8173 327.202 73.5555 327.172 76.1378C327.12 80.7385 324.36 83.2096 319.908 83.5138C319.166 83.5583 319.166 84.6714 319.908 84.6269C325.881 84.2188 329.205 80.0262 328.152 74.0378C327.098 68.0495 320.731 68.4502 317.095 71.8117C316.568 72.3014 317.362 73.088 317.882 72.6057V72.6502Z" fill="#3B3B3B"/>
<path d="M286.159 80.1529C286.696 80.1529 287.131 78.897 287.131 77.3479C287.131 75.7988 286.696 74.543 286.159 74.543C285.622 74.543 285.187 75.7988 285.187 77.3479C285.187 78.897 285.622 80.1529 286.159 80.1529Z" fill="#3B3B3B"/>
<path d="M299.702 79.729C300.238 79.729 300.674 78.4732 300.674 76.9241C300.674 75.375 300.238 74.1191 299.702 74.1191C299.165 74.1191 298.729 75.375 298.729 76.9241C298.729 78.4732 299.165 79.729 299.702 79.729Z" fill="#3B3B3B"/>
<path d="M301.861 82.7578H301.757C301.609 82.7578 301.468 82.8164 301.363 82.9208C301.259 83.0252 301.2 83.1667 301.2 83.3143C301.2 83.462 301.259 83.6035 301.363 83.7079C301.468 83.8122 301.609 83.8709 301.757 83.8709H301.861C302.008 83.8709 302.15 83.8122 302.254 83.7079C302.359 83.6035 302.417 83.462 302.417 83.3143C302.417 83.1667 302.359 83.0252 302.254 82.9208C302.15 82.8164 302.008 82.7578 301.861 82.7578Z" fill="#3B3B3B"/>
<path d="M306.618 81.1248C306.765 81.1248 306.907 81.0662 307.011 80.9618C307.115 80.8574 307.174 80.7159 307.174 80.5683C307.174 80.4207 307.115 80.2791 307.011 80.1747C306.907 80.0704 306.765 80.0117 306.618 80.0117C306.47 80.0117 306.328 80.0704 306.224 80.1747C306.12 80.2791 306.061 80.4207 306.061 80.5683C306.061 80.7159 306.12 80.8574 306.224 80.9618C306.328 81.0662 306.47 81.1248 306.618 81.1248Z" fill="#3B3B3B"/>
<path d="M306.721 85.6521C306.869 85.6521 307.01 85.5935 307.115 85.4891C307.219 85.3848 307.278 85.2432 307.278 85.0956C307.278 84.948 307.219 84.8064 307.115 84.7021C307.01 84.5977 306.869 84.5391 306.721 84.5391C306.574 84.5391 306.432 84.5977 306.328 84.7021C306.223 84.8064 306.165 84.948 306.165 85.0956C306.165 85.2432 306.223 85.3848 306.328 85.4891C306.432 85.5935 306.574 85.6521 306.721 85.6521Z" fill="#3B3B3B"/>
<path d="M307.048 104.033C310.067 106.406 313.437 108.296 317.036 109.635C317.704 109.888 317.993 108.812 317.325 108.559C313.905 107.289 310.703 105.494 307.835 103.239C307.278 102.808 306.484 103.588 307.048 104.033Z" fill="#3B3B3B"/>
</g>
<defs>
<clipPath id="clip0_5589_11592">
<rect width="504" height="399" fill="white" transform="translate(0.156738 0.183594)"/>
</clipPath>
</defs>
</svg>
