<svg width="505" height="400" viewBox="0 0 505 400" fill="none" xmlns="http://www.w3.org/2000/svg">
<path d="M75.5879 135.318C81.4953 130.497 89.4935 129.799 96.7947 131.129C104.594 132.525 111.696 136.282 118.898 139.441C126.332 142.733 133.898 145.094 142.062 145.493C150.193 145.925 158.324 144.761 166.223 142.766C182.717 138.61 197.851 130.63 213.681 124.612C221.613 121.586 229.81 118.959 238.24 117.762C242.82 117.097 247.433 116.931 252.046 117.43C256.427 117.895 260.708 118.926 264.989 119.99C274.447 122.351 283.873 124.412 293.563 125.576C303.553 126.773 313.642 127.172 323.698 126.839C324.328 126.806 324.328 125.809 323.698 125.842C305.445 126.507 287.191 124.545 269.469 120.123C261.006 117.995 252.61 115.8 243.815 116.233C235.286 116.665 226.857 118.926 218.825 121.686C202.729 127.238 187.596 135.385 171.267 140.339C162.971 142.833 154.375 144.562 145.68 144.595C136.852 144.628 128.555 142.567 120.491 139.042C112.526 135.584 104.727 131.295 96.0646 129.965C88.697 128.834 80.8315 129.732 74.891 134.587C74.3932 135.019 75.0901 135.75 75.5879 135.318Z" fill="#E8E8E8"/>
<path d="M254.336 104.929C277.335 114.871 303.453 113.209 326.983 105.993C339.727 102.07 352.405 96.8163 365.979 96.8496C379.652 96.8828 392.628 101.671 406.003 103.799C418.149 105.727 431.524 105.495 441.945 98.1796C442.476 97.8138 441.978 96.9493 441.447 97.3151C431.823 104.065 419.61 104.663 408.326 103.134C395.549 101.405 383.269 96.9493 370.359 96.0183C357.449 95.0873 345.27 98.9776 333.156 102.968C321.076 106.924 308.863 110.017 296.152 110.748C282.081 111.579 267.843 109.684 254.867 104.065C254.269 103.799 253.772 104.663 254.336 104.929Z" fill="#E8E8E8"/>
<path d="M62.9103 187.821C70.1783 182.634 78.7739 179.442 87.6681 178.577C92.1153 178.145 96.5956 178.311 100.976 179.076C105.523 179.874 109.904 181.403 114.251 182.933C122.316 185.726 130.314 187.854 138.81 185.892C146.145 184.196 152.782 180.373 159.287 176.748C166.953 172.459 174.918 168.07 183.812 167.272C184.443 167.206 184.443 166.208 183.812 166.275C167.949 167.704 156.034 179.641 141.233 184.196C137.483 185.36 133.566 185.959 129.65 185.726C124.838 185.427 120.159 183.93 115.645 182.368C111.098 180.805 106.552 179.109 101.773 178.211C97.6576 177.447 93.4428 177.214 89.2943 177.48C79.6699 178.078 70.2779 181.37 62.4124 186.989C61.8814 187.322 62.3793 188.186 62.9103 187.821Z" fill="#E8E8E8"/>
<path d="M150.89 200.588C163.8 186.922 182.784 181.336 201.136 181.17C211.789 181.07 222.409 182.6 232.797 184.828C242.687 186.922 252.278 189.649 262.5 188.286C273.186 186.856 283.176 182.267 292.734 177.446C293.298 177.147 292.8 176.282 292.236 176.582C283.143 181.17 273.684 185.526 263.562 187.122C258.385 187.92 253.174 187.853 247.997 187.022C242.753 186.191 237.642 184.794 232.432 183.697C213.449 179.707 193.238 178.011 174.586 184.495C165.393 187.687 156.897 192.774 150.193 199.857C149.762 200.355 150.459 201.054 150.89 200.588Z" fill="#E8E8E8"/>
<path d="M304.714 210.53C310.124 212.425 315.666 210.663 320.611 208.302C326.154 205.642 331.364 202.35 337.039 199.99C342.714 197.629 348.821 196.033 354.994 196.798C360.635 197.496 365.846 200.023 370.791 202.716C375.47 205.276 380.083 208.069 385.061 210.031C390.604 212.192 396.577 213.223 402.518 213.09C414.698 212.824 425.052 206.739 436.17 202.616C446.558 198.759 460.397 197.03 468.727 206.074C469.158 206.54 469.855 205.842 469.424 205.376C462.886 198.294 452.465 197.496 443.505 199.391C431.823 201.852 421.734 209 409.985 211.295C403.713 212.525 397.142 212.359 390.936 210.862C385.161 209.466 379.984 206.739 374.806 203.847C370.127 201.22 365.381 198.493 360.237 196.931C354.894 195.301 349.318 195.268 343.909 196.598C337.305 198.227 331.231 201.453 325.291 204.711C319.151 208.036 312.049 212.093 304.914 209.599C304.383 209.366 304.117 210.33 304.714 210.53Z" fill="#E8E8E8"/>
<path d="M392.097 226.556C405.837 227.387 417.154 218.044 430.13 215.218C433.581 214.453 437.232 214.121 440.75 214.719C443.903 215.251 446.757 216.548 449.478 218.21C454.158 221.07 458.704 224.761 464.413 225.16C471.349 225.625 477.488 221.303 482.666 217.246C483.163 216.847 482.467 216.149 481.969 216.548C476.924 220.471 470.884 224.761 464.114 224.129C458.24 223.597 453.593 219.341 448.648 216.581C437.265 210.197 425.085 215.218 414.167 220.039C407.164 223.098 399.896 226.057 392.13 225.592C391.466 225.525 391.466 226.523 392.097 226.556Z" fill="#E8E8E8"/>
<path d="M78.8403 290.131C83.6525 285.542 90.7878 283.747 97.193 285.509C103.897 287.338 108.211 293.123 113.588 297.113C124.307 305.06 138.91 303.796 150.691 299.108C164.597 293.589 176.179 283.614 190.052 277.994C196.822 275.235 204.156 273.472 211.524 273.971C218.692 274.47 224.799 277.562 230.474 281.752C236.116 285.908 241.426 290.829 248.03 293.456C255.099 296.249 263.064 295.65 269.702 291.959C270.266 291.66 269.768 290.796 269.204 291.095C262.434 294.852 254.336 295.185 247.267 292.059C241.359 289.432 236.514 285.043 231.37 281.186C226.093 277.23 220.485 274.137 213.847 273.206C207.01 272.275 200.041 273.439 193.569 275.6C179.398 280.355 167.716 290.164 154.275 296.448C141.863 302.267 125.9 304.993 114.119 296.249C108.244 291.893 103.631 285.675 96.0646 284.212C89.6594 282.982 82.856 284.91 78.1433 289.432C77.6787 289.865 78.3756 290.596 78.8403 290.131Z" fill="#E8E8E8"/>
<path d="M206.347 308.684C211.823 305.126 218.327 303.431 224.865 303.963C230.839 304.461 236.481 306.689 241.957 308.917C247.267 311.078 252.643 313.339 258.352 314.27C264.325 315.234 270.365 314.503 276.107 312.741C282.977 310.613 289.349 307.221 295.621 303.796C296.185 303.497 295.687 302.633 295.123 302.932C283.64 309.15 271.029 315.7 257.555 313.106C246.304 310.945 236.415 303.963 224.832 302.965C218.128 302.4 211.424 304.162 205.816 307.82C205.318 308.185 205.816 309.05 206.347 308.684Z" fill="#E8E8E8"/>
<path d="M331.629 331.228C338.864 324.445 347.759 319.558 357.35 317.064C362.228 315.8 367.24 315.169 372.284 315.202C377.893 315.268 383.468 316.166 389.044 316.698C399.863 317.729 410.251 315.9 420.373 311.943C430.03 308.186 439.124 301.669 449.511 300.073C461.658 298.211 471.05 306.291 478.783 314.57C479.214 315.036 479.911 314.337 479.48 313.872C473.108 307.056 465.607 300.007 455.917 298.909C445.297 297.712 435.639 303.963 426.413 308.253C415.793 313.207 404.343 316.598 392.562 315.933C386.688 315.601 380.88 314.537 374.972 314.238C369.961 313.972 364.917 314.337 360.005 315.368C349.152 317.596 339.03 322.849 330.933 330.464C330.468 330.962 331.165 331.661 331.629 331.228Z" fill="#E8E8E8"/>
<path d="M137.317 121.122C146.609 128.337 158.723 125.145 168.845 121.82C181.39 117.664 194.101 115.037 207.376 114.771C208.006 114.771 208.006 113.773 207.376 113.773C195.163 114.006 183.116 116.101 171.5 119.891C160.979 123.316 147.904 128.137 138.014 120.423C137.516 120.024 136.819 120.723 137.317 121.122Z" fill="#161616"/>
<path d="M226.79 60.6727C238.007 59.8414 248.827 56.7159 259.679 54.0892C270.963 51.3294 282.28 49.5007 293.928 50.7642C305.677 52.0277 317.06 55.5854 328.576 58.1124C339.661 60.5729 350.911 61.7034 362.261 61.1382C375.039 60.5064 387.65 57.8132 399.564 53.2247C400.162 52.9919 399.896 52.0277 399.299 52.2604C377.627 60.6062 353.965 62.3684 331.264 57.6469C319.947 55.2862 308.863 51.8282 297.413 50.1657C286.362 48.5697 275.576 49.4674 264.69 51.8614C252.079 54.6212 239.7 58.6777 226.79 59.6419C226.159 59.7417 226.159 60.7392 226.79 60.6727Z" fill="#161616"/>
<path d="M406.401 143.997C416.092 140.406 426.147 145.527 435.838 146.458C441.049 146.957 446.226 146.458 451.304 145.261C456.282 144.064 461.127 142.302 466.205 141.537C471.648 140.706 477.455 141.038 482.168 144.13C482.699 144.496 483.197 143.632 482.666 143.266C474.303 137.813 464.081 140.739 455.253 143.199C449.711 144.762 444.168 145.893 438.394 145.66C432.885 145.46 427.608 143.931 422.231 142.8C416.888 141.703 411.379 141.105 406.169 143.033C405.538 143.233 405.804 144.197 406.401 143.997Z" fill="#161616"/>
<path d="M68.1207 244.877C76.5504 237.363 88.4315 244.013 97.7904 245.443C108.609 247.105 119.429 244.113 129.75 241.22C130.38 241.054 130.115 240.089 129.484 240.256C118.068 243.448 106.253 246.606 94.4052 243.78C85.7433 241.719 75.1565 237.33 67.3906 244.179C66.926 244.578 67.6229 245.276 68.1207 244.877Z" fill="#161616"/>
<path d="M174.254 338.243C176.943 335.051 181.091 333.322 185.273 333.854C187.662 334.154 189.852 335.251 192.043 336.215C193.868 337.013 195.727 337.678 197.618 338.21C205.749 340.471 214.478 340.139 222.409 337.346C223.007 337.146 222.741 336.182 222.144 336.381C213.25 339.474 203.426 339.474 194.565 336.149C190.715 334.719 187.131 332.425 182.85 332.757C179.232 333.023 175.88 334.752 173.524 337.512C173.126 338.044 173.856 338.742 174.254 338.243Z" fill="#161616"/>
<path d="M230.739 335.518C236.78 333.755 242.986 332.891 249.291 332.924C249.922 332.924 249.922 331.927 249.291 331.927C242.919 331.893 236.614 332.791 230.474 334.553C229.877 334.753 230.109 335.717 230.739 335.518Z" fill="#161616"/>
<path d="M238.638 77.0645C244.512 81.5865 250.121 86.441 255.497 91.5948C255.962 92.027 256.659 91.3288 256.194 90.8965C250.785 85.7095 245.076 80.8218 239.136 76.2333C238.638 75.801 238.14 76.6655 238.638 77.0645Z" fill="#161616"/>
<path d="M181.091 94.5878C181.655 91.4623 182.253 88.3368 182.817 85.178C182.95 84.5463 181.987 84.2803 181.854 84.912C181.29 88.0375 180.693 91.163 180.129 94.3218C180.029 94.9535 180.991 95.2195 181.091 94.5878Z" fill="#161616"/>
<path d="M372.45 114.406C373.513 114.406 374.375 113.542 374.375 112.477C374.375 111.412 373.513 110.549 372.45 110.549C371.387 110.549 370.525 111.412 370.525 112.477C370.525 113.542 371.387 114.406 372.45 114.406Z" fill="#282828"/>
<path d="M120.955 273.672C122.22 273.672 123.245 272.645 123.245 271.378C123.245 270.111 122.22 269.084 120.955 269.084C119.69 269.084 118.665 270.111 118.665 271.378C118.665 272.645 119.69 273.672 120.955 273.672Z" fill="#282828"/>
<path d="M109.871 65.8273C112.767 65.8273 115.114 63.4752 115.114 60.5738C115.114 57.6724 112.767 55.3203 109.871 55.3203C106.975 55.3203 104.627 57.6724 104.627 60.5738C104.627 63.4752 106.975 65.8273 109.871 65.8273Z" fill="#282828"/>
<path d="M120.391 70.9151C121.362 70.9151 122.15 70.1261 122.15 69.1529C122.15 68.1796 121.362 67.3906 120.391 67.3906C119.42 67.3906 118.632 68.1796 118.632 69.1529C118.632 70.1261 119.42 70.9151 120.391 70.9151Z" fill="#282828"/>
<path d="M220.883 366.673C223.046 366.673 224.799 364.917 224.799 362.75C224.799 360.583 223.046 358.826 220.883 358.826C218.72 358.826 216.967 360.583 216.967 362.75C216.967 364.917 218.72 366.673 220.883 366.673Z" fill="#282828"/>
<path d="M402.883 72.6777C404.789 72.6777 406.335 71.1295 406.335 69.2197C406.335 67.3099 404.789 65.7617 402.883 65.7617C400.977 65.7617 399.432 67.3099 399.432 69.2197C399.432 71.1295 400.977 72.6777 402.883 72.6777Z" fill="#282828"/>
<path d="M407.297 65.0626C408.47 65.0626 409.421 64.1099 409.421 62.9346C409.421 61.7594 408.47 60.8066 407.297 60.8066C406.124 60.8066 405.173 61.7594 405.173 62.9346C405.173 64.1099 406.124 65.0626 407.297 65.0626Z" fill="#282828"/>
<path d="M115.147 60.3078C118.043 60.3078 120.391 57.9557 120.391 55.0543C120.391 52.1529 118.043 49.8008 115.147 49.8008C112.251 49.8008 109.904 52.1529 109.904 55.0543C109.904 57.9557 112.251 60.3078 115.147 60.3078Z" fill="#7C7C7C"/>
<path d="M112.525 276.765C113.973 276.765 115.147 275.589 115.147 274.138C115.147 272.688 113.973 271.512 112.525 271.512C111.078 271.512 109.904 272.688 109.904 274.138C109.904 275.589 111.078 276.765 112.525 276.765Z" fill="#7C7C7C"/>
<path d="M204.687 359.059C205.97 359.059 207.01 358.017 207.01 356.732C207.01 355.446 205.97 354.404 204.687 354.404C203.404 354.404 202.364 355.446 202.364 356.732C202.364 358.017 203.404 359.059 204.687 359.059Z" fill="#7C7C7C"/>
<path d="M390.139 60.8066C393.182 60.8066 395.648 58.3354 395.648 55.2871C395.648 52.2387 393.182 49.7676 390.139 49.7676C387.096 49.7676 384.63 52.2387 384.63 55.2871C384.63 58.3354 387.096 60.8066 390.139 60.8066Z" fill="#7C7C7C"/>
<path d="M299.437 144.398C300.097 144.398 300.632 143.862 300.632 143.201C300.632 142.54 300.097 142.004 299.437 142.004C298.778 142.004 298.243 142.54 298.243 143.201C298.243 143.862 298.778 144.398 299.437 144.398Z" fill="#7C7C7C"/>
<path d="M287.191 73.1421C286.494 74.7713 285.83 76.4338 285.134 78.063C284.901 78.6615 285.864 78.9275 286.096 78.329C286.793 76.6998 287.457 75.0373 288.154 73.408C288.386 72.8095 287.423 72.5436 287.191 73.1421Z" fill="#969696"/>
<path d="M287.025 73.9397C288.253 75.2364 289.216 76.6994 289.846 78.3619C290.079 78.9604 291.041 78.6944 290.809 78.0959C290.079 76.2672 289.05 74.6712 287.722 73.2414C287.291 72.7759 286.561 73.4742 287.025 73.9397Z" fill="#969696"/>
<path d="M285.399 78.929C286.362 80.7245 287.457 82.4203 288.685 84.0163C289.083 84.515 289.946 84.0163 289.548 83.5175C288.32 81.8883 287.225 80.1925 286.262 78.4303C285.93 77.865 285.101 78.3638 285.399 78.929Z" fill="#969696"/>
<path d="M289.913 78.4292C289.514 80.2912 289.149 82.1532 288.751 84.0152C288.618 84.6469 289.581 84.9129 289.713 84.2812C290.112 82.4192 290.477 80.5572 290.875 78.6952C291.008 78.0967 290.045 77.8307 289.913 78.4292Z" fill="#969696"/>
<path d="M380.681 215.486C379.884 216.949 379.353 218.512 379.121 220.174C379.021 220.806 379.984 221.072 380.083 220.44C380.315 218.877 380.78 217.414 381.543 216.018C381.842 215.419 380.979 214.921 380.681 215.486Z" fill="#969696"/>
<path d="M380.614 215.785C381.278 217.547 382.041 219.243 382.904 220.872C383.203 221.438 384.066 220.939 383.767 220.374C382.937 218.811 382.207 217.182 381.576 215.519C381.344 214.921 380.382 215.186 380.614 215.785Z" fill="#969696"/>
<path d="M378.922 220.873C379.785 222.103 380.614 223.333 381.477 224.563C381.842 225.095 382.705 224.597 382.34 224.065C381.477 222.834 380.647 221.604 379.785 220.374C379.42 219.842 378.557 220.341 378.922 220.873Z" fill="#969696"/>
<path d="M382.539 220.706C381.842 221.67 381.51 222.767 381.51 223.931C381.51 224.563 382.506 224.563 382.506 223.931C382.506 222.934 382.805 222.003 383.402 221.205C383.767 220.673 382.904 220.174 382.539 220.706Z" fill="#969696"/>
<path d="M103.067 309.616C102.171 311.578 101.275 313.506 100.379 315.468C100.113 316.033 100.976 316.565 101.242 315.967C102.138 314.005 103.034 312.076 103.93 310.115C104.195 309.549 103.366 309.051 103.067 309.616Z" fill="#969696"/>
<path d="M103.233 309.883C104.096 311.944 104.959 314.006 105.822 316.067C106.054 316.666 107.016 316.4 106.784 315.801C105.921 313.74 105.058 311.678 104.195 309.617C103.963 309.018 103.001 309.284 103.233 309.883Z" fill="#969696"/>
<path d="M100.147 316.367C101.043 318.129 101.906 319.924 102.802 321.687C102.968 321.986 103.366 321.986 103.598 321.786C104.295 321.221 104.627 320.257 104.992 319.492C105.523 318.428 106.054 317.364 106.585 316.3C106.884 315.735 106.021 315.236 105.722 315.801C105.257 316.732 104.76 317.663 104.295 318.594C103.897 319.392 103.532 320.49 102.835 321.055C103.1 321.088 103.366 321.121 103.631 321.155C102.735 319.392 101.872 317.597 100.976 315.835C100.711 315.303 99.8479 315.801 100.147 316.367Z" fill="#969696"/>
<path d="M437.099 155.071C436.071 157.033 435.44 159.094 435.141 161.289C435.042 161.92 436.037 161.92 436.137 161.289C436.402 159.26 437 157.365 437.929 155.57C438.261 155.004 437.398 154.506 437.099 155.071Z" fill="#969696"/>
<path d="M436.966 156.234C437.995 158.229 438.991 160.224 440.02 162.219C440.318 162.784 441.181 162.285 440.883 161.72C439.854 159.725 438.858 157.73 437.829 155.735C437.531 155.17 436.668 155.668 436.966 156.234Z" fill="#969696"/>
<path d="M435.208 161.421C436.037 163.416 437.033 165.278 438.228 167.041C438.593 167.573 439.456 167.074 439.09 166.542C437.929 164.846 436.933 163.051 436.17 161.155C435.938 160.59 434.975 160.856 435.208 161.421Z" fill="#969696"/>
<path d="M439.721 161.853C439.124 163.715 438.626 165.61 438.294 167.572C438.195 168.204 439.157 168.47 439.257 167.838C439.588 165.909 440.053 164.014 440.684 162.119C440.883 161.52 439.92 161.254 439.721 161.853Z" fill="#969696"/>
<path d="M433.25 316.5C432.851 317.83 432.486 319.127 432.088 320.457C431.922 321.088 432.851 321.321 433.051 320.723C433.449 319.393 433.814 318.096 434.212 316.766C434.411 316.134 433.449 315.868 433.25 316.5Z" fill="#969696"/>
<path d="M433.183 317.23C433.781 318.56 434.411 319.89 435.008 321.187C435.274 321.785 436.137 321.253 435.871 320.688C435.274 319.358 434.643 318.028 434.046 316.731C433.781 316.133 432.918 316.631 433.183 317.23Z" fill="#969696"/>
<path d="M432.353 321.087C432.652 322.65 433.382 324.046 434.411 325.243C434.842 325.742 435.539 325.01 435.108 324.545C434.179 323.481 433.581 322.217 433.316 320.854C433.183 320.189 432.221 320.455 432.353 321.087Z" fill="#969696"/>
<path d="M434.975 320.955C434.544 322.351 434.345 323.781 434.378 325.211C434.411 325.842 435.407 325.842 435.373 325.211C435.34 323.847 435.506 322.517 435.938 321.221C436.137 320.622 435.174 320.356 434.975 320.955Z" fill="#969696"/>
<path d="M90.5553 141.072C89.8252 142.668 89.1283 144.264 88.3982 145.86C88.1327 146.425 88.9955 146.957 89.261 146.359C89.9911 144.763 90.6881 143.167 91.4182 141.571C91.6837 141.005 90.8208 140.473 90.5553 141.072Z" fill="#969696"/>
<path d="M88.531 146.691C89.2943 148.653 90.0244 150.582 90.7878 152.543C91.0201 153.142 91.9825 152.876 91.7502 152.277C90.9869 150.316 90.2568 148.387 89.4934 146.425C89.2611 145.827 88.2987 146.093 88.531 146.691Z" fill="#969696"/>
<path d="M90.5554 141.138C91.5842 142.934 92.613 144.762 93.6418 146.558C93.9737 147.123 94.8034 146.624 94.5047 146.059C93.4759 144.264 92.447 142.435 91.4182 140.639C91.0863 140.074 90.2235 140.573 90.5554 141.138Z" fill="#969696"/>
<path d="M93.8742 146.126C92.8122 148.121 91.8829 150.182 91.0864 152.277C90.8541 152.875 91.8166 153.141 92.0489 152.543C92.8122 150.515 93.7082 148.52 94.7371 146.624C95.0357 146.059 94.1729 145.56 93.8742 146.126Z" fill="#969696"/>
<path d="M340.723 171.729C341.386 170.465 342.648 169.601 344.108 169.667C345.303 169.7 346.199 170.532 347.261 170.931C349.119 171.596 349.683 170.399 351.077 169.501C352.969 168.237 354.794 171.064 356.819 171.03C357.98 170.997 358.943 170.432 358.976 169.202C358.71 169.335 358.478 169.501 358.213 169.634C359.241 170.166 360.27 170.698 361.266 171.263C361.83 171.562 362.328 170.698 361.764 170.399C360.735 169.867 359.706 169.335 358.71 168.769C358.378 168.603 357.98 168.803 357.947 169.202C357.847 171.562 353.268 168.204 352.405 168.104C350.447 167.838 349.683 170.266 347.991 170C346.199 169.7 345.07 168.404 343.145 168.736C341.685 169.002 340.49 169.9 339.827 171.23C339.594 171.795 340.424 172.294 340.723 171.729Z" fill="#727272"/>
<path d="M353.434 164.98C354.927 163.317 357.283 165.412 358.976 165.611C360.934 165.844 362.461 163.749 364.352 164.813C365.912 165.711 368.766 167.839 369.895 165.113C370.127 164.514 369.164 164.248 368.932 164.847C368.136 166.775 365.281 164.082 364.319 163.683C363.025 163.118 362.162 163.583 361 164.148C359.606 164.813 358.611 164.581 357.283 163.982C356.686 163.716 356.089 163.483 355.425 163.384C354.396 163.251 353.467 163.45 352.737 164.248C352.305 164.747 353.002 165.445 353.434 164.98Z" fill="#727272"/>
<path d="M326.485 86.5418C326.95 85.6773 327.481 85.4445 328.078 85.8435C328.344 85.9433 328.609 86.0763 328.875 86.2425C329.173 86.3755 329.472 86.575 329.771 86.6748C330.302 86.841 330.833 86.9075 331.364 86.7745C332.791 86.3755 333.521 84.58 335.048 84.6133C336.475 84.6465 337.504 86.0098 338.997 85.3115C339.628 85.0123 340.059 84.4803 340.656 84.1478C341.984 83.4163 343.61 83.6823 344.738 84.6133C345.236 85.0123 345.933 84.314 345.435 83.915C343.942 82.6848 341.884 82.319 340.159 83.2833C339.395 83.7155 338.765 84.6465 337.769 84.5135C337.205 84.447 336.707 84.048 336.176 83.8485C335.38 83.5493 334.649 83.4495 333.853 83.8153C332.857 84.2808 332.194 85.5775 331.098 85.8103C329.704 86.1095 328.775 84.6798 327.481 84.6465C326.253 84.6133 324.826 85.8103 325.656 87.0405C325.987 87.5725 326.85 87.0738 326.485 86.5418Z" fill="#757575"/>
<path d="M337.504 80.6573C337.902 78.4961 341.652 80.5908 342.98 80.3581C343.842 80.2251 344.473 79.6266 345.269 79.3273C346.531 78.8286 347.759 79.0281 348.92 79.7263C349.484 80.0588 349.982 79.1943 349.418 78.8618C348.422 78.2633 347.36 77.9641 346.232 78.0638C345.734 78.0971 345.269 78.2301 344.838 78.3963C343.511 78.9616 342.98 79.5933 341.32 79.1943C339.727 78.7953 337.006 77.9973 336.574 80.3913C336.408 81.0231 337.371 81.2891 337.504 80.6573Z" fill="#757575"/>
<path d="M86.241 200.822C86.6725 198.727 89.5598 201.587 90.124 201.952C90.7545 202.385 91.4515 202.684 92.2148 202.518C93.2104 202.351 93.9737 201.52 95.0025 201.287C96.6619 200.922 98.3213 201.454 99.516 202.651C99.9806 203.116 100.678 202.385 100.213 201.952C99.1841 200.922 97.923 200.29 96.4628 200.19C95.7326 200.124 95.0025 200.223 94.3056 200.456C93.2104 200.822 92.3475 201.886 91.02 201.354C89.6261 200.789 89.0951 199.359 87.5021 199.193C86.4733 199.093 85.5109 199.492 85.3118 200.556C85.1458 201.188 86.1083 201.454 86.241 200.822Z" fill="#757575"/>
<path d="M97.2925 198.428C98.0226 197.431 101.375 199.426 102.337 199.659C103.897 200.024 105.49 200.024 107.083 199.825C107.713 199.725 107.448 198.761 106.817 198.861C104.063 199.226 101.939 198.495 99.4497 197.497C98.3213 197.065 97.1929 196.899 96.4296 197.93C96.0646 198.428 96.9274 198.927 97.2925 198.428Z" fill="#757575"/>
<path d="M178.204 268.12C178.735 267.289 179.564 266.757 180.593 266.757C181.456 266.757 181.987 267.289 182.75 267.521C183.514 267.787 184.144 267.621 184.808 267.189C186.102 266.324 186.733 265.26 188.492 265.327C190.085 265.36 191.611 266.125 193.005 266.823C193.569 267.122 194.067 266.258 193.503 265.959C190.881 264.629 187.695 263.365 185.173 265.526C184.609 265.992 184.542 266.125 183.68 266.291C182.717 266.491 182.817 266.358 182.087 266.058C181.456 265.792 180.859 265.693 180.162 265.759C178.934 265.892 177.971 266.59 177.341 267.588C177.009 268.153 177.872 268.652 178.204 268.12Z" fill="#757575"/>
<path d="M189.255 270.049C190.815 268.685 193.768 271.545 195.693 271.279C196.855 271.113 197.386 270.248 198.149 269.45C199.609 267.887 201.8 267.655 203.592 268.818C204.123 269.151 204.621 268.32 204.09 267.954C202.795 267.123 201.269 266.857 199.775 267.289C199.112 267.488 198.514 267.788 197.983 268.22C197.187 268.885 196.689 270.082 195.561 270.281C193.138 270.714 190.848 267.322 188.558 269.35C188.093 269.783 188.79 270.481 189.255 270.049Z" fill="#757575"/>
<path d="M143.987 56.7836C144.253 55.6863 144.883 54.8218 145.945 54.3563C146.875 53.9573 147.638 54.2233 148.6 54.1901C149.662 54.1236 150.459 53.5916 151.089 52.7936C152.052 51.5966 152.682 50.3663 154.043 49.5683C155.603 48.6706 157.395 48.5043 159.121 49.0363C159.751 49.2358 159.984 48.2716 159.386 48.0721C156.2 47.1078 153.047 48.3381 151.123 51.0313C150.359 52.0953 149.795 53.1593 148.335 53.1926C147.439 53.2258 146.675 53.0263 145.813 53.3256C144.352 53.8243 143.357 55.0546 143.025 56.5176C142.859 57.1493 143.821 57.4153 143.987 56.7836Z" fill="#757575"/>
<path d="M148.667 60.6073C147.24 56.8168 154.076 57.0163 156.134 56.2848C158.689 55.3871 160.88 53.7911 163.037 52.1951C163.535 51.8293 163.037 50.9648 162.539 51.3306C161.079 52.4278 159.585 53.4918 157.992 54.3563C156.001 55.4203 154.109 55.7528 151.952 56.0853C149.662 56.4511 146.675 58.0471 147.737 60.8401C147.937 61.4386 148.899 61.2058 148.667 60.6073Z" fill="#757575"/>
<path d="M281.018 251.23C283.541 244.613 287.822 240.291 292.236 235.802C298.044 229.917 308.829 218.978 319.815 220.707C329.173 222.17 328.145 231.18 340.988 237.73C353.102 243.948 357.748 237.797 369.828 244.48C371.62 245.478 384.265 252.693 387.152 266.325C388.347 271.978 388.048 279.725 385.559 280.457C382.738 281.288 381.776 264.996 370.492 258.612C361.863 253.724 349.982 256.084 349.02 259.576C347.991 263.266 359.905 265.694 366.642 278.528C369.596 284.114 370.226 289.202 371.122 296.184C371.952 302.768 372.881 316.267 369.828 317.065C367.306 317.73 365.945 308.719 356.686 301.338C351.807 297.448 346.597 295.852 336.176 292.66C326.784 289.8 322.038 288.404 319.483 290.731C315.699 294.189 318.62 302.967 319.151 304.53C322.868 315.702 332.359 320.357 331.662 321.554C330.733 323.05 313.409 318.728 299.271 304.862C287.191 292.992 273.684 270.415 281.018 251.23Z" fill="#515151"/>
<path d="M389.376 289.768C389.243 290.699 388.546 295.886 391.599 299.211C394.984 302.868 399.1 300.075 403.248 303.699C407.065 307.024 406.567 312.012 407.728 311.912C409.056 311.812 411.08 305.063 408.226 300.973C407.33 299.676 405.14 298.512 400.792 296.251C396.345 293.924 395.748 294.024 394.586 292.76C391.699 289.635 392.13 285.545 391.101 285.545C390.305 285.545 389.608 288.005 389.376 289.768Z" fill="#515151"/>
<path d="M360.834 328.802C358.976 331.595 359.175 334.588 359.341 337.746C359.54 340.972 359.673 343.598 361.564 345.959C363.722 348.652 367.306 349.783 367.771 349.184C368.136 348.719 366.509 347.455 365.049 344.696C364.883 344.363 362.726 340.273 362.826 335.485C362.925 329.5 366.443 325.943 365.547 325.311C364.883 324.812 362.328 326.541 360.834 328.802Z" fill="#515151"/>
<path d="M374.142 273.674C379.718 277.364 376.665 285.91 380.315 290.897C380.68 291.396 381.543 290.897 381.178 290.398C377.395 285.211 380.614 276.766 374.64 272.809C374.109 272.443 373.611 273.308 374.142 273.674Z" fill="#989899"/>
<path d="M372.151 249.602C378.125 254.19 382.273 260.74 383.933 268.089C384.065 268.72 385.028 268.454 384.895 267.823C383.169 260.208 378.855 253.492 372.682 248.77C372.118 248.338 371.62 249.203 372.151 249.602Z" fill="#989899"/>
<path d="M352.903 268.021C357.682 271.944 361.432 276.965 363.755 282.717C363.987 283.316 364.95 283.05 364.717 282.451C362.295 276.533 358.544 271.379 353.599 267.322C353.135 266.923 352.405 267.622 352.903 268.021Z" fill="#989899"/>
<path d="M366.078 288.205C366.974 290.599 367.571 293.026 367.804 295.553C367.87 296.185 368.866 296.185 368.799 295.553C368.534 292.926 367.936 290.399 367.007 287.939C366.841 287.34 365.879 287.606 366.078 288.205Z" fill="#989899"/>
<path d="M315.002 293.723C314.173 298.743 315.135 303.764 317.856 308.087C318.188 308.619 319.051 308.12 318.719 307.588C316.164 303.531 315.168 298.743 315.965 293.989C316.064 293.357 315.102 293.091 315.002 293.723Z" fill="#989899"/>
<path d="M319.184 310.814C320.379 313.008 321.905 314.97 323.731 316.666C324.195 317.098 324.892 316.4 324.428 315.968C322.669 314.305 321.208 312.41 320.047 310.315C319.748 309.75 318.885 310.249 319.184 310.814Z" fill="#989899"/>
<path d="M281.085 260.142C280.819 263.301 281.118 266.426 282.014 269.485C282.18 270.117 283.142 269.851 282.976 269.219C282.114 266.227 281.815 263.234 282.08 260.142C282.147 259.51 281.151 259.51 281.085 260.142Z" fill="#989899"/>
<path d="M283.01 272.875C283.541 275.468 284.503 277.862 285.897 280.123C286.229 280.655 287.092 280.157 286.76 279.625C285.432 277.43 284.503 275.136 283.972 272.609C283.839 272.01 282.877 272.276 283.01 272.875Z" fill="#989899"/>
<path d="M196.357 65.0293C195.428 67.5563 194.3 71.0143 193.204 75.2038C192.076 79.5595 189.421 91.0308 189.687 106.126C189.952 120.69 192.806 131.396 195.428 140.939C199.51 155.835 204.488 166.542 207.442 172.759C207.442 172.759 216.834 192.676 232.399 214.023C235.153 217.78 238.671 222.535 238.671 222.535C241.227 225.959 243.417 228.819 244.944 230.88C246.172 232.277 247.731 233.84 249.756 235.336C253.539 238.162 257.289 239.592 259.911 240.323C264.226 236.633 268.54 232.909 272.854 229.218C274.812 231.08 276.804 232.909 278.762 234.771C281.483 231.978 283.906 229.75 285.798 228.121C294.028 220.972 300.831 217.314 302.424 216.45C303.785 215.718 304.947 215.153 305.743 214.787C304.515 212.327 303.287 209.866 302.059 207.373C304.051 205.644 306.341 203.815 308.896 202.019C312.347 199.592 315.666 197.63 318.686 196.101C318.653 193.308 318.288 189.085 316.463 184.43C315.102 180.939 313.476 178.578 312.779 177.581C305.113 166.508 327.713 197.032 298.176 154.804C286.727 138.445 281.019 130.233 278.397 126.841C270.199 116.101 263.761 108.753 259.181 103.533C250.42 93.5245 246.47 89.8005 243.284 87.074C238.937 83.2835 234.125 79.1938 226.857 75.4033C222.277 73.0425 218.493 71.7458 212.984 69.8505C206.181 67.523 200.439 65.9935 196.357 65.0293Z" fill="white"/>
<path d="M195.328 65.6289C188.127 87.8732 188.127 111.88 193.304 134.556C194.598 140.242 196.224 145.861 198.149 151.347C199.112 154.14 200.273 156.867 201.302 159.627C201.667 160.591 201.734 161.555 202.165 162.519C202.796 164.016 203.459 165.512 204.123 167.008C205.351 169.801 206.645 172.561 208.006 175.321C209.367 178.047 211.026 180.641 212.254 183.4C212.719 184.431 213.117 185.528 213.648 186.526C214.345 187.789 215.374 188.754 216.104 189.984C217.63 192.544 219.091 195.171 220.684 197.698C227.952 209.435 236.215 220.507 244.678 231.38C245.076 231.879 245.773 231.181 245.375 230.682C237.908 221.073 230.607 211.33 224.036 201.123C222.409 198.596 220.85 196.069 219.323 193.475C218.593 192.245 217.863 190.981 217.166 189.718C216.469 188.488 215.539 187.623 214.809 186.426C214.212 185.429 213.781 184.365 213.349 183.301C212.752 181.871 211.955 180.574 211.225 179.211C209.831 176.651 208.537 174.057 207.309 171.43C206.015 168.671 204.787 165.878 203.559 163.085C203.028 161.854 202.829 160.558 202.331 159.294C201.8 157.931 201.236 156.568 200.705 155.171C198.68 149.818 196.921 144.365 195.461 138.812C192.541 127.574 190.848 116.036 190.682 104.398C190.516 91.3312 192.308 78.2639 196.357 65.7952C196.457 65.2964 195.494 65.0304 195.328 65.6289Z" fill="black"/>
<path d="M195.793 65.6284C201.335 66.0607 206.977 67.9892 212.187 69.8179C217.332 71.6467 222.409 73.6417 227.122 76.3682C236.514 81.8212 244.811 88.9699 252.378 96.7504C260.177 104.764 267.279 113.575 274.149 122.386C280.985 131.164 287.523 140.241 293.829 149.418C300.798 159.626 307.502 170.033 314.073 180.54C314.405 181.072 315.268 180.574 314.936 180.042C302.889 160.856 290.444 141.904 276.604 123.949C263.23 106.559 248.893 88.8037 230.109 76.9999C224.998 73.7747 219.522 71.4472 213.88 69.3524C208.172 67.2577 201.933 65.0964 195.826 64.5977C195.162 64.5977 195.162 65.5952 195.793 65.6284Z" fill="black"/>
<path d="M246.105 231.08C261.57 215.286 278.961 201.421 297.778 189.85C303.088 186.591 308.464 183.532 313.973 180.673C314.538 180.373 314.04 179.509 313.476 179.808C293.928 190.049 275.609 202.651 259.115 217.314C254.402 221.504 249.822 225.859 245.408 230.381C244.943 230.847 245.64 231.545 246.105 231.08Z" fill="black"/>
<path d="M245.143 231.845C249.092 236.268 254.236 239.393 259.977 240.79C260.608 240.956 260.873 239.992 260.243 239.825C254.634 238.429 249.689 235.436 245.84 231.114C245.408 230.648 244.711 231.38 245.143 231.845Z" fill="black"/>
<path d="M313.808 180.939C316.396 185.494 317.89 190.515 318.222 195.735C318.255 196.367 319.251 196.367 319.217 195.735C318.885 190.315 317.326 185.162 314.671 180.44C314.372 179.875 313.509 180.374 313.808 180.939Z" fill="black"/>
<path d="M260.575 240.523C278.529 224.097 297.977 209.401 318.72 196.666C319.251 196.333 318.753 195.469 318.222 195.801C297.446 208.569 277.899 223.332 259.878 239.824C259.413 240.257 260.11 240.955 260.575 240.523Z" fill="black"/>
<path d="M273.087 229.817C274.912 231.613 276.737 233.408 278.563 235.237C278.762 235.437 279.094 235.437 279.259 235.237C284.636 229.518 290.676 224.464 297.28 220.241C298.873 219.211 300.499 218.246 302.159 217.315C303.221 216.717 305.245 216.152 305.876 215.021C306.54 213.891 305.544 212.361 305.013 211.397C304.084 209.701 302.989 208.138 301.794 206.675C301.396 206.177 300.699 206.875 301.097 207.374C302.258 208.803 303.287 210.3 304.15 211.896C304.349 212.228 304.781 212.793 304.814 213.192C304.681 213.791 304.548 214.356 304.416 214.955C304.25 215.054 304.084 215.121 303.918 215.221C303.254 215.719 302.391 216.019 301.661 216.451C298.774 218.08 295.953 219.842 293.231 221.738C287.921 225.495 283.01 229.784 278.563 234.506C278.795 234.506 279.027 234.506 279.259 234.506C277.434 232.71 275.609 230.915 273.784 229.086C273.319 228.654 272.622 229.352 273.087 229.817Z" fill="black"/>
<path d="M197.685 147.855C205.849 138.213 215.407 129.867 225.197 121.92C235.021 113.974 245.309 106.526 256.825 101.239C257.422 100.973 256.891 100.108 256.327 100.374C244.911 105.595 234.722 112.976 224.965 120.823C215.009 128.87 205.285 137.348 196.988 147.124C196.556 147.656 197.253 148.354 197.685 147.855Z" fill="black"/>
<path d="M257.024 105.894C255.929 105.96 255.464 104.132 256.692 104.032C257.123 103.999 257.621 104.198 257.787 104.63C258.019 105.262 257.422 105.927 256.791 105.927C256.327 105.927 256.294 106.692 256.791 106.692C257.82 106.692 258.716 105.728 258.55 104.697C258.418 103.832 257.522 103.3 256.692 103.334C255.796 103.4 255.099 104.132 255.198 105.029C255.298 105.927 256.095 106.758 257.024 106.692C257.522 106.625 257.522 105.861 257.024 105.894Z" fill="black"/>
<path d="M307.701 179.444C307.734 179.444 307.734 179.444 307.768 179.41C307.668 179.41 307.569 179.377 307.469 179.377C307.834 179.543 307.635 178.845 307.602 178.745C307.602 178.646 307.635 178.513 307.668 178.413C307.768 178.213 307.934 178.014 308.133 177.914C308.564 177.715 309.029 178.047 309.162 178.479C309.427 179.344 308.166 179.776 307.834 179.011C307.635 178.579 307.004 178.945 307.203 179.377C307.602 180.308 308.962 180.375 309.626 179.676C310.389 178.845 309.825 177.449 308.796 177.149C307.701 176.85 306.639 178.014 306.905 179.078C307.004 179.51 307.569 180.042 308 179.61C308.332 179.277 308 178.546 307.502 178.745C307.071 178.912 307.27 179.61 307.701 179.444Z" fill="black"/>
<path opacity="0.15" d="M196.357 65.2285C201.601 68.62 208.703 73.6075 216.469 80.2908C221.281 84.447 233.759 95.5858 249.358 117.198C266.283 140.64 274.746 152.344 276.439 165.411C277.301 172.227 278.496 191.645 261.405 215.519C268.474 210.132 275.576 204.712 282.645 199.326C285.731 204.413 288.784 209.5 291.871 214.588C288.552 217.048 285.233 219.475 281.915 221.936C283.541 223.898 285.167 225.826 286.793 227.788C288.784 225.859 291.174 223.798 293.928 221.77C298.176 218.644 302.258 216.416 305.776 214.787C304.449 212.227 303.155 209.633 301.827 207.073C307.535 203.316 313.244 199.525 318.952 195.768C318.653 192.942 317.956 188.852 316.131 184.264C314.007 178.877 311.319 175.286 310.29 173.89C302.856 163.815 306.473 166.242 290.908 144.33C279.724 128.57 273.551 119.759 263.661 108.354C257.323 101.039 253.108 96.2175 246.371 90.2658C239.202 83.915 230.507 76.3673 217.232 70.8478C208.769 67.3898 201.335 65.9268 196.357 65.2285Z" fill="#494949"/>
<path opacity="0.11" d="M302.922 161.82C302.623 163.948 302.026 167.207 300.533 170.898C297.081 179.443 291.771 183.167 280.687 194.405C275.443 199.725 267.644 207.606 268.374 208.47C269.071 209.301 277.6 202.718 292.501 192.876C301.23 187.09 308.564 182.602 313.376 179.676C309.892 173.724 306.407 167.772 302.922 161.82Z" fill="#494949"/>
<path opacity="0.08" d="M314.073 180.673C313.609 180.773 314.737 184.397 313.376 188.919C312.381 192.244 310.688 193.84 306.54 198.861C304.748 201.022 302.126 204.281 299.006 208.47C305.511 204.015 312.016 199.559 318.52 195.104C315.567 183.333 314.471 180.607 314.073 180.673Z" fill="#494949"/>
<path d="M258.02 289.499C258.119 290.463 258.484 291.228 259.048 292.159C261.438 296.016 265.387 298.376 268.241 299.74C267.113 303.297 265.752 308.418 264.757 314.669C263.827 320.687 262.732 327.703 264.159 328.168C264.657 328.335 266.117 327.869 279.691 300.937C281.583 297.179 283.142 294.054 284.171 291.926C276.936 288.667 269.735 285.376 262.5 282.117C261.803 282.649 257.654 285.675 258.02 289.499Z" fill="#161616" stroke="#161616" stroke-width="2" stroke-miterlimit="10"/>
<path d="M242.886 215.95C236.78 220.206 232.83 224.329 229.312 228.053C227.885 229.549 221.049 236.831 213.847 248.269C210.661 253.323 208.305 257.779 206.678 261.137C206.878 262.5 207.342 264.462 208.57 266.424C209.931 268.618 211.457 269.582 213.847 271.71C216.767 274.304 217.829 275.833 219.522 277.562C222.808 280.954 227.421 283.514 236.514 288.535C247.931 294.819 254.07 297.113 255.962 297.812C258.285 298.643 260.243 299.275 261.637 299.707C262.301 296.615 263.097 293.323 264.093 289.865C264.989 286.773 265.951 283.88 266.914 281.187C259.845 276 252.577 270.181 245.209 263.597C242.654 261.336 240.198 259.042 237.842 256.781C240.231 253.888 243.583 250.098 247.831 246.008C249.059 244.811 251.648 242.351 254.8 239.757C258.783 236.532 264.79 232.209 273.087 228.219C274.514 218.677 272.821 209.766 267.611 206.873C261.106 203.282 251.216 210.165 242.886 215.95Z" fill="white"/>
<path d="M236.182 220.904C224.434 230.879 214.71 243.215 207.807 257.013C207.11 258.443 206.114 260.039 205.982 261.635C205.849 263.331 206.878 264.628 207.807 265.925C210.03 268.95 212.553 271.777 215.241 274.403C220.949 279.89 227.52 284.411 234.423 288.235C242.919 292.957 251.913 296.714 260.874 300.438C261.471 300.671 261.737 299.706 261.139 299.474C246.47 293.356 231.503 287.105 219.257 276.697C216.502 274.337 213.88 271.81 211.524 269.05C210.296 267.587 209.068 266.091 208.006 264.528C207.342 263.564 206.844 262.666 207.01 261.436C207.176 260.239 207.873 259.108 208.404 258.011C211.59 251.527 215.407 245.376 219.788 239.624C224.799 233.007 230.54 226.989 236.879 221.635C237.377 221.203 236.68 220.505 236.182 220.904Z" fill="black"/>
<path d="M264.325 232.376C252.942 239.757 242.986 249.1 234.921 260.006C234.556 260.538 235.419 261.037 235.784 260.505C243.749 249.732 253.606 240.489 264.823 233.207C265.354 232.908 264.856 232.043 264.325 232.376Z" fill="black"/>
<path d="M237.277 257.28C246.603 265.725 256.194 273.838 266.084 281.585C266.582 281.984 267.279 281.286 266.781 280.887C256.891 273.14 247.267 265.027 237.974 256.581C237.51 256.149 236.813 256.847 237.277 257.28Z" fill="black"/>
<path d="M266.117 281.453C264.027 287.371 262.4 293.423 261.206 299.574C261.073 300.206 262.035 300.472 262.168 299.84C263.363 293.689 265.022 287.637 267.08 281.719C267.279 281.12 266.317 280.854 266.117 281.453Z" fill="black"/>
<path opacity="0.11" d="M255.73 228.652C251.15 229.051 247.698 232.409 237.045 247.239C232.963 252.924 229.545 257.879 226.923 261.802C230.706 264.462 233.693 266.657 235.585 268.086C246.172 276.033 250.619 280.489 259.613 285.343C261.571 286.407 263.197 287.172 264.159 287.604C264.923 285.509 265.686 283.415 266.416 281.32C263.894 279.125 261.371 276.964 258.816 274.77C251.78 268.785 244.811 262.999 237.875 257.38C240.762 253.323 243.483 250.264 245.475 248.17C251.349 242.018 257.19 237.862 261.737 234.67C263.296 233.573 264.624 232.708 265.487 232.143C261.206 228.851 257.854 228.452 255.73 228.652Z" fill="#494949"/>
<path opacity="0.08" d="M257.057 237.33C254.203 237.995 250.387 239.292 246.504 241.885C237.012 248.236 233.826 257.945 232.897 261.27C238.008 265.26 243.284 269.283 248.76 273.307C254.07 277.23 259.347 280.954 264.491 284.545C265.255 283.448 266.018 282.317 266.748 281.22C259.679 276.066 252.345 270.115 245.01 263.298C242.687 261.17 240.463 259.009 238.339 256.881C239.501 255.352 240.762 253.789 242.09 252.193C247.068 246.274 252.179 241.387 257.057 237.33Z" fill="#494949"/>
<path d="M319.881 278.626C323.399 281.951 326.95 285.309 330.468 288.634C329.539 309.848 331.298 314.835 333.156 315.201C336.043 315.766 340.988 305.758 343.146 297.878C344.772 291.893 344.938 286.639 344.772 283.081C339.263 278.16 333.753 273.239 328.244 268.285C325.457 271.743 322.669 275.201 319.881 278.626Z" fill="#161616" stroke="#161616" stroke-width="2" stroke-miterlimit="10"/>
<path d="M250.818 218.809C251.117 224.329 254.966 227.687 254.966 227.687C257.356 229.782 260.044 230.347 261.372 230.513C262.434 230.946 263.496 231.411 264.591 231.843C266.25 234.237 268.706 237.629 271.958 241.486C276.273 246.673 282.081 252.857 296.285 264.561C303.287 270.314 312.314 277.396 323.233 285.176C324.793 284.412 326.651 283.281 328.51 281.619C332.592 277.994 334.484 273.772 335.346 271.378C333.422 269.516 330.567 266.723 327.249 263.265C312.513 248.003 302.69 234.936 295.19 224.894C290.245 218.277 283.906 209.466 276.903 198.826C260.874 203.215 250.42 211.727 250.818 218.809Z" fill="white"/>
<path d="M255.962 228.95C258.617 229.881 261.239 230.779 263.894 231.71C264.491 231.91 264.757 230.945 264.159 230.746C261.504 229.815 258.882 228.917 256.227 227.986C255.63 227.787 255.365 228.751 255.962 228.95Z" fill="black"/>
<path d="M262.798 230.713C275.277 247.903 291.439 261.802 308.199 274.67C313.011 278.36 317.89 282.018 322.768 285.642C323.299 286.041 323.764 285.143 323.266 284.778C306.473 272.309 289.581 259.674 275.31 244.312C271.162 239.857 267.279 235.135 263.695 230.214C263.296 229.716 262.433 230.214 262.798 230.713Z" fill="black"/>
<path d="M282.379 207.537C294.128 225.591 307.37 242.616 321.972 258.443C326.187 263.031 330.534 267.486 334.948 271.842C335.413 272.308 336.11 271.576 335.645 271.144C320.28 256.048 306.208 239.656 293.597 222.2C290.013 217.246 286.561 212.192 283.209 207.038C282.877 206.506 282.014 207.005 282.379 207.537Z" fill="black"/>
<path d="M334.384 271.212C332.459 276.931 328.742 282.251 323.133 284.778C322.536 285.044 323.067 285.909 323.631 285.643C329.472 283.016 333.322 277.43 335.313 271.478C335.546 270.88 334.583 270.614 334.384 271.212Z" fill="black"/>
<path opacity="0.09" d="M282.412 207.007C280.521 204.446 278.928 202.352 277.866 200.988C276.804 202.95 275.343 206.242 275.211 210.332C274.912 219.575 281.682 223.532 301.097 245.078C309.56 254.454 314.04 260.107 324.959 271.279C327.514 273.872 329.671 276.034 331.231 277.563C332.426 275.468 333.621 273.374 334.849 271.279C324.328 260.705 315.998 251.163 309.759 243.615C303.752 236.333 298.375 229.816 292.833 221.703C291.406 219.675 287.789 214.255 282.412 207.007Z" fill="#494949"/>
<path opacity="0.09" d="M288.287 216.35C288.751 218.644 289.714 222.534 291.605 227.056C297.081 239.957 305.179 245.41 319.748 261.536C322.536 264.629 326.851 269.516 331.895 275.834C333.057 274.171 334.218 272.542 335.38 270.88C334.318 269.882 332.625 268.319 330.568 266.324C326.784 262.667 316.529 252.459 296.949 227.555C294.825 224.895 291.838 221.038 288.287 216.35Z" fill="#494949"/>
<path d="M180.56 186.957C179.896 187.223 178.901 187.788 175.947 192.543C172.761 197.663 170.604 201.154 169.011 206.674C167.617 211.595 167.285 216.083 167.385 219.741C167.617 220.805 167.783 222.368 167.252 224.097C166.555 226.291 165.294 226.823 162.904 229.816C161.942 231.013 160.349 233.041 159.088 235.801C157.694 238.893 158.391 239.292 157.063 242.318C155.47 245.942 153.114 248.436 152.716 248.835C150.525 251.129 149.463 251.195 148.501 253.19C147.406 255.451 147.738 257.579 147.837 258.211C147.904 258.677 148.6 262.733 150.957 263.232C151.587 263.365 152.583 263.299 152.981 262.7C153.612 261.769 152.152 260.472 151.886 258.211C151.654 256.15 152.55 254.487 153.114 253.457C154.807 250.298 156.765 250.763 158.557 248.137C160.282 245.543 158.656 244.745 160.316 239.857C161.245 237.131 162.174 234.404 164.663 232.376C165.792 231.445 166.887 230.946 167.916 229.383C168.812 228.02 169.144 226.657 169.276 225.726C171.102 228.652 173.026 230.547 174.42 231.711C176.279 233.24 178.403 235.036 180.195 234.371C181.157 234.005 182.02 232.908 181.854 232.143C181.755 231.711 181.357 231.578 180.328 230.647C180.328 230.647 179.929 230.281 179.033 229.317C178.436 228.685 177.573 227.521 176.81 225.327C177.108 224.994 177.872 224.263 178.901 224.197C180.029 224.163 180.892 224.961 181.755 225.826C183.381 227.422 183.315 228.386 184.343 229.35C185.14 230.115 186.6 230.913 189.487 230.713C189.355 230.348 189.122 229.749 188.824 229.084C187.795 226.856 187.264 226.624 187.198 225.693C187.164 224.961 187.463 224.762 188.824 222.434C189.985 220.439 190.549 219.442 190.583 218.91C190.749 216.948 189.056 216.283 188.691 214.022C188.359 212.127 189.189 210.597 189.786 209.4C193.238 202.385 195.428 197.929 194.797 194.571C193.835 189.317 185.472 184.895 180.56 186.957Z" fill="#161616"/>
<path d="M179.033 188.154C174.221 193.075 171.135 199.326 169.077 205.843C167.086 212.193 165.592 219.442 168.745 225.66C169.044 226.225 169.907 225.726 169.608 225.161C166.489 219.043 168.181 211.794 170.206 205.577C172.197 199.392 175.15 193.54 179.73 188.852C180.162 188.386 179.465 187.688 179.033 188.154Z" fill="#161616"/>
<path d="M174.055 216.882C174.453 216.683 174.852 216.517 175.25 216.317C175.549 216.483 175.847 216.683 176.146 216.849C176.511 217.182 176.843 217.614 177.075 218.046C177.54 218.844 177.772 219.808 177.706 220.739C177.573 222.535 176.279 223.931 175.947 225.66C175.748 226.724 176.445 227.489 177.042 228.287C178.071 229.65 179.266 230.914 180.56 232.044C181.025 232.477 181.755 231.778 181.257 231.346C180.427 230.581 179.597 229.817 178.867 228.952C177.673 227.589 176.611 226.425 177.44 224.53C178.17 222.867 178.934 221.305 178.602 219.409C178.336 217.946 177.507 216.45 176.212 215.652C175.117 214.987 173.79 215.12 173.192 216.35C172.894 216.949 173.756 217.448 174.055 216.882Z" fill="#161616"/>
<path d="M168.812 225.792C170.736 228.885 173.391 231.445 176.611 233.141C177.573 233.639 179.398 234.803 180.56 234.304C181.655 233.839 181.456 232.509 181.157 231.611C180.958 231.013 179.996 231.279 180.195 231.877C180.958 234.304 177.739 232.609 177.108 232.276C176.08 231.744 175.117 231.112 174.188 230.381C172.363 228.951 170.869 227.222 169.641 225.26C169.343 224.762 168.48 225.26 168.812 225.792Z" fill="#161616"/>
<path d="M191.678 195.269C189.72 201.853 188.492 208.636 187.928 215.485C187.894 215.685 188.094 215.917 188.293 215.951C190.384 216.516 190.085 219.109 189.322 220.572C188.558 221.969 187.363 223.133 186.766 224.629C185.704 227.322 188.857 228.187 188.791 230.547C188.956 230.381 189.122 230.215 189.288 230.049C186.301 229.882 183.779 228.286 182.286 225.693C181.224 223.831 179.996 223.432 177.872 223.565C177.241 223.598 177.241 224.596 177.872 224.562C178.668 224.529 179.631 224.429 180.361 224.828C180.991 225.194 181.191 225.826 181.522 226.391C182.087 227.355 182.817 228.22 183.68 228.918C185.306 230.248 187.198 230.913 189.255 231.046C189.521 231.046 189.753 230.813 189.753 230.547C189.786 229.151 188.857 228.32 188.094 227.256C186.501 225.028 189.122 222.966 190.151 221.071C191.28 219.01 191.246 215.685 188.525 214.986C188.658 215.153 188.757 215.319 188.89 215.452C189.421 208.669 190.682 202.019 192.607 195.502C192.806 194.937 191.844 194.671 191.678 195.269Z" fill="#161616"/>
<path d="M167.053 220.04C167.285 222.035 167.019 223.997 166.057 225.792C165.161 227.488 163.701 228.718 162.274 230.015C159.751 232.376 158.59 234.969 157.793 238.294C156.93 241.819 155.902 244.645 153.346 247.305C151.421 249.267 149.165 251.096 147.97 253.656C146.808 256.15 146.974 259.042 148.468 261.37C149.33 262.733 152.284 265.46 153.413 262.866C153.877 261.802 153.346 260.472 152.981 259.441C152.649 258.544 152.218 257.646 152.218 256.648C152.218 255.252 153.014 254.055 153.944 253.091C156.2 250.73 159.088 249.4 160.083 246.042C160.647 244.146 160.249 242.251 160.382 240.323C160.548 237.929 161.676 235.9 163.402 234.271C166.024 231.777 169.508 229.716 169.508 225.659C169.508 225.028 168.513 225.028 168.513 225.659C168.48 229.55 164.696 231.478 162.307 233.939C160.448 235.834 159.386 238.228 159.353 240.888C159.32 242.65 159.619 244.313 159.021 246.008C158.357 247.937 156.964 249.234 155.437 250.497C153.479 252.06 151.222 253.889 151.222 256.648C151.222 257.978 151.886 259.175 152.284 260.439C152.384 260.771 152.749 261.669 152.583 261.935C152.251 261.968 151.886 262.035 151.554 262.068C150.957 262.434 150.492 262.367 150.16 261.869C149.43 261.403 148.799 260.007 148.534 259.209C147.472 256.083 148.932 253.29 151.023 251.029C152.782 249.101 154.84 247.471 156.3 245.277C157.86 242.949 158.324 240.19 158.988 237.53C159.486 235.601 160.15 233.739 161.477 232.21C162.639 230.846 164.099 229.816 165.294 228.486C167.418 226.158 168.38 223.132 168.015 220.04C167.982 219.408 166.986 219.408 167.053 220.04Z" fill="#161616"/>
<path d="M145.514 179.541C144.817 179.94 143.523 180.638 143.257 182.101C142.925 183.731 144.087 185.061 144.253 185.227C144.054 185.46 143.456 186.158 143.39 187.222C143.323 188.984 144.883 190.015 144.95 190.081C144.883 190.148 143.921 191.145 144.253 192.509C144.518 193.672 145.547 194.171 145.68 194.204C145.613 194.404 145.381 195.268 145.813 196.066C146.476 197.263 148.069 197.197 148.235 197.197C149.364 197.13 150.426 196.366 150.923 195.202C151.554 195.568 153.213 196.432 155.47 196.199C156.997 196.033 158.125 195.435 158.722 195.069C159.917 197.164 161.776 199.99 164.53 202.883C166.953 205.41 171.466 210.164 178.17 212.126C186.534 214.587 193.934 211.395 198.182 209.566C209.599 204.645 215.274 195.601 217.365 192.209C220.883 186.424 222.111 181.47 223.173 176.981C224.898 169.865 224.301 167.072 223.737 165.443C223.405 164.446 221.447 158.727 216.933 158.062C213.25 157.496 210.196 160.655 209.831 161.054C208.57 162.384 207.906 164.146 206.579 167.604C205.915 169.367 205.484 170.697 205.285 171.295C203.127 178.311 202.032 181.802 201.733 182.534C200.937 184.529 199.045 189.084 194.499 192.642C190.151 196.033 185.604 196.765 183.58 197.064C180.527 197.496 176.776 198.028 172.794 196.066C168.347 193.872 166.356 189.882 165.825 188.818C164.232 185.526 163.933 181.869 163.701 179.275C163.402 175.95 163.634 173.357 161.709 171.295C161.344 170.929 160.481 169.998 159.585 170.165C158.291 170.431 157.561 172.924 156.897 175.285C156.333 177.28 156.499 177.513 156.034 177.978C155.072 178.943 153.844 178.444 149.629 178.677C147.173 178.843 146.31 179.109 145.514 179.541Z" fill="white"/>
<path d="M152.384 178.112C148.799 177.447 142.494 178.378 142.992 183.299C143.423 187.721 148.667 188.486 151.82 186.557C152.351 186.225 151.853 185.36 151.322 185.693C148.7 187.289 143.954 186.857 143.954 182.867C143.954 179.01 149.364 178.577 152.118 179.076C152.749 179.209 153.014 178.245 152.384 178.112Z" fill="black"/>
<path d="M143.855 184.927C140.27 189.316 148.899 194.835 151.455 189.316C151.72 188.751 150.857 188.219 150.592 188.817C148.6 193.073 141.963 188.817 144.585 185.625C144.983 185.16 144.286 184.428 143.855 184.927Z" fill="black"/>
<path d="M144.054 189.383C143.29 191.112 143.821 193.307 145.58 194.205C147.306 195.102 149.463 194.271 150.359 192.609C150.658 192.043 149.795 191.545 149.496 192.11C148.833 193.274 147.339 193.939 146.078 193.34C144.817 192.742 144.352 191.112 144.917 189.882C145.182 189.317 144.319 188.818 144.054 189.383Z" fill="black"/>
<path d="M144.85 193.839C144.717 195.601 145.746 197.197 147.538 197.563C149.198 197.896 150.724 196.798 151.288 195.302C151.521 194.704 150.558 194.438 150.326 195.036C149.895 196.167 148.7 196.898 147.505 196.532C146.277 196.167 145.779 195.036 145.846 193.839C145.879 193.207 144.883 193.207 144.85 193.839Z" fill="black"/>
<path d="M148.003 182.966C148.866 182.866 149.762 182.9 150.492 183.398C151.189 183.864 151.587 184.795 151.189 185.56C150.89 186.125 151.753 186.624 152.052 186.058C152.583 185.028 152.351 183.831 151.554 182.999C150.658 182.035 149.231 181.836 147.97 181.969C147.372 182.068 147.372 183.066 148.003 182.966Z" fill="black"/>
<path d="M151.089 195.966C152.815 195.334 154.474 196.764 156.267 196.565C157.627 196.398 158.822 195.667 159.95 195.002C160.481 194.669 159.984 193.805 159.453 194.137C157.76 195.168 156.3 195.9 154.275 195.301C153.047 194.935 152.085 194.536 150.824 195.002C150.226 195.235 150.459 196.199 151.089 195.966Z" fill="black"/>
<path d="M152.118 178.976C153.844 179.574 156.167 179.674 157.129 177.779C157.66 176.715 157.329 175.418 157.561 174.288C157.826 172.758 158.689 171.495 159.884 170.53C160.382 170.131 159.685 169.433 159.187 169.832C157.893 170.896 156.964 172.359 156.632 174.022C156.466 174.953 156.698 176.05 156.433 176.948C155.835 178.743 153.844 178.51 152.45 178.012C151.786 177.812 151.521 178.776 152.118 178.976Z" fill="black"/>
<path d="M159.154 170.596C161.975 170.962 162.34 175.717 162.805 177.878C163.369 180.704 163.667 183.564 164.198 186.39C165.061 190.912 167.683 194.503 171.865 196.531C176.245 198.626 181.224 198.526 185.803 197.263C190.516 195.933 195.395 193.539 198.448 189.582C198.846 189.083 198.149 188.385 197.751 188.884C194.565 193.007 189.388 195.434 184.41 196.598C179.398 197.762 173.922 197.329 169.741 194.071C165.227 190.58 165.128 185.326 164.232 180.106C163.8 177.645 163.435 174.985 162.539 172.658C161.975 171.195 161.079 169.865 159.453 169.632C158.789 169.532 158.523 170.497 159.154 170.596Z" fill="black"/>
<path d="M158.424 195.668C162.44 200.589 166.322 206.208 171.632 209.832C176.843 213.357 183.281 213.723 189.321 212.725C201.601 210.664 212.022 202.318 217.995 191.545C221.414 185.427 223.438 178.644 224.334 171.695C224.401 171.063 223.405 171.063 223.339 171.695C221.812 183.565 216.635 195.202 207.409 203.049C202.862 206.906 197.452 209.799 191.645 211.196C185.638 212.659 178.701 212.858 173.225 209.633C167.384 206.208 163.302 200.09 159.121 194.936C158.723 194.471 158.026 195.169 158.424 195.668Z" fill="black"/>
<path d="M217.398 157.929C214.644 156.832 211.723 158.261 209.798 160.29C207.541 162.617 206.413 165.709 205.583 168.768C204.621 172.326 203.758 175.851 202.397 179.275C200.937 182.966 199.079 186.457 196.955 189.782C196.59 190.314 197.452 190.813 197.818 190.281C201.236 184.994 203.858 179.242 205.484 173.157C206.347 169.965 206.911 166.64 208.504 163.748C210.097 160.822 213.482 157.43 217.133 158.893C217.73 159.126 217.996 158.162 217.398 157.929Z" fill="black"/>
<path d="M149.496 193.307C150.426 193.373 150.226 194.936 150.061 195.501C149.861 196.1 150.824 196.366 151.023 195.767C151.454 194.504 151.156 192.442 149.496 192.309C148.866 192.276 148.866 193.274 149.496 193.307Z" fill="black"/>
<path d="M150.061 190.248C150.26 191.046 149.961 191.878 149.331 192.343C148.8 192.709 149.297 193.573 149.828 193.208C150.857 192.476 151.355 191.213 151.023 189.982C150.89 189.351 149.928 189.617 150.061 190.248Z" fill="black"/>
<path d="M150.625 186.79C151.521 187.222 150.924 188.652 150.492 189.217C150.094 189.716 150.957 190.214 151.355 189.716C152.118 188.718 152.517 186.59 151.123 185.925C150.559 185.659 150.061 186.524 150.625 186.79Z" fill="black"/>
<path opacity="0.11" d="M143.788 186.923C144.319 186.623 145.182 188.485 147.406 189.416C148.235 189.749 149.264 189.982 153.977 189.416C155.503 189.217 157.495 188.951 159.884 188.519C160.349 190.414 161.311 193.273 163.269 196.233C164.099 197.463 167.451 202.251 173.922 205.077C180.859 208.136 187.131 207.105 189.554 206.673C191.611 206.307 197.353 205.21 202.464 200.755C205.882 197.795 208.072 194.204 211.292 184.861C213.482 178.51 216.137 169.699 218.095 158.76C219.422 160.123 221.48 162.584 222.642 166.241C223.206 168.003 223.737 170.597 223.305 174.653C222.409 183.398 218.029 190.68 215.374 194.404C212.619 198.294 207.707 205.011 198.614 209.167C197.386 209.732 190.45 212.758 181.622 212.359C179.597 212.259 177.739 212.159 175.449 211.328C172.96 210.43 170.471 208.103 165.526 203.514C163.468 201.619 161.444 199.624 159.386 196.731C158.988 196.166 158.656 195.667 158.424 195.335C157.727 195.8 156.698 196.332 155.537 196.199C153.977 196.066 153.446 194.936 152.151 195.135C151.023 195.302 151.023 196.233 149.662 196.731C148.6 197.097 147.107 197.064 146.111 196.299C145.381 195.734 145.282 195.102 144.452 191.511C143.655 187.987 143.423 187.122 143.788 186.923Z" fill="#494949"/>
<path d="M181.722 178.279C181.091 178.412 180.859 179.675 180.461 181.637C180.228 182.834 180.129 183.865 180.095 184.596C178.768 186.159 178.635 187.589 178.602 188.154C178.569 189.318 178.967 190.215 179.73 191.878C180.261 193.075 180.826 194.006 181.224 194.638C179.797 194.97 178.801 195.901 178.735 196.899C178.668 197.863 179.531 198.628 179.863 198.894C181.357 200.19 182.452 199.226 184.343 200.257C185.87 201.088 185.737 202.019 187.961 203.249C189.355 204.014 189.786 203.848 189.952 203.748C190.516 203.382 190.317 202.185 190.218 201.387C190.085 200.423 189.687 198.96 188.591 197.264C189.886 196.799 191.18 196.333 192.441 195.901C191.512 196.001 191.313 196.034 191.313 196.034C191.313 196.001 193.603 195.07 195.561 195.901C197.187 196.599 197.32 198.062 198.68 198.162C199.444 198.229 200.307 197.796 200.672 197.165C201.435 195.868 200.008 193.973 199.676 193.54C198.315 191.745 196.324 191.213 195.428 191.047C195.727 190.382 196.059 189.318 196.125 187.988C196.191 185.727 195.262 184.064 194.831 183.366C194.233 181.404 193.669 179.442 193.072 177.447C192.143 179.609 191.114 180.274 190.317 180.44C189.421 180.639 188.923 180.207 187.463 180.44C186.069 180.673 186.003 181.105 185.206 181.072C183.348 180.872 182.717 178.079 181.722 178.279Z" fill="#161616"/>
<path d="M182.551 188.786C183.115 189.451 184.012 189.883 184.908 189.65C185.704 189.451 186.235 188.786 186.335 187.988C186.368 187.655 185.87 187.655 185.837 187.988C185.77 188.686 185.173 189.185 184.476 189.218C183.846 189.251 183.315 188.885 182.916 188.42C182.684 188.187 182.352 188.553 182.551 188.786Z" fill="white"/>
<path d="M189.653 187.688C190.483 188.885 193.171 188.984 193.072 187.089C193.038 186.757 192.541 186.757 192.574 187.089C192.673 188.452 190.649 188.253 190.085 187.422C189.886 187.156 189.454 187.422 189.653 187.688Z" fill="white"/>
<path d="M188.359 191.378C188.359 191.411 188.392 191.444 188.392 191.478C188.492 191.511 188.625 191.544 188.724 191.577C188.658 191.444 188.558 191.378 188.392 191.378C188.525 191.345 188.625 191.278 188.757 191.245C188.724 191.212 188.691 191.145 188.658 191.112C188.492 191.178 188.359 191.245 188.193 191.311C188.426 191.677 188.326 192.342 188.193 192.708C188.027 193.207 187.33 193.872 186.899 193.207C186.733 192.941 186.302 193.173 186.467 193.473C186.899 194.138 187.795 194.104 188.293 193.539C188.791 192.974 189.056 191.744 188.625 191.079C188.492 190.846 188.094 190.979 188.16 191.278C188.226 191.478 188.326 191.611 188.492 191.71C188.625 191.81 188.824 191.71 188.857 191.577C188.923 191.278 188.824 190.58 188.359 190.779C187.928 190.946 188.094 191.611 188.293 191.877C188.359 191.976 188.525 192.043 188.625 191.976C188.99 191.71 188.99 191.212 188.591 191.012C188.326 190.813 188.094 191.245 188.359 191.378Z" fill="white"/>
<path d="M188.392 191.477C188.525 192.242 188.791 193.173 189.687 193.306C190.583 193.439 190.848 192.575 190.848 191.876C190.848 191.544 190.35 191.544 190.35 191.876C190.35 192.375 190.184 193.073 189.521 192.741C189.023 192.508 188.956 191.843 188.89 191.344C188.824 191.045 188.326 191.178 188.392 191.477Z" fill="white"/>
<path d="M179.233 188.951C179.863 185.493 182.352 182.534 185.737 181.536C189.122 180.539 193.039 181.902 194.598 185.16C194.864 185.726 195.727 185.227 195.461 184.662C193.769 181.17 189.62 179.608 185.936 180.472C182.02 181.403 179 184.761 178.27 188.685C178.171 189.317 179.133 189.583 179.233 188.951Z" fill="#161616"/>
<path d="M180.992 183.931C180.958 182.268 181.257 180.606 181.954 179.109C182.02 178.976 182.087 178.877 182.12 178.744C182.352 178.345 182.385 178.278 182.186 178.544C181.987 178.71 182.02 178.843 182.319 179.043C182.385 179.143 182.485 179.276 182.551 179.375C183.049 180.173 183.481 181.005 183.846 181.869C184.078 182.468 185.04 182.202 184.808 181.603C184.476 180.805 182.95 176.749 181.655 177.647C181.025 178.079 180.626 179.542 180.427 180.24C180.062 181.437 179.929 182.701 179.963 183.964C180.029 184.563 181.025 184.562 180.992 183.931Z" fill="#161616"/>
<path d="M191.114 181.237C191.445 180.672 191.777 180.106 192.142 179.541C192.308 179.308 192.541 179.076 192.64 178.81C192.872 178.677 192.906 178.544 192.773 178.377C192.64 178.145 192.673 178.211 192.839 178.577C193.403 180.007 193.802 181.403 193.968 182.966C194.034 183.598 195.03 183.598 194.963 182.966C194.864 181.869 194.665 180.805 194.366 179.741C194.167 179.142 193.868 177.779 193.304 177.413C192.872 177.147 192.507 177.347 192.209 177.712C191.445 178.61 190.848 179.707 190.251 180.738C189.919 181.27 190.782 181.769 191.114 181.237Z" fill="#161616"/>
<path d="M178.337 188.419C178.104 194.005 183.149 198.793 188.757 197.629C191.346 197.097 193.736 195.402 194.964 193.041C196.258 190.547 196.988 186.59 195.295 184.13C194.93 183.598 194.067 184.097 194.433 184.629C195.926 186.856 195.196 190.514 194.001 192.742C192.906 194.77 190.749 196.2 188.492 196.665C183.481 197.663 179.133 193.34 179.332 188.419C179.332 187.754 178.337 187.754 178.337 188.419Z" fill="#161616"/>
<path d="M179.033 197.197C179.83 194.238 183.812 194.404 185.903 195.701C188.127 197.031 189.255 199.625 189.487 202.118C189.554 202.817 189.819 203.515 188.658 203.083C188.226 202.916 187.662 202.285 187.33 201.952C186.733 201.354 186.202 200.722 185.538 200.223C184.808 199.658 184.045 199.325 183.149 199.159C181.755 198.893 179.233 199.059 179.1 197.064C179.067 196.433 178.071 196.433 178.104 197.064C178.204 198.361 179.033 199.226 180.228 199.658C181.157 199.99 182.186 199.924 183.149 200.157C184.343 200.456 185.14 201.088 185.97 201.952C186.799 202.783 188.226 204.645 189.653 204.379C190.848 204.147 190.583 202.783 190.483 201.886C190.118 198.694 188.425 195.535 185.306 194.305C182.684 193.274 178.901 193.872 178.104 196.965C177.905 197.563 178.867 197.829 179.033 197.197Z" fill="#161616"/>
<path d="M192.275 192.874C193.636 191.045 196.722 191.777 198.149 193.007C198.979 193.705 199.543 194.67 199.809 195.734C199.875 196.066 200.041 196.764 199.942 197.13C199.61 198.094 198.913 197.795 198.315 197.33C197.486 196.698 196.855 195.8 195.826 195.401C195.329 195.202 194.831 195.168 194.3 195.202C193.802 195.202 193.337 195.335 192.839 195.268C191.91 195.135 190.616 194.271 192.176 193.074C192.674 192.675 191.977 191.976 191.479 192.375C190.715 192.974 190.317 193.872 190.649 194.836C191.114 196.099 192.308 196.365 193.536 196.299C194.764 196.232 195.561 196.266 196.556 197.097C197.021 197.496 197.419 197.961 197.95 198.327C198.647 198.826 199.676 199.291 200.439 198.593C202.198 196.964 200.174 193.34 198.78 192.209C196.789 190.58 193.138 190.114 191.479 192.409C191.047 192.874 191.91 193.373 192.275 192.874Z" fill="#161616"/>
<path d="M180.958 194.436C183.116 193.738 186.401 195.101 187.729 196.863C187.828 196.996 188.027 196.863 187.928 196.73C186.534 194.835 183.215 193.439 180.892 194.203C180.726 194.237 180.792 194.469 180.958 194.436Z" fill="white"/>
<path d="M192.508 193.007C193.47 191.876 194.864 191.378 196.324 191.677C196.49 191.71 196.557 191.477 196.391 191.444C194.864 191.145 193.337 191.644 192.342 192.841C192.242 192.974 192.408 193.14 192.508 193.007Z" fill="white"/>
<path d="M182.186 178.843C182.518 179.707 182.751 180.572 182.85 181.469C182.917 181.436 182.983 181.403 183.049 181.37C182.883 181.203 182.717 181.104 182.518 181.004C182.419 180.971 182.319 181.004 182.319 181.104C182.319 181.403 182.286 181.669 182.286 181.968C182.352 181.935 182.419 181.902 182.485 181.868C182.02 181.336 181.655 182.533 181.523 182.766C181.456 182.899 181.655 183.032 181.722 182.899C181.755 182.833 182.186 181.902 182.286 182.035C182.352 182.134 182.485 182.035 182.485 181.935C182.485 181.636 182.518 181.37 182.518 181.07C182.452 181.104 182.386 181.137 182.319 181.17C182.518 181.237 182.651 181.336 182.784 181.503C182.85 181.569 183.016 181.536 182.983 181.403C182.85 180.472 182.651 179.574 182.286 178.71C182.352 178.643 182.12 178.71 182.186 178.843Z" fill="white"/>
<path d="M192.441 178.41C192.076 179.108 191.877 179.807 191.811 180.605C191.811 180.671 191.91 180.738 191.976 180.738C192.441 180.605 192.507 180.97 192.541 181.369C192.541 181.469 192.673 181.536 192.74 181.469C192.906 181.735 193.038 181.968 193.204 182.234C193.171 182.4 193.437 182.467 193.437 182.3C193.503 181.835 193.204 180.638 192.574 181.303C192.64 181.336 192.707 181.369 192.773 181.403C192.74 181.103 192.673 180.837 192.607 180.538C192.607 180.472 192.541 180.438 192.474 180.438C192.242 180.438 192.076 180.472 191.877 180.538C191.943 180.571 191.976 180.605 192.043 180.671C192.076 179.94 192.275 179.275 192.64 178.61C192.74 178.377 192.507 178.244 192.441 178.41Z" fill="white"/>
<path d="M213.25 158.694C213.714 161.886 214.61 166.94 216.469 172.925C220.385 185.427 224.998 190.781 231.104 205.278C232.631 208.902 234.788 214.355 236.912 221.238C240.862 222.534 248.196 224.297 257.157 222.734C271.892 220.174 280.554 210.398 282.976 207.439C277.932 198.129 272.854 188.054 267.909 177.248C262.998 166.541 258.716 156.234 254.999 146.425C251.88 145.261 243.716 142.668 233.693 145.128C221.712 148.021 215.108 156.234 213.25 158.694Z" fill="#00A79D"/>
<path opacity="0.13" d="M242.388 143.998C243.649 146.658 245.242 150.282 246.935 154.671C252.245 168.636 254.17 180.108 254.867 184.197C256.36 192.643 257.654 205.743 255.53 222.568C260.143 222.435 263.562 221.371 265.719 220.54C271.892 218.079 276.372 213.79 280.687 209.634C281.682 208.703 282.445 207.871 282.943 207.373C281.516 204.912 279.359 201.055 276.837 196.234C269.536 182.335 264.757 170.798 260.741 161.022C259.314 157.597 257.356 152.676 255.066 146.725C253.24 145.96 250.951 145.195 248.262 144.696C246.072 144.264 244.081 144.065 242.388 143.998Z" fill="#494949"/>
<path opacity="0.1" d="M264.358 170.365C264.922 176.317 265.387 181.304 265.719 184.895C266.98 198.96 267.212 202.85 267.312 205.344C267.577 211.229 267.577 216.051 267.544 219.209C269.602 218.478 272.257 217.281 275.011 215.352C278.463 212.925 280.786 210.265 282.279 208.303C276.306 195.635 270.332 183 264.358 170.365Z" fill="#494949"/>
<path d="M240.795 138.144C239.202 138.61 238.339 140.904 237.808 143.265C236.746 148.086 237.311 152.209 237.51 153.639C238.472 159.989 240.198 164.744 240.762 166.307C242.222 170.164 244.214 175.318 248.561 180.804C251.05 183.929 253.174 186.623 257.09 188.618C259.38 189.815 264.126 192.242 269.005 190.313C269.237 190.214 274.016 188.252 275.244 184.062C275.509 183.131 275.576 182.2 275.675 180.372C275.742 179.274 275.775 177.346 275.543 174.952C275.211 171.793 274.514 169.333 273.983 167.57C271.626 159.757 270.465 155.866 268.009 152.475C265.985 149.682 263.695 146.49 259.911 146.058C259.579 146.024 255.763 145.659 253.506 148.319C251.946 150.181 252.046 152.475 252.079 154.004C252.179 156.93 253.307 159.025 255.066 162.25C256.825 165.442 257.522 165.841 259.613 169.632C262.467 174.819 262.168 175.318 262.035 175.451C261.471 175.949 259.214 174.387 258.717 174.021C258.252 173.688 257.588 173.223 256.758 172.325C254.17 169.432 252.643 165.077 252.643 165.077C251.283 162.383 249.49 158.56 247.665 153.705C248.229 151.544 249.092 150.014 249.789 149.017C250.917 147.421 252.179 146.324 252.477 144.329C252.61 143.564 252.544 142.899 252.477 142.467C253.041 141.935 253.207 141.137 252.909 140.472C252.544 139.707 251.648 139.341 250.785 139.607C250.785 139.507 250.685 138.643 249.922 138.177C249.291 137.778 248.428 137.845 247.798 138.31C246.802 137.546 245.973 137.346 245.375 137.313C244.678 137.28 244.346 137.446 242.687 137.745C241.293 138.111 241.194 138.044 240.795 138.144Z" fill="white"/>
<path d="M249.125 152.176C250.021 149.948 251.15 147.92 252.378 145.858C253.008 144.794 253.738 143.464 252.876 142.3C250.917 139.773 248.262 142.999 247.433 144.661C247.134 145.226 247.997 145.725 248.296 145.16C248.793 144.162 249.358 142.932 250.519 142.6C250.851 142.433 251.183 142.433 251.548 142.533C251.648 143.298 251.747 144.063 251.88 144.827C251.78 145.26 251.183 145.958 250.951 146.357C249.889 148.119 249.026 149.981 248.229 151.876C247.931 152.508 248.893 152.741 249.125 152.176Z" fill="black"/>
<path d="M238.273 156.466C237.775 152.909 237.709 149.284 238.107 145.727C238.472 142.468 239.169 137.514 243.683 138.445C244.313 138.578 244.579 137.614 243.948 137.481C240.397 136.749 238.173 139.276 237.576 142.501C236.68 147.19 236.647 151.978 237.311 156.732C237.41 157.364 238.373 157.098 238.273 156.466Z" fill="black"/>
<path d="M242.421 141.137C242.786 140.273 243.185 139.375 243.882 138.71C245.076 137.546 246.603 138.178 247.897 138.81C248.462 139.109 248.959 138.244 248.395 137.945C247.034 137.247 245.508 136.582 244.048 137.347C242.786 138.012 242.123 139.375 241.592 140.605C241.326 141.237 242.189 141.736 242.421 141.137Z" fill="black"/>
<path d="M245.375 141.436C246.603 139.84 248.229 138.178 250.353 139.441C250.918 139.774 251.415 138.909 250.851 138.577C248.329 137.081 246.205 138.71 244.678 140.705C244.28 141.237 244.977 141.935 245.375 141.436Z" fill="black"/>
<path d="M247.599 142.167C248.229 141.502 248.893 140.804 249.756 140.471C250.785 140.039 252.676 140.305 252.278 141.868C252.145 142.5 253.075 142.766 253.241 142.134C253.573 140.771 252.676 139.507 251.316 139.274C249.49 138.942 248.063 140.272 246.902 141.469C246.47 141.934 247.167 142.633 247.599 142.167Z" fill="black"/>
<path d="M247.997 151.677C246.835 154.171 248.263 156.698 249.258 158.992C250.652 162.218 252.112 165.443 253.904 168.435C256.228 172.359 261.272 179.408 266.549 175.385C267.047 174.986 266.549 174.121 266.051 174.52C260.973 178.41 256.261 170.563 254.203 166.939C253.008 164.811 251.946 162.617 250.951 160.389C249.955 158.161 247.732 154.67 248.893 152.176C249.125 151.611 248.263 151.079 247.997 151.677Z" fill="black"/>
<path d="M252.278 149.15C249.358 159.092 258.318 166.806 261.604 175.318C261.836 175.917 262.799 175.651 262.566 175.052C259.38 166.806 250.42 159.026 253.241 149.416C253.407 148.785 252.444 148.519 252.278 149.15Z" fill="black"/>
<path d="M237.277 156.199C238.97 165.509 242.919 174.321 248.727 181.802C251.548 185.393 254.767 188.884 259.214 190.347C262.998 191.577 268.208 192.209 271.726 189.915C275.576 187.454 276.074 182.434 276.24 178.277C276.273 177.646 275.277 177.646 275.244 178.277C275.045 183.631 273.85 189.549 267.511 190.314C261.67 191.012 256.228 188.685 252.278 184.462C244.944 176.648 240.132 166.44 238.207 155.933C238.14 155.302 237.178 155.568 237.277 156.199Z" fill="black"/>
<path d="M252.942 150.48C254.004 146.224 259.115 145.925 262.301 147.787C265.553 149.682 267.777 153.107 269.403 156.399C271.096 159.857 272.323 163.581 273.518 167.238C274.879 171.428 275.908 175.817 275.211 180.239C275.111 180.871 276.074 181.137 276.173 180.505C276.97 175.451 275.709 170.563 274.082 165.775C272.589 161.42 271.129 156.931 268.64 153.007C266.549 149.682 263.429 146.224 259.314 145.659C256.128 145.227 252.743 146.956 251.946 150.214C251.814 150.846 252.776 151.112 252.942 150.48Z" fill="black"/>
<path opacity="0.1" d="M242.023 137.713C244.678 136.649 247.267 137.813 247.897 138.112C246.039 140.573 242.089 146.524 241.758 154.937C241.26 166.907 248.395 174.853 250.917 177.68C254.17 181.304 258.418 186.025 263.894 185.36C266.98 184.995 269.901 182.933 271.394 180.306C272.887 177.68 272.788 174.82 270.996 167.439C268.241 156.267 265.221 149.716 265.653 149.517C266.084 149.317 269.668 154.937 272.356 161.986C272.622 162.717 274.846 168.636 275.642 176.782C276.14 181.803 275.708 183.864 274.68 185.693C273.087 188.519 270.498 189.783 269.502 190.215C265.487 191.911 261.637 190.714 259.812 190.082C253.274 187.887 249.789 182.567 246.271 177.214C240.862 168.935 239.368 161.853 237.941 155.036C236.945 150.315 236.282 144.829 238.771 140.805C239.202 139.974 240.165 138.478 242.023 137.713Z" fill="#494949"/>
<path d="M194.101 121.52C194.001 123.083 194.565 124.845 195.76 128.369C197.087 132.326 198.514 136.549 202.099 140.705C204.389 143.365 207.176 146.624 211.922 147.555C215.672 148.286 218.825 147.222 220.418 146.557C220.783 147.555 221.281 148.619 221.912 149.716C223.571 152.642 225.629 154.703 227.255 156.067C228.483 155.934 230.872 155.435 232.93 153.573C234.523 152.11 235.286 150.381 235.751 149.25C236.315 147.92 236.614 146.757 236.747 145.925C235.751 145.327 234.656 144.529 233.594 143.432C230.275 140.04 229.379 136.017 229.113 134.088C229.545 130.265 230.009 126.408 230.441 122.584C230.939 122.65 232.001 122.717 232.93 122.085C233.959 121.387 234.158 120.223 234.423 118.926C234.689 117.63 234.988 115.967 234.257 114.072C233.926 113.241 232.864 110.581 230.607 110.414C229.08 110.281 227.52 111.312 226.624 112.908C224.699 111.046 220.584 107.754 214.81 107.222C204.82 106.291 194.665 114.105 194.101 121.52Z" fill="white"/>
<path d="M208.836 136.715C208.57 137.413 209.333 138.411 209.898 138.909C211.457 140.273 214.212 140.206 216.203 139.275C218.991 137.978 219.887 135.185 220.285 133.922C220.75 132.525 221.347 130.697 220.385 129.067C219.555 127.638 218.095 127.139 217.531 126.973C216.967 128.136 216.535 129.001 216.203 129.566C215.805 130.264 215.672 130.497 215.44 131.029C215.108 131.727 215.075 131.993 214.61 132.625C212.719 135.086 210.13 135.983 210.13 135.983C209.533 136.116 209.002 136.249 208.836 136.715Z" fill="black"/>
<path d="M194.632 125.511C197.253 133.724 200.539 143.3 209.002 147.157C212.453 148.72 216.569 149.019 220.086 147.49C224.036 145.794 226.359 141.87 227.952 138.08C230.043 133.126 230.939 127.739 230.607 122.386C230.574 121.754 229.578 121.754 229.611 122.386C229.943 127.972 228.947 133.591 226.591 138.678C224.301 143.633 220.684 147.589 214.876 147.523C203.194 147.39 198.448 134.489 195.528 125.279C195.395 124.614 194.466 124.88 194.632 125.511Z" fill="black"/>
<path d="M226.989 113.839C227.022 111.844 229.08 110.647 230.905 111.212C232.598 111.777 233.66 113.44 234.025 115.102C234.357 116.698 234.224 118.56 233.726 120.09C233.328 121.353 232.83 122.018 231.304 122.018C230.773 122.018 230.242 121.819 229.677 121.819C229.047 121.819 229.047 122.816 229.677 122.816C230.806 122.816 231.901 123.348 232.996 122.783C233.793 122.384 234.257 121.586 234.589 120.755C235.452 118.494 235.552 115.435 234.456 113.207C233.56 111.378 231.636 109.816 229.512 110.048C227.553 110.248 226.027 111.844 225.994 113.806C225.994 114.471 226.989 114.471 226.989 113.839Z" fill="black"/>
<path d="M228.947 132.062C228.848 137.548 231.27 142.801 235.585 146.226C236.083 146.625 236.78 145.927 236.282 145.528C232.166 142.269 229.843 137.348 229.943 132.062C229.943 131.43 228.947 131.43 228.947 132.062Z" fill="black"/>
<path d="M220.385 146.957C221.646 150.448 223.704 153.507 226.458 155.968C226.923 156.4 227.653 155.702 227.155 155.269C224.5 152.909 222.542 150.016 221.314 146.691C221.115 146.092 220.153 146.358 220.385 146.957Z" fill="black"/>
<path d="M226.691 156.301C229.545 157.332 232.399 154.904 234.158 152.876C236.016 150.748 237.642 147.988 236.846 145.096C236.68 144.464 235.718 144.73 235.884 145.362C236.547 147.889 235.054 150.349 233.428 152.178C231.901 153.907 229.412 156.234 226.923 155.337C226.359 155.104 226.093 156.068 226.691 156.301Z" fill="black"/>
<path d="M198.348 122.019C197.917 120.789 198.913 119.459 199.643 118.595C200.738 117.231 202.43 116.866 203.692 118.262C205.152 119.858 205.55 122.718 205.749 124.779C205.882 126.209 205.384 128.038 206.214 129.301C207.11 130.664 208.769 131.462 210.329 131.762C210.96 131.895 211.225 130.93 210.595 130.797C209.765 130.631 209.035 130.365 208.305 129.9C207.11 129.102 206.844 128.237 206.811 126.807C206.778 125.577 206.745 124.38 206.546 123.15C206.214 121.122 205.65 118.528 203.99 117.165C202.596 116.001 200.871 116.034 199.51 117.198C198.216 118.329 196.722 120.49 197.353 122.252C197.618 122.884 198.581 122.618 198.348 122.019Z" fill="black"/>
<path d="M207.541 114.838C207.774 110.815 212.785 109.352 215.108 112.643C215.473 113.175 216.336 112.677 215.971 112.145C213.084 108.022 206.844 109.784 206.546 114.838C206.513 115.47 207.508 115.47 207.541 114.838Z" fill="black"/>
<path d="M203.028 124.679C202.563 124.047 202.298 123.349 202.265 122.584C201.999 122.717 201.767 122.883 201.501 123.016C202.265 123.515 202.663 124.313 202.63 125.211C202.829 125.044 203.061 124.878 203.26 124.745C202.431 124.446 201.9 123.515 202.065 122.65C201.833 122.75 201.568 122.85 201.335 122.95C201.734 123.182 202.065 123.515 202.298 123.947C202.397 124.147 202.464 124.346 202.497 124.579C202.497 124.745 202.497 124.546 202.464 124.479C202.397 124.346 202.331 124.246 202.265 124.113C201.999 123.515 201.136 124.047 201.402 124.612C201.601 125.078 201.933 125.576 202.53 125.61C203.028 125.643 203.459 125.31 203.526 124.812C203.625 123.714 202.762 122.617 201.866 122.118C201.601 121.952 201.203 122.085 201.136 122.418C200.871 123.847 201.667 125.244 203.028 125.743C203.36 125.842 203.658 125.576 203.658 125.277C203.692 124.014 203.094 122.883 202.032 122.218C201.734 122.019 201.269 122.285 201.269 122.65C201.302 123.581 201.601 124.479 202.165 125.244C202.563 125.709 203.426 125.211 203.028 124.679Z" fill="black"/>
<path d="M212.32 118.262C212.154 118.062 212.022 117.83 211.955 117.564C211.955 117.497 211.889 117.098 211.955 117.065C212.022 117.032 212.188 117.564 212.221 117.597C212.287 117.863 212.254 118.162 212.121 118.395C212.354 118.328 212.586 118.262 212.818 118.229C211.989 117.763 211.59 116.899 211.723 115.968C211.458 116.101 211.225 116.267 210.96 116.4C211.889 116.799 212.42 117.763 212.188 118.761C212.387 118.661 212.586 118.528 212.785 118.428C212.287 118.262 211.889 117.83 211.789 117.298C211.789 117.264 211.789 116.965 211.756 116.965C211.69 116.998 211.623 117.032 211.524 117.065C211.557 117.131 211.623 117.231 211.657 117.298C211.789 117.663 211.789 118.029 211.756 118.428C212.055 118.295 212.32 118.195 212.619 118.062C212.32 117.83 212.088 117.564 211.922 117.198C211.623 116.633 210.761 117.131 211.059 117.697C211.258 118.096 211.557 118.461 211.922 118.761C212.287 119.06 212.719 118.86 212.785 118.395C212.851 117.73 212.785 116.832 212.287 116.333C211.889 115.934 211.159 115.901 210.893 116.5C210.362 117.663 211.491 119.027 212.52 119.392C212.785 119.492 213.084 119.293 213.117 119.06C213.482 117.663 212.785 116.134 211.424 115.569C211.059 115.402 210.727 115.602 210.661 116.001C210.495 117.264 211.159 118.495 212.254 119.126C212.453 119.259 212.818 119.193 212.951 118.96C213.216 118.328 213.283 117.697 213.051 117.065C212.851 116.566 212.42 116.034 211.856 116.101C210.396 116.267 211.026 118.362 211.623 119.027C212.055 119.459 212.752 118.727 212.32 118.262Z" fill="black"/>
<path d="M220.982 146.858C220.982 146.891 220.982 146.891 220.949 146.924C221.148 146.825 221.347 146.692 221.546 146.592C221.513 146.592 221.48 146.559 221.447 146.559C221.546 146.791 221.646 147.057 221.746 147.29C221.812 147.157 222.708 146.725 222.974 146.492C223.571 145.993 224.069 145.328 224.533 144.697C225.562 143.333 226.325 141.837 226.956 140.274C226.624 140.175 226.325 140.108 225.994 140.008C224.998 142.868 224.301 146.858 221.513 148.554C221.746 148.786 221.978 149.019 222.21 149.252C222.874 148.254 223.538 147.224 224.201 146.226C224.5 145.761 223.803 145.195 223.405 145.628C222.874 146.193 222.31 146.791 221.779 147.357C222.011 147.589 222.243 147.822 222.476 148.055C222.974 147.456 223.438 146.825 223.87 146.193C224.201 145.727 223.471 145.162 223.073 145.594C222.608 146.093 222.144 146.459 221.546 146.758C221.812 146.891 222.044 147.057 222.31 147.19C222.31 147.091 222.277 146.991 222.277 146.891C222.21 146.259 221.215 146.259 221.281 146.891C221.281 146.991 221.314 147.091 221.314 147.19C221.347 147.556 221.712 147.822 222.077 147.623C222.741 147.257 223.272 146.858 223.803 146.293C223.538 146.093 223.272 145.894 223.007 145.694C222.608 146.259 222.21 146.825 221.779 147.357C221.381 147.855 222.044 148.554 222.476 148.055C223.007 147.49 223.571 146.891 224.102 146.326C223.836 146.126 223.571 145.927 223.305 145.727C222.642 146.725 221.978 147.756 221.314 148.753C221.049 149.185 221.58 149.684 222.011 149.451C225.064 147.589 225.861 143.466 226.956 140.308C227.155 139.676 226.226 139.476 225.994 140.042C225.297 141.737 224.401 143.4 223.206 144.796C222.642 145.461 221.746 145.827 221.215 146.426C221.082 146.559 220.949 146.592 220.883 146.758C220.717 147.057 220.85 147.357 221.181 147.49C221.215 147.49 221.248 147.523 221.281 147.523C221.546 147.623 221.812 147.423 221.878 147.19C221.878 147.157 221.878 147.157 221.912 147.124C222.177 146.525 221.215 146.259 220.982 146.858Z" fill="black"/>
<path d="M224.666 145.86C224.965 145.528 225.164 145.195 225.263 144.796C225.429 144.198 224.666 143.998 224.367 144.397C223.671 145.328 222.974 146.259 222.277 147.19C221.878 147.689 222.741 148.188 223.139 147.689C223.836 146.758 224.533 145.827 225.23 144.896C224.932 144.763 224.633 144.63 224.334 144.497C224.268 144.73 224.168 144.929 224.002 145.129C223.538 145.661 224.268 146.359 224.666 145.86Z" fill="black"/>
<path d="M209.334 137.614C208.404 135.752 209.4 135.054 211.258 134.555C211.491 134.488 211.723 134.455 211.922 134.355C212.719 133.99 213.183 133.192 213.515 132.427C214.046 131.296 214.345 130.066 215.042 129.035C216.502 126.808 219.091 126.907 219.92 129.567C220.75 132.227 219.721 135.187 217.962 137.215C217.099 138.212 216.037 139.143 214.776 139.576C213.681 139.975 212.719 139.842 211.657 139.376C210.893 139.044 209.499 138.379 209.3 137.514C209.168 136.882 208.205 137.148 208.338 137.78C208.703 139.509 211.292 140.573 212.851 140.806C214.544 141.072 216.137 140.241 217.431 139.177C220.319 136.783 222.111 132.56 220.717 128.902C219.223 124.946 215.175 126.409 213.681 129.534C213.216 130.498 212.984 132.128 212.221 132.826C211.258 133.724 210.03 133.391 209.035 134.089C207.641 135.087 207.774 136.849 208.471 138.212C208.769 138.711 209.632 138.212 209.334 137.614Z" fill="black"/>
<path d="M208.67 136.584C213.814 136.451 216.303 131.663 217.431 127.274C217.597 126.642 216.635 126.376 216.469 127.008C215.473 130.931 213.316 135.453 208.67 135.586C208.039 135.619 208.039 136.617 208.67 136.584Z" fill="black"/>
<path d="M195.03 124.979C194.432 125.311 190.815 121.354 189.288 116.068C188.16 112.211 188.492 108.786 188.89 106.625C189.454 104.896 190.251 103.034 191.346 101.138C196.058 93.0253 203.492 89.2015 207.342 87.5723C206.546 88.337 205.616 89.3345 204.754 90.598C203.559 92.2605 202.796 93.8233 202.298 95.12C203.426 94.1558 204.72 93.1915 206.114 92.2605C209.234 90.1658 212.254 88.6695 214.876 87.6055C214.478 89.3013 214.046 90.997 213.648 92.6595C214.577 92.1275 215.871 91.3628 217.464 90.598C219.223 89.7668 222.841 88.0378 223.405 88.8025C223.571 89.0353 223.372 89.3013 223.073 90.2655C222.675 91.529 222.542 92.593 222.476 93.2913C223.505 93.125 224.666 92.992 225.927 92.9588C227.321 92.8923 228.582 92.9588 229.711 93.0585C229.312 94.588 228.914 96.0843 228.516 97.6138C229.312 97.913 230.441 98.4783 231.602 99.4093C234.722 101.97 235.618 105.428 235.85 106.791C236.348 110.049 235.552 112.776 234.954 114.272C233.361 110.881 230.208 109.551 228.416 110.382C227.321 110.881 226.06 112.477 226.193 114.106C226.226 114.472 226.325 114.804 226.425 115.037C225.263 113.973 223.505 112.543 221.215 111.213C218.925 109.883 216.369 108.387 212.984 107.955C206.612 107.123 201.634 110.615 200.306 111.579C198.249 113.042 194.897 115.403 194.3 119.16C193.702 122.319 195.494 124.746 195.03 124.979Z" fill="#2B2B2B"/>
<path opacity="0.11" d="M220.285 110.382C221.314 112.709 222.708 116.333 223.471 120.889C224.268 125.411 225.263 131.229 222.841 137.68C222.011 139.874 220.053 144.097 215.407 148.054C216.502 148.021 218.394 147.821 220.385 146.757C223.637 145.061 225.064 142.235 225.496 141.238C227.056 142.767 229.146 145.161 230.739 148.553C231.635 150.448 232.2 152.21 232.531 153.673C233.428 152.875 235.087 151.146 235.85 148.42C236.149 147.356 236.248 146.391 236.248 145.593C234.324 144.529 233.096 143.233 232.399 142.401C232.1 142.036 229.146 138.312 229.312 133.158C229.379 131.296 229.777 131.263 230.076 128.403C230.341 125.843 230.208 123.682 230.076 122.252C231.768 122.95 232.631 122.618 233.029 122.385C233.793 121.919 233.992 121.088 234.689 116.865C235.054 114.604 235.253 113.474 235.319 112.875C235.717 109.65 235.917 108.021 235.717 106.724C235.153 103.033 232.797 100.573 232 99.8082C230.673 98.5115 229.312 97.78 228.416 97.381C228.814 95.9845 229.18 94.5547 229.578 93.1582C227.686 95.386 225.927 96.9155 224.732 97.913C221.746 100.307 220.02 100.872 217.962 103.166C216.336 104.962 215.407 106.791 214.876 108.021C216.701 108.852 218.493 109.617 220.285 110.382Z" fill="#494949"/>
<path opacity="0.17" d="M207.906 88.7031C206.712 89.0024 203.891 89.9334 201.534 92.5601C200.97 93.2251 199.643 94.8211 198.913 97.3149C198.116 100.041 198.415 102.369 198.647 103.499C199.245 100.806 200.638 96.5169 204.024 92.4604C205.318 90.8976 206.679 89.6341 207.906 88.7031Z" fill="#494949"/>
<path opacity="0.08" d="M230.076 122.418C229.976 122.385 229.777 122.75 229.047 125.277C228.051 128.702 227.52 131.229 227.221 132.493C226.79 134.321 226.06 136.915 224.699 140.04C227.056 140.506 229.412 140.971 231.768 141.404C230.905 139.508 229.876 136.782 229.478 133.39C228.848 127.572 230.407 122.484 230.076 122.418Z" fill="#494949"/>
</svg>
