<svg width="505" height="400" viewBox="0 0 505 400" fill="none" xmlns="http://www.w3.org/2000/svg">
<g clip-path="url(#clip0_5589_11015)">
<path d="M42.5603 367.393C67.4498 358.569 94.025 362.657 119.146 368.198C131.825 371.003 144.505 374.165 157.364 376.194C169.965 378.136 182.664 379.381 195.403 379.923C210.283 380.669 225.185 380.669 240.08 380.729C240.228 380.729 240.371 380.67 240.476 380.565C240.581 380.46 240.639 380.318 240.639 380.169C240.639 380.021 240.581 379.879 240.476 379.774C240.371 379.669 240.228 379.61 240.08 379.61C213.035 379.528 185.841 379.461 159.049 375.321C133.541 371.376 108.771 362.933 82.9041 361.329C69.1429 360.479 55.3072 361.665 42.2322 366.289C41.5534 366.528 41.8443 367.609 42.5305 367.37L42.5603 367.393Z" fill="#E8E8E8"/>
<path d="M169.446 361.701C184.983 366.482 201.228 367.243 217.376 367.198C234.615 367.144 251.854 366.83 269.094 366.259C286.51 365.662 303.918 364.588 321.222 362.477C337.855 360.441 354.361 357.547 370.889 354.869C390.64 351.662 410.472 348.805 430.484 348.037C431.23 348.037 431.23 346.896 430.484 346.918C396.763 348.216 363.751 355.488 330.426 360.142C295.706 364.998 260.68 365.572 225.685 366.005C206.889 366.236 187.877 366.206 169.745 360.62C169.051 360.411 168.76 361.485 169.446 361.701Z" fill="#E8E8E8"/>
<path d="M236.925 390.232C287.04 397.317 336.751 385.011 386.441 380.155C400.879 378.648 415.398 378.075 429.91 378.44C430.058 378.44 430.201 378.381 430.305 378.276C430.41 378.171 430.469 378.029 430.469 377.88C430.469 377.732 430.41 377.59 430.305 377.485C430.201 377.38 430.058 377.321 429.91 377.321C379.78 375.769 330.822 389.083 280.909 391.082C266.318 391.752 251.697 391.106 237.223 389.15C236.522 389.053 236.216 390.127 236.925 390.232Z" fill="#E8E8E8"/>
<path d="M239.894 341.199C262.896 349.098 287.472 348.061 311.236 344.861C336.901 341.401 362.178 336.657 388.142 335.792C403.034 335.334 417.94 335.765 432.782 337.082C433.527 337.142 433.527 336.023 432.782 335.963C407.222 333.692 381.496 334.08 356.017 337.119C331.277 340.103 306.79 345.839 281.796 346.167C267.677 346.346 253.58 344.72 240.192 340.125C239.506 339.887 239.215 340.968 239.894 341.199Z" fill="#E8E8E8"/>
<path d="M42.8361 255.171C49.3624 288.608 70.0975 316.488 90.206 343.078C90.6311 343.645 91.6082 343.078 91.1756 342.511C71.1193 315.996 50.4216 288.22 43.9102 254.872C43.7759 254.171 42.6944 254.47 42.8361 255.171Z" fill="#E8E8E8"/>
<path d="M44.8278 255.686C49.7277 253.417 55.0406 252.175 60.4387 252.039C66.1893 251.927 71.6267 253.433 77.2207 254.686C87.2102 256.901 97.4683 257.655 107.674 256.924C108.42 256.879 108.42 255.76 107.674 255.805C95.4272 256.648 83.8738 254.947 71.9549 252.285C62.4302 250.159 53.2113 250.629 44.2609 254.701C43.6046 255 44.1714 255.962 44.8278 255.663V255.686Z" fill="#E8E8E8"/>
<path d="M80.6216 255.297C90.9817 251.911 100.014 245.646 109.986 241.461C121.248 236.813 133.42 234.79 145.579 235.547C146.325 235.591 146.325 234.473 145.579 234.428C133.989 233.717 122.382 235.497 111.538 239.649C100.812 243.811 91.3322 250.643 80.3606 254.223C79.6744 254.447 79.9653 255.528 80.6589 255.304L80.6216 255.297Z" fill="#E8E8E8"/>
<path d="M91.6307 343.242C119.497 338.673 145.36 325.875 165.896 306.493C166.419 305.993 165.628 305.203 165.106 305.702C144.707 324.954 119.018 337.666 91.3399 342.205C90.594 342.317 90.9296 343.398 91.6307 343.279V343.242Z" fill="#E8E8E8"/>
<path d="M144.565 235.182C158.326 256.066 169.327 280.12 165.799 305.703C165.702 306.404 166.776 306.71 166.873 306.001C170.454 280.09 159.482 255.76 145.534 234.622C145.139 234.026 144.169 234.585 144.565 235.182Z" fill="#E8E8E8"/>
<path d="M97.2918 280.105C110.348 277.568 123.773 277.586 136.823 280.157C137.524 280.299 137.822 279.217 137.121 279.083C123.865 276.464 110.227 276.444 96.9637 279.023C96.2178 279.165 96.5534 280.239 97.262 280.105H97.2918Z" fill="#E8E8E8"/>
<path d="M153.299 247.145C156.894 247.481 160.161 246.578 163.651 245.825C167.781 244.935 171.982 244.418 176.204 244.281C184.27 244.04 192.321 245.139 200.027 247.533C200.721 247.742 201.012 246.66 200.325 246.452C189.669 243.096 178.379 242.259 167.343 244.005C162.682 244.751 158.072 246.474 153.314 246.026C152.568 245.959 152.605 247.078 153.314 247.145H153.299Z" fill="#E8E8E8"/>
<path d="M142.282 324.915C154.207 325.099 166.124 324.21 177.89 322.26C183.976 321.238 190.017 319.933 195.977 318.344C200.273 317.188 204.427 315.965 207.709 312.825C208.224 312.325 207.433 311.535 206.911 312.034C202.988 315.764 197.342 316.882 192.233 318.15C186.927 319.458 181.577 320.545 176.182 321.41C164.971 323.177 153.629 323.976 142.282 323.797C142.134 323.797 141.991 323.856 141.886 323.96C141.782 324.065 141.723 324.208 141.723 324.356C141.723 324.504 141.782 324.647 141.886 324.752C141.991 324.857 142.134 324.915 142.282 324.915Z" fill="#E8E8E8"/>
<path d="M199.669 247.332C204.938 257.864 207.818 269.429 208.105 281.202C208.344 292.248 204.055 303.473 206.203 314.408C206.345 315.109 207.419 314.81 207.284 314.109C205.919 307.173 207.598 300.445 208.515 293.576C209.243 288.195 209.42 282.755 209.045 277.338C208.268 266.693 205.412 256.304 200.639 246.758C200.318 246.109 199.348 246.676 199.669 247.317V247.332Z" fill="#E8E8E8"/>
<path d="M170.834 281.978C179.832 276.353 189.406 271.707 199.393 268.12C200.065 267.881 199.774 266.799 199.095 267.038C189.013 270.664 179.348 275.36 170.267 281.045C169.656 281.426 170.215 282.395 170.834 282.015V281.978Z" fill="#E8E8E8"/>
<path d="M340.108 231.624C332.693 249.478 328.451 268.489 327.57 287.802C327.533 288.548 328.652 288.548 328.689 287.802C329.581 268.59 333.816 249.68 341.204 231.922C341.48 231.258 340.391 230.967 340.123 231.624H340.108Z" fill="#E8E8E8"/>
<path d="M340.317 232.899C362.952 226.677 386.963 227.665 409.011 235.725C409.682 235.972 409.973 234.89 409.302 234.644C387.064 226.531 362.851 225.542 340.026 231.817C339.882 231.856 339.76 231.95 339.686 232.078C339.612 232.207 339.592 232.36 339.631 232.503C339.669 232.647 339.763 232.769 339.892 232.843C340.02 232.917 340.173 232.937 340.317 232.899Z" fill="#E8E8E8"/>
<path d="M327.988 289.466C350.383 301.131 376.473 303.502 400.605 296.067C401.291 295.858 401 294.776 400.314 294.993C376.471 302.349 350.691 300.018 328.554 288.504C327.913 288.168 327.346 289.13 327.988 289.466Z" fill="#E8E8E8"/>
<path d="M409.615 235.548C410.07 256.738 401.91 276.742 399.605 297.611C399.523 298.32 400.642 298.32 400.724 297.611C403.029 276.727 411.166 256.745 410.734 235.548C410.734 235.399 410.675 235.257 410.57 235.152C410.465 235.047 410.323 234.988 410.174 234.988C410.026 234.988 409.884 235.047 409.779 235.152C409.674 235.257 409.615 235.399 409.615 235.548Z" fill="#E8E8E8"/>
<path d="M353.049 274.899C362.253 267.186 372.484 260.79 383.45 255.895C384.106 255.596 383.532 254.634 382.883 254.925C371.836 259.872 361.53 266.328 352.258 274.109C351.706 274.571 352.497 275.362 353.049 274.899Z" fill="#E8E8E8"/>
<path d="M374.731 228.087C376.211 221.622 378.695 215.428 382.092 209.732C382.157 209.605 382.171 209.458 382.131 209.321C382.091 209.184 382.001 209.068 381.878 208.995C381.755 208.923 381.61 208.9 381.471 208.932C381.332 208.963 381.21 209.047 381.13 209.165C377.68 214.95 375.163 221.243 373.672 227.811C373.508 228.505 374.589 228.811 374.746 228.102L374.731 228.087Z" fill="#E8E8E8"/>
<path d="M383.07 210.531C409.387 207.334 436.059 212.094 459.648 224.195C460.282 224.523 460.848 223.554 460.207 223.225C436.448 211.03 409.582 206.229 383.07 209.442C382.324 209.531 382.324 210.65 383.07 210.561V210.531Z" fill="#E8E8E8"/>
<path d="M459.729 224.932C454.935 248.573 447.408 271.575 437.301 293.477C437.003 294.126 437.965 294.693 438.271 294.044C448.422 272.056 455.983 248.964 460.803 225.231C460.953 224.53 459.871 224.224 459.729 224.932Z" fill="#E8E8E8"/>
<path d="M348.745 299.259C353.153 303.532 359.008 304.882 364.885 305.919C372.301 307.222 379.797 308.017 387.321 308.298C402.808 308.845 418.296 307.238 433.341 303.525C434.042 303.353 433.744 302.279 433.042 302.451C419.007 305.912 404.579 307.53 390.125 307.262C382.698 307.112 375.289 306.457 367.951 305.3C361.447 304.271 354.451 303.234 349.536 298.468C349.013 297.968 348.223 298.759 348.745 299.259Z" fill="#E8E8E8"/>
<path d="M407.474 262.085C413.479 254.297 421.611 248.414 430.887 245.147C431.558 244.908 431.267 243.827 430.589 244.065C421.123 247.378 412.82 253.362 406.684 261.295C406.244 261.854 407.034 262.652 407.474 262.085Z" fill="#E8E8E8"/>
<path d="M49.3625 138.904C76.318 126.814 104.101 143.603 129.841 150.756C156.692 158.215 184.849 155.813 212.028 151.8C212.737 151.696 212.431 150.622 211.73 150.726C182.253 155.075 152.262 157.036 123.509 147.661C99.7232 139.911 73.7448 126.777 48.7956 137.965C48.1392 138.256 48.7061 139.225 49.3625 138.927V138.904Z" fill="#E8E8E8"/>
<path d="M164.509 126.524C221.471 150.585 282.304 126.233 339.37 116.007C357.188 112.815 375.253 110.95 393.363 111.972C394.109 112.009 394.109 110.89 393.363 110.853C332.202 107.407 275.069 137.294 214.079 135.571C197.29 135.101 180.59 132.11 165.076 125.561C164.42 125.286 163.845 126.248 164.509 126.524Z" fill="#E8E8E8"/>
<path d="M290.583 161.707C319.567 155.039 348.641 148.677 378.542 149.027C405.393 149.355 433.348 152.712 458.454 140.957C459.103 140.651 458.536 139.689 457.887 139.995C431.611 152.294 402.171 147.804 374.172 147.886C345.709 147.961 317.874 154.248 290.277 160.603C289.576 160.767 289.874 161.849 290.575 161.685L290.583 161.707Z" fill="#E8E8E8"/>
<path d="M61.2294 7.15578C83.0011 23.2441 109.196 31.5903 135.197 37.9898C161.221 44.3878 187.747 48.5376 214.482 50.3935C268.422 54.1716 322.612 48.772 374.746 34.4246C403.891 26.377 432.173 15.4822 459.185 1.89743C459.834 1.56925 459.267 0.60709 458.626 0.927811C410.427 25.0723 358.405 40.671 304.873 47.0297C251.718 53.4494 197.859 50.8267 145.579 39.2727C116.304 32.7613 86.2233 24.2435 61.7962 6.18615C61.2144 5.76101 60.6625 6.73063 61.2294 7.15578Z" fill="#E8E8E8"/>
<path d="M100.082 47.4332C94.5323 44.9196 93.4582 38.3336 96.1135 33.2617C98.7688 28.1899 105.444 27.6081 109.927 30.5244C113.955 33.1499 115.409 38.5499 113.768 42.9356C113.335 44.1602 112.63 45.2709 111.707 46.1842C110.783 47.0975 109.665 47.7897 108.435 48.2089C105.705 49.0368 100.723 48.8205 98.545 46.8365C98.008 46.3517 97.2174 47.1423 97.7544 47.6271C101.969 51.4683 110.3 50.26 113.552 45.7326C116.998 40.9516 115.909 33.8584 111.314 30.1888C106.891 26.6235 99.179 26.5191 95.763 31.5537C91.9665 37.1477 93.0107 45.5088 99.4923 48.4401C100.141 48.731 100.708 47.7688 100.052 47.4704L100.082 47.4332Z" fill="#E8E8E8"/>
<path d="M156.767 58.3213C156.767 53.5552 158.453 48.4759 162.891 46.0966C168.596 43.0087 175.488 46.4173 175.861 53.0331C176.488 64.2211 160.854 68.8305 156.058 58.3362C155.76 57.6798 154.798 58.2542 155.096 58.9031C160.616 70.9786 178.964 64.6238 176.838 51.8323C176.651 50.5033 176.182 49.2297 175.462 48.0973C174.742 46.9648 173.788 45.9997 172.663 45.2669C171.539 44.5341 170.271 44.0506 168.944 43.8489C167.617 43.6472 166.263 43.732 164.971 44.0977C158.527 45.7013 155.656 52.1977 155.611 58.3213C155.611 58.4696 155.67 58.6119 155.775 58.7168C155.88 58.8217 156.022 58.8807 156.17 58.8807C156.319 58.8807 156.461 58.8217 156.566 58.7168C156.671 58.6119 156.73 58.4696 156.73 58.3213H156.767Z" fill="#E8E8E8"/>
<path d="M224.872 65.4144C222.202 60.0665 224.245 53.1524 230.205 51.146C235.769 49.2739 241.862 52.3692 242.84 58.3212C244.749 69.8672 228.668 75.0882 223.544 64.5343C223.231 63.8854 222.269 64.4522 222.582 65.1011C225.066 70.2476 231.241 73.0669 236.701 70.9189C242.541 68.6291 245.935 61.2226 243.22 55.4198C240.699 50.0272 234.038 48.073 228.765 50.5269C222.835 53.2941 221.105 60.3649 223.902 65.9812C224.223 66.6227 225.192 66.0558 224.872 65.4144Z" fill="#E8E8E8"/>
<path d="M291.515 62.051C283.564 52.5786 302.002 42.942 306.797 53.2349C308.64 57.188 306.797 61.9839 303.195 64.2513C298.906 66.929 293.558 65.5939 290.515 61.6781C290.083 61.1187 289.113 61.6781 289.553 62.245C292.917 66.6083 298.891 68.279 303.724 65.2284C308.2 62.3867 310.273 56.0468 307.073 51.4747C300.174 41.6069 282.251 52.765 290.664 62.8566C291.127 63.4085 291.91 62.6179 291.455 62.066L291.515 62.051Z" fill="#E8E8E8"/>
<path d="M352.832 54.033C342.435 49.2296 355.913 33.8052 364.296 41.2936C366.044 42.8084 367.128 44.9485 367.315 47.254C367.502 49.5595 366.777 51.8462 365.296 53.6228C361.842 57.6877 356.122 57.7176 352.228 54.2418C351.691 53.757 350.901 54.5477 351.438 55.0325C355.756 58.896 362.29 58.9855 366.176 54.391C367.849 52.3638 368.664 49.7628 368.447 47.1432C368.229 44.5235 366.997 42.0925 365.012 40.3688C355.368 32.0002 340.399 49.5056 352.265 55.0026C352.914 55.301 353.489 54.3388 352.832 54.033Z" fill="#E8E8E8"/>
<path d="M400.321 36.4014C395.712 27.1005 409.928 17.8517 416.26 25.8325C419.244 29.5618 417.849 35.9017 414.023 38.46C410.89 40.5409 402.216 41.5404 400.523 36.7818C400.276 36.1105 399.195 36.4014 399.441 37.0801C401.134 41.8238 408.742 41.9804 412.665 40.4141C413.965 39.8706 415.139 39.0679 416.118 38.0549C417.097 37.042 417.858 35.8402 418.357 34.5229C418.855 33.2057 419.08 31.8006 419.017 30.3936C418.954 28.9866 418.605 27.6072 417.991 26.3397C415.582 21.5288 408.929 21.1186 404.565 23.0877C399.158 25.5565 396.756 31.6129 399.411 36.9608C399.732 37.6097 400.694 37.0428 400.373 36.4014H400.321Z" fill="#E8E8E8"/>
<path d="M444.119 21.0656C437.563 9.42262 458.656 -0.788263 461.08 11.25C461.826 15.1285 460.177 19.8945 457.395 22.6617C452.756 27.2637 446.401 25.0112 442.933 20.2004C442.515 19.6186 441.546 20.2004 441.971 20.7672C445.603 25.8167 451.928 28.5018 457.283 24.2579C461.348 21.0283 463.944 13.8158 461.55 8.91543C458.835 3.39603 451.712 3.85847 447.326 6.87176C442.299 10.3326 440.017 16.0757 443.142 21.625C443.216 21.7535 443.338 21.8474 443.481 21.8858C443.625 21.9243 443.778 21.9042 443.906 21.8301C444.035 21.7559 444.129 21.6337 444.167 21.4903C444.206 21.3469 444.186 21.1941 444.111 21.0656H444.119Z" fill="#E8E8E8"/>
<path d="M105.988 105.618C108.143 105.618 109.889 103.872 109.889 101.717C109.889 99.5629 108.143 97.8164 105.988 97.8164C103.834 97.8164 102.088 99.5629 102.088 101.717C102.088 103.872 103.834 105.618 105.988 105.618Z" fill="#606161"/>
<path d="M242.825 19.9098C244.646 19.9098 246.122 18.4339 246.122 16.6131C246.122 14.7924 244.646 13.3164 242.825 13.3164C241.004 13.3164 239.528 14.7924 239.528 16.6131C239.528 18.4339 241.004 19.9098 242.825 19.9098Z" fill="#606161"/>
<path d="M277.769 110.965C279.243 110.965 280.439 109.77 280.439 108.295C280.439 106.82 279.243 105.625 277.769 105.625C276.294 105.625 275.098 106.82 275.098 108.295C275.098 109.77 276.294 110.965 277.769 110.965Z" stroke="#606161" stroke-miterlimit="10"/>
<path d="M455.978 310.267C458.161 310.267 459.931 308.498 459.931 306.314C459.931 304.131 458.161 302.361 455.978 302.361C453.795 302.361 452.025 304.131 452.025 306.314C452.025 308.498 453.795 310.267 455.978 310.267Z" fill="#606161"/>
<path d="M101.566 219.951C104.008 219.951 105.989 217.971 105.989 215.528C105.989 213.086 104.008 211.105 101.566 211.105C99.1229 211.105 97.1427 213.086 97.1427 215.528C97.1427 217.971 99.1229 219.951 101.566 219.951Z" stroke="#606161" stroke-miterlimit="10"/>
<path d="M104.624 177.653C106.313 177.653 107.682 176.284 107.682 174.595C107.682 172.906 106.313 171.537 104.624 171.537C102.935 171.537 101.566 172.906 101.566 174.595C101.566 176.284 102.935 177.653 104.624 177.653Z" fill="#00A79D"/>
<path d="M391.013 76.0294C392.377 76.0294 393.482 74.9241 393.482 73.5606C393.482 72.1971 392.377 71.0918 391.013 71.0918C389.65 71.0918 388.544 72.1971 388.544 73.5606C388.544 74.9241 389.65 76.0294 391.013 76.0294Z" fill="#00A79D"/>
<path d="M205.196 23.6024C207.124 23.6024 208.686 22.0396 208.686 20.1117C208.686 18.1839 207.124 16.6211 205.196 16.6211C203.268 16.6211 201.705 18.1839 201.705 20.1117C201.705 22.0396 203.268 23.6024 205.196 23.6024Z" stroke="#00A79D" stroke-miterlimit="10"/>
<path d="M321.834 183.925C323.569 183.925 324.974 182.519 324.974 180.785C324.974 179.05 323.569 177.645 321.834 177.645C320.1 177.645 318.694 179.05 318.694 180.785C318.694 182.519 320.1 183.925 321.834 183.925Z" stroke="#00A79D" stroke-miterlimit="10"/>
<path d="M97.5676 154.284C97.8644 154.284 98.1489 154.167 98.3588 153.957C98.5686 153.747 98.6864 153.462 98.6864 153.166C98.6864 152.869 98.5686 152.584 98.3588 152.375C98.1489 152.165 97.8644 152.047 97.5676 152.047C97.2709 152.047 96.9864 152.165 96.7765 152.375C96.5667 152.584 96.4489 152.869 96.4489 153.166C96.4489 153.462 96.5667 153.747 96.7765 153.957C96.9864 154.167 97.2709 154.284 97.5676 154.284Z" fill="#00A79D"/>
<path d="M118.497 72.7541C119.026 69.629 124.464 72.7541 126.254 72.4334C127.678 72.2022 127.835 71.4563 128.879 70.6359L131.616 69.0845C132.407 69.3828 133.19 69.711 133.951 70.0765C134.308 70.2259 134.678 70.3456 135.055 70.4345C137.449 70.7776 139.813 69.4127 142.133 70.9491C142.737 71.3519 143.297 70.3823 142.7 69.987C140.582 68.5847 139.716 68.6146 137.397 68.7265C131.736 69.0024 135.159 68.8533 132.802 68.3237C132.254 68.1088 131.68 67.9659 131.094 67.8986C130.54 67.8937 129.995 68.0435 129.52 68.3312C128.618 68.8682 128.297 70.1361 127.462 70.621C125.269 71.9113 123.024 70.1436 120.906 69.9795C119.101 69.8378 117.728 70.6359 117.415 72.4558C117.296 73.2016 118.37 73.4627 118.497 72.7541Z" fill="#00A79D"/>
<path d="M130.722 76.633C133.705 71.7998 136.375 78.1247 139.433 76.0214C140.843 75.0667 139.761 73.8733 142.775 74.9026C143.371 75.104 143.886 75.7454 144.468 75.9916C144.912 76.2394 145.414 76.3626 145.922 76.3481C146.43 76.3337 146.925 76.1822 147.354 75.9095C147.988 75.5664 147.421 74.5968 146.787 74.9399C144.774 76.0363 143.177 73.038 141.238 73.2468C139.799 73.4034 140.791 73.6346 139.605 74.0672C139.023 75.1761 138.009 75.2979 136.562 74.4327C136.427 74.3184 136.277 74.2253 136.114 74.1567C133.548 73.3512 131.303 73.5526 129.752 76.0662C129.372 76.6852 130.341 77.2446 130.722 76.633Z" fill="#00A79D"/>
<path d="M256.108 145.246C251.29 140.707 247.215 135.439 244.033 129.635C243.682 129.001 242.72 129.567 243.071 130.201C246.299 136.091 250.431 141.437 255.318 146.044C255.84 146.536 256.638 145.745 256.108 145.253V145.246Z" fill="#00A79D"/>
<path d="M260.099 141.912C258.741 135.112 258.064 128.193 258.078 121.259C258.078 121.11 258.019 120.968 257.914 120.863C257.809 120.758 257.667 120.699 257.518 120.699C257.37 120.699 257.228 120.758 257.123 120.863C257.018 120.968 256.959 121.11 256.959 121.259C256.95 128.293 257.64 135.312 259.018 142.21C259.159 142.919 260.241 142.62 260.099 141.912Z" fill="#00A79D"/>
<path d="M265.268 140.755L274.964 127.419C275.389 126.837 274.42 126.278 273.995 126.852L264.298 140.188C263.873 140.777 264.843 141.337 265.261 140.755H265.268Z" fill="#00A79D"/>
<path d="M259.98 68.5258C259.816 65.3558 263.515 67.4815 264.776 67.3025C265.76 67.1608 266.267 66.3851 267.013 65.9152C269.534 64.4235 270.668 65.684 272.898 65.9973C274.703 66.2509 277.06 64.0282 278.641 65.602C279.148 66.1092 279.939 65.3185 279.432 64.8039C277.858 63.245 276.844 64.3042 274.957 64.4981C272.271 64.7815 270.049 62.5961 267.587 63.9909C266.155 64.7964 265.186 65.9451 263.269 65.8556C262.172 65.8108 262.262 65.0575 261.076 65.2813C259.45 65.5945 258.764 67.034 258.838 68.5258C258.876 69.2716 259.995 69.2716 259.957 68.5258H259.98Z" fill="#00A79D"/>
<path d="M271.705 71.3082C271.876 70.6891 275.516 70.6742 275.889 70.6593C276.038 70.6593 276.18 70.9054 276.359 70.8905C277.709 70.8308 278.596 70.1446 279.939 69.9955C282.602 69.7419 284.959 71.1739 287.636 70.5101C288.337 70.3386 288.039 69.2645 287.338 69.4361C284.936 70.0253 282.975 68.7424 280.625 68.638C278.738 68.556 277.336 69.4361 275.441 68.8841C273.316 68.2725 271.317 68.5037 270.608 71.0099C270.569 71.1533 270.588 71.3065 270.661 71.4359C270.734 71.5653 270.856 71.6602 271 71.6998C271.143 71.7393 271.296 71.7203 271.426 71.6469C271.555 71.5734 271.65 71.4516 271.69 71.3082H271.705Z" fill="#00A79D"/>
<path d="M434.922 167.942C436.712 168.017 435.951 172.925 437.816 174.059C439.681 175.192 440.568 174.364 441.545 177.266C442.239 179.287 442.478 181.689 442.918 183.777C443.067 184.478 444.141 184.18 443.992 183.479C443.477 181.032 443.365 177.743 442.269 175.498C441.62 174.17 441.098 174.111 439.882 173.544L438.816 173.268C438.308 172.842 437.915 172.297 437.671 171.681C437.428 171.065 437.342 170.398 437.421 169.74C437.358 169.179 437.218 168.629 437.003 168.107C436.816 167.71 436.518 167.378 436.144 167.15C435.77 166.922 435.337 166.808 434.9 166.824C434.154 166.824 434.154 167.913 434.9 167.942H434.922Z" fill="#00A79D"/>
<path d="M444.619 169.247C443.664 170.694 442.508 172.656 443.276 174.468C443.621 175.125 444.136 175.676 444.768 176.064C446.625 177.556 447.751 179.13 447.885 181.576C447.923 182.322 449.041 182.322 449.004 181.576C448.964 179.969 448.445 178.411 447.512 177.101C447.003 176.518 446.452 175.972 445.864 175.468C443.806 173.394 444.283 171.865 445.611 169.859C446.006 169.255 445.036 168.695 444.641 169.292L444.619 169.247Z" fill="#00A79D"/>
<path d="M312.72 342.407C281.082 355.361 245.62 355.361 213.982 342.407V253.984H312.72V342.407Z" fill="white" stroke="#3B3B3B" stroke-miterlimit="10"/>
<path d="M312.72 253.851C312.779 258.214 286.868 263.107 263.933 263.234C239.834 263.376 213.102 258.281 213.162 253.851C213.221 249.42 240.759 245.512 263.075 245.52C285.391 245.527 312.653 249.376 312.72 253.851Z" fill="white" stroke="#3B3B3B" stroke-miterlimit="10"/>
<path d="M267.163 218.287H258.376C256.811 218.287 255.542 219.556 255.542 221.121V250.009C255.542 251.574 256.811 252.843 258.376 252.843H267.163C268.728 252.843 269.997 251.574 269.997 250.009V221.121C269.997 219.556 268.728 218.287 267.163 218.287Z" fill="#606161"/>
<path d="M262.933 209.404H262.188C261.248 209.404 260.487 210.166 260.487 211.105V219.787C260.487 220.726 261.248 221.487 262.188 221.487H262.933C263.873 221.487 264.634 220.726 264.634 219.787V211.105C264.634 210.166 263.873 209.404 262.933 209.404Z" fill="#606161"/>
<path d="M264.634 207.891H260.487V211.105H264.634V207.891Z" fill="white" stroke="#3B3B3B" stroke-miterlimit="10"/>
<path d="M269.997 227.879H255.542V239.604H269.997V227.879Z" fill="white" stroke="#3B3B3B" stroke-miterlimit="10"/>
<path d="M121.882 335.315L110.813 332.436C96.5575 342.549 89.0317 347.124 88.2361 346.159C87.3212 345.046 95.3641 336.56 112.365 320.703L130.079 328.453L121.882 335.315Z" fill="#3B3B3B"/>
<path d="M105.421 255.269C104.198 258.14 105.316 263.473 107.614 274.05C109.105 281.053 109.985 284.977 111.388 289.303C113.506 295.866 118.332 307.882 129.855 321.733C128.127 322.761 126.525 323.987 125.082 325.388C118.115 332.1 116.877 341.051 116.609 344.698C119.838 345.921 124.627 347.681 130.504 349.539C142.02 353.208 149.651 355.64 158.802 356.595C167.737 357.491 176.758 356.926 185.512 354.924C188.031 353.978 190.32 352.506 192.224 350.605C193.216 349.613 197.252 345.436 197.52 339.365C197.662 336.165 196.483 333.562 194.126 328.49C192.001 323.926 190.479 321.778 187.63 316.974C183.199 309.516 183.446 308.859 179.948 302.907C176.789 297.626 173.322 292.535 169.565 287.662C164.523 280.867 162.256 278.503 152.999 267.464C137.575 249.078 137.09 247.586 133.242 246.244C122.889 242.619 108.829 247.228 105.421 255.269Z" fill="white"/>
<path opacity="0.19" d="M106.092 253.986C105.287 258.803 105.101 263.704 105.54 268.568C106.212 275.915 108.128 280.845 111.41 289.303C116.922 303.527 122.837 312.253 124.194 314.222C126.432 317.437 128.423 319.988 129.878 321.733C128.152 322.764 126.55 323.991 125.104 325.388C117.929 332.287 116.698 341.461 116.422 345.191C125.052 348.234 132.354 350.315 137.62 351.687C148.406 354.396 159.411 356.143 170.505 356.908C178.24 357.453 183.386 357.333 188.003 354.051C188.846 353.455 193.291 350.322 194.045 345.944C195.708 336.248 178.292 325.731 173.727 322.822C158.579 313.312 136.531 294.531 106.092 253.986Z" fill="#9E9E9E"/>
<path d="M151.008 268.314C157.333 272.23 161.853 278.413 166.298 284.246C170.405 289.631 174.299 295.178 177.978 300.886C181.902 306.958 185.564 313.19 188.965 319.585C190.457 322.375 191.894 325.191 193.276 328.036C194.969 331.534 197.147 335.345 196.946 339.365C196.588 346.623 190.345 353.581 183.371 354.76C175.771 356.035 167.865 356.886 160.16 356.177C145.287 354.805 130.758 349.032 116.571 344.676C115.885 344.467 115.587 345.549 116.273 345.757C129.05 349.681 141.923 354.499 155.155 356.647C161.184 357.601 167.312 357.767 173.384 357.139C178.344 356.662 184.885 356.684 189.241 354.029C192.702 351.933 195.447 347.644 196.953 343.997C198.818 339.477 197.863 335.33 195.924 331.012C190.566 319.334 184.268 308.112 177.091 297.455C173.317 291.767 169.321 286.232 165.105 280.852C161.137 275.825 157.102 270.776 151.59 267.345C150.971 266.964 150.411 267.934 151.023 268.314H151.008Z" fill="#3B3B3B"/>
<path d="M117.168 344.698C117.653 341.006 118.175 337.239 119.503 333.734C121.181 329.333 124.179 326.551 128.088 324.038C128.692 323.65 128.132 322.68 127.528 323.075C123.762 325.485 120.733 328.088 118.899 332.264C117.176 336.18 116.601 340.469 116.049 344.69C115.952 345.436 117.079 345.392 117.168 344.69V344.698Z" fill="#3B3B3B"/>
<path d="M108.837 283.284C114.625 302.901 125.777 320.511 141.036 334.13C141.573 334.607 142.364 333.817 141.827 333.332C126.703 319.854 115.651 302.415 109.919 282.986C109.879 282.843 109.784 282.721 109.655 282.647C109.525 282.574 109.372 282.555 109.229 282.594C109.085 282.634 108.963 282.729 108.89 282.858C108.817 282.988 108.798 283.141 108.837 283.284Z" fill="#3B3B3B"/>
<path d="M89.8173 313.863L61.5639 300.527C39.6853 321.551 29.5142 333.002 31.0506 334.882C32.4081 336.538 42.8801 330.735 62.4664 317.473L85.7523 325.163L89.8173 313.863Z" fill="#3B3B3B"/>
<path d="M80.0241 247.347C79.6213 248.197 79.0395 249.435 78.3682 250.957C76.5476 254.909 75 258.981 73.7364 263.144C72.5627 267.94 72.1598 272.893 72.543 277.815C73.9154 293.046 86.431 303.861 89.1758 306.158C87.5405 306.95 86.0322 307.98 84.7006 309.216C82.5049 311.33 80.8432 313.935 79.8525 316.817C77.0257 324.156 78.5696 331.577 79.2484 334.262C82.0976 335.97 85.9611 338.245 90.7272 340.766C95.1353 343.123 101.811 346.524 123.105 355.355C141.893 363.09 147.495 364.955 155.61 364.821C158.033 364.784 160.451 364.574 162.845 364.194C165.923 361.951 168.548 359.144 170.579 355.922C173.053 351.929 174.583 347.424 175.055 342.75C176.062 334.546 173.906 328.176 172.399 323.88C170.909 319.613 168.892 315.549 166.395 311.782C155.483 295.149 141.11 278.964 132.384 268.201C127.953 262.756 121.748 254.731 114.863 244.408L80.0241 247.347Z" fill="white"/>
<path opacity="0.38" d="M82.3808 245.453C82.2389 248.851 82.4363 252.254 82.9701 255.612C85.3568 270.745 94.158 281.15 99.6178 287.207C128.177 318.749 148.785 322.307 157.176 345.615C159.331 351.687 160.382 358.096 160.279 364.538C154.778 364.23 149.311 363.482 143.93 362.3C135.501 360.458 129.639 358.064 118.951 353.7C117.064 352.955 109.098 349.65 98.4915 344.474C90.7121 340.678 84.2007 337.165 79.2333 334.383C77.1625 329.365 76.8802 323.787 78.4338 318.586C79.9874 313.385 83.2824 308.876 87.766 305.816C84.7831 302.454 82.1072 298.832 79.7703 294.993C76.8614 290.198 74.0346 284.298 72.8785 280.128C68.6719 265.077 79.8598 248.974 82.3808 245.453Z" fill="#9E9E9E"/>
<path d="M77.8835 250.673C74.7657 257.923 71.5287 265.523 71.6257 273.586C71.7152 280.985 74.5644 288.108 78.5622 294.239C82.9031 300.884 88.609 306.478 94.2925 311.953C101.413 318.8 108.541 325.637 115.676 332.464C116.198 332.964 116.989 332.173 116.467 331.674L98.1859 314.146C92.4576 308.649 86.5429 303.219 81.7769 296.849C77.3017 290.92 73.8185 284.058 72.9682 276.606C71.9464 267.656 75.4146 259.28 78.868 251.247C79.144 250.591 78.1818 250.024 77.8984 250.68L77.8835 250.673Z" fill="#3B3B3B"/>
<path d="M86.6025 306.68C82.6854 309.996 79.8434 314.401 78.4381 319.337C77.0329 324.273 77.1279 329.515 78.7112 334.396C78.935 335.075 80.0165 334.784 79.7927 334.098C78.2628 329.408 78.169 324.367 79.5231 319.623C80.8773 314.879 83.6178 310.647 87.3931 307.471C87.945 307.001 87.1544 306.218 86.6025 306.68Z" fill="#3B3B3B"/>
<path d="M133.398 271.214L151.299 292.844C157.131 299.9 163.083 306.963 167.603 314.966C176.128 330.078 178.896 351.991 162.785 363.306C162.203 363.716 162.785 364.686 163.352 364.268C177.657 354.221 178.008 335.179 171.556 320.419C167.678 311.513 161.689 303.771 155.572 296.305C148.472 287.638 141.297 279.038 134.151 270.401C133.696 269.849 132.906 270.647 133.361 271.199L133.398 271.214Z" fill="#3B3B3B"/>
<path d="M78.8905 334.799C92.0273 342.487 105.743 349.141 119.913 354.699C127.073 357.503 134.341 360.017 141.715 362.239C148.666 364.335 155.752 366.476 163.024 364.73C163.718 364.566 163.427 363.485 162.726 363.656C154.64 365.588 146.436 362.575 138.768 360.158C132.076 358.055 125.467 355.708 118.943 353.117C105.324 347.69 92.1317 341.245 79.4797 333.837C79.3535 333.78 79.2107 333.772 79.0788 333.814C78.9469 333.856 78.8353 333.946 78.7657 334.065C78.6961 334.185 78.6734 334.326 78.702 334.462C78.7305 334.597 78.8083 334.717 78.9203 334.799H78.8905Z" fill="#3B3B3B"/>
<path d="M142.743 156.525C145.378 157.534 147.737 159.152 149.628 161.246C152.156 164.103 152.969 167.057 153.715 169.525C156.094 177.461 151.865 160.963 159.682 186.039C161.621 192.267 163.792 199.427 166.104 207.393C169.258 205.981 172.297 204.328 175.196 202.448C176.772 201.474 178.282 200.398 179.716 199.226C183.885 195.772 184.296 193.848 187.436 191.334C189.54 189.67 191.942 188.422 194.514 187.657L195.603 181.743C194.091 181.243 192.722 180.388 191.611 179.248C190.5 178.108 189.679 176.718 189.218 175.194C189.534 172.073 190.067 168.977 190.814 165.93C192.061 160.823 193.888 155.876 196.259 151.185C197.305 150.526 198.44 150.024 199.631 149.693C201.182 149.283 203.725 148.947 210.52 151.185C216.025 152.997 218.777 153.907 219.672 155.779C220.298 157.107 220.037 159.329 219.5 163.767C219.353 165.557 219.057 167.331 218.613 169.07C217.755 172.054 216.517 174.142 214.563 177.349C212.982 179.93 212.191 181.228 211.497 181.825C208.186 184.711 203.076 184.114 200.145 183.473L197.236 189.723C198.353 191.063 199.247 192.574 199.884 194.199C200.72 196.324 200.831 197.965 201.018 201.172C201.273 204.307 201.163 207.461 200.69 210.57C200.123 214.143 199.78 216.269 198.549 216.664C196.222 217.41 192.582 211.346 192.366 211.04L188.062 229.15C190.53 229.737 192.827 230.889 194.775 232.514C195.839 233.406 196.784 234.431 197.587 235.564C181.178 234.45 172.973 233.262 172.973 231.999C172.973 231.139 176.66 230.249 184.035 229.329C185.482 223.297 186.926 217.263 188.368 211.227C185.013 214.289 181.821 217.525 178.806 220.923C175.547 224.607 173.391 226.703 169.11 230.88C167.493 232.517 165.559 233.806 163.426 234.669C161.886 235.394 160.187 235.712 158.489 235.594C156.102 235.325 154.163 233.893 152.261 231.73C148.315 227.255 146.891 222.325 145.503 218.096C141.968 207.341 141.55 209.892 136.836 195.929C134.144 187.985 132.794 183.995 132.63 181.713C132.309 177.372 132.809 168.19 142.743 156.525Z" fill="white"/>
<path opacity="0.21" d="M141.147 158.5C136.293 164.497 133.142 171.69 132.025 179.325C132.63 181.816 133.584 185.53 134.972 189.975C136.941 196.308 137.649 197.285 142.005 209.04C143.9 214.141 146.197 219.087 148.054 224.203C149.285 227.597 150.292 230.498 153.163 232.743C155.294 234.437 157.961 235.313 160.681 235.212C163.053 235.055 164.873 234.041 167.074 232.475C172.511 228.589 175.584 224.643 178.851 220.936C181.863 217.536 185.055 214.3 188.413 211.24C192.582 199.306 193.015 196.323 192.493 196.077C191.747 195.741 189.248 201.529 183.386 208.458C178.351 214.425 173.093 220.623 166.686 220.78C160.279 220.936 155.252 214.857 152.373 211.24C138.559 193.869 139.864 169.412 141.147 158.5Z" fill="#9E9E9E"/>
<path d="M189.33 173.97C191.287 172.908 193.5 172.412 195.722 172.538C201.734 173.008 204.501 178.624 207.082 177.558C209.513 176.543 207.701 171.285 211.065 167.369C213.302 164.796 216.696 164.005 219.478 163.789C219.51 165.158 219.387 166.527 219.113 167.869C218.479 171.031 217.151 173.187 214.541 177.371C212.728 180.258 211.796 181.72 210.684 182.451C208.35 183.942 205.784 183.98 203.397 183.987C201.24 184.059 199.088 183.731 197.05 183.017C195.372 182.406 190.956 180.78 189.666 176.819C189.376 175.899 189.262 174.932 189.33 173.97Z" fill="#00A79D"/>
<path d="M143.84 157.62C148.74 159.112 150.866 164.034 152.656 168.398C154.372 172.56 155.923 176.789 157.385 181.04C160.368 189.782 162.964 198.665 165.545 207.541C165.593 207.672 165.69 207.78 165.815 207.844C165.939 207.907 166.084 207.922 166.219 207.884C166.354 207.847 166.47 207.76 166.544 207.641C166.618 207.522 166.644 207.38 166.619 207.242C163.516 196.546 160.413 185.843 156.564 175.386C154.148 168.83 151.731 158.858 144.138 156.538C143.445 156.33 143.154 157.411 143.84 157.62Z" fill="#3B3B3B"/>
<path d="M131.451 179.475C134.578 191.734 138.607 203.745 143.504 215.41C146.555 222.638 150.351 236.697 160.383 236.197C161.129 236.16 161.129 235.041 160.383 235.079C153.976 235.399 151.067 229.343 148.74 224.42C146.309 219.264 144.059 214.03 141.99 208.72C138.25 199.076 135.094 189.215 132.54 179.191C132.501 179.048 132.406 178.926 132.276 178.852C132.147 178.779 131.994 178.76 131.85 178.799C131.707 178.839 131.585 178.934 131.512 179.063C131.438 179.193 131.419 179.346 131.459 179.489L131.451 179.475Z" fill="#3B3B3B"/>
<path d="M160.48 212.964C165.537 206.848 173.585 205.073 179.537 200.106C183.095 197.122 185.638 193.072 189.472 190.409C191.068 189.306 198.057 186.322 196.11 190.298C195.066 192.438 192.381 194.116 190.427 195.25C190.363 195.287 190.307 195.337 190.263 195.396C190.218 195.454 190.186 195.521 190.167 195.593C190.148 195.664 190.144 195.738 190.154 195.811C190.164 195.884 190.188 195.955 190.225 196.018C190.263 196.082 190.312 196.138 190.371 196.182C190.43 196.227 190.496 196.259 190.568 196.278C190.639 196.297 190.713 196.301 190.787 196.291C190.86 196.281 190.93 196.257 190.994 196.22C192.963 195.079 199.019 191.2 198.087 188.291C196.864 184.457 189.457 188.985 187.958 190.148C185.556 192.013 183.669 194.4 181.581 196.578C179.166 199.082 176.378 201.198 173.317 202.851C168.431 205.558 163.33 207.758 159.69 212.159C159.235 212.711 160.025 213.509 160.48 212.95V212.964Z" fill="#3B3B3B"/>
<path d="M198.855 193.886C195.868 196.433 193.432 199.562 191.695 203.082C190.882 204.79 190.307 208.355 193.239 208.43C195.648 208.497 197.9 204.365 198.833 202.642C200.078 200.345 202.092 196.369 200.324 193.915C199.907 193.334 198.937 193.915 199.355 194.475C200.682 196.339 198.907 200.024 198.049 201.695C197.651 202.471 197.2 203.218 196.699 203.932C196.229 204.613 195.716 205.264 195.163 205.879C194.522 206.961 194.007 206.692 193.597 205.074C192.418 203.313 192.731 203.313 193.701 201.68C194.221 200.806 194.789 199.962 195.402 199.151C196.65 197.517 198.065 196.017 199.623 194.676C200.168 194.199 199.377 193.416 198.833 193.886H198.855Z" fill="#3B3B3B"/>
<path d="M200.227 198.621C200.72 201.083 200.153 203.447 199.482 205.804C199.274 206.667 198.961 207.501 198.549 208.288C197.803 209.593 194.947 211.077 194.477 208.594C194.343 207.885 193.261 208.183 193.395 208.892C193.873 211.368 197.013 211.57 198.616 210.048C199.892 208.84 200.347 206.901 200.794 205.282C201.525 203.038 201.709 200.652 201.331 198.323C201.19 197.615 200.108 197.913 200.25 198.621H200.227Z" fill="#3B3B3B"/>
<path d="M200.317 203.476C200.717 204.809 200.871 206.204 200.772 207.593C200.72 208.264 199.362 213.873 198.012 211.539C197.933 211.42 197.811 211.337 197.672 211.306C197.533 211.274 197.387 211.297 197.264 211.369C197.142 211.442 197.051 211.558 197.011 211.695C196.971 211.832 196.985 211.978 197.05 212.105C198.012 213.769 199.981 213.038 200.779 211.643C202.226 209.174 202.129 205.84 201.376 203.177C201.337 203.034 201.242 202.912 201.112 202.839C200.983 202.765 200.83 202.746 200.686 202.786C200.543 202.825 200.421 202.92 200.348 203.05C200.274 203.179 200.255 203.332 200.295 203.476H200.317Z" fill="#3B3B3B"/>
<path d="M200.518 209.444C200.52 210.62 200.367 211.791 200.063 212.927C199.913 213.453 199.728 213.969 199.511 214.471C199.4 214.754 199.273 215.03 199.131 215.299C199.107 215.404 199.061 215.502 198.996 215.587C198.931 215.673 198.848 215.743 198.753 215.793C198.658 215.843 198.553 215.873 198.446 215.879C198.339 215.885 198.231 215.868 198.131 215.829C198.206 215.083 197.087 215.12 197.013 215.829C196.841 217.455 198.825 217.522 199.653 216.574C201.19 214.755 201.622 211.771 201.637 209.481C201.637 209.333 201.578 209.191 201.473 209.086C201.368 208.981 201.226 208.922 201.078 208.922C200.929 208.922 200.787 208.981 200.682 209.086C200.577 209.191 200.518 209.333 200.518 209.481V209.444Z" fill="#3B3B3B"/>
<path d="M192.381 194.101L184.49 228.627C184.333 229.328 185.407 229.626 185.571 228.925L193.462 194.399C193.619 193.698 192.538 193.4 192.381 194.101Z" fill="#3B3B3B"/>
<path d="M192.925 206.527C190.986 213.986 189.179 221.474 187.503 228.992C187.346 229.694 188.428 229.992 188.585 229.291C190.255 221.772 192.063 214.284 194.007 206.825C194.027 206.754 194.032 206.68 194.023 206.607C194.014 206.534 193.99 206.463 193.954 206.399C193.918 206.335 193.869 206.279 193.811 206.234C193.753 206.188 193.686 206.155 193.615 206.135C193.544 206.116 193.47 206.11 193.397 206.12C193.324 206.129 193.253 206.152 193.189 206.188C193.125 206.225 193.069 206.273 193.024 206.331C192.978 206.39 192.945 206.456 192.925 206.527Z" fill="#3B3B3B"/>
<path d="M184.937 228.956C183.632 228.881 169.796 228.956 172.899 232.834C174.107 234.326 179.612 234.199 181.439 234.438C186.802 235.184 192.187 235.698 197.587 236.116C197.685 236.115 197.781 236.089 197.866 236.039C197.951 235.989 198.02 235.918 198.069 235.832C198.117 235.747 198.142 235.65 198.141 235.552C198.141 235.454 198.114 235.358 198.064 235.273C196.927 233.6 195.435 232.198 193.695 231.167C191.955 230.136 190.009 229.501 187.995 229.306C187.249 229.217 187.287 230.336 187.995 230.425C189.814 230.611 191.569 231.192 193.14 232.128C194.71 233.063 196.057 234.33 197.087 235.84L197.572 234.997C191.486 234.527 185.422 233.893 179.38 233.036C178.299 232.879 176.725 232.954 175.726 232.491C174.048 232.625 173.824 232.29 175.04 231.484C175.232 231.159 175.505 230.887 175.831 230.696C176.157 230.504 176.526 230.398 176.904 230.388C179.313 229.523 182.416 229.925 184.922 230.075C185.668 230.119 185.668 229.001 184.922 228.956H184.937Z" fill="#3B3B3B"/>
<path d="M199.079 183.196L194 198.293C193.768 198.979 194.85 199.27 195.074 198.591L200.16 183.495C200.392 182.809 199.31 182.518 199.079 183.196Z" fill="#3B3B3B"/>
<path d="M199.974 184.04C204.606 184.689 209.827 185.084 212.989 180.982C215.227 178.11 216.718 174.493 218.255 171.219C219.239 169.063 220.992 166.445 220.12 164.058C219.873 163.387 218.792 163.678 219.038 164.357C219.926 166.796 217.457 170.323 216.375 172.561C215.376 174.627 214.332 176.693 213.161 178.67C210.177 183.682 205.434 183.667 200.272 182.944C199.571 182.847 199.265 183.921 199.974 184.025V184.04Z" fill="#3B3B3B"/>
<path d="M195.32 181.943L194.216 186.522C194.044 187.223 195.126 187.522 195.29 186.821L196.394 182.241C196.565 181.54 195.484 181.242 195.32 181.943Z" fill="#3B3B3B"/>
<path d="M193.433 155.213C191.381 160.993 189.323 167.273 188.734 173.419C188.271 178.2 191.165 180.453 195.297 182.228C195.954 182.504 196.528 181.542 195.864 181.258C193.559 180.274 190.785 179.021 189.949 176.417C189.203 174.075 190.263 170.883 190.77 168.526C191.733 164.112 192.978 159.765 194.499 155.511C194.738 154.832 193.656 154.541 193.418 155.213H193.433Z" fill="#3B3B3B"/>
<path d="M194.439 156.137C195.618 152.31 197.691 150.17 201.898 150.229C204.603 150.283 207.284 150.735 209.856 151.572C212.435 152.388 214.885 153.563 217.136 155.062C221.089 157.71 221.261 161.111 219.568 165.191C219.292 165.855 220.373 166.146 220.642 165.49C221.962 162.312 222.879 158.926 220.321 156.151C217.763 153.377 213.683 151.609 210.155 150.498C206.754 149.416 201.95 148.342 198.407 149.349C195.364 150.214 194.253 153.078 193.388 155.838C193.172 156.524 194.253 156.823 194.469 156.137H194.439Z" fill="#3B3B3B"/>
<path d="M199.071 151.341C196.647 153.378 199.772 155.026 201.562 155.645C204.829 156.771 208.119 157.838 211.4 158.934C213.429 159.613 216.069 161.269 218.203 160.493C218.874 160.254 218.583 159.173 217.904 159.419C215.741 160.165 210.901 157.592 208.887 156.913L204.673 155.503C204.255 155.369 198.146 153.579 199.862 152.132C200.414 151.67 199.623 150.879 199.071 151.341Z" fill="#3B3B3B"/>
<path d="M160.659 235.772C165.828 235.391 169.334 231.244 172.81 227.828C177.921 222.796 182.864 217.602 187.637 212.247C188.115 211.71 187.324 210.919 186.839 211.457C183.016 215.733 179.09 219.915 175.062 224.002C171.236 227.866 166.47 234.228 160.659 234.653C159.914 234.705 159.914 235.824 160.659 235.772Z" fill="#3B3B3B"/>
<path d="M192.411 211.442C192.878 212.623 193.582 213.695 194.48 214.593C195.378 215.491 196.451 216.195 197.632 216.663C198.303 216.931 198.594 215.85 197.93 215.581C196.921 215.175 196.005 214.569 195.236 213.8C194.467 213.031 193.861 212.115 193.455 211.106C193.194 210.442 192.105 210.733 192.381 211.397L192.411 211.442Z" fill="#3B3B3B"/>
<path d="M86.0357 148.863C92.8503 145.833 100.143 144.02 107.584 143.508C120.297 142.747 132.956 145.702 144.019 152.011C146.981 158.646 149.284 165.556 150.896 172.641C159.175 209.099 146.801 240.649 139.566 255.581C119.103 256.903 98.5865 254.012 79.2856 247.086C81.5382 214.343 83.7882 181.602 86.0357 148.863Z" fill="#606161"/>
<path d="M89.8246 147.887C87.8125 148.609 85.9824 149.762 84.4619 151.265C80.4417 155.36 80.1284 160.962 79.9867 163.677C78.7262 183.629 76.3991 180.742 76.8317 194.787C77.2093 206.867 79.201 218.842 82.7538 230.394C84.2903 231.752 86.8859 233.982 90.2125 236.562C91.2791 237.39 108.113 250.294 124.433 257.163C128.369 258.796 132.207 260.656 135.926 262.735C138.768 264.309 140.663 265.524 141.744 266.196C151.023 271.976 164.694 277.727 165.701 276.108C166.059 275.541 165.03 273.796 158.675 268.5C159.876 269.336 170.415 276.623 173.779 273.721C174.205 273.312 174.523 272.803 174.705 272.241C174.888 271.679 174.928 271.081 174.823 270.499C174.435 268.53 172.049 266.942 168.759 266.666C175.86 266.255 176.472 265.122 176.531 264.696C176.748 263.205 171.31 261.146 168.327 260.288C164.385 259.156 160.273 258.737 156.184 259.05C159.521 257.399 161.089 256.184 160.891 255.403C160.587 254.16 155.863 254.003 146.719 254.933C141.07 251.234 135.765 247.032 130.87 242.38C124.686 236.48 121.591 233.534 118.317 228.589C115.915 224.964 113.424 220.318 107.83 215.768C106.774 214.905 105.671 214.1 104.526 213.359C103.031 203.822 102.055 194.211 101.602 184.568C101.378 179.429 101.028 176.528 100.334 170.718C99.2225 161.402 98.2305 157.531 95.7319 153.854C94.1407 151.523 92.1391 149.501 89.8246 147.887Z" fill="white"/>
<path opacity="0.31" d="M91.7712 149.393C89.4352 155.61 87.7797 162.062 86.8335 168.636C85.931 174.968 83.8501 190.788 89.899 207.928C90.9432 210.874 95.1723 222.211 110.567 238.292C120.263 248.391 137.806 264.032 165.761 276.108C155.869 273.817 146.493 269.693 138.119 263.95C131.705 261.22 124.91 257.983 117.869 254.12C105.441 247.305 93.679 239.339 82.7387 230.326C80.6187 223.897 78.9832 217.317 77.8459 210.643C77.8459 210.643 73.7362 186.537 80.6578 160.461C82.2614 154.442 84.4393 148.401 88.0344 147.983C89.4176 147.939 90.7616 148.446 91.7712 149.393Z" fill="#9E9E9E"/>
<path d="M87.7512 147.491C83 150.72 81.0384 156.001 79.8674 161.423C78.3044 168.832 77.2453 176.337 76.6975 183.889C75.4817 199.671 76.6975 215.625 82.202 230.557C82.4481 231.229 83.5296 230.945 83.2835 230.267C78.3235 216.714 76.8392 202.319 77.5552 187.961C77.9495 180.767 78.779 173.604 80.039 166.51C81.1801 159.954 82.4033 152.473 88.318 148.46C88.9073 148.057 88.3181 147.088 87.7512 147.491Z" fill="#3B3B3B"/>
<path d="M92.4948 150.802C99.9534 158.118 99.752 169.858 100.64 179.577C101.664 190.835 102.688 202.092 103.713 213.35C103.78 214.058 104.898 214.096 104.831 213.35C103.673 200.625 102.514 187.898 101.356 175.169C100.55 166.338 100.021 156.582 93.2928 150.011C92.7707 149.511 91.9801 150.302 92.4948 150.802Z" fill="#3B3B3B"/>
<path d="M101.057 213.589C105.726 211.352 111.91 221.234 114.431 224.278C117.727 228.268 120.972 232.296 124.395 236.174C130.922 243.566 138.104 250.345 146.906 254.918C147.54 255.246 148.106 254.284 147.465 253.948C136.769 248.362 128.58 239.553 120.927 230.401C117.235 225.978 113.64 221.451 109.836 217.117C107.502 214.44 104.384 210.74 100.49 212.642C99.849 212.955 100.416 213.917 101.057 213.604V213.589Z" fill="#3B3B3B"/>
<path d="M82.3438 230.715C99.0213 245.744 119.309 255.552 139.469 265.025C140.118 265.33 140.685 264.368 140.029 264.062C119.965 254.657 99.7522 244.916 83.1344 229.947C82.6048 229.469 81.8067 230.26 82.3438 230.745V230.715Z" fill="#3B3B3B"/>
<path d="M146.995 255.394L156.833 255.193C157.183 255.193 158.772 254.932 159.018 255.148L159.257 256.64L158.593 256.804C157.847 257.289 157.318 257.214 156.728 257.953C156.281 258.512 157.064 259.31 157.519 258.743C158.175 257.93 163.628 256.707 160.92 254.499C159.704 253.5 157.101 254.097 155.736 254.119L146.995 254.298C146.847 254.298 146.704 254.357 146.599 254.462C146.494 254.567 146.436 254.709 146.436 254.857C146.436 255.006 146.494 255.148 146.599 255.253C146.704 255.358 146.847 255.417 146.995 255.417V255.394Z" fill="#3B3B3B"/>
<path d="M139.514 265.381C143.537 268.042 147.779 270.355 152.194 272.295C154.044 273.101 155.923 273.847 157.833 274.533C159.817 275.234 162.621 276.606 164.747 276.614C166.059 276.614 167.186 276.286 166.768 274.607C166.597 273.936 165.903 273.518 165.448 273.116C163.591 271.415 161.375 269.976 159.384 268.447C158.817 268.006 158.258 268.976 158.817 269.409C159.832 270.192 165.53 273.578 163.77 275.219C163.128 275.801 156.378 272.84 155.662 272.564C150.203 270.421 144.987 267.703 140.103 264.456C139.507 264.061 138.94 265.031 139.544 265.426L139.514 265.381Z" fill="#3B3B3B"/>
<path d="M156.811 259.414C160.958 259.671 165.071 260.335 169.088 261.398C170.117 261.674 174.085 262.323 174.615 263.278C176.315 266.336 169.267 265.038 168.954 264.993C168.252 264.874 167.947 265.955 168.655 266.067C171.199 266.485 174.525 266.947 176.86 265.65C176.945 265.601 177.015 265.53 177.063 265.445C177.112 265.359 177.137 265.263 177.136 265.165C177.136 262.606 174.04 261.749 172.056 261.107C167.107 259.559 161.987 258.622 156.811 258.318C156.065 258.273 156.065 259.392 156.811 259.437V259.414Z" fill="#3B3B3B"/>
<path d="M158.944 269.767C162.016 271.527 165.313 272.862 168.745 273.735C170.498 274.168 173.399 275.108 174.995 273.668C178.635 270.386 171.117 266.157 168.611 265.464C168.539 265.444 168.465 265.439 168.392 265.448C168.319 265.457 168.248 265.48 168.184 265.516C168.12 265.553 168.064 265.601 168.019 265.66C167.974 265.718 167.94 265.784 167.921 265.855C167.901 265.926 167.896 266 167.905 266.073C167.914 266.147 167.937 266.217 167.973 266.281C168.01 266.345 168.058 266.402 168.117 266.447C168.175 266.492 168.241 266.525 168.312 266.545C170.166 267.014 171.86 267.975 173.212 269.327C175.276 270.923 174.645 272.204 171.318 273.168C170.572 273.027 169.826 272.87 169.08 272.684C165.744 271.832 162.538 270.535 159.548 268.827C158.922 268.477 158.355 269.439 158.981 269.79L158.944 269.767Z" fill="#3B3B3B"/>
<path d="M159.093 265.71C164.485 267.047 169.546 269.474 173.965 272.84C174.54 273.273 175.099 272.303 174.532 271.87C170.033 268.458 164.887 265.996 159.406 264.636C158.705 264.464 158.407 265.546 159.108 265.717L159.093 265.71Z" fill="#3B3B3B"/>
<path d="M119.197 116.956C118.422 116.757 117.616 116.714 116.824 116.829C116.033 116.944 115.273 117.215 114.587 117.627C114.416 117.739 111.768 119.469 111.932 122.55C112.002 123.618 112.381 124.644 113.023 125.501C113.665 126.357 114.543 127.009 115.549 127.376C113.709 131.383 111.87 135.391 110.03 139.399C110.868 141.401 111.889 143.321 113.08 145.135C114.96 147.999 118.816 153.72 126.178 157.106C131.588 159.532 137.611 160.242 143.437 159.142C145.1 156.084 152.872 141.487 154.804 127.301C155.405 122.626 155.505 117.9 155.102 113.204C154.655 107.797 154.431 105.097 153.163 103.844C147.86 98.548 126.148 112.354 119.197 116.956Z" fill="white"/>
<path opacity="0.24" d="M119.092 118.015C118.764 118.105 116.489 118.761 115.729 120.767C114.886 123.005 116.206 126.033 119.227 127.435C118.023 129.809 117.301 132.397 117.101 135.051C116.116 148.431 129.385 157.799 130.706 158.724C127.37 157.671 124.225 156.089 121.39 154.04C116.314 150.312 112.375 145.245 110.015 139.406L115.303 128.099C113.813 127.139 112.713 125.68 112.201 123.982C111.853 122.828 111.84 121.6 112.163 120.439C112.35 119.79 113.088 117.224 115.303 116.747C117.28 116.3 118.913 117.843 119.092 118.015Z" fill="#9E9E9E"/>
<path opacity="0.24" d="M146.921 112.369L144.526 127.779L148.547 130.606L146.921 112.369Z" fill="#9E9E9E"/>
<path d="M154.461 110.243C154.665 116.319 154.568 122.388 154.17 128.45C154.126 129.195 155.244 129.195 155.289 128.45C155.682 122.388 155.779 116.319 155.58 110.243C155.58 109.497 154.439 109.497 154.461 110.243Z" fill="#3B3B3B"/>
<path d="M147.114 112.622L147.98 130.605L148.822 130.12C147.51 129.374 146.219 128.628 144.937 127.8C144.332 127.412 143.766 128.382 144.377 128.762C145.655 129.568 146.948 130.341 148.256 131.082C148.34 131.132 148.436 131.158 148.535 131.159C148.633 131.16 148.729 131.135 148.815 131.087C148.9 131.038 148.971 130.968 149.021 130.884C149.071 130.799 149.098 130.703 149.098 130.605L148.233 112.622C148.233 111.876 147.085 111.876 147.114 112.622Z" fill="#3B3B3B"/>
<path d="M125.432 110.369C125.887 115.799 127.55 121.445 131.071 125.719C134.591 129.993 139.275 129.94 144.347 128.807C145.048 128.65 144.75 127.569 144.049 127.725C138.485 128.978 133.972 128.329 130.705 123.25C128.285 119.357 126.859 114.928 126.551 110.354C126.491 109.646 125.372 109.608 125.432 110.354V110.369Z" fill="#3B3B3B"/>
<path d="M149.27 129.942C150.772 129.26 152.41 128.931 154.059 128.979C154.207 128.979 154.349 128.92 154.454 128.816C154.559 128.711 154.618 128.568 154.618 128.42C154.618 128.272 154.559 128.129 154.454 128.024C154.349 127.92 154.207 127.861 154.059 127.861C152.211 127.818 150.379 128.201 148.703 128.979C148.054 129.278 148.621 130.24 149.27 129.942Z" fill="#3B3B3B"/>
<path d="M136.411 113.138C136.684 112.72 137.044 112.366 137.465 112.098C137.886 111.83 138.359 111.655 138.853 111.585C139.347 111.514 139.85 111.55 140.329 111.689C140.809 111.828 141.253 112.068 141.632 112.392C142.191 112.839 142.982 112.056 142.423 111.601C141.92 111.165 141.329 110.843 140.691 110.655C140.053 110.467 139.382 110.418 138.723 110.511C138.064 110.604 137.433 110.838 136.872 111.196C136.311 111.553 135.833 112.027 135.471 112.586C135.061 113.175 136.031 113.734 136.433 113.145L136.411 113.138Z" fill="#3B3B3B"/>
<path d="M150.143 113.025C150.357 112.836 150.608 112.694 150.879 112.605C151.151 112.517 151.437 112.485 151.722 112.512C152.006 112.538 152.282 112.623 152.532 112.76C152.783 112.897 153.003 113.083 153.178 113.308C153.596 113.89 154.566 113.308 154.148 112.741C153.882 112.372 153.541 112.064 153.147 111.835C152.753 111.607 152.316 111.464 151.863 111.416C151.411 111.369 150.953 111.417 150.521 111.558C150.088 111.698 149.69 111.929 149.352 112.234C148.823 112.719 149.613 113.51 150.143 113.025Z" fill="#3B3B3B"/>
<path d="M119.376 117.53C116.079 115.583 111.693 117.373 111.343 121.393C111.315 123.272 111.957 125.1 113.155 126.547C114.505 128.278 116.474 128.643 118.57 128.516C119.316 128.472 119.316 127.353 118.57 127.398C117.079 127.487 115.46 127.398 114.349 126.242C113.394 125.2 112.76 123.905 112.521 122.512C112.014 118.925 115.803 116.754 118.809 118.529C118.937 118.604 119.091 118.625 119.235 118.588C119.379 118.55 119.502 118.456 119.577 118.328C119.652 118.199 119.673 118.046 119.636 117.902C119.598 117.758 119.504 117.635 119.376 117.56V117.53Z" fill="#3B3B3B"/>
<path d="M115.042 127.211C113.516 131.416 111.712 135.514 109.642 139.48C109.314 140.114 110.276 140.681 110.612 140.047C112.719 135.992 114.56 131.803 116.124 127.509C116.37 126.83 115.288 126.539 115.042 127.211Z" fill="#3B3B3B"/>
<path d="M109.545 139.667C111.548 144.281 114.467 148.44 118.125 151.893C121.782 155.346 126.103 158.02 130.825 159.753C131.504 159.999 131.794 158.918 131.123 158.672C126.541 156.976 122.352 154.367 118.809 151.002C115.267 147.638 112.445 143.588 110.515 139.1C110.224 138.444 109.262 139.011 109.545 139.667Z" fill="#3B3B3B"/>
<path d="M118.951 115.807C119.331 133.566 121.121 154.301 137.597 164.818C138.209 165.206 138.768 164.236 138.164 163.849C122.009 153.571 120.405 133.134 120.032 115.807C120.032 115.659 119.973 115.517 119.868 115.412C119.763 115.307 119.621 115.248 119.473 115.248C119.324 115.248 119.182 115.307 119.077 115.412C118.972 115.517 118.913 115.659 118.913 115.807H118.951Z" fill="#3B3B3B"/>
<path d="M154.782 128.68C156.585 130.773 157.566 133.451 157.542 136.213C157.542 138.503 156.475 139.943 155.856 142.061C154.774 145.723 157.586 148.028 158.422 151.503C159.682 156.777 158.161 162.296 153.723 165.593C152.568 166.471 151.252 167.113 149.849 167.482C148.446 167.85 146.984 167.938 145.547 167.741C144.11 167.543 142.726 167.064 141.474 166.331C140.223 165.597 139.128 164.624 138.254 163.467C137.821 162.9 136.851 163.467 137.284 164.034C143.639 172.35 156.192 169.315 159.309 159.663C160.05 157.304 160.201 154.8 159.749 152.369C159.529 151.153 159.172 149.967 158.683 148.833C158.317 147.968 157.497 147.036 157.273 146.141C156.855 144.448 157.273 142.3 157.698 140.703C159.011 135.967 158.839 131.842 155.573 127.889C155.11 127.337 154.32 128.136 154.782 128.68Z" fill="#3B3B3B"/>
<path d="M140.476 123.698C141.016 123.698 141.453 122.162 141.453 120.267C141.453 118.372 141.016 116.836 140.476 116.836C139.937 116.836 139.499 118.372 139.499 120.267C139.499 122.162 139.937 123.698 140.476 123.698Z" fill="#3B3B3B"/>
<path d="M151.642 123.698C152.182 123.698 152.619 122.162 152.619 120.267C152.619 118.372 152.182 116.836 151.642 116.836C151.102 116.836 150.665 118.372 150.665 120.267C150.665 122.162 151.102 123.698 151.642 123.698Z" fill="#3B3B3B"/>
<path d="M118.936 114.486C119.1 115.926 119.353 118.171 119.644 120.923C121.024 133.826 120.89 135.415 121.658 139.062C122.767 144.335 124.767 149.38 127.573 153.98C130.347 158.455 134.286 164.884 141.819 167.264C143.713 167.86 147.681 169.113 151.985 167.368C156.013 165.734 159.541 161.819 159.936 157.537C160.067 155.181 159.664 152.825 158.757 150.646C158.19 149.251 157.81 148.938 157.43 147.543C157.102 146.357 156.99 144.962 157.243 141.688C157.497 138.413 158.131 137.727 158.101 135.833C158.101 134.058 157.467 131.522 154.73 128.456L148.987 128.822L148.487 130.597L144.198 128.3C140.835 129.005 137.331 128.512 134.293 126.905C129.296 124.071 127.685 118.626 127.237 117.119C125.835 112.368 126.991 109.228 125.656 108.661C124.813 108.273 123.053 108.974 118.936 114.486Z" fill="#3B3B3B"/>
<path d="M112.506 119.529C110.925 117.015 108.591 112.376 109.232 106.849C110.485 95.9146 122.717 87.2328 134.517 87.725C148.688 88.3143 156.072 101.896 156.415 102.568L119.197 116.955L112.506 119.529Z" fill="#00A79D"/>
<path d="M117.75 117.395C118.911 114.848 120.458 112.496 122.337 110.421C136.657 94.7578 167.969 99.5164 168.767 104.379C168.998 105.789 166.835 108.236 155.095 112.711C154.513 111.52 153.693 110.462 152.686 109.601C146.257 104.141 132.383 107.728 117.75 117.395Z" fill="#00A79D"/>
<path d="M316.948 349.551C319.688 352.788 322.422 356.02 325.152 359.248C327.604 386.337 329.841 399.867 331.865 399.837C334.018 399.808 335.928 384.532 337.593 354.012L323.675 340.34C321.428 343.413 319.185 346.483 316.948 349.551Z" fill="#3B3B3B"/>
<path d="M338.123 247.33C328.427 250.925 320.498 253.551 315.001 255.289C306.67 257.922 298.51 261.121 290.119 263.575C286.539 264.627 282.824 265.649 278.536 268.506C275.985 270.206 271.607 273.122 269.168 278.485C266.609 284.102 267.534 289.42 268.37 293.887C269.421 299.541 271.353 303.658 276.574 312.728C282.235 322.625 285.062 327.571 290.119 334.917C295.555 342.814 301.424 350.403 307.699 357.651C310.357 357.071 312.911 356.092 315.277 354.75C325.182 349.104 328.449 338.781 329.329 335.574C326.547 331.688 323.72 327.369 320.968 322.655C316.127 314.321 312.044 305.569 308.766 296.505C315.672 292.398 322.964 288.303 330.642 284.221C341.576 278.44 352.175 273.346 362.311 268.864C363.139 268.118 372.895 258.906 370.516 252.171C368.233 245.727 354.905 241.677 338.123 247.33Z" fill="white"/>
<path opacity="0.3" d="M358.038 258.152C348.237 264.159 338.359 270.297 328.404 276.568C318.534 282.798 308.82 289.014 299.263 295.214C301.441 299.257 303.599 303.409 305.738 307.67C312.45 321.014 318.164 334.022 323.094 346.522L328.74 335.633C324.966 329.196 321.155 322.118 317.448 314.39C314.203 307.678 311.406 301.136 308.975 294.998C314.867 292.119 320.762 289.225 326.659 286.316C337.434 281.016 348.16 275.705 358.836 270.385L358.038 258.152Z" fill="#9E9E9E"/>
<path d="M331.045 249.353L295.84 261.078C287.359 263.904 277.313 266.41 271.413 273.683C265.64 280.791 266.259 290.509 269.213 298.662C272.86 308.731 278.73 318.293 284.413 327.325C291.244 338.129 298.883 348.399 307.267 358.047C307.744 358.599 308.527 357.801 308.057 357.257C299.309 347.171 291.382 336.401 284.354 325.05C280.833 319.362 277.544 313.529 274.486 307.552C271.502 301.69 268.608 295.507 268.183 288.839C267.758 282.342 269.847 276.122 274.844 271.796C279.505 267.753 285.592 265.694 291.342 263.77C304.678 259.295 318.037 254.879 331.38 250.427C332.059 250.203 331.768 249.121 331.082 249.353H331.045Z" fill="#3B3B3B"/>
<path d="M351.608 274.062C336.559 280.357 321.943 287.64 307.856 295.864C307.727 295.938 307.633 296.06 307.595 296.204C307.556 296.347 307.576 296.5 307.651 296.628C307.725 296.757 307.847 296.851 307.99 296.889C308.134 296.928 308.287 296.908 308.415 296.833C322.416 288.649 336.945 281.403 351.906 275.144C352.555 274.868 352.272 273.786 351.608 274.062Z" fill="#3B3B3B"/>
<path d="M308.161 295.857C310.736 303.074 313.776 310.118 317.261 316.942C319.006 320.338 320.859 323.665 322.818 326.922C324.496 329.734 326.331 333.918 328.896 335.969C328.987 336.052 329.101 336.104 329.223 336.119C329.344 336.133 329.468 336.11 329.575 336.051L329.874 335.872C329.977 335.807 330.058 335.71 330.103 335.596C330.149 335.482 330.157 335.357 330.127 335.238L330.082 334.947C329.963 334.239 328.889 334.537 329.001 335.238C328.479 332.083 325.063 328.525 323.437 325.781C321.602 322.708 319.862 319.575 318.216 316.383C314.775 309.642 311.773 302.686 309.228 295.558C308.982 294.887 307.9 295.178 308.147 295.857H308.161Z" fill="#3B3B3B"/>
<path d="M307.736 358.084C318.387 357.733 326.122 344.658 329.277 335.827C329.523 335.149 328.442 334.858 328.203 335.529C325.219 343.853 317.761 356.637 307.736 356.965C306.991 356.965 306.991 358.106 307.736 358.084Z" fill="#3B3B3B"/>
<path d="M362.132 314.094L383.337 322.813C389.006 353.965 390.843 369.792 388.849 370.295C386.969 370.762 381.721 357.732 373.104 331.204L359.723 327.534C360.528 323.054 361.331 318.574 362.132 314.094Z" fill="#3B3B3B"/>
<path d="M353.323 244.744C343.245 250.78 332.78 256.147 321.997 260.809C313.397 264.539 307.9 267.485 296.914 273.43C293.453 275.302 289.067 277.733 284.786 282.44C281.967 285.535 278.513 289.436 277.462 295.589C276.656 300.402 277.475 305.345 279.789 309.641C282.586 314.646 286.837 317.16 289.753 318.756C303.716 326.356 317.969 329.429 322.638 330.451C330.567 332.181 342.702 334.926 358.097 338.998C359.468 336.712 360.562 334.271 361.356 331.726C364.899 320.352 361.401 310.096 359.611 305.8L331.186 298.021C338.669 294.077 346.42 290.665 354.382 287.81C361.215 285.371 367.383 283.663 373.73 278.039C376.169 275.876 378.496 273.773 380.167 270.192C381.398 267.567 382.188 264.308 381.159 251.33C380.876 247.787 380.413 243.125 379.667 237.568L353.323 244.744Z" fill="white"/>
<path opacity="0.3" d="M370.829 246.027C370.23 251.292 368.5 256.365 365.757 260.899C360.118 270.043 351.981 273.385 339.607 279.926C318.663 290.995 308.221 296.522 308.042 301.303C307.833 306.949 318.745 314.78 362.684 325.17C363.456 320.574 362.977 315.854 361.297 311.506C360.448 309.345 359.301 307.314 357.888 305.472L331.656 298.394C337.667 295.033 343.896 292.08 350.303 289.555C357.166 286.854 363.87 283.764 370.381 280.299C373.151 278.939 375.582 276.976 377.497 274.556C378.877 272.743 380.324 270.14 381.278 265.419C383.24 255.686 381.278 245.833 380.107 241.029L370.829 246.027Z" fill="#9E9E9E"/>
<path d="M380.413 245.46C380.607 251.949 381.42 258.811 380.727 265.278C379.981 272.52 374.916 277.1 368.882 280.486C363.079 283.745 356.784 286.154 350.691 288.81L330.515 297.588C329.859 297.879 330.425 298.841 331.082 298.558L353.271 288.862C360.081 285.878 367.383 283.275 373.447 278.897C377.668 275.854 380.824 271.878 381.651 266.643C382.755 259.81 381.719 252.322 381.51 245.423C381.51 244.677 380.369 244.677 380.391 245.423L380.413 245.46Z" fill="#3B3B3B"/>
<path d="M330.992 298.633C340.654 301.119 350.233 303.879 359.73 306.912C360.417 307.128 360.715 306.054 360.029 305.831C350.527 302.807 340.947 300.048 331.291 297.551C331.147 297.512 330.994 297.531 330.865 297.604C330.735 297.678 330.64 297.8 330.601 297.943C330.561 298.086 330.58 298.24 330.654 298.369C330.727 298.498 330.849 298.593 330.992 298.633Z" fill="#3B3B3B"/>
<path d="M359.193 306.523C361.457 311.626 362.505 317.185 362.255 322.762C362.006 328.339 360.465 333.782 357.754 338.662C357.403 339.296 358.373 339.863 358.724 339.229C361.525 334.174 363.114 328.537 363.364 322.762C363.614 316.988 362.518 311.234 360.163 305.956C359.872 305.3 358.91 305.874 359.193 306.523Z" fill="#3B3B3B"/>
<path d="M340.733 252.306C329.063 256.871 317.626 262 306.423 267.693C296.586 272.72 285.502 278.098 279.789 288.063C274.888 296.603 275.388 306.56 282.317 313.795C290.246 322.074 303.142 325.244 313.748 328.474C328.277 332.889 343.113 336.216 357.925 339.542C358.627 339.699 358.925 338.617 358.216 338.461C343.866 335.239 329.501 332.024 315.404 327.802C302.724 323.998 283.093 319.762 278.372 305.374C273.292 289.912 288.724 278.434 300.389 272.116C313.543 265.044 327.118 258.787 341.039 253.38C341.703 253.126 341.412 252.045 340.741 252.306H340.733Z" fill="#3B3B3B"/>
<path d="M330.925 163.421C327.317 164.489 323.968 166.289 321.087 168.71C319.36 170.18 317.824 171.861 316.515 173.714C312.648 179.174 309.368 185.027 306.729 191.175C303.493 198.55 299.397 205.517 294.527 211.932C290.335 209.896 285.98 207.591 281.504 204.981C272.829 199.91 264.56 194.175 256.771 187.826C253.017 187.25 249.176 187.79 245.725 189.377L242.742 180.904C244.55 179.564 246.049 177.849 247.135 175.877C248.369 173.563 249.017 170.982 249.022 168.359C249.059 167.091 249.022 164.339 245.293 155.485C244.032 152.45 242.891 150.011 242.115 148.4C239.328 148.349 236.547 148.668 233.844 149.347C230.81 150.161 227.89 151.354 225.154 152.897C222.581 154.231 220.113 155.756 217.77 157.462C218.186 159.606 218.747 161.719 219.448 163.787C220.581 167.4 222.245 170.823 224.386 173.946C226.318 176.698 227.668 178.622 230.174 180.151C234.418 182.724 238.975 182.337 241.049 182.008C242.138 184.992 243.229 187.975 244.323 190.959C243.741 192.105 243.386 193.354 243.279 194.636C243.122 196.635 243.719 197.41 244.644 200.856C246.068 206.182 245.255 206.607 246.508 208.248C247.916 209.749 248.94 211.569 249.492 213.551L251.536 209.926L253.773 216.288L254.452 218.272C252.751 219.075 251.2 220.162 249.865 221.487C249.022 222.33 247.627 223.725 247.911 224.262C248.097 224.56 248.806 224.448 255.504 222.024C258.711 220.868 260.389 220.226 262.358 218.779C263.093 218.237 263.788 217.644 264.439 217.004C263.568 216.398 262.588 215.967 261.552 215.736C259.664 215.351 257.701 215.614 255.981 216.482L251.685 205.652C253.17 205.472 254.671 205.455 256.16 205.6C257.838 205.757 258.912 206.077 260.262 205.6C261.063 205.307 261.782 204.826 262.358 204.198C263.611 205.264 265.483 206.846 267.773 208.755C274.627 214.468 278.215 217.437 282.519 220.584C285.308 222.613 289.351 225.403 294.527 228.431C296.348 228.525 298.171 228.272 299.897 227.685C303.269 226.536 305.32 224.381 306.916 222.621C314.148 214.797 320.388 206.112 325.495 196.762C329.583 189.139 331.626 185.335 332.477 180.024C333.316 174.446 332.783 168.748 330.925 163.421Z" fill="white"/>
<path opacity="0.24" d="M328.255 179.137C325.357 188.39 321.15 197.18 315.762 205.242C308.967 215.393 303.992 222.822 297.115 222.956C293.654 223.016 287.337 217.989 274.657 207.949C269.809 204.101 267.407 201.945 262.955 200.357C259.628 199.171 257.905 199.283 255.66 197.313C253.094 195.076 252.259 192.227 249.693 191.861C248.782 191.753 247.859 191.922 247.045 192.346L252.416 205.846C254.526 206.376 256.735 206.376 258.845 205.846C260.136 205.518 261.369 204.993 262.5 204.287C264.238 205.868 266.028 207.457 267.877 209.031C276.272 216.181 285.212 222.665 294.617 228.423C297.251 228.35 299.833 227.674 302.165 226.447C303.958 225.419 305.589 224.133 307.005 222.628C309.533 220.162 311.86 217.498 313.964 214.662C316.871 210.712 319.565 206.608 322.035 202.37C332.305 185.216 333.782 182.031 332.424 180.285C331.955 179.704 330.918 178.973 328.255 179.137Z" fill="#9E9E9E"/>
<path d="M218.755 161.46C219.641 164.561 220.893 167.546 222.484 170.351C224.774 174.409 227.437 179.13 232.769 181.353C234.149 181.934 237.073 183.113 240.34 182.143C245.419 180.652 249.178 174.573 247.664 171.701C246.807 170.09 244.315 169.538 242.607 169.613C238.803 169.769 237.856 173.074 233.717 173.447C232.851 173.521 230.562 173.73 228.839 172.402C225.296 169.665 228.033 163.452 225.005 161.214C224.013 160.536 222.245 160.103 218.755 161.46Z" fill="#00A79D"/>
<path d="M327.673 164.981C319.2 166.831 315.046 174.588 311.264 181.629C305.939 191.474 300.618 201.319 295.303 211.165C294.96 211.799 295.922 212.366 296.265 211.732C300.894 203.169 305.521 194.607 310.145 186.044C314.345 178.28 318.417 168.143 327.994 166.062C328.695 165.906 328.397 164.832 327.696 164.981H327.673Z" fill="#3B3B3B"/>
<path d="M256.369 188.243C268.04 197.704 280.743 205.816 294.236 212.424C294.885 212.745 295.452 211.775 294.803 211.462C281.395 204.902 268.767 196.853 257.159 187.468C256.607 187.02 255.809 187.803 256.369 188.258V188.243Z" fill="#3B3B3B"/>
<path d="M256.757 187.461C254.524 186.969 252.209 186.994 249.988 187.534C247.767 188.075 245.699 189.116 243.943 190.578C243.84 190.684 243.782 190.826 243.782 190.974C243.782 191.121 243.84 191.263 243.943 191.369C244.322 191.755 244.78 192.056 245.286 192.25C245.792 192.444 246.333 192.528 246.874 192.495C249.156 192.585 251.498 192.324 253.773 192.227C254.519 192.227 254.519 191.078 253.773 191.108L249.298 191.294C247.858 191.354 245.882 191.772 244.77 190.549V191.339C246.382 190.009 248.275 189.062 250.306 188.571C252.338 188.08 254.454 188.058 256.495 188.505C257.204 188.654 257.502 187.58 256.794 187.431L256.757 187.461Z" fill="#3B3B3B"/>
<path d="M246.456 192.474L255.406 217.035C255.653 217.706 256.734 217.423 256.488 216.737L247.538 192.175C247.291 191.504 246.21 191.795 246.456 192.474Z" fill="#3B3B3B"/>
<path d="M244.144 191.466C247.585 200.417 250.857 209.407 253.96 218.437C254.191 219.108 255.272 218.825 255.041 218.139C251.928 209.089 248.656 200.099 245.225 191.168C244.972 190.504 243.89 190.795 244.144 191.466Z" fill="#3B3B3B"/>
<path d="M253.825 217.736C252.132 218.78 247.112 221.89 247.396 224.277C247.402 224.398 247.444 224.513 247.518 224.609C247.591 224.705 247.691 224.777 247.806 224.814C249.238 225.351 251.08 224.277 252.348 223.792C254.444 222.994 256.562 222.234 258.629 221.368C260.486 220.622 265.446 218.735 265.341 216.147C265.34 216.051 265.315 215.956 265.266 215.872C265.218 215.789 265.149 215.719 265.065 215.67C262.418 214.544 258.755 215.372 256.115 216.095C255.972 216.135 255.85 216.23 255.776 216.359C255.703 216.488 255.684 216.642 255.723 216.785C255.763 216.928 255.858 217.05 255.987 217.124C256.117 217.197 256.27 217.216 256.413 217.177C257.495 216.878 263.671 215.118 263.402 217.393C263.223 218.885 257.435 220.712 256.286 221.122C255.638 221.376 248.902 224.322 248.612 223.971C248.037 223.27 254.131 218.9 254.444 218.713C255.056 218.333 254.496 217.363 253.877 217.743L253.825 217.736Z" fill="#3B3B3B"/>
<path d="M242.212 181.099L245.196 189.572C245.434 190.243 246.516 189.952 246.277 189.273L243.294 180.8C243.055 180.129 241.973 180.42 242.212 181.099Z" fill="#3B3B3B"/>
<path d="M240.974 182.366C242.104 185.037 243.06 187.777 243.838 190.571C243.887 190.702 243.983 190.81 244.108 190.874C244.233 190.938 244.377 190.952 244.512 190.915C244.647 190.877 244.763 190.79 244.837 190.671C244.911 190.552 244.938 190.41 244.912 190.272C244.101 187.387 243.105 184.556 241.929 181.799C241.645 181.143 240.683 181.71 240.959 182.366H240.974Z" fill="#3B3B3B"/>
<path d="M217.114 158.938C220.843 170.126 226.81 185.14 241.228 182.545C241.936 182.418 241.638 181.336 240.929 181.463C227.28 183.925 221.701 169.037 218.195 158.64C217.964 157.961 216.883 158.252 217.114 158.938Z" fill="#3B3B3B"/>
<path d="M218.158 158.529C218.673 155.344 226.713 152.756 229.219 151.719C233.187 150.071 237.625 148.087 242.003 148.937C242.704 149.079 243.003 147.997 242.294 147.863C237.379 146.901 232.561 149.071 228.123 150.966C225.309 152.142 222.569 153.487 219.918 154.993C218.494 155.821 217.338 156.522 217.062 158.23C216.95 158.939 218.031 159.237 218.143 158.529H218.158Z" fill="#3B3B3B"/>
<path d="M242.003 148.833C244.241 153.942 246.434 159.238 247.806 164.653C249.507 171.366 247.06 175.774 242.496 180.473C241.996 180.987 242.786 181.778 243.294 181.263C247.12 177.325 250.133 173.372 249.514 167.592C248.768 160.983 245.591 154.315 242.965 148.274C242.682 147.61 241.72 148.184 242.003 148.833Z" fill="#3B3B3B"/>
<path d="M218.971 157.977C220.008 160.334 225.385 157.843 226.982 157.343C231.782 155.807 236.341 153.602 240.527 150.795C241.123 150.399 240.564 149.43 239.96 149.832C236.894 151.884 233.625 153.613 230.204 154.994C229.137 155.419 220.56 158.805 219.933 157.395C219.65 156.732 218.68 157.306 218.971 157.955V157.977Z" fill="#3B3B3B"/>
<path d="M243.435 192.101C242.13 194.077 242.928 196.576 243.913 198.552C244.547 199.813 246.15 202.14 247.642 200.454C248.119 199.917 247.329 199.127 246.851 199.664C245.904 200.73 244.33 196.725 244.226 196.397C243.823 195.136 243.629 193.838 244.405 192.667C244.8 192.063 243.838 191.504 243.435 192.101Z" fill="#3B3B3B"/>
<path d="M243.189 198.03C243.935 200.738 244.8 204.206 246.874 206.235C248.522 207.846 249.783 206.16 249.328 204.325C249.288 204.182 249.193 204.06 249.064 203.986C248.934 203.913 248.781 203.894 248.638 203.934C248.494 203.973 248.373 204.068 248.299 204.197C248.226 204.327 248.207 204.48 248.246 204.624C248.179 205.727 247.925 205.936 247.5 205.243C247.171 204.864 246.884 204.452 246.643 204.012C246.26 203.319 245.931 202.599 245.658 201.856C245.136 200.499 244.696 199.119 244.301 197.724C244.261 197.581 244.166 197.459 244.037 197.386C243.907 197.312 243.754 197.293 243.611 197.333C243.467 197.372 243.345 197.467 243.272 197.597C243.199 197.726 243.179 197.879 243.219 198.023L243.189 198.03Z" fill="#3B3B3B"/>
<path d="M244.353 202.729C244.754 204.63 245.293 206.5 245.964 208.323C246.3 209.233 246.792 211.441 247.821 211.829C250.059 212.679 250.059 207.771 249.835 206.682C249.701 205.981 248.619 206.28 248.753 206.981C248.917 207.816 249.186 209.696 248.306 210.203C247.791 210.494 247.821 209.972 247.56 209.39C247.299 208.808 247.113 208.294 246.911 207.742C246.294 206.007 245.796 204.233 245.419 202.431C245.263 201.73 244.189 202.028 244.338 202.729H244.353Z" fill="#3B3B3B"/>
<path d="M248.306 211.187C248.369 211.913 248.534 212.627 248.798 213.306C248.992 213.798 249.253 214.447 249.887 214.447C250.521 214.447 250.752 213.701 250.931 213.179C251.217 212.359 251.429 211.515 251.565 210.658C251.677 209.949 250.596 209.644 250.484 210.36C250.394 210.889 250.29 211.411 250.148 211.933C250.036 212.336 249.895 213.224 249.559 213.492L249.954 213.328C249.954 213.328 249.686 212.493 249.648 212.366C249.536 211.981 249.461 211.587 249.425 211.187C249.358 210.479 248.239 210.442 248.306 211.187Z" fill="#3B3B3B"/>
<path d="M252.229 206.368C252.884 206.506 253.562 206.483 254.206 206.301C255.474 206.148 256.757 206.178 258.017 206.391C258.803 206.47 259.598 206.384 260.349 206.139C261.1 205.894 261.792 205.494 262.38 204.966C262.925 204.504 262.134 203.713 261.582 204.175C259.941 205.563 258.517 205.257 256.54 205.07C255.354 204.966 253.601 205.555 252.52 205.287C252.449 205.268 252.375 205.263 252.302 205.272C252.229 205.282 252.159 205.306 252.095 205.342C252.031 205.379 251.975 205.428 251.931 205.486C251.886 205.544 251.853 205.611 251.834 205.682C251.815 205.753 251.81 205.827 251.819 205.9C251.829 205.973 251.853 206.043 251.889 206.107C251.926 206.171 251.975 206.227 252.033 206.271C252.091 206.316 252.158 206.349 252.229 206.368Z" fill="#3B3B3B"/>
<path d="M261.977 204.593C267.445 209.21 272.912 213.819 278.551 218.22C283.555 222.136 288.635 226.208 294.4 228.953C295.049 229.259 295.616 228.297 294.967 227.983C288.888 225.097 283.503 220.719 278.252 216.579C273.001 212.439 267.944 208.121 262.798 203.802C262.253 203.34 261.455 204.131 262.007 204.593H261.977Z" fill="#3B3B3B"/>
<path d="M294.423 228.975C301.919 230.377 309.034 221.89 313.129 216.698C319.096 209.158 323.84 200.625 328.792 192.406C328.829 192.342 328.854 192.272 328.864 192.198C328.874 192.125 328.869 192.051 328.851 191.98C328.832 191.908 328.799 191.841 328.755 191.783C328.71 191.724 328.654 191.675 328.591 191.637C328.527 191.6 328.457 191.576 328.384 191.566C328.311 191.556 328.236 191.56 328.165 191.579C328.094 191.598 328.027 191.63 327.968 191.675C327.909 191.719 327.86 191.775 327.822 191.839C323.758 198.634 319.737 205.51 315.217 212.022C313.049 215.219 310.598 218.214 307.893 220.972C304.619 224.246 299.793 228.826 294.751 227.879C294.042 227.745 293.744 228.826 294.453 228.96L294.423 228.975Z" fill="#3B3B3B"/>
<path d="M252.751 194.294C253.382 195.559 254.224 196.707 255.242 197.687C255.764 198.195 256.555 197.404 256.033 196.897C255.085 195.982 254.302 194.909 253.721 193.727C253.4 193.085 252.43 193.645 252.751 194.294Z" fill="#3B3B3B"/>
<path d="M331.134 162.9C328.992 168.123 327.472 173.581 326.607 179.16C325.39 186.803 325.46 194.595 326.815 202.215C328.287 209.936 331.145 217.328 335.251 224.031L333.58 247.033C343.457 247.816 353.382 247.766 363.251 246.884C369.47 246.318 375.654 245.425 381.778 244.207C378.944 223.703 377.639 207.987 376.967 196.71C376.505 188.901 376.013 177.549 368.606 167.017C366.637 164.22 363.788 160.267 358.724 157.962C346.38 152.339 332.648 161.826 331.134 162.9Z" fill="#00A79D"/>
<path d="M362.848 177.371L362.997 215.865C361.343 218.839 359.513 221.71 357.515 224.465C355.102 227.756 352.476 230.885 349.654 233.833C344.89 238.839 339.672 243.391 334.065 247.43C332.996 246.551 331.745 245.919 330.403 245.58C324.764 244.178 319.961 248.877 319.499 249.31C317.362 250.235 315.297 251.319 313.323 252.554C310.921 254.046 306.811 256.328 307.147 257.186C307.214 257.357 307.483 257.529 308.378 257.507C308.218 257.769 308.113 258.061 308.071 258.365C308.028 258.669 308.049 258.979 308.132 259.274C308.542 260.296 310.235 260.915 312.137 260.244C312.023 260.54 311.978 260.857 312.007 261.173C312.035 261.489 312.136 261.793 312.301 262.064C312.898 262.705 314.21 262.355 314.867 262.168C318.737 260.934 322.541 259.5 326.264 257.872C329.351 256.627 328.889 257.268 334.96 255.194C335.453 255.03 338.981 253.815 341.949 252.591C347.5 250.22 352.779 247.257 357.694 243.753C362.52 240.652 366.997 237.039 371.045 232.975C373.059 230.924 374.618 229.074 375.722 227.709C376.072 223.652 376.468 220.333 376.721 218.065C379.033 199.098 380.891 188.924 380.891 188.924C381.579 185.933 381.813 182.856 381.584 179.795C381.338 177.162 380.838 172.336 377.228 168.54C376.02 167.265 374.073 165.199 370.978 164.848C366.272 164.311 362.863 168.175 362.46 168.644C362.6 171.538 362.729 174.447 362.848 177.371Z" fill="white"/>
<path opacity="0.25" d="M377.944 168.703C378.012 172.895 377.997 179.145 377.572 186.708C376.55 204.915 375.931 214.178 370.859 222.42C367.502 227.887 363.161 231.221 354.487 237.889C346.506 244.028 339.413 247.817 330.381 252.59C322.87 256.558 316.448 259.527 311.868 261.541C312.455 261.987 313.146 262.277 313.875 262.384C315.277 262.563 316.329 261.929 317.828 261.205C319.327 260.482 320.811 260.064 322.266 259.385C326.338 257.491 332.059 256.141 334.132 255.462C345.925 251.628 356.031 244.856 357.687 243.737C364.37 239.198 370.43 233.804 375.714 227.694C376.46 222.413 377.117 218.035 377.542 214.947C380.592 192.936 379.302 198.083 380.525 190.766C381.405 185.649 382.017 183.143 381.51 179.115C381.021 175.443 379.809 171.904 377.944 168.703Z" fill="#9E9E9E"/>
<path d="M362.043 168.218C362.54 184.09 362.672 199.964 362.438 215.841C362.438 215.989 362.497 216.132 362.602 216.237C362.707 216.341 362.849 216.4 362.997 216.4C363.146 216.4 363.288 216.341 363.393 216.237C363.498 216.132 363.557 215.989 363.557 215.841C363.78 199.964 363.649 184.09 363.161 168.218C363.161 167.472 362.02 167.472 362.043 168.218Z" fill="#3B3B3B"/>
<path d="M363.721 215.245C358.895 220.467 355.323 226.784 350.489 232.087C345.45 237.596 339.853 242.567 333.789 246.922C333.208 247.34 333.789 248.31 334.349 247.892C340.157 243.727 345.545 239.006 350.437 233.795C355.621 228.238 359.387 221.593 364.512 216.036C364.996 215.507 364.213 214.716 363.721 215.245Z" fill="#3B3B3B"/>
<path d="M334.461 247.116C330.075 242.879 324.22 245.52 319.722 248.07C319.096 248.421 319.663 249.391 320.289 249.033C324.294 246.758 329.68 244.058 333.67 247.906C334.185 248.406 334.975 247.615 334.461 247.116Z" fill="#3B3B3B"/>
<path d="M320.371 248.264C316.105 250.255 311.279 252.418 307.617 255.431C305.849 256.878 306.767 258.527 308.937 258.31C309.683 258.236 309.683 257.117 308.937 257.192C306.916 257.393 310.354 254.954 310.735 254.738C311.824 254.052 312.935 253.395 314.054 252.761C316.291 251.486 318.603 250.322 320.938 249.233C321.594 248.928 321.02 247.965 320.371 248.264Z" fill="#3B3B3B"/>
<path d="M318.104 252.47C314.747 253.88 308.795 255.118 307.595 259.109C307.564 259.228 307.571 259.353 307.617 259.467C307.663 259.582 307.744 259.678 307.848 259.743C309.206 260.75 311.212 260.489 312.801 260.31C315.034 260.016 317.187 259.281 319.133 258.146C319.76 257.796 319.193 256.826 318.566 257.184C317.023 258.081 315.342 258.716 313.591 259.064C312.898 259.191 307.535 259.922 309.579 257.803C311.622 255.685 315.657 254.701 318.395 253.552C319.051 253.276 318.768 252.194 318.104 252.47Z" fill="#3B3B3B"/>
<path d="M308.691 259.944C312 258.106 315.486 256.607 319.096 255.469C319.775 255.253 319.484 254.172 318.797 254.388C315.096 255.567 311.522 257.116 308.132 259.012C307.498 259.363 308.065 260.332 308.691 259.982V259.944Z" fill="#3B3B3B"/>
<path d="M319.222 256.744C317.626 257.169 309.84 259.623 311.689 262.182C312.771 263.673 315.463 262.562 316.709 262.1C320.162 260.817 323.593 259.474 327.039 258.161C327.703 257.908 327.412 256.826 326.741 257.08C323.481 258.326 320.222 259.579 316.955 260.809C316.312 261.129 315.637 261.379 314.941 261.555L312.704 261.205L314.195 260.116C315.837 259.073 317.635 258.3 319.521 257.826C319.652 257.777 319.76 257.681 319.824 257.556C319.888 257.431 319.902 257.287 319.865 257.152C319.827 257.017 319.74 256.901 319.621 256.827C319.503 256.753 319.36 256.726 319.222 256.752V256.744Z" fill="#3B3B3B"/>
<path d="M327.718 258.408C345.672 253.17 361.945 243.33 374.924 229.864C375.431 229.342 374.64 228.551 374.133 229.074C361.292 242.404 345.188 252.144 327.42 257.327C327.276 257.366 327.154 257.461 327.081 257.591C327.007 257.72 326.988 257.873 327.028 258.017C327.068 258.16 327.162 258.282 327.292 258.355C327.421 258.429 327.575 258.448 327.718 258.408Z" fill="#3B3B3B"/>
<path d="M365.75 166.488C372.53 162.759 378.825 168.726 380.436 175.118C381.86 180.786 380.592 186.91 379.861 192.586L375.423 227.157C375.334 227.902 376.453 227.865 376.542 227.157L379.526 203.617C380.488 196.159 382.069 188.454 382.106 180.906C382.106 175.767 380.853 170.091 376.677 166.682C375.097 165.345 373.149 164.519 371.091 164.313C369.032 164.106 366.959 164.529 365.145 165.526C364.519 165.876 365.078 166.839 365.712 166.488H365.75Z" fill="#3B3B3B"/>
<path d="M312.823 114.873C311.118 119.99 310.264 125.352 310.295 130.745C310.347 136.951 310.474 151.63 319.677 156.247C325.823 159.305 333.066 156.388 336.124 154.911L339.465 160.267C341.839 160.014 344.166 159.431 346.379 158.536C348.222 157.79 357.664 153.681 361.058 143.38C362.639 138.577 363.989 129.134 359.492 125.48C357.493 123.839 354.107 123.16 353.719 120.669C353.517 119.378 354.308 118.812 354.084 117.685C353.547 115 348.445 113.881 347.103 113.591C337.504 111.442 317.276 114.232 312.823 114.873Z" fill="white"/>
<path opacity="0.29" d="M340.949 123.742C342.658 126.195 343.715 129.041 344.022 132.014C344.229 135.528 343.454 139.029 341.785 142.128C337.026 151.697 327.263 155.367 327.763 156.344C327.957 156.725 329.612 156.516 335.691 154.181C336.28 155.166 336.877 156.143 337.466 157.12C340.695 156.917 343.857 156.112 346.79 154.748C356.255 150.318 359.708 141.524 360.499 139.301C361.856 135.467 363.206 131.663 361.543 128.359C359.089 123.452 350.735 121.281 340.949 123.742Z" fill="#9E9E9E"/>
<path d="M329.344 106.013C328.173 112.614 330.209 116.545 331.074 117.947C335.326 124.891 346.469 128.643 352.503 126.77C353.249 126.547 355.024 125.883 356.374 126.77C358.253 127.971 358.015 131.335 357.97 131.947C357.937 133.073 357.657 134.178 357.15 135.184C356.644 136.191 355.923 137.074 355.039 137.772C353.402 138.914 351.38 139.359 349.415 139.01C349.161 140.456 348.728 141.864 348.125 143.202C346.527 146.632 343.95 149.513 340.718 151.481C340.246 152.904 340.204 154.435 340.599 155.882C341.822 160.103 347.312 163.116 354.271 162.975C360.618 167.032 368.188 167.666 372.962 164.362C379.794 159.618 381.569 146.312 372.619 136.497C372.545 128.108 370.017 119.925 365.347 112.957C361.893 107.922 355.718 98.9124 345.619 98.5917C337.131 98.3083 330.97 104.32 329.344 106.013Z" fill="#606161"/>
<path d="M337.31 108.959C330.263 115.139 321.629 119.228 312.383 120.766C311.649 123.865 311.33 127.048 311.436 130.231C311.476 134.864 312.557 139.43 314.598 143.589C315.859 146.11 318.596 151.562 324.682 154.643C326.04 155.331 327.475 155.857 328.956 156.209L334.886 154.658C336.417 156.527 337.944 158.397 339.465 160.267C337.915 162.863 335.748 165.036 333.155 166.592C325.816 170.91 316.269 168.77 310.309 164.168C307.789 162.205 305.738 159.706 304.305 156.851C298.1 159.648 295.057 159.051 293.431 157.865C286.427 152.793 292.64 127.784 306.774 112.032C310.541 107.832 319.416 97.9423 332.133 97.823C334.982 97.8022 337.814 98.2508 340.517 99.1506L337.31 108.959Z" fill="#606161"/>
<path d="M312.174 119.23C308.758 133.506 312.696 149.967 327.054 156.463C327.703 156.762 328.27 155.8 327.613 155.501C313.71 149.206 309.944 133.357 313.256 119.528C313.42 118.827 312.346 118.529 312.174 119.23Z" fill="#3B3B3B"/>
<path d="M327.793 156.903C336.9 155.904 348.617 149.385 349.855 139.323C349.945 138.577 348.818 138.577 348.736 139.323C347.58 148.699 336.206 154.859 327.793 155.784C327.084 155.859 327.047 156.978 327.793 156.903Z" fill="#3B3B3B"/>
<path d="M349.132 139.48C353.846 141.479 357.336 136.742 358.38 132.625C359.283 128.978 356.546 123.391 352.227 126.3C351.63 126.695 352.19 127.665 352.786 127.262C355.263 125.599 357.433 128.008 357.538 130.417C357.523 131.712 357.218 132.987 356.643 134.147C355.479 136.839 353.07 139.905 349.699 138.473C349.042 138.197 348.475 139.159 349.132 139.442V139.48Z" fill="#3B3B3B"/>
<path d="M335.639 155.195C336.52 157.17 337.675 159.01 339.07 160.663C339.533 161.215 340.323 160.416 339.861 159.872C338.538 158.291 337.441 156.534 336.601 154.651C336.31 153.995 335.348 154.561 335.639 155.218V155.195Z" fill="#3B3B3B"/>
<path d="M323.705 125.495C323.073 130.982 323.032 136.521 323.586 142.016C323.588 142.114 323.615 142.21 323.664 142.294C323.714 142.378 323.785 142.448 323.87 142.497C323.955 142.546 324.051 142.572 324.149 142.573C324.247 142.573 324.343 142.549 324.429 142.501C325.801 141.606 326.982 140.447 327.904 139.092C328.315 138.503 327.345 137.944 326.935 138.525C326.135 139.728 325.088 140.746 323.862 141.509L324.705 141.994C324.151 136.498 324.191 130.96 324.824 125.473C324.906 124.764 323.787 124.764 323.705 125.473V125.495Z" fill="#3B3B3B"/>
<path d="M325.01 146.297C328.904 149.736 333.498 144.201 335.057 140.949C335.37 140.3 334.401 139.734 334.095 140.382C332.917 142.829 329.008 148.341 325.801 145.507C325.264 145.037 324.466 145.82 325.01 146.297Z" fill="#3B3B3B"/>
<path d="M316.575 123.405C316.768 123.046 317.05 122.742 317.394 122.522C317.738 122.303 318.133 122.176 318.541 122.154C318.948 122.131 319.354 122.214 319.721 122.394C320.087 122.574 320.401 122.845 320.632 123.182C321.05 123.756 322.027 123.182 321.602 122.615C321.267 122.12 320.811 121.72 320.278 121.45C319.746 121.18 319.153 121.05 318.556 121.073C317.96 121.095 317.378 121.269 316.867 121.578C316.356 121.887 315.932 122.321 315.635 122.838C315.598 122.902 315.573 122.972 315.563 123.046C315.553 123.119 315.558 123.193 315.576 123.264C315.595 123.336 315.628 123.403 315.672 123.461C315.717 123.52 315.773 123.569 315.836 123.607C315.9 123.644 315.97 123.668 316.043 123.678C316.116 123.688 316.191 123.684 316.262 123.665C316.333 123.646 316.4 123.614 316.459 123.569C316.518 123.525 316.567 123.469 316.604 123.405H316.575Z" fill="#3B3B3B"/>
<path d="M327.919 122.279C328.605 121.623 329.411 120.854 330.44 120.907C331.47 120.959 331.932 121.727 332.469 122.465C332.879 123.055 333.849 122.465 333.439 121.899C332.752 120.929 331.947 119.892 330.679 119.765C329.269 119.616 328.083 120.578 327.129 121.488C326.607 121.988 327.397 122.779 327.919 122.279Z" fill="#3B3B3B"/>
<path d="M316.97 139.859C317.118 139.859 317.261 139.8 317.366 139.695C317.47 139.59 317.529 139.448 317.529 139.3C317.529 139.151 317.47 139.009 317.366 138.904C317.261 138.799 317.118 138.74 316.97 138.74C316.822 138.74 316.679 138.799 316.574 138.904C316.47 139.009 316.411 139.151 316.411 139.3C316.411 139.448 316.47 139.59 316.574 139.695C316.679 139.8 316.822 139.859 316.97 139.859Z" fill="#3B3B3B"/>
<path d="M320.2 139.017C320.348 139.017 320.49 138.958 320.595 138.853C320.7 138.748 320.759 138.606 320.759 138.458C320.759 138.309 320.7 138.167 320.595 138.062C320.49 137.957 320.348 137.898 320.2 137.898C320.051 137.898 319.909 137.957 319.804 138.062C319.699 138.167 319.64 138.309 319.64 138.458C319.64 138.606 319.699 138.748 319.804 138.853C319.909 138.958 320.051 139.017 320.2 139.017Z" fill="#3B3B3B"/>
<path d="M319.073 141.97C319.222 141.97 319.364 141.911 319.469 141.807C319.574 141.702 319.633 141.559 319.633 141.411C319.633 141.263 319.574 141.12 319.469 141.015C319.364 140.911 319.222 140.852 319.073 140.852C318.925 140.852 318.783 140.911 318.678 141.015C318.573 141.12 318.514 141.263 318.514 141.411C318.514 141.559 318.573 141.702 318.678 141.807C318.783 141.911 318.925 141.97 319.073 141.97Z" fill="#3B3B3B"/>
<path d="M333.58 137.048C333.729 137.048 333.871 136.99 333.976 136.885C334.081 136.78 334.14 136.637 334.14 136.489C334.14 136.341 334.081 136.198 333.976 136.094C333.871 135.989 333.729 135.93 333.58 135.93C333.432 135.93 333.29 135.989 333.185 136.094C333.08 136.198 333.021 136.341 333.021 136.489C333.021 136.637 333.08 136.78 333.185 136.885C333.29 136.99 333.432 137.048 333.58 137.048Z" fill="#3B3B3B"/>
<path d="M336.78 135.22C336.928 135.22 337.071 135.161 337.176 135.057C337.281 134.952 337.339 134.809 337.339 134.661C337.339 134.513 337.281 134.37 337.176 134.265C337.071 134.16 336.928 134.102 336.78 134.102C336.632 134.102 336.489 134.16 336.385 134.265C336.28 134.37 336.221 134.513 336.221 134.661C336.221 134.809 336.28 134.952 336.385 135.057C336.489 135.161 336.632 135.22 336.78 135.22Z" fill="#3B3B3B"/>
<path d="M336.221 137.89C336.369 137.89 336.511 137.831 336.616 137.726C336.721 137.622 336.78 137.479 336.78 137.331C336.78 137.183 336.721 137.04 336.616 136.935C336.511 136.83 336.369 136.771 336.221 136.771C336.072 136.771 335.93 136.83 335.825 136.935C335.72 137.04 335.661 137.183 335.661 137.331C335.661 137.479 335.72 137.622 335.825 137.726C335.93 137.831 336.072 137.89 336.221 137.89Z" fill="#3B3B3B"/>
<path d="M318.022 134.661C318.602 134.661 319.073 133.612 319.073 132.319C319.073 131.025 318.602 129.977 318.022 129.977C317.441 129.977 316.97 131.025 316.97 132.319C316.97 133.612 317.441 134.661 318.022 134.661Z" fill="#3B3B3B"/>
<path d="M331.045 133.75C331.625 133.75 332.096 132.702 332.096 131.408C332.096 130.115 331.625 129.066 331.045 129.066C330.464 129.066 329.993 130.115 329.993 131.408C329.993 132.702 330.464 133.75 331.045 133.75Z" fill="#3B3B3B"/>
</g>
<defs>
<clipPath id="clip0_5589_11015">
<rect width="504" height="399" fill="white" transform="translate(0.156738 0.861328)"/>
</clipPath>
</defs>
</svg>
